<svg id="Layer_1" data-name="Layer 1" xmlns="http://www.w3.org/2000/svg" viewBox="0 0 1080 1080"><defs><style>.cls-1{fill:#662f8e;}</style></defs><g id="Both"><path class="cls-1" d="M995.66,387.4a80.49,80.49,0,0,0,15.08-42,82.21,82.21,0,0,0-8.66-43.81,61.3,61.3,0,0,0-27.92-27c-7.07-30-28.57-52.15-56.33-55.36C904.67,191.94,880.76,174,853,174l-3.37.16c-6.74.16-13,2.08-19.1,4.33-14.92-22.14-37.07-36.27-62.26-36.27l-3.85.17A69.77,69.77,0,0,0,728,155.68c-22.14-29.85-53.76-46.54-87-41.41-53.76,8.67-85.7,68.36-74.3,139.13,5.77,36,22.3,65.79,44,85.53a94.15,94.15,0,0,0-15.89,38C581,455.12,638.29,503.42,676,535.35c8.5,7.22,16.69,13.8,23.11,20.7,23.26,23.91,27.12,63.71,9,88.58a63.43,63.43,0,0,1-5.93,7.54C675.52,684.43,604.43,770.28,632,863.52c15.89,53.27,52.8,86.33,109.76,98.2a221,221,0,0,0,45.57,5c86,0,139-59.54,141.86-159.67,1.13-38.35,7.06-68.2,18.94-94.68C987,624.09,1050.06,480.63,995.66,387.4ZM932,339.74c.8-14.45,9-25.52,18-24.88s15.25,12.84,14.29,27.28c-1.13,14.45-9.15,25.52-18.14,24.88C937.25,366.37,930.83,354.34,932,339.74Zm-42.52-43.17c1.44-18,11.39-31.93,22.62-31.29,11.07.8,19.1,16,17.82,34.18s-11.4,32.09-22.47,31.29S888.3,314.7,889.43,296.57Zm-37.23-75.9c15.08-.81,28.4,18.45,29.69,42.68,1.28,24.55-9.8,44.93-25,45.9-15.08.64-28.24-18.46-29.69-42.85C825.88,241.85,837.11,221.47,852.2,220.67Zm-85.05-31.62c18.61-1,35,22.63,36.58,52.64,1.77,30-12.19,55.36-30.81,56.16-18.45,1.13-34.82-22.46-36.42-52.47C734.73,215.37,748.53,190,767.15,189.05ZM612.93,246c-6.9-42.85,9-81.36,35.63-85.53,26.47-4.17,53.6,27.12,60.5,70,6.9,43-9,81.36-35.63,85.54C647,320.32,619.83,289,612.93,246ZM905.47,693.74c-16.2,35.46-21.82,73.17-23.11,112-1.12,41.4-13.63,134.63-131.1,110.4C716,908.61,689,890.64,677,850.36c-23.59-79.44,55.85-159.83,69.16-178.13,31.94-44.13,25.36-108.64-13.47-148.75C699.11,489,629.14,451.74,640.7,384.83c14.11-80.08,218.88-87,305,12.35C1004,464.58,944.63,604.51,905.47,693.74Z"/><path class="cls-1" d="M905.47,693.74c-16.2,35.46-21.82,73.17-23.11,112-1.12,41.4-13.63,134.63-131.1,110.4C716,908.61,689,890.64,677,850.36c-23.59-79.44,55.85-159.83,69.16-178.13,31.94-44.13,25.36-108.64-13.47-148.75C699.11,489,629.14,451.74,640.7,384.83c14.11-80.08,218.88-87,305,12.35C1004,464.58,944.63,604.51,905.47,693.74Z"/><path class="cls-1" d="M513.28,253.4c4.81-29.2,1.93-58.57-8.18-82.64-13-31.13-36.91-51.83-66.12-56.49-33.06-5.29-64.83,11.4-86.81,41.41-10.76-7.55-22.95-12.52-36.75-13.32l-3.69-.17c-25,0-47.18,14-62.27,36.27A63.74,63.74,0,0,0,230.53,174l-3.53-.16c-27.76,0-51.67,18.13-64.67,45.41-27.76,3.21-49.11,24.87-56.33,54.56a59.35,59.35,0,0,0-19.25,14.93c-12.52,14.44-18.94,35.14-17.5,56.64,1.29,16.37,6.74,30.65,15.09,42C29.94,480.47,93,624.09,132,712.83c11.71,26,17.81,56,18.93,94.36,2.89,99.81,56,159.51,142,159.51a220.6,220.6,0,0,0,45.41-5C395.17,950,432.24,917,448,863.68c27.76-93.4-43.17-179.25-70-211.51-2.57-3.2-4.81-5.77-6.1-7.38-18.13-25-14-64.83,9.15-88.74,6.58-6.74,14.6-13.48,23.11-20.7,37.71-31.93,94.84-80.23,81.2-158.55-2.41-13.8-8.19-26.47-15.89-37.87C491.13,319.36,507.5,289.35,513.28,253.4ZM313,189.05c18.62,1.13,32.26,26.16,30.49,56.33-1.44,30.17-18,53.6-36.43,52.63-18.77-1-32.41-26.31-30.81-56.32C278,211.52,294.24,187.93,313,189.05Zm-85,31.62c14.92.8,26.32,21.34,24.87,45.73-1.28,24.39-14.6,43.49-29.68,42.69-15.25-.81-26.32-21.19-24.88-45.74C199.56,239,212.88,219.86,228,220.67ZM168.1,265.28c11.08-.81,21.19,13.32,22.47,31.29,1.29,18.13-6.74,33.22-18,34.18-11.08.8-21-13.32-22.47-31.29C148.85,281.48,156.87,266.08,168.1,265.28ZM130.23,314.7c9-.48,17,10.75,18,25s-5.46,26.63-14.45,27.28c-8.82.64-16.85-10.6-17.81-25C115,327.7,121.41,315.34,130.23,314.7ZM347.35,523.64C308.52,563.43,302.1,628.1,334,672.23c13.16,18.3,92.59,98.69,69,178-12,40.44-38.84,58.57-74.3,65.79-117.63,24.55-130-68.84-131.11-110.24-1.12-38.68-7.06-76.55-22.95-112.17C135.37,604.35,76,464.74,134.25,397.18c86.17-99.33,291.09-92.27,304.89-12.19C450.86,451.58,380.89,489,347.35,523.64ZM467.22,246c-7.06,42.85-34.18,74.3-60.65,70-26.64-4.34-42.37-42.53-35.63-85.54,6.9-43,34.18-74.29,60.66-70C458.08,164.66,474,203,467.22,246Z"/><path class="cls-1" d="M334,672.23c13.16,18.3,92.59,98.69,69,178-12,40.44-38.84,58.57-74.3,65.79-117.63,24.55-130-68.84-131.11-110.24-1.12-38.68-7.06-76.55-22.95-112.17C135.37,604.35,76,464.74,134.25,397.18c86.17-99.33,291.09-92.27,304.89-12.19,11.72,66.59-58.25,104-91.79,138.65C308.52,563.43,302.1,628.1,334,672.23Z"/></g></svg>