<svg id="Layer_1" data-name="Layer 1" xmlns="http://www.w3.org/2000/svg" viewBox="0 0 1080 1080"><defs><style>.cls-1{fill:#9e9ea7;}</style></defs><g id="Left"><path d="M995.69,387.43a81.29,81.29,0,0,0,15.06-42.18,82.54,82.54,0,0,0-8.67-43.67,62.06,62.06,0,0,0-27.85-27.08c-7.16-30-28.62-52.07-56.48-55.25-13.08-27.29-37-45.36-64.68-45.36l-3.5.15c-6.71.27-12.94,2.09-19,4.4-14.91-22.21-37.14-36.23-62.26-36.23l-3.8.15c-13.55.78-25.88,5.76-36.53,13.25-22.07-29.86-53.73-46.56-86.91-41.43-53.73,8.7-85.7,68.5-74.29,139.17,5.79,35.92,22.23,65.89,44,85.52a94.81,94.81,0,0,0-16,38.07C581.06,455.13,638.3,503.43,676,535.37c8.53,7.18,16.59,13.83,23,20.69,23.29,23.93,27.24,63.63,9.13,88.6-1.22,1.83-3.35,4.26-5.93,7.46-26.79,32.26-97.87,118.12-70.17,211.42,15.82,53.27,52.81,86.31,109.74,98.17a222.46,222.46,0,0,0,45.51,5c86,0,139-59.67,141.86-159.67,1.22-38.36,7.16-68.19,19-94.67,38.81-88.28,101.83-231.81,47.49-325Zm-45.81-72.61c8.82.59,15.21,12.78,14.3,27.23s-9.13,25.56-18.11,25-15.22-12.79-14.16-27.28,9-25.58,18-24.95ZM912,265.33c11.11.78,19.18,16,18,34.1-1.38,18.13-11.43,32.15-22.53,31.22-11.12-.74-19.18-16-18-34.1,1.38-18,11.42-32,22.53-31.22ZM852.15,220.6c15.07-.78,28.47,18.44,29.68,42.78,1.37,24.48-9.74,44.89-25,45.79s-28.31-18.38-29.68-42.74c-1.37-24.53,9.89-44.94,25-45.83Zm-85.08-31.53c18.72-1,35,22.53,36.68,52.53S791.57,297,773,297.9c-18.57,1.1-34.85-22.5-36.53-52.47-1.67-30.16,12-55.41,30.6-56.36ZM612.88,246c-6.85-42.89,9-81.28,35.62-85.52,26.48-4.25,53.73,27.07,60.57,70s-9,81.29-35.61,85.53c-26.48,4.25-53.58-27.1-60.58-70ZM905.43,693.67c-16.14,35.47-21.76,73.21-23,112-1.21,41.4-13.69,134.71-131.2,110.35C715.93,908.59,689,890.63,677,850.3c-23.6-79.45,55.86-159.82,69.1-178.09,32-44.15,25.42-108.66-13.39-148.73-33.49-34.52-103.5-71.8-91.94-138.62,14-80.08,218.88-87,305,12.31,58.3,67.45-1.06,207.3-40.33,296.5Zm0,0"/><path class="cls-1" d="M513.28,253.38c4.81-29.2,1.92-58.57-8.19-82.64-13-31.13-36.9-51.83-66.11-56.49-33.06-5.29-64.83,11.4-86.81,41.4-10.76-7.54-22.95-12.51-36.75-13.32l-3.69-.16c-25,0-47.18,14-62.27,36.27A63.82,63.82,0,0,0,230.53,174l-3.53-.16c-27.76,0-51.67,18.13-64.67,45.41-27.77,3.21-49.11,24.87-56.33,54.56a59.49,59.49,0,0,0-19.26,14.93c-12.51,14.44-18.93,35.14-17.49,56.64,1.29,16.37,6.74,30.65,15.09,42C29.94,480.45,93,624.07,132,712.81c11.71,26,17.81,56,18.93,94.36,2.89,99.81,56,159.51,142,159.51a220.6,220.6,0,0,0,45.41-5c56.81-11.71,93.88-44.77,109.61-98,27.76-93.4-43.17-179.25-70-211.51-2.57-3.21-4.81-5.77-6.1-7.38-18.13-25-14-64.83,9.15-88.74,6.58-6.74,14.6-13.48,23.11-20.7,37.71-31.93,94.84-80.24,81.2-158.55-2.41-13.8-8.19-26.47-15.89-37.87C491.13,319.33,507.5,289.33,513.28,253.38ZM313,189c18.61,1.13,32.25,26.16,30.49,56.33-1.45,30.17-18,53.6-36.43,52.63-18.77-1-32.41-26.31-30.81-56.32C278,211.5,294.23,187.91,313,189Zm-85,31.62c14.92.8,26.32,21.34,24.87,45.73-1.28,24.39-14.6,43.49-29.68,42.69-15.25-.81-26.32-21.19-24.88-45.74C199.56,238.94,212.88,219.84,228,220.65ZM168.1,265.26c11.08-.81,21.18,13.32,22.47,31.29,1.28,18.13-6.74,33.22-18,34.18-11.08.8-21-13.32-22.47-31.29C148.85,281.46,156.87,266.06,168.1,265.26Zm-37.87,49.42c9-.48,17,10.75,18,25s-5.45,26.63-14.44,27.28c-8.82.64-16.85-10.6-17.81-25C115,327.68,121.41,315.32,130.23,314.68ZM347.35,523.62C308.52,563.41,302.1,628.08,334,672.21c13.16,18.3,92.59,98.69,69,178-12,40.44-38.83,58.57-74.29,65.79-117.63,24.55-130-68.84-131.11-110.24-1.12-38.68-7.06-76.55-22.95-112.17C135.37,604.33,76,464.72,134.24,397.16c86.18-99.33,291.1-92.27,304.9-12.19C450.85,451.56,380.89,489,347.35,523.62ZM467.22,246c-7.06,42.85-34.18,74.3-60.66,70s-42.36-42.53-35.62-85.54c6.9-43,34.18-74.29,60.66-70C458.07,164.64,474,203,467.22,246Z"/><path class="cls-1" d="M334,672.21c13.16,18.3,92.59,98.69,69,178-12,40.44-38.83,58.57-74.29,65.79-117.63,24.55-130-68.84-131.11-110.24-1.12-38.68-7.06-76.55-22.95-112.17C135.37,604.33,76,464.72,134.24,397.16c86.18-99.33,291.1-92.27,304.9-12.19,11.71,66.59-58.25,104-91.79,138.65C308.52,563.41,302.1,628.08,334,672.21Z"/></g></svg>