<svg id="Layer_1" data-name="Layer 1" xmlns="http://www.w3.org/2000/svg" viewBox="0 0 1080 1080"><defs><style>.cls-1{fill:#662f8e;}</style></defs><g id="Right"><path class="cls-1" d="M995.63,387.37a80.43,80.43,0,0,0,15.09-42,82.21,82.21,0,0,0-8.67-43.81,61.3,61.3,0,0,0-27.92-27c-7.06-30-28.56-52.15-56.32-55.36C904.65,191.92,880.74,174,853,174l-3.37.16c-6.74.16-13,2.08-19.09,4.33-14.93-22.14-37.07-36.27-62.27-36.27l-3.85.16A69.91,69.91,0,0,0,728,155.65c-22.15-29.84-53.76-46.53-87-41.4-53.76,8.67-85.69,68.36-74.3,139.13,5.78,35.95,22.31,65.79,44,85.53a94.31,94.31,0,0,0-15.89,38C581,455.09,638.26,503.4,676,535.33c8.51,7.22,16.69,13.8,23.11,20.7,23.27,23.91,27.12,63.71,9,88.58a64.57,64.57,0,0,1-5.94,7.54C675.49,684.41,604.4,770.26,632,863.5c15.89,53.27,52.8,86.33,109.77,98.2a220.91,220.91,0,0,0,45.57,5c86,0,139-59.54,141.86-159.67,1.12-38.35,7.06-68.2,18.93-94.68C987,624.07,1050,480.61,995.63,387.37Zm-63.71-47.65c.81-14.45,9-25.52,18-24.88,8.82.64,15.24,12.84,14.28,27.28-1.12,14.44-9.15,25.52-18.13,24.88C937.22,366.35,930.8,354.32,931.92,339.72ZM889.4,296.55c1.45-18,11.39-31.94,22.63-31.29,11.07.8,19.09,16,17.81,34.18s-11.39,32.09-22.47,31.29S888.28,314.68,889.4,296.55Zm-37.23-75.9c15.08-.81,28.4,18.45,29.69,42.68,1.28,24.55-9.79,44.93-25,45.89-15.09.65-28.25-18.45-29.69-42.84C825.85,241.83,837.09,221.45,852.17,220.65Zm-85-31.62c18.62-1,35,22.63,36.59,52.64S791.51,297,772.9,297.83c-18.46,1.13-34.82-22.46-36.43-52.47C734.7,215.35,748.51,190,767.12,189ZM612.91,246c-6.9-42.85,9-81.36,35.62-85.53,26.48-4.17,53.6,27.12,60.5,70,6.9,43-9,81.36-35.63,85.54C646.93,320.3,619.81,289,612.91,246ZM905.45,693.72c-16.21,35.46-21.83,73.17-23.11,112-1.12,41.41-13.64,134.64-131.11,110.41-35.3-7.54-62.26-25.51-74.29-65.79-23.59-79.44,55.84-159.83,69.16-178.13,31.93-44.13,25.35-108.64-13.48-148.75-33.54-34.51-103.5-71.74-92-138.65,14.12-80.08,218.88-87,305.06,12.35C1004,464.56,944.6,604.49,905.45,693.72Z"/><path class="cls-1" d="M905.45,693.72c-16.21,35.46-21.83,73.17-23.11,112-1.12,41.41-13.64,134.64-131.11,110.41-35.3-7.54-62.26-25.51-74.29-65.79-23.59-79.44,55.84-159.83,69.16-178.13,31.93-44.13,25.35-108.64-13.48-148.75-33.54-34.51-103.5-71.74-92-138.65,14.12-80.08,218.88-87,305.06,12.35C1004,464.56,944.6,604.49,905.45,693.72Z"/><path d="M439,114.31C406,109,374.13,125.69,352.08,155.69c-10.64-7.58-22.83-12.63-36.66-13.41l-3.67-.15c-25.14,0-47.19,14-62.26,36.25a65.3,65.3,0,0,0-19-4.42l-3.51-.15c-27.7,0-51.6,18.13-64.69,45.35-27.7,3.2-49,25-56.3,54.63a62.25,62.25,0,0,0-19.33,14.94c-12.5,14.46-18.89,35.14-17.37,56.6a80.87,80.87,0,0,0,15.07,42C30,480.52,93,624,132,712.78c11.68,26,17.81,56,18.86,94.37,2.89,99.86,56,159.52,142,159.52a223.39,223.39,0,0,0,45.47-5c56.81-11.72,93.79-44.76,109.61-98,27.71-93.31-43.2-179.16-70-211.43-2.59-3.2-4.72-5.78-6.09-7.45-18.11-25-14-64.84,9.13-88.74,6.54-6.7,14.61-13.39,23.13-20.7,37.75-32,94.85-80.2,81.13-158.45C483,363,477.2,350.37,469.43,339c21.6-19.66,38-49.61,43.84-85.54,4.72-29.23,1.84-58.61-8.22-82.66-12.94-31.2-37-51.88-66-56.45ZM313,189c18.57,1.09,32.25,26.18,30.58,56.33C342,275.46,325.58,298.93,307,298c-18.74-1-32.42-26.29-30.74-56.29S294.26,188,313,189ZM227.9,220.69c15,.77,26.29,21.31,24.94,45.67s-14.61,43.52-29.7,42.78c-15.2-.93-26.3-21.31-24.94-45.83,1.36-24.34,14.61-43.52,29.7-42.62ZM168,265.31c11.15-.78,21.15,13.19,22.56,31.32,1.2,18-6.86,33.19-18,34.09s-21.15-13.25-22.56-31.32c-1.2-18,6.69-33.35,18-34.09Zm-37.88,49.44c9-.63,17,10.64,18,25s-5.34,26.59-14.34,27.22c-8.81.63-16.88-10.53-17.81-25-1-14.29,5.35-26.6,14.18-27.23ZM347.37,523.58C308.54,563.46,302,628.16,334,672.15c13.24,18.41,92.69,98.78,69.12,178.08-12,40.34-39,58.45-74.32,65.75-117.64,24.52-130-68.79-131.19-110.19-1.06-38.82-7-76.57-23-112.18C135.35,604.41,76,464.68,134.27,397.23c86.15-99.39,291-92.36,304.85-12.3,11.74,66.66-58.29,104-91.75,138.65ZM467.15,245.93c-7,43-34.1,74.32-60.6,70s-42.43-42.48-35.62-85.53,34.1-74.28,60.6-70S474,203,467.15,245.93Zm0,0"/></g></svg>