<?xml version="1.0" encoding="utf-8"?>
<!-- Generator: Adobe Illustrator 24.1.1, SVG Export Plug-In . SVG Version: 6.00 Build 0)  -->
<svg version="1.1" id="Layer_1" xmlns="http://www.w3.org/2000/svg" xmlns:xlink="http://www.w3.org/1999/xlink" x="0px" y="0px"
	 viewBox="0 0 1080 1080" style="enable-background:new 0 0 1080 1080;" xml:space="preserve">
<g id="Torque_T">
	<path id="Legs" d="M572.56,939.27c-0.41,1.37-0.85,2.75-1.33,4.12c-5.15,14.67-13.51,28.21-24.44,39.28
		c-1.57,1.59-3.31,3.2-5.49,3.69c-3.99,0.89-7.7-2.19-10.49-5.18c-10.46-11.22-18.59-24.7-23.33-39.31
		c-5.07-15.62-4.95-31.67-4.19-47.89c0.39-6.47,0.78-13.31,1.17-20.16c1.16-13.31,2.33-27,3.49-39.55
		c1.53-17.85,3.07-35.69,4.34-53.56c1.27-17.82,2.04-35.63,2.67-53.48c0.17-4.89,0.41-9.78,0.41-14.67
		c8.81,0.49,17.1,0.54,24.71,0.55c7.61,0.01,16.42-0.03,24.73-0.47c-0.03,18.12,0.88,36.32,1.85,54.41
		c0.97,18.07,2.29,36.11,3.73,54.15c0.35,4.39,0.61,8.79,1.07,13.17c1.5,14.08,2.62,28.91,3.73,43.75c0,0,1.12,15.98,1.12,15.98
		C577.03,909.55,576.92,924.5,572.56,939.27z"/>
	<path id="Knees" d="M658.07,680.84c-1.92,9.13-17.52,13.67-25.51,15.55c-30.82,7.94-62.77,9.41-94.35,8.97
		c-29.29-0.05-58.57-1.62-87.09-8.51c-1.14,0-2.66-0.38-3.8-0.77c-10.64-2.68-34.98-11.09-22.02-26.28
		c6.4-6.38,15.48-9.06,24.11-10.84c11.75-2.42,24.4-3.54,36.39-3.52c-3.04,0-6.85,1.51-9.89,2.65c-5.33,1.51-10.65,3.02-16.36,4.54
		c-4.57,1.13-11.8,3.02-15.99,6.82c-2.67,1.52-4.19,4.18-3.82,7.22c1.13,4.95,9.12,6.86,14.06,8.01
		c17.11,4.59,52.86,4.65,61.61,4.28c0.79-17.5,0.81-33.85,0.85-54.39c2.8,0,13.71,0.58,23.7,0.6c10.34,0.02,19.78-0.53,23.84-0.52
		c-0.03,20.54-0.06,36.89,0.67,54.39c8.75,0.4,44.12,0.45,61.63-4.08c4.19-1.14,12.94-3.02,13.71-7.97
		c0.77-3.42-1.13-6.09-3.79-7.99c-1.9-1.52-4.94-2.67-7.6-3.82c-10.64-4.96-23.95-6.5-34.98-9.57c1.99,0.55,4.28,0.2,6.31,0.31
		c2.68,0.14,5.37,0.19,8.05,0.31c5.46,0.24,10.92,0.62,16.32,1.41c6.04,0.89,12.04,2.31,17.72,4.59c5.05,2.03,11.04,4.57,13.96,9.45
		C658.08,675.13,658.45,678.17,658.07,680.84z"/>
	<path id="Hips" d="M749.11,596.16c-26.27,15.55-60.89,20.82-96.65,24.57c-30.43,3.37-63.53,4.84-98.52,4.78l-27-0.04
		c-35.37-0.06-68.46-1.63-98.51-5.1c-35.75-3.86-70.35-9.25-96.57-24.88c-9.88-6.1-18.22-22.47-10.59-36.15
		c11.06-19.38,46.07-29.21,75.37-32.59c15.22-1.5,30.81-1.47,44.12-0.31c-6.85,1.13-13.7,2.26-20.54,3.39
		c-18.64,3.39-37.67,7.54-55.18,14.36c-7.61,2.65-15.23,6.82-20.18,13.28c-2.29,2.66-4.19,6.46-3.82,9.88
		c-0.01,3.8,2.27,7.23,4.93,9.52c10.26,9.15,25.47,10.69,38.4,13.37c22.59,4.41,45.59,6.63,68.54,8.08
		c11.42,0.72,22.86,1.03,34.29,1.41c9.33,0.31,18.66,0.98,28,1c0.01-3.04,0.39-6.46,0.4-9.51c0.03-17.88-0.33-33.09-0.29-54.39
		l0.02-12.55c12.17,0.78,17.17,0.72,24.39,0.73c6.47,0.01,15.16,0.1,26.19-0.64c0,0,0,1.52,0,1.52c-0.04,24.61-1.37,49.2-0.3,73.82
		c0.02,0.38,0.03,0.75,0.05,1.13c11.64,0.24,23.42-0.58,35.05-0.98c11.72-0.4,23.43-0.96,35.12-1.77
		c20.47-1.42,40.56-4.2,60.81-7.33c13.32-2.26,26.25-4.9,35.77-11.35c2.67-2.28,6.86-5.7,7.62-9.5
		c3.45-17.49-27.72-27.43-39.89-30.87c-19.77-5.36-39.54-8.81-59.7-12.27c13.31-1.12,28.91-1.09,44.12,0.45
		c29.28,3.47,64.26,13.42,75.26,32.83C767.41,573.75,759.01,590.09,749.11,596.16z"/>
	<path id="Shoulders" d="M831.3,282.18c-1.56,8.51-5.15,17.05-9.01,25.65c-9.59,21.45-16.42,43.81-18.48,67.3
		c-0.06,0.83-0.15,1.64-0.21,2.47c-2.94,34.12-4.7,68.63-6.18,102.82c-0.59,13.91,1.2,30.58-4.09,43.71
		c-7.18,17.77-29.37,1.98-35.66-7.26c-8.62-12.73-8.68-29.73-7.58-44.47c3.29-43.98,7.65-88.43,16.09-131.74
		c1.08-5.51,1.92-11.07,2.98-16.58c1.11-6.22,2.46-12.35,4.5-18.34c-25.86,7.7-40.64,13.39-86.39,22.04
		c-52.01,9.83-66.42,10.34-120.54,17.28c-1.01,0.06-2.03,0.09-3.01,0.11c-0.5,31.98,0.75,140.7,0.4,153.27
		c3.19,0.33,55.57-0.3,78.24-6.36c3.75-0.98,10.31-3.05,14.13-6.2c0.03-0.03,0.03-0.03,0.09-0.06c1.34-1.13,2.36-2.41,2.72-3.84
		c0.03-0.03,0.06-0.06,0.03-0.09c0.09-0.36,0.15-0.71,0.15-1.1c0.04-3.81-3.65-7.39-6.45-9.3c-11.33-7.82-30.72-9.31-46.1-13.62
		c-1.85-0.51-3.63-1.08-5.33-1.68c5.87,0.28,12.36,0.38,19.03,0.69c8.9,0.4,18.1,1.13,26.47,2.99c13.63,3.03,27.59,7.97,31.98,16.94
		c2.26,4.59,1.95,12.42-2.23,16.46c-7.75,7.34-18.39,11.58-29.56,14.19c-9.29,2.19-19.15,4.14-27.52,5.2
		c-17.75,2.29-42.08,3.98-62.99,4.33c-5.84,0.11-11.43,0.07-16.79-0.12c-0.15,0.03-0.3,0.03-0.48,0c-5.36,0.17-10.96,0.19-16.8,0.06
		c-20.9-0.42-45.23-2.19-62.94-4.54c-8.4-1.09-18.25-3.07-27.54-5.29c-11.16-2.64-21.79-6.91-29.52-14.28
		c-4.16-4.06-4.45-11.89-2.18-16.47c4.42-8.96,18.4-13.85,32.04-16.83c8.37-1.83,17.6-2.53,26.48-2.9
		c6.67-0.29,13.16-0.37,19.03-0.62c-1.7,0.59-3.49,1.16-5.33,1.66c-15.4,4.26-34.79,5.69-46.15,13.47c-2.8,1.9-6.5,5.47-6.48,9.28
		c0,0.36,0.06,0.69,0.12,1.01c0.35,1.55,1.45,2.95,2.94,4.17c3.84,3.1,10.29,5.17,14.02,6.16c22.65,6.14,75.03,6.94,78.22,6.62
		c-0.31-12.57,1.3-121.29,0.91-153.27c-0.98-0.03-1.99-0.06-3.01-0.12c-54.1-7.12-68.51-7.68-120.48-17.68
		c-45.72-8.8-60.49-14.54-86.32-22.33c2.02,5.99,3.35,12.13,4.44,18.35c1.03,5.51,1.86,11.08,2.92,16.59
		c8.33,43.34,12.51,87.81,15.66,131.8c1.05,14.74,0.93,31.75-7.73,44.45c-6.33,9.22-28.57,24.94-35.69,7.15
		c-5.25-13.14-3.41-29.81-3.95-43.72c-1.37-34.19-3.01-68.7-5.85-102.83c-0.06-0.83-0.15-1.64-0.2-2.47
		c-1.99-23.5-8.74-45.87-18.26-67.36c-3.83-8.61-7.39-17.16-8.92-25.68c-1.92-10.54-0.65-21.02,7.2-31.46
		c9.7-12.88,22.91-7.26,35.95-3.16c19.64,6.2,18.48,8.43,37.76,15.52c33.03,12.14,71.16,24.5,105.93,29.59
		c27.9,4.07,56.12,6.88,84.29,8.09c6.67,0.28,13.34,0.5,20.04,0.63c6.7-0.11,13.37-0.31,20.04-0.56
		c28.17-1.12,56.41-3.84,84.32-7.81c34.79-4.98,72.96-17.21,106.06-29.25c19.28-7.03,18.12-9.26,37.78-15.39
		c13.05-4.06,26.28-9.64,35.94,3.27C832.02,261.16,833.25,271.64,831.3,282.18z"/>
	<path id="Torque_Head" d="M636.57,156.62c1.77,26.74,2.98,51.34,1.09,80.37c-2.26,14.5-4.44,22.33-15.83,28.17
		c-4.5,2.32-11.5,4.06-17.94,5.72c-35.27,9.02-86.74,12.57-125.49,2.83c-5.51-1.38-14.41-2.85-17.53-5.78
		c-5.8-5.37-6.99-23.33-7.39-33.84c-1.2-28.71,1.28-52.47,6.85-75.42c2.34-9.58,6.71-24.44,13.56-27.37
		c3.22-1.36,9.03-1.65,13.88-2.33c28.42-4,56.47-7.47,86.61-9c5.48-0.29,10.78-0.76,14.53,0.71c4.23,1.61,8.06,6.36,8.11,11.51
		c0.12,14.83-17.56,14.47-32.48,13.47c-22.06-1.47-46.3-1.27-64.3,4.99c-2.92,1.01-7.36,2.04-9.81,5.05
		c-4.18,5.68-5.21,17.29-5.78,20.95c-2.71,16.76-3.47,29.53-3.48,49.37c0.02,8.31,0.03,17.87,4.04,22.67
		c4.37,5.25,17.71,5.75,27.03,6.48c21.71,1.7,43.09,0.4,63.28-2.25c8.88-1.18,21.09-3.27,26.69-6.72
		c10.22-6.27,10.74-32.95,10.62-49.8c-0.25-32.25-1.5-45.15-5-75.02c-0.68-5.87-3.14-10.99-2.09-15.46
		c0.12-0.51,1.29-3.42,3.28-4.46C634.47,88.01,634.82,130.71,636.57,156.62z"/>
</g>
</svg>
