<?xml version="1.0" encoding="utf-8"?>
<!-- Generator: Adobe Illustrator 25.2.3, SVG Export Plug-In . SVG Version: 6.00 Build 0)  -->
<svg version="1.1" id="Layer_1" xmlns="http://www.w3.org/2000/svg" xmlns:xlink="http://www.w3.org/1999/xlink" x="0px" y="0px"
	 viewBox="0 0 1080 1080" style="enable-background:new 0 0 1080 1080;" xml:space="preserve">
<style type="text/css">
	.st0{fill:#7EE0FB;}
	.st1{fill:#4171CA;}
	.st2{fill:#6BCEE9;}
	.st3{fill:#2B5AB3;}
	.st4{fill:#5ED8C5;}
	.st5{fill:#2DB36C;}
	.st6{fill:#07B9E9;}
	.st7{fill:#003EB3;}
	.st8{fill:#06D8B7;}
	.st9{fill:#10B35D;}
	.st10{fill:#75FBB3;}
	.st11{fill:#40BAA6;}
	.st12{fill:#1E7848;}
	.st13{fill:#1D3C78;}
	.st14{fill:#4565A1;}
	.st15{fill:#449689;}
	.st16{fill:#7ACCBF;}
	.st17{fill:#83C5D7;}
	.st18{fill:#A4E6F8;}
	.st19{fill:#9EF8C8;}
</style>
<g>
	<path class="st12" d="M540,940c-110.5,0-210.5-44.8-282.8-117.2L340,740L540,940z"/>
	<path class="st13" d="M340,740l-82.8,82.8C184.8,750.5,140,650.5,140,540L340,740z"/>
	<path class="st14" d="M340,340L140,540c0-110.5,44.8-210.5,117.2-282.8l79.2,79.2L340,340z"/>
	<path class="st15" d="M540,140L340,340l-3.7-3.7l-79.2-79.2C329.5,184.8,429.5,140,540,140z"/>
	<polygon class="st11" points="540,140 540,540 340,340 	"/>
	<path class="st6" d="M940,540c0,110.5-44.8,210.5-117.2,282.8S650.5,940,540,940V140c110.5,0,210.5,44.8,282.8,117.2
		C895.2,329.5,940,429.5,940,540z"/>
	<polygon class="st5" points="540,540 540,940 340,740 	"/>
	<polygon class="st3" points="540,540 340,740 140,540 	"/>
	<polygon class="st1" points="540,540 140,540 340,340 	"/>
</g>
</svg>
