<?xml version="1.0" encoding="utf-8"?>
<!-- Generator: Adobe Illustrator 25.2.3, SVG Export Plug-In . SVG Version: 6.00 Build 0)  -->
<svg version="1.1" id="Layer_1" xmlns="http://www.w3.org/2000/svg" xmlns:xlink="http://www.w3.org/1999/xlink" x="0px" y="0px"
	 viewBox="0 0 1080 1080" style="enable-background:new 0 0 1080 1080;" xml:space="preserve">
<style type="text/css">
	.st0{fill:#7EE0FB;}
	.st1{fill:#4171CA;}
	.st2{fill:#6BCEE9;}
	.st3{fill:#2B5AB3;}
	.st4{fill:#5ED8C5;}
	.st5{fill:#2DB36C;}
	.st6{fill:#07B9E9;}
	.st7{fill:#003EB3;}
	.st8{fill:#06D8B7;}
	.st9{fill:#10B35D;}
	.st10{fill:#75FBB3;}
	.st11{fill:#40BAA6;}
	.st12{fill:#1E7848;}
	.st13{fill:#1D3C78;}
	.st14{fill:#4565A1;}
	.st15{fill:#449689;}
	.st16{fill:#7ACCBF;}
	.st17{fill:#83C5D7;}
	.st18{fill:#A4E6F8;}
	.st19{fill:#9EF8C8;}
</style>
<g>
	<path class="st16" d="M822.9,257.2L740,340L540,140C650.5,140,750.5,184.8,822.9,257.2z"/>
	<path class="st17" d="M940,540L740,340l82.8-82.8C895.2,329.5,940,429.5,940,540z"/>
	<path class="st18" d="M940,540c0,110.5-44.8,210.5-117.2,282.8l-79.2-79.2L740,740L940,540z"/>
	<path class="st19" d="M822.9,822.8C750.5,895.2,650.5,940,540,940l200-200l3.7,3.7L822.9,822.8z"/>
	<path class="st7" d="M540,140v800c-110.5,0-210.5-44.8-282.8-117.2S140,650.5,140,540c0-110.5,44.8-210.5,117.2-282.8
		C329.5,184.8,429.5,140,540,140z"/>
	<polygon class="st4" points="740,340 540,540 540,140 	"/>
	<polygon class="st2" points="940,540 540,540 740,340 	"/>
	<polygon class="st0" points="940,540 740,740 540,540 	"/>
	<polygon class="st10" points="740,740 540,940 540,540 	"/>
</g>
</svg>
