<?xml version="1.0" encoding="utf-8"?>
<!-- Generator: Adobe Illustrator 25.2.3, SVG Export Plug-In . SVG Version: 6.00 Build 0)  -->
<svg version="1.1" xmlns="http://www.w3.org/2000/svg" xmlns:xlink="http://www.w3.org/1999/xlink" x="0px" y="0px"
	 viewBox="0 0 1080 1080" style="enable-background:new 0 0 1080 1080;" xml:space="preserve">
<style type="text/css">
	.st0{fill:#83C5D7;}
	.st1{fill:#6BCEE9;}
	.st2{fill:#7ACCBF;}
	.st3{fill:#5ED8C5;}
	.st4{fill:#449689;}
	.st5{fill:#40BAA6;}
	.st6{fill:#4565A1;}
	.st7{fill:#4171CA;}
	.st8{fill:#1D3C78;}
	.st9{fill:#2B5AB3;}
	.st10{fill:#1E7848;}
	.st11{fill:#2DB36C;}
	.st12{fill:#9EF8C8;}
	.st13{fill:#75FBB3;}
	.st14{fill:#A4E6F8;}
	.st15{fill:#7EE0FB;}
	.st16{font-family:'Inter'; font-weight:300;}
	.st17{font-size:37px;}
	.st18{font-size:34px;}
	.st19{font-family:'Inter'; font-weight:600;}
	.st20{font-size:44px;}
	.st21{fill:#FFFFFF;}
	.st22{fill:#662D91;}
</style>
<g id="Background">
	<path id="BacksideHyperLabel" class="st0" d="M1054.99,540.21L797.71,282.93l106.58-106.58
		C997.41,269.48,1054.99,398.12,1054.99,540.21z"/>
	<polygon id="BacksideHyper" class="st1" points="1054.99,540.21 540.43,540.21 797.71,282.93 	"/>
	<path id="InsideHyperLabel" class="st2" d="M904.29,176.36L797.71,282.93L540.43,25.65C682.52,25.65,811.16,83.23,904.29,176.36z"
		/>
	<polygon id="InsideHyper" class="st3" points="797.71,282.93 540.43,540.21 540.43,25.65 	"/>
	<path id="InsideMegaLabel" class="st4" d="M540.43,25.65L283.15,282.93l-4.73-4.73L176.57,176.36
		C269.69,83.23,398.33,25.65,540.43,25.65z"/>
	<polygon id="InsideMega" class="st5" points="540.43,25.65 540.43,540.21 283.15,282.93 	"/>
	<path id="FrontsideMegaLabel" class="st6" d="M283.15,282.93L25.87,540.21c0-142.09,57.58-270.73,150.71-363.86L278.42,278.2
		L283.15,282.93z"/>
	<polygon id="FrontsideMega" class="st7" points="540.43,540.21 25.87,540.21 283.15,282.93 	"/>
	<path id="FrontsideSemiLabel" class="st8" d="M283.15,797.5L176.57,904.07C83.45,810.95,25.87,682.31,25.87,540.21L283.15,797.5z"
		/>
	<polygon id="FrontsideSemi" class="st9" points="540.43,540.21 283.15,797.5 25.87,540.21 	"/>
	<path id="OutsideSemiLabel" class="st10" d="M540.43,1054.78c-142.09,0-270.73-57.58-363.86-150.71L283.15,797.5L540.43,1054.78z"
		/>
	<polygon id="OutsideSemi" class="st11" points="540.43,540.21 540.43,1054.78 283.15,797.5 	"/>
	<path id="OutsideCompleteLabel" class="st12" d="M904.29,904.07c-93.12,93.12-221.76,150.71-363.86,150.71L797.71,797.5l4.73,4.73
		L904.29,904.07z"/>
	<polygon id="OutsideComplete" class="st13" points="797.71,797.5 540.43,1054.78 540.43,540.21 	"/>
	<path id="BacksideCompleteLabel" class="st14" d="M1054.99,540.21c0,142.09-57.58,270.73-150.71,363.86L802.44,802.23l-4.73-4.73
		L1054.99,540.21z"/>
	<polygon id="BacksideComplete" class="st15" points="1054.99,540.21 797.71,797.5 540.43,540.21 	"/>
</g>
<g id="TextLabels">
	<text transform="matrix(1 0 0 1 807.8633 502.7178)" class="st16 st17">Gainer</text>
	<text transform="matrix(1 0 0 1 794.7812 456.9307)" class="st16 st17">Kroc</text>
	<text transform="matrix(0.7071 0.7071 -0.7071 0.7071 820.5907 273.4088)" class="st16 st18">BacksideHyper</text>
	<text transform="matrix(1 0 0 1 552.79 223.1924)" class="st16 st17">GMS</text>
	<text transform="matrix(0.7071 0.7071 -0.7071 0.7071 624.3478 71.3075)" class="st16 st18">InsideHyper</text>
	<text transform="matrix(0.7071 0.7071 -0.7071 0.7071 831.3112 177.7098)" class="st19 st20">Hook</text>
	<g>
		<text transform="matrix(1 0 0 1 414.9922 249.3569)" class="st21 st16 st17">Aerial</text>
	</g>
	<g>
		<text transform="matrix(1 0 0 1 414.9922 199.2085)" class="st21 st16 st17">BKick</text>
	</g>
	<text transform="matrix(0.7071 -0.7071 0.7071 0.7071 275.2526 218.6371)" class="st21 st16 st18">InsideMega</text>
	<g>
		<text transform="matrix(1 0 0 1 126.4521 485.3311)" class="st21 st16 st17">Webster</text>
	</g>
	<text transform="matrix(0.7071 -0.7071 0.7071 0.7071 56.5632 436.1995)" class="st21 st16 st18">FrontsideMega</text>
	<text transform="matrix(0.7071 -0.7071 0.7071 0.7071 175.3143 240.567)" class="st21 st19 st20">Round</text>
	<g>
		<text transform="matrix(1 0 0 1 126.4521 618.332)" class="st21 st16 st17">Webster</text>
	</g>
	<text transform="matrix(0.7071 0.7071 -0.7071 0.7071 35.1408 628.9931)" class="st21 st16 st18">FrontsideSemi</text>
	<text transform="matrix(1 0 0 1 410.3027 926.3848)" class="st21 st16 st17">Spyder</text>
	<text transform="matrix(1 0 0 1 432.1064 887.1377)" class="st21 st16 st17">Raiz</text>
	<text transform="matrix(0.7071 0.7071 -0.7071 0.7071 289.8442 888.0883)" class="st21 st16 st18">OutsideSemi</text>
	<text transform="matrix(0.7071 0.7071 -0.7071 0.7071 167.465 833.1163)" class="st21 st19 st20">Hook</text>
	<text transform="matrix(1 0 0 1 552.0908 887.1377)" class="st16 st17">Lotus</text>
	<text transform="matrix(0.7071 -0.7071 0.7071 0.7071 612.1475 1037.2927)" class="st16 st18">OutsideComplete</text>
	<text transform="matrix(1 0 0 1 807.8633 640.0801)" class="st16 st17">Gainer</text>
	<text transform="matrix(1 0 0 1 796.9619 685.8672)" class="st16 st17">Cork</text>
	<text transform="matrix(0.7071 -0.7071 0.7071 0.7071 827.2944 824.0406)" class="st16 st18">BacksideComplete</text>
	<text transform="matrix(0.7071 -0.7071 0.7071 0.7071 842.8943 897.7751)" class="st19 st20">Round</text>
</g>
<g id="Feet">
	<g id="BacksideHyperFeet">
		<path class="st22" d="M745.46,530.62c1.39,1.02,3.16,1.69,5.16,1.85c1.91,0.13,3.76-0.24,5.34-1.07c1.51-0.78,2.63-2.01,3.31-3.4
			c3.68-0.88,6.37-3.5,6.76-6.91c3.34-1.61,5.55-4.53,5.55-7.91l-0.02-0.42c-0.03-0.83-0.26-1.59-0.54-2.33
			c2.71-1.82,4.43-4.54,4.43-7.61l-0.02-0.47c-0.1-1.65-0.71-3.16-1.62-4.46c3.65-2.71,5.69-6.58,5.06-10.64
			c-1.05-6.57-8.37-10.47-17.01-9.08c-4.39,0.71-8.06,2.72-10.46,5.38c-1.4-0.97-2.94-1.65-4.65-1.96
			c-9.57-1.67-15.47,5.34-19.38,9.94c-0.88,1.05-1.69,2.03-2.53,2.82c-2.92,2.84-7.78,3.32-10.83,1.12
			c-0.23-0.16-0.52-0.42-0.91-0.73c-3.96-3.28-14.45-11.97-25.86-8.58c-6.52,1.93-10.56,6.45-12,13.41
			c-0.41,1.96-0.61,3.81-0.61,5.56c0,10.52,7.3,16.99,19.52,17.35c4.69,0.15,8.34,0.88,11.58,2.33
			C716.51,529.55,734.06,537.27,745.46,530.62z M751.28,522.82c1.77,0.11,3.13,1.1,3.05,2.19c-0.07,1.09-1.56,1.86-3.32,1.75
			c-1.77-0.13-3.13-1.12-3.05-2.21C748.02,523.47,749.51,522.69,751.28,522.82z M756.57,517.63c2.21,0.16,3.91,1.4,3.83,2.76
			c-0.1,1.35-1.96,2.34-4.18,2.19c-2.21-0.16-3.92-1.4-3.81-2.76C752.5,518.46,754.36,517.49,756.57,517.63z M765.86,513.06
			c0.1,1.85-2.25,3.49-5.24,3.63c-2.98,0.18-5.48-1.18-5.59-3.05c-0.1-1.85,2.25-3.47,5.22-3.63
			C763.25,509.85,765.74,511.23,765.86,513.06z M769.72,502.67c0.13,2.29-2.76,4.28-6.42,4.48c-3.7,0.21-6.78-1.48-6.89-3.76
			c-0.13-2.27,2.76-4.25,6.42-4.46C766.51,498.71,769.59,500.4,769.72,502.67z M773.2,488.16c0.52,3.24-3.31,6.58-8.56,7.41
			c-5.24,0.84-9.94-1.09-10.46-4.35c-0.52-3.24,3.31-6.55,8.56-7.41C768,482.97,772.68,484.91,773.2,488.16z"/>
		<path d="M778.86,462.55c0.65-4.04-1.39-7.93-5.06-10.63c0.93-1.3,1.54-2.79,1.64-4.48l0.02-0.45c0-3.07-1.72-5.77-4.43-7.61
			c0.28-0.74,0.49-1.51,0.54-2.33l0.02-0.43c0-3.39-2.22-6.31-5.55-7.91c-0.39-3.39-3.05-5.99-6.68-6.88
			c-0.43-0.88-1.04-1.68-1.83-2.37c-1.77-1.53-4.3-2.31-6.92-2.12c-1.99,0.15-3.74,0.82-5.14,1.84c-11.39-6.65-28.95,1.06-39.8,5.83
			c-3.18,1.43-6.85,2.18-11.54,2.31c-12.21,0.35-19.51,6.85-19.51,17.37c0,1.73,0.2,3.61,0.61,5.56c1.43,6.95,5.47,11.47,11.99,13.4
			c11.41,3.39,21.91-5.28,25.85-8.56c0.39-0.32,0.71-0.58,0.91-0.74c3.05-2.21,7.93-1.71,10.85,1.12c0.82,0.8,1.64,1.79,2.53,2.83
			c3.91,4.62,9.81,11.6,19.38,9.92c1.7-0.28,3.24-0.98,4.64-1.94c2.4,2.64,6.06,4.65,10.46,5.36c3.57,0.58,7.17,0.23,10.11-1.01
			C775.77,469.04,778.3,466.1,778.86,462.55L778.86,462.55z M769.72,447.13c-0.13,2.27-3.2,3.94-6.89,3.74
			c-3.68-0.18-6.55-2.2-6.44-4.47c0.13-2.29,3.22-3.96,6.89-3.76C766.96,442.85,769.85,444.85,769.72,447.13L769.72,447.13z
			 M765.85,436.73c-0.1,1.84-2.61,3.21-5.59,3.05c-2.98-0.17-5.33-1.79-5.23-3.63c0.11-1.86,2.6-3.22,5.6-3.05
			C763.61,433.27,765.95,434.89,765.85,436.73L765.85,436.73z M760.39,429.41c0.1,1.36-1.62,2.59-3.83,2.76
			c-2.2,0.15-4.06-0.84-4.17-2.2c-0.1-1.36,1.62-2.59,3.83-2.76C758.42,427.07,760.3,428.03,760.39,429.41L760.39,429.41z
			 M754.34,424.78c0.08,1.1-1.3,2.08-3.05,2.2c-1.77,0.13-3.25-0.65-3.33-1.75c-0.08-1.08,1.29-2.06,3.06-2.18
			C752.76,422.92,754.26,423.7,754.34,424.78L754.34,424.78z M728.8,451.34c-4.88-4.75-12.79-5.55-18.17-1.64
			c-2.25,1.62-12.08,11.34-21.78,8.45c-4.93-1.47-7.15-4.77-8.04-9.09c-3-14.39,8.41-15.9,13.47-16.04
			c4.75-0.13,9.36-0.85,13.72-2.81c10.91-4.8,28-12.06,36.24-4.93c12.16,10.53,11.3,35.59,1.51,37.28
			C737.61,464,733.05,455.43,728.8,451.34L728.8,451.34z M762.76,465.99c-5.25-0.85-9.09-4.17-8.56-7.41
			c0.52-3.26,5.19-5.19,10.46-4.35c5.25,0.84,9.08,4.17,8.56,7.41C772.7,464.87,768,466.83,762.76,465.99L762.76,465.99z
			 M762.76,465.99"/>
	</g>
	<g id="InsideHyperFeet">
		<path class="st22" d="M654.97,395.48c0.15-4.69,0.88-8.33,2.34-11.58c4.73-10.8,12.44-28.34,5.81-39.74
			c1.02-1.39,1.68-3.16,1.83-5.16c0.13-1.91-0.24-3.76-1.05-5.33c-0.78-1.51-2.01-2.63-3.41-3.31c-0.87-3.68-3.5-6.37-6.91-6.76
			c-1.61-3.34-4.52-5.55-7.91-5.55l-0.42,0.02c-0.83,0.03-1.59,0.26-2.34,0.53c-1.81-2.71-4.54-4.43-7.6-4.43l-0.47,0.02
			c-1.65,0.1-3.16,0.71-4.48,1.62c-2.69-3.65-6.57-5.69-10.62-5.06c-6.57,1.05-10.48,8.37-9.08,17.01c0.7,4.39,2.71,8.06,5.38,10.46
			c-0.97,1.39-1.67,2.93-1.96,4.65c-1.67,9.57,5.32,15.47,9.94,19.38c1.04,0.87,2.03,1.69,2.8,2.53c2.85,2.92,3.34,7.78,1.12,10.83
			c-0.15,0.23-0.41,0.52-0.73,0.91c-3.27,3.96-11.97,14.45-8.58,25.86c1.95,6.52,6.47,10.56,13.43,12c1.94,0.42,3.81,0.62,5.56,0.62
			C648.15,415.01,654.62,407.71,654.97,395.48z M659.25,338.61c-0.13,1.77-1.12,3.13-2.22,3.06c-1.07-0.08-1.85-1.57-1.72-3.34
			c0.1-1.77,1.09-3.13,2.19-3.05C658.59,335.35,659.37,336.85,659.25,338.61z M655.07,333.41c-0.18,2.21-1.39,3.92-2.76,3.81
			c-1.36-0.1-2.35-1.96-2.21-4.17c0.18-2.19,1.41-3.91,2.76-3.83C654.23,329.32,655.21,331.19,655.07,333.41z M649.18,329
			c0.16,2.98-1.18,5.48-3.05,5.59c-1.85,0.1-3.47-2.25-3.63-5.22c-0.16-3,1.2-5.5,3.05-5.61C647.4,323.66,649.04,326.02,649.18,329z
			 M639.63,326.32c0.21,3.7-1.49,6.78-3.76,6.89c-2.27,0.15-4.26-2.76-4.46-6.42c-0.21-3.68,1.46-6.76,3.73-6.89
			C637.44,319.77,639.42,322.66,639.63,326.32z M616.3,326.87c-0.84-5.25,1.09-9.94,4.35-10.46c3.24-0.52,6.57,3.31,7.41,8.56
			c0.84,5.24-1.1,9.94-4.36,10.46C620.46,335.96,617.14,332.11,616.3,326.87z"/>
		<path d="M595.03,310.76c-4.04-0.65-7.93,1.39-10.63,5.06c-1.3-0.93-2.79-1.54-4.48-1.64l-0.45-0.02c-3.07,0-5.77,1.72-7.61,4.43
			c-0.74-0.28-1.51-0.49-2.33-0.54l-0.43-0.02c-3.39,0-6.31,2.22-7.91,5.55c-3.39,0.39-6,3.05-6.88,6.68
			c-0.88,0.43-1.68,1.05-2.36,1.83c-1.53,1.77-2.31,4.3-2.13,6.92c0.15,2,0.82,3.74,1.84,5.14c-6.65,11.39,1.06,28.95,5.83,39.8
			c1.43,3.18,2.18,6.85,2.31,11.54c0.35,12.21,6.85,19.51,17.37,19.5c1.73,0,3.61-0.2,5.56-0.61c6.95-1.43,11.47-5.47,13.4-11.99
			c3.39-11.41-5.28-21.91-8.56-25.85c-0.32-0.39-0.58-0.71-0.74-0.91c-2.21-3.05-1.71-7.93,1.12-10.85c0.8-0.82,1.79-1.64,2.83-2.53
			c4.62-3.91,11.6-9.81,9.92-19.38c-0.28-1.7-0.98-3.24-1.94-4.64c2.64-2.4,4.65-6.06,5.36-10.46c0.58-3.57,0.23-7.17-1.01-10.11
			C601.53,313.85,598.59,311.32,595.03,310.76L595.03,310.76z M579.62,319.9c2.27,0.13,3.94,3.2,3.74,6.89
			c-0.18,3.68-2.2,6.55-4.46,6.44c-2.29-0.13-3.97-3.22-3.76-6.89C575.34,322.66,577.33,319.77,579.62,319.9L579.62,319.9z
			 M569.22,323.77c1.84,0.1,3.21,2.61,3.05,5.59c-0.17,2.98-1.79,5.32-3.63,5.23c-1.86-0.11-3.22-2.61-3.05-5.6
			C565.75,326.01,567.37,323.66,569.22,323.77L569.22,323.77z M561.9,329.23c1.36-0.1,2.58,1.62,2.76,3.83
			c0.15,2.2-0.84,4.06-2.2,4.17c-1.36,0.1-2.59-1.62-2.76-3.83C559.55,331.2,560.52,329.32,561.9,329.23L561.9,329.23z
			 M557.26,335.28c1.1-0.07,2.08,1.3,2.2,3.05c0.13,1.77-0.65,3.26-1.75,3.33c-1.08,0.07-2.06-1.29-2.18-3.06
			C555.4,336.86,556.18,335.36,557.26,335.28L557.26,335.28z M583.83,360.82c-4.75,4.88-5.55,12.79-1.64,18.17
			c1.62,2.25,11.33,12.08,8.45,21.78c-1.47,4.94-4.77,7.15-9.09,8.04c-14.39,3-15.9-8.41-16.05-13.48
			c-0.13-4.74-0.85-9.36-2.81-13.72c-4.8-10.91-12.06-27.99-4.93-36.24c10.53-12.15,35.59-11.3,37.28-1.51
			C596.48,352.01,587.92,356.57,583.83,360.82L583.83,360.82z M598.47,326.86c-0.85,5.25-4.17,9.09-7.41,8.56
			c-3.26-0.52-5.19-5.19-4.36-10.46c0.84-5.25,4.17-9.08,7.41-8.56C597.36,316.92,599.31,321.62,598.47,326.86L598.47,326.86z
			 M598.47,326.86"/>
	</g>
	<g id="InsideMegaFeet">
		<path d="M520.55,344.16c1.02-1.4,1.69-3.17,1.84-5.16c0.13-1.92-0.24-3.76-1.06-5.34c-0.78-1.51-2.01-2.63-3.41-3.31
			c-0.88-3.67-3.5-6.37-6.91-6.76c-1.6-3.34-4.52-5.55-7.91-5.55l-0.43,0.02c-0.82,0.03-1.58,0.25-2.33,0.54
			c-1.83-2.71-4.54-4.43-7.62-4.43l-0.47,0.02c-1.65,0.1-3.16,0.71-4.47,1.62c-2.7-3.65-6.57-5.69-10.63-5.07
			c-6.57,1.06-10.48,8.37-9.08,17.02c0.71,4.39,2.72,8.06,5.38,10.46c-0.97,1.4-1.66,2.94-1.95,4.66
			c-1.68,9.56,5.32,15.47,9.94,19.37c1.04,0.88,2.03,1.69,2.81,2.53c2.85,2.93,3.33,7.78,1.12,10.84c-0.15,0.22-0.41,0.52-0.73,0.91
			c-3.28,3.95-11.97,14.45-8.58,25.85c1.94,6.51,6.46,10.56,13.42,12.01c1.96,0.41,3.81,0.61,5.56,0.61c10.52,0,17-7.3,17.35-19.53
			c0.15-4.69,0.88-8.34,2.32-11.58C519.49,373.11,527.2,355.56,520.55,344.16L520.55,344.16z M514.95,335.29
			c1.08,0.07,1.86,1.56,1.75,3.33c-0.13,1.77-1.11,3.13-2.21,3.06c-1.08-0.08-1.86-1.56-1.73-3.34
			C512.86,336.57,513.85,335.21,514.95,335.29L514.95,335.29z M510.31,329.23c1.36,0.1,2.35,1.96,2.2,4.17
			c-0.17,2.22-1.4,3.93-2.76,3.82c-1.36-0.09-2.35-1.96-2.2-4.17C507.73,330.86,508.95,329.14,510.31,329.23L510.31,329.23z
			 M503,323.76c1.84-0.1,3.48,2.26,3.63,5.23c0.17,2.99-1.19,5.49-3.05,5.6c-1.84,0.1-3.46-2.25-3.63-5.22
			C499.78,326.37,501.16,323.87,503,323.76L503,323.76z M492.59,319.91c2.29-0.13,4.28,2.76,4.49,6.42c0.2,3.68-1.49,6.78-3.76,6.88
			c-2.27,0.14-4.26-2.75-4.47-6.42C488.65,323.11,490.32,320.02,492.59,319.91L492.59,319.91z M473.74,326.87
			c-0.84-5.24,1.1-9.94,4.36-10.46c3.24-0.52,6.57,3.31,7.41,8.56c0.84,5.25-1.1,9.94-4.36,10.46
			C477.91,335.95,474.59,332.12,473.74,326.87L473.74,326.87z M509.51,381.62c-1.97,4.34-2.66,8.95-2.81,13.7
			c-0.15,5.06-1.68,16.47-16.05,13.49c-4.32-0.91-7.61-3.11-9.08-8.04c-2.89-9.72,6.83-19.54,8.45-21.78
			c3.91-5.4,3.11-13.29-1.64-18.19c-4.1-4.22-12.66-8.78-11.24-16.95c1.71-9.79,26.77-10.63,37.3,1.51
			C521.57,353.6,514.32,370.71,509.51,381.62L509.51,381.62z M509.51,381.62"/>
		<path class="st22" d="M440.17,414.39c6.96-1.44,11.48-5.48,13.41-11.98c3.39-11.42-5.29-21.92-8.56-25.86
			c-0.32-0.39-0.58-0.71-0.75-0.91c-2.22-3.05-1.72-7.93,1.12-10.85c0.79-0.83,1.78-1.64,2.82-2.55c4.62-3.91,11.61-9.79,9.92-19.36
			c-0.28-1.7-0.99-3.24-1.93-4.64c2.64-2.42,4.65-6.06,5.35-10.46c0.58-3.58,0.23-7.17-1.01-10.12c-1.57-3.81-4.51-6.34-8.07-6.89
			c-4.04-0.67-7.93,1.38-10.62,5.06c-1.31-0.94-2.79-1.56-4.49-1.64l-0.44-0.03c-3.08,0-5.77,1.72-7.62,4.44
			c-0.75-0.29-1.51-0.49-2.34-0.55l-0.42-0.02c-3.39,0-6.31,2.22-7.91,5.55c-3.39,0.39-5.98,3.06-6.88,6.68
			c-0.88,0.44-1.69,1.05-2.37,1.83c-1.52,1.77-2.32,4.3-2.13,6.92c0.15,1.99,0.81,3.75,1.83,5.14c-6.63,11.38,1.07,28.94,5.84,39.79
			c1.43,3.18,2.17,6.84,2.3,11.55c0.36,12.21,6.86,19.51,17.37,19.51C436.34,415.01,438.22,414.79,440.17,414.39z M451.57,316.4
			c3.24,0.52,5.19,5.22,4.35,10.46c-0.84,5.25-4.17,9.1-7.39,8.56c-3.26-0.52-5.2-5.19-4.36-10.46
			C445,319.71,448.32,315.88,451.57,316.4z M437.07,319.9c2.27,0.13,3.94,3.19,3.73,6.89c-0.18,3.68-2.19,6.55-4.46,6.44
			c-2.29-0.13-3.97-3.23-3.76-6.89C432.79,322.66,434.78,319.77,437.07,319.9z M426.66,323.78c1.85,0.1,3.21,2.59,3.05,5.58
			c-0.16,2.98-1.78,5.32-3.63,5.24c-1.85-0.11-3.21-2.61-3.05-5.61C423.19,326.02,424.81,323.66,426.66,323.78z M419.35,329.23
			c1.36-0.1,2.58,1.62,2.76,3.84c0.15,2.19-0.84,4.05-2.19,4.17c-1.38,0.08-2.6-1.62-2.77-3.84
			C416.99,331.2,417.97,329.32,419.35,329.23z M412.97,338.61c-0.13-1.75,0.65-3.26,1.74-3.34c1.1-0.08,2.09,1.31,2.2,3.07
			c0.13,1.77-0.67,3.24-1.77,3.32C414.08,341.74,413.09,340.38,412.97,338.61z"/>
	</g>
	<g id="FrontsideMegaFeet">
		<path d="M335.95,419.17c-1.4-1.02-3.17-1.69-5.16-1.84c-1.92-0.13-3.76,0.24-5.34,1.06c-1.51,0.78-2.63,2.01-3.31,3.41
			c-3.67,0.88-6.37,3.5-6.76,6.91c-3.33,1.6-5.55,4.52-5.55,7.91l0.02,0.43c0.03,0.82,0.25,1.58,0.54,2.33
			c-2.71,1.82-4.43,4.54-4.43,7.61l0.02,0.46c0.1,1.66,0.7,3.16,1.62,4.47c-3.65,2.7-5.7,6.57-5.07,10.63
			c1.06,6.57,8.37,10.48,17.01,9.08c4.39-0.71,8.06-2.72,10.46-5.38c1.4,0.97,2.94,1.66,4.66,1.95c9.56,1.68,15.47-5.32,19.37-9.94
			c0.88-1.04,1.69-2.03,2.53-2.81c2.93-2.85,7.78-3.33,10.83-1.12c0.22,0.15,0.52,0.41,0.91,0.73c3.94,3.28,14.44,11.97,25.85,8.58
			c6.51-1.94,10.55-6.46,12-13.42c0.41-1.95,0.62-3.81,0.61-5.57c0-10.52-7.3-17-19.53-17.35c-4.69-0.15-8.34-0.87-11.58-2.33
			C364.9,420.24,347.35,412.53,335.95,419.17L335.95,419.17z M327.07,424.78c0.07-1.08,1.56-1.86,3.33-1.75
			c1.77,0.13,3.12,1.12,3.06,2.22c-0.08,1.08-1.56,1.86-3.34,1.73C328.36,426.86,327,425.88,327.07,424.78L327.07,424.78z
			 M321.02,429.41c0.09-1.36,1.95-2.34,4.17-2.19c2.22,0.17,3.93,1.4,3.82,2.75c-0.09,1.36-1.96,2.35-4.17,2.2
			C322.65,432,320.93,430.77,321.02,429.41L321.02,429.41z M315.55,436.73c-0.1-1.84,2.26-3.48,5.23-3.63
			c2.99-0.17,5.49,1.19,5.6,3.05c0.09,1.84-2.25,3.46-5.23,3.63C318.16,439.95,315.66,438.57,315.55,436.73L315.55,436.73z
			 M311.7,447.13c-0.13-2.29,2.76-4.28,6.42-4.49c3.68-0.2,6.78,1.49,6.89,3.76c0.13,2.27-2.75,4.26-6.42,4.47
			C314.9,451.08,311.82,449.41,311.7,447.13L311.7,447.13z M318.66,465.99c-5.24,0.84-9.94-1.1-10.46-4.36
			c-0.52-3.24,3.31-6.57,8.56-7.41c5.25-0.84,9.94,1.1,10.46,4.35C327.74,461.82,323.91,465.13,318.66,465.99L318.66,465.99z
			 M373.41,430.21c4.34,1.97,8.95,2.66,13.7,2.81c5.06,0.15,16.47,1.67,13.49,16.05c-0.91,4.32-3.11,7.61-8.04,9.08
			c-9.72,2.89-19.54-6.83-21.78-8.45c-5.4-3.91-13.29-3.11-18.19,1.64c-4.22,4.1-8.78,12.66-16.95,11.24
			c-9.79-1.71-10.63-26.77,1.51-37.3C345.39,418.15,362.5,425.41,373.41,430.21L373.41,430.21z M373.41,430.21"/>
		<path class="st22" d="M375.75,524.79c3.18-1.43,6.84-2.17,11.53-2.3c12.21-0.36,19.51-6.84,19.51-17.37c0-1.73-0.19-3.6-0.62-5.56
			c-1.43-6.94-5.46-11.46-11.98-13.41c-11.4-3.37-21.91,5.29-25.85,8.56c-0.39,0.32-0.71,0.58-0.92,0.75
			c-3.05,2.22-7.93,1.72-10.85-1.1c-0.81-0.81-1.64-1.8-2.53-2.84c-3.91-4.62-9.81-11.59-19.38-9.92c-1.69,0.29-3.24,0.99-4.64,1.95
			c-2.4-2.64-6.07-4.65-10.46-5.37c-3.57-0.58-7.17-0.23-10.1,1c-3.81,1.59-6.34,4.53-6.91,8.08c-0.65,4.04,1.4,7.93,5.06,10.64
			c-0.92,1.3-1.54,2.79-1.64,4.48l-0.02,0.45c0,3.07,1.72,5.77,4.43,7.61c-0.28,0.75-0.49,1.51-0.54,2.34l-0.02,0.42
			c0,3.39,2.22,6.31,5.55,7.91c0.39,3.39,3.05,6,6.68,6.89c0.42,0.88,1.04,1.67,1.82,2.35c1.78,1.54,4.31,2.32,6.92,2.12
			c2-0.15,3.75-0.81,5.14-1.83C347.34,537.27,364.88,529.55,375.75,524.79z M316.76,495.57c-5.25-0.83-9.08-4.17-8.56-7.41
			c0.52-3.23,5.21-5.19,10.46-4.35c5.25,0.84,9.08,4.17,8.56,7.41C326.7,494.48,322.03,496.41,316.76,495.57z M311.7,502.67
			c0.13-2.27,3.19-3.96,6.87-3.75c3.68,0.18,6.55,2.21,6.44,4.46c-0.11,2.3-3.21,3.97-6.88,3.76
			C314.45,506.95,311.57,504.95,311.7,502.67z M315.56,513.06c0.1-1.83,2.61-3.21,5.59-3.05c2.97,0.16,5.32,1.78,5.22,3.63
			c-0.11,1.87-2.59,3.21-5.59,3.05C317.79,516.53,315.46,514.91,315.56,513.06z M321.02,520.39c-0.1-1.38,1.6-2.59,3.83-2.77
			c2.21-0.15,4.05,0.84,4.17,2.2c0.1,1.36-1.62,2.58-3.83,2.76C323,522.73,321.12,521.77,321.02,520.39z M327.07,525.01
			c-0.08-1.09,1.3-2.08,3.05-2.19c1.77-0.13,3.26,0.65,3.34,1.75c0.06,1.07-1.3,2.06-3.07,2.17
			C328.64,526.88,327.15,526.1,327.07,525.01z"/>
	</g>
	<g id="FrontsideSemiFeet">
		<path class="st22" d="M319.56,606.85c4.39-0.71,8.06-2.73,10.46-5.38c1.4,0.97,2.93,1.65,4.65,1.95
			c9.55,1.69,15.47-5.32,19.38-9.94c0.88-1.04,1.69-2.03,2.53-2.81c2.92-2.85,7.77-3.32,10.83-1.12c0.23,0.15,0.52,0.41,0.91,0.73
			c3.94,3.28,14.45,11.97,25.85,8.58c6.52-1.93,10.56-6.45,12.02-13.41c0.41-1.96,0.62-3.83,0.62-5.58
			c0-10.51-7.3-16.99-19.52-17.35c-4.7-0.15-8.35-0.88-11.58-2.32c-10.8-4.75-28.36-12.45-39.74-5.81c-1.39-1.02-3.16-1.7-5.16-1.85
			c-1.91-0.13-3.76,0.24-5.35,1.07c-1.49,0.78-2.63,2.01-3.31,3.4c-3.66,0.88-6.37,3.49-6.75,6.91c-3.34,1.59-5.56,4.51-5.56,7.9
			l0.03,0.44c0.03,0.81,0.24,1.57,0.54,2.32c-2.73,1.83-4.43,4.54-4.43,7.62l0.02,0.45c0.1,1.65,0.7,3.18,1.62,4.48
			c-3.66,2.69-5.69,6.57-5.08,10.62C303.61,604.34,310.92,608.25,319.56,606.85z M330.12,562.19c-1.77-0.11-3.13-1.1-3.05-2.21
			c0.08-1.07,1.57-1.85,3.34-1.75c1.77,0.13,3.11,1.12,3.05,2.22C333.38,561.55,331.9,562.32,330.12,562.19z M324.85,567.38
			c-2.2-0.16-3.92-1.39-3.83-2.76c0.1-1.36,1.96-2.35,4.17-2.19c2.22,0.16,3.94,1.4,3.83,2.76
			C328.92,566.54,327.05,567.53,324.85,567.38z M315.56,571.94c-0.1-1.83,2.25-3.47,5.22-3.63c3-0.16,5.5,1.2,5.61,3.06
			c0.1,1.83-2.25,3.46-5.24,3.63C318.15,575.17,315.65,573.79,315.56,571.94z M311.7,582.35c-0.13-2.29,2.76-4.28,6.42-4.49
			c3.68-0.19,6.78,1.49,6.89,3.76c0.13,2.27-2.76,4.26-6.42,4.48C314.91,586.29,311.81,584.62,311.7,582.35z M308.2,596.85
			c-0.52-3.24,3.31-6.57,8.56-7.41c5.25-0.83,9.96,1.1,10.46,4.36c0.52,3.24-3.31,6.55-8.56,7.41
			C313.42,602.04,308.71,600.11,308.2,596.85z"/>
		<path d="M302.55,622.46c-0.65,4.04,1.39,7.94,5.06,10.63c-0.93,1.3-1.54,2.79-1.64,4.48l-0.02,0.45c0,3.07,1.71,5.77,4.43,7.61
			c-0.28,0.75-0.49,1.51-0.54,2.33l-0.02,0.43c0,3.39,2.22,6.31,5.55,7.91c0.39,3.39,3.05,6,6.68,6.89
			c0.43,0.88,1.04,1.68,1.83,2.36c1.77,1.53,4.3,2.31,6.92,2.12c2-0.15,3.74-0.82,5.14-1.84c11.39,6.65,28.95-1.06,39.8-5.83
			c3.19-1.43,6.85-2.18,11.54-2.31c12.21-0.35,19.51-6.85,19.51-17.37c0-1.73-0.2-3.61-0.61-5.56c-1.43-6.95-5.47-11.47-11.99-13.4
			c-11.41-3.39-21.91,5.28-25.85,8.56c-0.39,0.32-0.71,0.57-0.91,0.74c-3.05,2.21-7.93,1.71-10.86-1.12
			c-0.82-0.8-1.64-1.79-2.53-2.83c-3.91-4.61-9.81-11.6-19.38-9.92c-1.7,0.28-3.24,0.99-4.64,1.94c-2.4-2.64-6.07-4.65-10.46-5.36
			c-3.57-0.58-7.16-0.22-10.11,1.01C305.64,615.97,303.11,618.91,302.55,622.46L302.55,622.46z M311.69,637.88
			c0.13-2.27,3.2-3.94,6.89-3.74c3.68,0.19,6.55,2.2,6.44,4.47c-0.13,2.29-3.21,3.97-6.89,3.76
			C314.45,642.16,311.56,640.17,311.69,637.88L311.69,637.88z M315.56,648.28c0.09-1.84,2.61-3.21,5.59-3.05
			c2.98,0.17,5.32,1.79,5.23,3.63c-0.11,1.86-2.61,3.21-5.6,3.05C317.8,651.75,315.45,650.13,315.56,648.28L315.56,648.28z
			 M321.02,655.6c-0.1-1.36,1.61-2.59,3.83-2.76c2.2-0.15,4.06,0.84,4.17,2.2c0.1,1.36-1.62,2.59-3.83,2.76
			C322.99,657.94,321.11,656.98,321.02,655.6L321.02,655.6z M327.07,660.23c-0.08-1.1,1.3-2.08,3.06-2.2
			c1.76-0.13,3.25,0.65,3.33,1.75c0.08,1.08-1.29,2.06-3.05,2.18C328.65,662.1,327.14,661.31,327.07,660.23L327.07,660.23z
			 M352.6,633.67c4.88,4.75,12.79,5.55,18.17,1.64c2.25-1.62,12.08-11.34,21.78-8.45c4.93,1.47,7.15,4.77,8.04,9.09
			c3,14.38-8.41,15.9-13.48,16.04c-4.75,0.13-9.36,0.85-13.72,2.81c-10.91,4.8-28,12.06-36.24,4.93
			c-12.16-10.54-11.3-35.59-1.51-37.28C343.8,621.01,348.36,629.58,352.6,633.67L352.6,633.67z M318.65,619.02
			c5.25,0.85,9.09,4.17,8.56,7.41c-0.52,3.26-5.19,5.19-10.46,4.35c-5.25-0.84-9.08-4.17-8.56-7.41
			C308.71,620.14,313.4,618.19,318.65,619.02L318.65,619.02z M318.65,619.02"/>
	</g>
	<g id="OutsideSemiFeet">
		<path class="st22" d="M441.85,787.06c2.69,3.65,6.57,5.69,10.62,5.08c6.57-1.07,10.48-8.38,9.08-17.03
			c-0.7-4.4-2.71-8.06-5.37-10.46c0.96-1.4,1.65-2.94,1.95-4.65c1.67-9.57-5.32-15.47-9.94-19.38c-1.04-0.88-2.03-1.69-2.81-2.53
			c-2.85-2.92-3.34-7.78-1.12-10.83c0.15-0.23,0.41-0.52,0.73-0.91c3.28-3.96,11.97-14.45,8.58-25.86c-1.94-6.5-6.45-10.56-13.43-12
			c-1.95-0.41-3.81-0.62-5.56-0.62c-10.52,0-16.99,7.3-17.35,19.52c-0.15,4.7-0.88,8.34-2.34,11.58
			c-4.73,10.8-12.44,28.34-5.81,39.74c-1.02,1.4-1.69,3.16-1.83,5.16c-0.13,1.91,0.24,3.76,1.05,5.33c0.78,1.51,2.01,2.63,3.4,3.32
			c0.88,3.67,3.5,6.36,6.91,6.75c1.61,3.34,4.52,5.55,7.91,5.55l0.42-0.02c0.83-0.03,1.59-0.26,2.33-0.54
			c1.82,2.71,4.54,4.43,7.61,4.43l0.47-0.02C439.03,788.59,440.54,787.99,441.85,787.06z M412.96,764.27
			c0.13-1.77,1.12-3.13,2.22-3.05c1.07,0.06,1.85,1.56,1.72,3.32c-0.1,1.77-1.09,3.13-2.19,3.06
			C413.62,767.52,412.84,766.03,412.96,764.27z M417.14,769.49c0.18-2.22,1.4-3.94,2.76-3.83c1.36,0.1,2.35,1.96,2.21,4.17
			c-0.18,2.21-1.39,3.91-2.76,3.83C417.99,773.56,417,771.69,417.14,769.49z M423.03,773.88c-0.16-2.98,1.2-5.48,3.05-5.59
			c1.85-0.1,3.47,2.25,3.63,5.22c0.16,3-1.2,5.5-3.05,5.61C424.81,779.22,423.17,776.86,423.03,773.88z M432.58,776.56
			c-0.21-3.68,1.49-6.78,3.76-6.89c2.27-0.13,4.26,2.76,4.46,6.42c0.21,3.68-1.46,6.78-3.73,6.89
			C434.77,783.11,432.79,780.22,432.58,776.56z M444.16,777.9c-0.84-5.24,1.1-9.94,4.36-10.46c3.23-0.52,6.55,3.32,7.4,8.58
			c0.84,5.24-1.09,9.92-4.35,10.44C448.32,786.98,445,783.16,444.16,777.9z"/>
		<path d="M477.18,792.12c4.04,0.65,7.93-1.39,10.63-5.06c1.3,0.93,2.79,1.54,4.49,1.64l0.45,0.02c3.07,0,5.77-1.72,7.61-4.43
			c0.75,0.28,1.51,0.49,2.33,0.54l0.43,0.02c3.39,0,6.31-2.22,7.91-5.55c3.39-0.39,6-3.06,6.89-6.68c0.88-0.43,1.68-1.04,2.36-1.83
			c1.53-1.77,2.31-4.3,2.12-6.92c-0.15-2-0.82-3.74-1.84-5.14c6.65-11.39-1.06-28.95-5.83-39.8c-1.43-3.18-2.18-6.85-2.31-11.54
			c-0.35-12.21-6.85-19.51-17.37-19.51c-1.73,0-3.61,0.2-5.56,0.61c-6.95,1.43-11.47,5.47-13.4,11.99
			c-3.39,11.41,5.29,21.91,8.56,25.85c0.32,0.39,0.58,0.71,0.74,0.91c2.21,3.05,1.72,7.93-1.12,10.86c-0.8,0.82-1.79,1.64-2.83,2.53
			c-4.61,3.91-11.6,9.81-9.92,19.37c0.28,1.7,0.98,3.24,1.94,4.64c-2.64,2.4-4.65,6.07-5.36,10.46c-0.58,3.57-0.22,7.17,1.01,10.11
			C470.68,789.03,473.62,791.56,477.18,792.12L477.18,792.12z M492.59,782.98c-2.27-0.13-3.94-3.2-3.74-6.89
			c0.18-3.68,2.19-6.55,4.46-6.44c2.29,0.13,3.97,3.21,3.76,6.88C496.87,780.22,494.88,783.11,492.59,782.98L492.59,782.98z
			 M502.99,779.11c-1.84-0.1-3.21-2.6-3.05-5.59c0.17-2.98,1.78-5.32,3.63-5.23c1.86,0.11,3.22,2.6,3.05,5.6
			C506.46,776.87,504.84,779.22,502.99,779.11L502.99,779.11z M510.32,773.65c-1.36,0.09-2.59-1.61-2.76-3.83
			c-0.15-2.2,0.84-4.06,2.2-4.17c1.36-0.1,2.59,1.62,2.76,3.83C512.66,771.68,511.69,773.56,510.32,773.65L510.32,773.65z
			 M514.95,767.6c-1.1,0.08-2.08-1.3-2.2-3.06c-0.13-1.76,0.65-3.25,1.75-3.33c1.08-0.08,2.06,1.29,2.18,3.05
			C516.81,766.02,516.03,767.53,514.95,767.6L514.95,767.6z M488.38,742.07c4.75-4.88,5.55-12.79,1.64-18.17
			c-1.62-2.25-11.34-12.08-8.45-21.78c1.47-4.93,4.76-7.15,9.09-8.04c14.39-3,15.9,8.41,16.04,13.48c0.13,4.75,0.85,9.36,2.81,13.72
			c4.8,10.91,12.06,28,4.93,36.24c-10.54,12.16-35.59,11.3-37.28,1.51C475.73,750.87,484.29,746.31,488.38,742.07L488.38,742.07z
			 M473.74,776.02c0.85-5.25,4.17-9.09,7.41-8.56c3.26,0.52,5.19,5.19,4.35,10.46c-0.84,5.25-4.17,9.08-7.41,8.56
			C474.85,785.96,472.9,781.27,473.74,776.02L473.74,776.02z M473.74,776.02"/>
	</g>
	<g id="OutsideCompleteFeet">
		<path d="M551.66,758.72c-1.02,1.4-1.69,3.16-1.84,5.16c-0.13,1.92,0.24,3.76,1.06,5.34c0.78,1.5,2.01,2.63,3.4,3.31
			c0.88,3.67,3.5,6.37,6.91,6.76c1.6,3.34,4.52,5.55,7.91,5.55l0.43-0.02c0.82-0.03,1.58-0.25,2.33-0.54
			c1.82,2.72,4.54,4.43,7.61,4.43l0.46-0.02c1.66-0.1,3.17-0.71,4.47-1.62c2.7,3.65,6.57,5.69,10.63,5.07
			c6.57-1.06,10.48-8.38,9.08-17.02c-0.71-4.39-2.72-8.06-5.38-10.46c0.97-1.4,1.66-2.94,1.96-4.66c1.68-9.56-5.32-15.47-9.94-19.37
			c-1.04-0.88-2.03-1.69-2.81-2.53c-2.85-2.93-3.33-7.78-1.12-10.84c0.15-0.22,0.41-0.52,0.73-0.91
			c3.28-3.94,11.97-14.45,8.58-25.85c-1.94-6.51-6.46-10.55-13.42-12c-1.95-0.41-3.82-0.61-5.56-0.61c-10.52,0-17,7.3-17.35,19.53
			c-0.15,4.69-0.87,8.34-2.33,11.58C552.72,729.77,545.02,747.32,551.66,758.72L551.66,758.72z M557.26,767.6
			c-1.08-0.07-1.86-1.56-1.75-3.33c0.13-1.77,1.12-3.13,2.22-3.06c1.08,0.08,1.86,1.56,1.73,3.34
			C559.35,766.31,558.36,767.67,557.26,767.6L557.26,767.6z M561.9,773.65c-1.36-0.09-2.35-1.95-2.2-4.17
			c0.17-2.22,1.4-3.93,2.76-3.82c1.36,0.09,2.35,1.96,2.2,4.17C564.49,772.03,563.26,773.74,561.9,773.65L561.9,773.65z
			 M569.21,779.12c-1.84,0.09-3.48-2.26-3.63-5.23c-0.17-2.99,1.19-5.49,3.05-5.6c1.84-0.09,3.46,2.25,3.63,5.23
			C572.43,776.51,571.06,779.01,569.21,779.12L569.21,779.12z M579.62,782.97c-2.29,0.13-4.28-2.76-4.48-6.42
			c-0.21-3.68,1.49-6.78,3.76-6.89c2.27-0.13,4.26,2.75,4.47,6.42C583.56,779.77,581.89,782.86,579.62,782.97L579.62,782.97z
			 M598.47,776.01c0.84,5.24-1.1,9.94-4.35,10.46c-3.24,0.52-6.57-3.31-7.41-8.56c-0.84-5.24,1.1-9.94,4.36-10.46
			C594.3,766.93,597.62,770.76,598.47,776.01L598.47,776.01z M562.7,721.27c1.97-4.34,2.66-8.95,2.81-13.7
			c0.15-5.06,1.68-16.47,16.05-13.49c4.32,0.91,7.61,3.11,9.08,8.04c2.89,9.72-6.83,19.54-8.45,21.78
			c-3.91,5.4-3.11,13.29,1.64,18.19c4.09,4.22,12.66,8.78,11.24,16.95c-1.71,9.79-26.77,10.63-37.3-1.5
			C550.64,749.28,557.9,732.17,562.7,721.27L562.7,721.27z M562.7,721.27"/>
		<path class="st22" d="M630.36,787.05c1.31,0.94,2.8,1.56,4.49,1.65l0.45,0.02c3.07,0,5.77-1.72,7.61-4.44
			c0.75,0.29,1.51,0.49,2.34,0.55l0.42,0.02c3.39,0,6.31-2.22,7.91-5.55c3.39-0.39,5.98-3.06,6.88-6.68
			c0.89-0.44,1.69-1.05,2.37-1.83c1.52-1.77,2.32-4.3,2.12-6.92c-0.15-2-0.81-3.73-1.83-5.14c6.63-11.38-1.07-28.95-5.84-39.79
			c-1.43-3.18-2.17-6.84-2.3-11.55c-0.36-12.21-6.86-19.51-17.37-19.51c-1.73,0-3.62,0.21-5.56,0.62c-6.95,1.44-11.46,5.48-13.41,12
			c-3.39,11.4,5.29,21.91,8.56,25.85c0.33,0.39,0.59,0.71,0.75,0.91c2.22,3.05,1.72,7.93-1.12,10.85c-0.79,0.83-1.78,1.65-2.82,2.54
			c-4.62,3.91-11.59,9.79-9.93,19.38c0.28,1.69,0.99,3.23,1.93,4.62c-2.64,2.42-4.65,6.06-5.35,10.46c-0.58,3.58-0.23,7.17,1,10.12
			c1.57,3.81,4.53,6.34,8.08,6.91C623.77,792.77,627.67,790.73,630.36,787.05z M635.16,782.98c-2.29-0.13-3.96-3.19-3.75-6.89
			c0.18-3.68,2.19-6.55,4.46-6.44c2.3,0.13,3.97,3.23,3.76,6.89C639.42,780.22,637.43,783.11,635.16,782.98z M645.55,779.1
			c-1.83-0.1-3.21-2.6-3.05-5.58c0.16-2.98,1.78-5.32,3.63-5.24c1.86,0.11,3.21,2.61,3.05,5.61
			C649.02,776.86,647.4,779.22,645.55,779.1z M652.86,773.65c-1.36,0.1-2.58-1.62-2.76-3.83c-0.15-2.2,0.84-4.07,2.2-4.17
			c1.36-0.1,2.58,1.6,2.76,3.83C655.22,771.68,654.24,773.56,652.86,773.65z M659.24,764.28c0.13,1.74-0.65,3.24-1.74,3.32
			c-1.1,0.08-2.09-1.3-2.21-3.06c-0.11-1.75,0.67-3.24,1.77-3.32C658.13,761.14,659.12,762.51,659.24,764.28z M620.64,786.48
			c-3.24-0.52-5.19-5.21-4.35-10.46c0.84-5.25,4.17-9.1,7.41-8.56c3.24,0.52,5.19,5.19,4.35,10.46
			C627.21,783.17,623.89,787,620.64,786.48z"/>
	</g>
	<g id="BacksideCompleteFeet">
		<path d="M745.46,665.84c1.4,1.02,3.16,1.69,5.16,1.84c1.92,0.13,3.76-0.24,5.34-1.06c1.5-0.78,2.63-2.01,3.31-3.41
			c3.67-0.88,6.37-3.5,6.76-6.91c3.34-1.6,5.55-4.52,5.55-7.91l-0.02-0.43c-0.03-0.82-0.25-1.58-0.54-2.33
			c2.72-1.82,4.43-4.54,4.43-7.61l-0.02-0.47c-0.1-1.66-0.71-3.16-1.62-4.47c3.65-2.7,5.69-6.57,5.07-10.63
			c-1.06-6.57-8.38-10.48-17.02-9.08c-4.39,0.71-8.06,2.72-10.46,5.38c-1.4-0.97-2.94-1.66-4.66-1.96
			c-9.56-1.68-15.47,5.32-19.38,9.94c-0.88,1.04-1.69,2.03-2.53,2.81c-2.93,2.85-7.78,3.33-10.84,1.12
			c-0.22-0.15-0.52-0.41-0.91-0.73c-3.94-3.28-14.45-11.97-25.85-8.58c-6.51,1.94-10.56,6.46-12.01,13.42
			c-0.41,1.95-0.61,3.81-0.61,5.56c0,10.52,7.3,17,19.53,17.35c4.69,0.15,8.34,0.87,11.58,2.33
			C716.51,664.78,734.06,672.48,745.46,665.84L745.46,665.84z M754.33,660.24c-0.07,1.08-1.56,1.86-3.33,1.75
			c-1.77-0.13-3.13-1.12-3.06-2.21c0.08-1.08,1.56-1.86,3.33-1.73C753.05,658.15,754.41,659.14,754.33,660.24L754.33,660.24z
			 M760.39,655.6c-0.1,1.36-1.96,2.35-4.17,2.19c-2.22-0.17-3.93-1.4-3.82-2.75c0.09-1.36,1.96-2.35,4.17-2.2
			C758.76,653.01,760.48,654.24,760.39,655.6L760.39,655.6z M765.86,648.28c0.1,1.84-2.26,3.48-5.23,3.63
			c-2.99,0.17-5.49-1.19-5.6-3.05c-0.1-1.84,2.25-3.46,5.23-3.63C763.25,645.06,765.75,646.44,765.86,648.28L765.86,648.28z
			 M769.71,637.88c0.13,2.29-2.76,4.28-6.43,4.48c-3.68,0.2-6.77-1.49-6.88-3.76c-0.14-2.27,2.75-4.26,6.42-4.47
			C766.51,633.93,769.59,635.61,769.71,637.88L769.71,637.88z M762.75,619.02c5.24-0.84,9.94,1.1,10.46,4.35
			c0.52,3.24-3.31,6.57-8.56,7.41c-5.24,0.84-9.94-1.1-10.46-4.36C753.67,623.19,757.5,619.88,762.75,619.02L762.75,619.02z
			 M708,654.8c-4.34-1.97-8.95-2.66-13.7-2.81c-5.06-0.15-16.47-1.68-13.49-16.04c0.91-4.32,3.11-7.61,8.04-9.08
			c9.72-2.89,19.54,6.83,21.78,8.45c5.4,3.91,13.29,3.11,18.19-1.64c4.22-4.1,8.78-12.66,16.95-11.24
			c9.79,1.71,10.64,26.77-1.5,37.3C736.01,666.86,718.91,659.6,708,654.8L708,654.8z M708,654.8"/>
		<path class="st22" d="M771.95,605.84c3.81-1.59,6.34-4.52,6.89-8.08c0.67-4.05-1.38-7.94-5.06-10.64c0.94-1.3,1.56-2.79,1.65-4.48
			l0.02-0.45c0-3.08-1.72-5.77-4.44-7.62c0.29-0.75,0.49-1.51,0.55-2.32l0.02-0.42c0-3.39-2.22-6.32-5.55-7.91
			c-0.39-3.39-3.06-6-6.68-6.89c-0.44-0.88-1.05-1.67-1.83-2.37c-1.77-1.52-4.3-2.3-6.92-2.12c-2,0.16-3.75,0.83-5.14,1.85
			c-11.38-6.65-28.94,1.07-39.79,5.82c-3.18,1.44-6.84,2.19-11.55,2.32c-12.21,0.36-19.51,6.84-19.51,17.37
			c0,1.72,0.21,3.6,0.61,5.56c1.44,6.94,5.48,11.46,12,13.39c11.4,3.39,21.91-5.29,25.85-8.56c0.39-0.31,0.71-0.57,0.91-0.75
			c3.05-2.21,7.93-1.7,10.85,1.12c0.83,0.81,1.64,1.78,2.53,2.84c3.92,4.6,9.81,11.59,19.38,9.92c1.7-0.29,3.24-0.99,4.64-1.95
			c2.42,2.64,6.07,4.65,10.46,5.37C765.42,607.42,769,607.08,771.95,605.84z M769.72,582.35c-0.13,2.27-3.19,3.94-6.89,3.75
			c-3.68-0.19-6.55-2.2-6.44-4.48c0.13-2.29,3.23-3.96,6.89-3.76C766.96,578.07,769.85,580.06,769.72,582.35z M765.84,571.95
			c-0.1,1.83-2.6,3.21-5.58,3.05c-2.98-0.18-5.32-1.78-5.24-3.63c0.11-1.87,2.61-3.23,5.61-3.05
			C763.6,568.48,765.96,570.1,765.84,571.95z M760.39,564.62c0.1,1.36-1.62,2.59-3.83,2.76c-2.2,0.15-4.07-0.83-4.18-2.19
			c-0.08-1.36,1.62-2.59,3.84-2.76C758.42,562.29,760.3,563.25,760.39,564.62z M754.35,559.99c0.08,1.1-1.3,2.09-3.07,2.21
			c-1.77,0.13-3.24-0.65-3.32-1.75c-0.08-1.07,1.3-2.06,3.06-2.17C752.76,558.14,754.26,558.92,754.35,559.99z M762.76,601.21
			c-5.25-0.86-9.1-4.17-8.56-7.41c0.52-3.26,5.19-5.19,10.46-4.36c5.25,0.84,9.08,4.17,8.56,7.41
			C772.7,600.09,768,602.05,762.76,601.21z"/>
	</g>
</g>
</svg>
