<svg xmlns="http://www.w3.org/2000/svg" viewBox="0 0 1920 1080"><g id="Layer_1" data-name="Layer 1"><text transform="translate(733.41 140.82)" font-size="53.7" fill="#010101" font-family="HelveticaNeueLTStd-MdIt, Helvetica Neue LT Std" font-weight="500" font-style="italic">Anatomy of a <tspan x="345.18" y="0" letter-spacing="-0.09em">T</tspan><tspan x="372.09" y="0">rick</tspan></text><text transform="translate(1188.53 220.45)" font-size="26.85" fill="#010101" font-family="HelveticaNeueLTStd-Roman, Helvetica Neue LT Std">Landing</text><text transform="translate(613.49 229.4)" font-size="26.85" fill="#010101" font-family="HelveticaNeueLTStd-Roman, Helvetica Neue LT Std"><tspan letter-spacing="-0.11em">T</tspan><tspan x="12.43" y="0">akeo</tspan><tspan x="70.61" y="0" letter-spacing="-0.02em">f</tspan><tspan x="78.08" y="0">f</tspan></text><text transform="translate(912.94 189.13)" font-size="26.85" fill="#010101" font-family="HelveticaNeueLTStd-Roman, Helvetica Neue LT Std">Co<tspan x="34.8" y="0" letter-spacing="-0.02em">r</tspan><tspan x="43.25" y="0" letter-spacing="0em">e</tspan><tspan x="57.67" y="0" letter-spacing="-0.09em">T</tspan><tspan x="70.61" y="0">rick</tspan></text><text transform="translate(881.12 643.35)" font-size="26.85" fill="#010101" font-family="HelveticaNeueLTStd-Roman, Helvetica Neue LT Std">NEW Co<tspan x="102.92" y="0" letter-spacing="-0.02em">r</tspan><tspan x="111.37" y="0">e</tspan><tspan x="125.79" y="0" letter-spacing="-0.09em">T</tspan><tspan x="138.73" y="0">rick</tspan></text><text transform="translate(843.81 299.22)" font-size="17.9" fill="#010101" font-family="HelveticaNeueLTStd-Roman, Helvetica Neue LT Std">Beginning</text><text transform="translate(741.03 299.22)" font-size="17.9" fill="#010101" font-family="HelveticaNeueLTStd-Roman, Helvetica Neue LT Std">Entrance</text><text transform="translate(944.92 299.22)" font-size="17.9" fill="#010101" font-family="HelveticaNeueLTStd-Roman, Helvetica Neue LT Std">Middle</text><text transform="translate(1037.93 299.22)" font-size="17.9" fill="#010101" font-family="HelveticaNeueLTStd-Roman, Helvetica Neue LT Std">End</text><text transform="translate(1125.88 299.22)" font-size="17.9" fill="#010101" font-family="HelveticaNeueLTStd-Roman, Helvetica Neue LT Std">Exit</text><text transform="translate(894.77 204.79)" font-size="15.66" fill="#010101" font-family="HelveticaNeueLTStd-Lt, Helvetica Neue LT Std">Set of Movements<tspan x="0" y="18.79">That meets the criteria</tspan></text><text transform="translate(909.15 464.34)" font-size="15.66" fill="#010101" font-family="HelveticaNeueLTStd-Lt, Helvetica Neue LT Std">Can Be applied to <tspan x="-8.68" y="18.79">any of the “elements”</tspan><tspan x="-13.92" y="37.59">of the </tspan><tspan x="28.73" y="37.59" letter-spacing="-0.09em">T</tspan><tspan x="36" y="37.59">rick. Explains in</tspan><tspan x="-29.75" y="56.39">what way they a</tspan><tspan x="79.64" y="56.39" letter-spacing="-0.02em">r</tspan><tspan x="84.29" y="56.39">e changed</tspan><tspan x="-37.43" y="75.18">f</tspan><tspan x="-33.37" y="75.18" letter-spacing="-0.02em">r</tspan><tspan x="-28.72" y="75.18">om the element they change</tspan></text><text transform="translate(613.49 249.54)" font-size="15.66" fill="#010101" font-family="HelveticaNeueLTStd-Lt, Helvetica Neue LT Std">Denotes how<tspan x="0" y="18.79">many feet, in </tspan><tspan x="0" y="37.59">what o</tspan><tspan x="45.84" y="37.59" letter-spacing="-0.02em">r</tspan><tspan x="50.5" y="37.59">de</tspan><tspan x="67.61" y="37.59" letter-spacing="-0.09em">r</tspan><tspan x="71.11" y="37.59">,</tspan><tspan x="0" y="56.39">and in which wa</tspan><tspan x="109.09" y="56.39" letter-spacing="-0.09em">y</tspan><tspan x="114.9" y="56.39" letter-spacing="0em">.</tspan></text><text transform="translate(1188.53 240.59)" font-size="15.66" fill="#010101" font-family="HelveticaNeueLTStd-Lt, Helvetica Neue LT Std">Denotes how<tspan x="0" y="18.79">many feet, in </tspan><tspan x="0" y="37.59">what o</tspan><tspan x="45.84" y="37.59" letter-spacing="-0.02em">r</tspan><tspan x="50.5" y="37.59">de</tspan><tspan x="67.61" y="37.59" letter-spacing="-0.09em">r</tspan><tspan x="71.11" y="37.59">,</tspan><tspan x="0" y="56.39">and in which wa</tspan><tspan x="109.09" y="56.39" letter-spacing="-0.09em">y</tspan><tspan x="114.9" y="56.39" letter-spacing="0em">.</tspan></text><text transform="translate(378.38 249.36) rotate(0.02)" font-size="15.66" fill="#010101" font-family="HelveticaNeueLTStd-Lt, Helvetica Neue LT Std">Denotes orientation<tspan x="0" y="18.79">to Di</tspan><tspan x="31.32" y="18.79" letter-spacing="-0.02em">r</tspan><tspan x="35.98" y="18.79">ection of Momentum</tspan></text><text transform="translate(1342.92 240.59)" font-size="15.66" fill="#010101" font-family="HelveticaNeueLTStd-Lt, Helvetica Neue LT Std">Denotes orientation<tspan x="0" y="18.79">to Di</tspan><tspan x="31.33" y="18.79" letter-spacing="-0.02em">r</tspan><tspan x="35.98" y="18.79">ection of Movement</tspan></text><text transform="translate(373.92 229.22) rotate(0.02)" font-size="26.85" fill="#010101" font-family="HelveticaNeueLTStd-Roman, Helvetica Neue LT Std"><tspan letter-spacing="-0.11em">T</tspan><tspan x="12.43" y="0">akeo</tspan><tspan x="70.61" y="0" letter-spacing="-0.02em">f</tspan><tspan x="78.08" y="0" letter-spacing="0em">f Stance</tspan></text><text transform="translate(1342.92 220.45)" font-size="26.85" fill="#010101" font-family="HelveticaNeueLTStd-Roman, Helvetica Neue LT Std">Landing Stance</text><line x1="885.37" y1="274.9" x2="921.17" y2="239.1" fill="none" stroke="#67308f" stroke-miterlimit="10"/><text transform="translate(913.7 439.73)" font-size="26.85" fill="#010101" font-family="HelveticaNeueLTStd-Roman, Helvetica Neue LT Std"><tspan letter-spacing="-0.05em">V</tspan><tspan x="14.93" y="0">ariations</tspan></text><line x1="1445.97" y1="296.16" x2="1056.64" y2="437.12" fill="none" stroke="#67308f" stroke-miterlimit="10"/><line x1="1213.96" y1="314.06" x2="1070.07" y2="408.03" fill="none" stroke="#67308f" stroke-miterlimit="10"/><line x1="1132.72" y1="314.06" x2="1046.15" y2="396.85" fill="none" stroke="#67308f" stroke-miterlimit="10"/><line x1="463.7" y1="311.82" x2="884.36" y2="425.93" fill="none" stroke="#67308f" stroke-miterlimit="10"/><line x1="669.55" y1="331.96" x2="895.54" y2="399.08" fill="none" stroke="#67308f" stroke-miterlimit="10"/><line x1="783.67" y1="320.77" x2="904.49" y2="383.42" fill="none" stroke="#67308f" stroke-miterlimit="10"/><line x1="1056.64" y1="311.82" x2="1021.54" y2="394.61" fill="none" stroke="#67308f" stroke-miterlimit="10"/><line x1="972.11" y1="310.7" x2="972.11" y2="391.25" fill="none" stroke="#67308f" stroke-miterlimit="10"/><line x1="884.36" y1="318.53" x2="940.29" y2="385.66" fill="none" stroke="#67308f" stroke-miterlimit="10"/><line x1="1128.25" y1="271.55" x2="1077.9" y2="221.2" fill="none" stroke="#67308f" stroke-miterlimit="10"/><line x1="864.04" y1="222.14" x2="809.3" y2="276.89" fill="none" stroke="#67308f" stroke-miterlimit="10"/><line x1="1019.69" y1="242.46" x2="1053.25" y2="276.02" fill="none" stroke="#67308f" stroke-miterlimit="10"/><line x1="969.87" y1="239.1" x2="969.87" y2="277.14" fill="none" stroke="#67308f" stroke-miterlimit="10"/><line x1="972.11" y1="550.12" x2="972.11" y2="601.28" fill="none" stroke="#67308f" stroke-miterlimit="10" stroke-width="4"/><polygon points="964.13 598.95 972.11 612.77 980.09 598.95 964.13 598.95" fill="#67308f"/><path d="M1479.23,1074.81c-2.06-.12-10.61-.12-47.6-.12h-12.34l-74.85-74a3.49,3.49,0,0,1-1-2.21h210.93a3.54,3.54,0,0,1-1,2.22Z" fill="#fff"/><path d="M1553.78,999a3.05,3.05,0,0,1-.78,1.36l-73.91,73.91h-4.58l-12.31,0h-30.57c-8.06,0-11,0-12.13,0l-74.7-73.88A3,3,0,0,1,1344,999h209.76m1.09-1H1342.93a4,4,0,0,0,1.16,3.07l75,74.16h12.55c17.7,0,47.86,0,47.88,0l74.19-74.2a4,4,0,0,0,1.17-3.07Z" fill="#010101"/><text transform="translate(1399.44 1050.21)" font-size="16.71" fill="#010101" font-family="MyriadPro-Regular, Myriad Pro">B</text><text transform="translate(1442.95 1066.88)" font-size="16.71" fill="#010101" font-family="MyriadPro-Regular, Myriad Pro">M</text><text transform="translate(1486.37 1052.99)" font-size="16.71" fill="#010101" font-family="MyriadPro-Regular, Myriad Pro">E</text><text transform="translate(1357.23 1011.33)" font-size="16.71" fill="#010101" font-family="MyriadPro-Regular, Myriad Pro">En</text><text transform="translate(1507.89 1011.33)" font-size="16.71" fill="#010101" font-family="MyriadPro-Regular, Myriad Pro">Ex</text><text transform="translate(1412.27 1027.15)" font-size="16.71" fill="#010101" font-family="MyriadPro-Regular, Myriad Pro"><tspan letter-spacing="-0.05em">T</tspan><tspan x="7.55" y="0" letter-spacing="-0.01em">r</tspan><tspan x="12.93" y="0">ansition</tspan></text><path d="M678.23,880.84c-1.78-.1-8.43-.11-34.31-.13-19.49,0-43.39,0-61.07,0-21.94,0-24.73,0-25.16.05l.09,0-149.61-1.86a7.52,7.52,0,0,1-2.05-5.28l422.46-146a7.5,7.5,0,0,1-2.19,5.09Z" fill="#fff"/><path d="M828,728.31a6.93,6.93,0,0,1-2,4l-148,148c-.48,0-1.19,0-2.24,0l-7.32,0-24.59,0c-19.49,0-43.39,0-61.08,0-19.82,0-24,0-25.06.05v0l-149.4-1.86a7.06,7.06,0,0,1-1.77-4.42L828,728.31m1.05-1.42L405.63,873.2a8,8,0,0,0,2.33,6.14l149.81,1.86c.06,0,10.43,0,25.08,0,35.37,0,95.62.06,95.65.11L826.75,733a8,8,0,0,0,2.32-6.14Z" fill="#010101"/><text transform="translate(548.26 869.08)" font-size="33.38" fill="#010101" font-family="MyriadPro-Regular, Myriad Pro">B</text><text transform="translate(610.16 870.59)" font-size="33.38" fill="#010101" font-family="MyriadPro-Regular, Myriad Pro">M</text><text transform="translate(667.52 854.1)" font-size="33.38" fill="#010101" font-family="MyriadPro-Regular, Myriad Pro">E</text><text transform="translate(489.06 872.21)" font-size="33.38" fill="#010101" font-family="MyriadPro-Regular, Myriad Pro">En</text><text transform="translate(717.75 800.48)" font-size="33.38" fill="#010101" font-family="MyriadPro-Regular, Myriad Pro">Ex</text><text transform="translate(593.75 836.82)" font-size="33.38" fill="#010101" font-family="MyriadPro-Regular, Myriad Pro"><tspan letter-spacing="0.01em">S</tspan><tspan x="16.66" y="0">etup</tspan></text><path d="M1486.31,1075.8a7,7,0,0,1,2-4.88L1626.67,932.6c1.72.1,8,.1,32,.13,18.18,0,40.48,0,57,0,17.91,0,22.18,0,23.26,0l139.74,138.21a7,7,0,0,1,2,4.87Z" fill="#fff"/><path d="M1626.81,933.16l2.07,0,6.84,0,23,0c18.19,0,40.51,0,57,0s21.45,0,23,0l139.59,138.06a6.47,6.47,0,0,1,1.86,4H1486.83a6.52,6.52,0,0,1,1.86-4l138.12-138.12m-.42-1L1488,1070.57a7.45,7.45,0,0,0-2.17,5.73h395.34a7.52,7.52,0,0,0-2.17-5.73L1739.11,932.23s-9.74,0-23.41,0c-33,0-89.27,0-89.31-.1Z" fill="#010101"/><text transform="translate(1597.85 985.97)" font-size="31.17" fill="#010101" font-family="MyriadPro-Regular, Myriad Pro">B</text><text transform="translate(1669.77 958.79)" font-size="31.17" fill="#010101" font-family="MyriadPro-Regular, Myriad Pro">M</text><text transform="translate(1749.65 988.56)" font-size="31.17" fill="#010101" font-family="MyriadPro-Regular, Myriad Pro">E</text><text transform="translate(1539.85 1066.26)" font-size="31.17" fill="#010101" font-family="MyriadPro-Regular, Myriad Pro">En</text><text transform="translate(1816.99 1066.26)" font-size="31.17" fill="#010101" font-family="MyriadPro-Regular, Myriad Pro">Ex</text><text transform="translate(1653.21 1025.83)" font-size="31.17" fill="#010101" font-family="MyriadPro-Regular, Myriad Pro"><tspan letter-spacing="-0.04em">T</tspan><tspan x="14.09" y="0" letter-spacing="0em">r</tspan><tspan x="24.4" y="0">ick</tspan></text><path d="M681.85,882.53a10.55,10.55,0,0,1,3.06-7.58L888.5,671.37c2,.13,10.57.13,47.25.17,26.79,0,59.65,0,83.94,0,27.16,0,32.9,0,34.17,0L1259.54,875a10.51,10.51,0,0,1,3.06,7.57Z" fill="#fff"/><path d="M888.64,671.93c.63,0,1.62,0,3.24,0l10.06,0,33.78,0c27.11,0,60,0,83.91,0,25.47,0,32.16,0,34-.05l205.53,203.28a10,10,0,0,1,2.91,6.72H682.36a10,10,0,0,1,2.91-6.72L888.64,671.93m-.42-1L684.56,874.6a11,11,0,0,0-3.19,8.43h581.71a11,11,0,0,0-3.19-8.43L1054.07,671c-.07,0-14.32,0-34.44,0-48.58,0-131.37-.07-131.41-.14Z" fill="#010101"/><text transform="translate(859.56 780.6)" font-size="45.86" fill="#010101" font-family="MyriadPro-Regular, Myriad Pro">B</text><text/><text transform="translate(1092.78 795.69)" font-size="45.86" fill="#010101" font-family="MyriadPro-Regular, Myriad Pro">E</text><text transform="translate(760.87 868.26)" font-size="45.86" fill="#010101" font-family="MyriadPro-Regular, Myriad Pro">En</text><text transform="translate(1168.67 868.26)" font-size="45.86" fill="#010101" font-family="MyriadPro-Regular, Myriad Pro">Ex</text><text transform="translate(927.67 808.77)" font-size="45.86" fill="#010101" font-family="MyriadPro-Regular, Myriad Pro"><tspan letter-spacing="-0.04em">T</tspan><tspan x="20.73" y="0" letter-spacing="0em">r</tspan><tspan x="35.91" y="0">ick</tspan></text><line x1="832.59" y1="726.89" x2="832.59" y2="881.18" fill="none" stroke="#67308f" stroke-miterlimit="10"/><line x1="927.62" y1="674.04" x2="927.62" y2="883.89" fill="none" stroke="#67308f" stroke-miterlimit="10"/><line x1="1069.58" y1="688.71" x2="1069.58" y2="881.86" fill="none" stroke="#67308f" stroke-miterlimit="10"/><line x1="1156.8" y1="774.33" x2="1156.8" y2="881.86" fill="none" stroke="#67308f" stroke-miterlimit="10"/><text/></g><g id="Layer_5" data-name="Layer 5"><path d="M331.67,866.2s306-71.73,430.73-165.07c194.53-145.52,205.13-207.73,340.75-56.06,129.21,144.5,182.25,242.55,258.74,240.58" fill="none" stroke="#010101" stroke-linecap="round" stroke-miterlimit="10" stroke-width="12"/></g></svg>