<svg version="1.1" xmlns="http://www.w3.org/2000/svg" viewBox="0 0 956.4660445928574 175.50099217034878" width="956.4660445928574" height="175.50099217034878">
  <!-- svg-source:excalidraw -->
  
  <defs>
    <style>
      @font-face {
        font-family: "Virgil";
      }
      @font-face {
        font-family: "Cascadia";
      }
    </style>
  </defs>
  <rect x="0" y="0" width="956.4660445928574" height="175.50099217034878" fill="none"></rect><g stroke-linecap="round"><g transform="translate(9.530184926092602 150.21901776976884) rotate(0 95.83541975133113 -33.079427340440446)"><path d="M2.54 0.59 C34.28 -10.3, 159.81 -55.71, 191.2 -66.75 M0.47 -1.56 C31.68 -12.06, 157.14 -54.12, 188.47 -64.41" stroke="#d4d4d8" stroke-width="1" fill="none"></path></g></g><g stroke-linecap="round"><g transform="translate(18.530184926092602 159.21901776976884) rotate(0 457.3929476877301 1.2937245676294005)"><path d="M2.48 0.39 C154.82 0.38, 762.39 1.21, 914.4 1.5 M0.38 -1.87 C152.51 -1.64, 761.09 3.32, 913.36 4.46" stroke="#d4d4d8" stroke-width="1" fill="none"></path></g></g><g stroke-linecap="round"><g transform="translate(176.5301849260926 147.21901776976884) rotate(0 41.59823238234969 -66.45542721383273)"><path d="M-2.26 -2.27 C11.63 -24.84, 71.18 -113.18, 85.46 -135.58 M1.7 2.67 C15.27 -19.49, 71.31 -109.57, 84.69 -132.46" stroke="#d4d4d8" stroke-width="1" fill="none"></path></g></g><g stroke-linecap="round"><g transform="translate(485.5301849260926 151.21901776976884) rotate(0 -30.818043906092726 -65.20236606013029)"><path d="M-0.26 -2.4 C-10.89 -24.15, -51.77 -107.32, -61.38 -128.94 M-3.85 2.48 C-13.84 -20.2, -47.04 -110.85, -56.25 -132.88" stroke="#d4d4d8" stroke-width="1" fill="none"></path></g></g><g stroke-linecap="round"><g transform="translate(253.5301849260926 15.21901776976884) rotate(0 84.89199055619531 -1.6238618928939133)"><path d="M-2.35 1.97 C26.38 1.5, 142.98 -4.6, 172.13 -5.22 M1.57 0.57 C30.06 0.69, 142.16 -1.15, 170.51 -2.25" stroke="#d4d4d8" stroke-width="1" fill="none"></path></g></g><g stroke-linecap="round"><g transform="translate(480.5301849260926 80.21901776976884) rotate(0 86.81136883556849 -2.295198212191462)"><path d="M2.39 0.2 C30.71 -0.15, 139.96 -3.94, 168.39 -4.79 M0.25 -2.16 C29.53 -1.86, 144.71 -1.58, 173.37 -1.59" stroke="#d4d4d8" stroke-width="1" fill="none"></path></g></g><g stroke-linecap="round"><g transform="translate(637.5301849260926 154.21901776976884) rotate(0 34.347901483736905 -64.72655075788497)"><path d="M1.13 1.31 C13.06 -19.73, 58.36 -105.47, 70.4 -126.97 M-1.7 -0.45 C9.91 -22.18, 55.37 -108.77, 67.79 -130.76" stroke="#d4d4d8" stroke-width="1" fill="none"></path></g></g><g stroke-linecap="round"><g transform="translate(944.5301849260926 161.21901776976884) rotate(0 -28.312993152514082 -64.13311253488061)"><path d="M-2.11 -1.22 C-12.08 -23.53, -47.72 -110.59, -57.28 -132.55 M1.94 4.28 C-8.48 -17.8, -47.99 -107.27, -58.56 -129.81" stroke="#d4d4d8" stroke-width="1" fill="none"></path></g></g><g stroke-linecap="round"><g transform="translate(712.5301849260926 25.21901776976884) rotate(0 86.19648640930654 -1.3183270680531862)"><path d="M1.5 -1.59 C29.56 -2.73, 140.63 -5.77, 168.49 -6.36 M-1.13 3.72 C27.75 2.8, 144.31 -2.95, 173.53 -4.01" stroke="#d4d4d8" stroke-width="1" fill="none"></path></g></g><g transform="translate(770.5301849260926 85.21901776976884) rotate(0 30.5 12.5)"><text x="0" y="18" font-family="Virgil, Segoe UI Emoji" font-size="20px" fill="#d4d4d8" text-anchor="start" style="white-space: pre;" direction="ltr">Tricks</text></g><g transform="translate(508.5301849260926 103.21901776976884) rotate(0 55.5 12.5)"><text x="0" y="18" font-family="Virgil, Segoe UI Emoji" font-size="20px" fill="#d4d4d8" text-anchor="start" style="white-space: pre;" direction="ltr">Transitions</text></g><g transform="translate(88.5301849260926 121.21901776976884) rotate(0 33.5 12.5)"><text x="0" y="18" font-family="Virgil, Segoe UI Emoji" font-size="20px" fill="#d4d4d8" text-anchor="start" style="white-space: pre;" direction="ltr">Setups</text></g><g transform="translate(251.5301849260926 99.21901776976884) rotate(0 30.5 12.5)"><text x="0" y="18" font-family="Virgil, Segoe UI Emoji" font-size="20px" fill="#d4d4d8" text-anchor="start" style="white-space: pre;" direction="ltr">Tricks</text></g><g transform="translate(351.5301849260926 98.21901776976884) rotate(0 39.5 12.5)"><text x="0" y="18" font-family="Virgil, Segoe UI Emoji" font-size="20px" fill="#d4d4d8" text-anchor="start" style="white-space: pre;" direction="ltr">Stances</text></g><g transform="translate(325.5301849260926 101.21901776976884) rotate(0 7 12.5)"><text x="0" y="18" font-family="Virgil, Segoe UI Emoji" font-size="20px" fill="#d4d4d8" text-anchor="start" style="white-space: pre;" direction="ltr">+</text></g><g stroke-linecap="round"><g transform="translate(161.5301849260925 144.71901776976884) rotate(0 17.24198778070513 -28.19283758439123)"><path d="M1.21 -2.76 C7.21 -12.51, 30.85 -49.04, 36.06 -58.31 M-1.58 1.92 C4.16 -7.59, 27.93 -46.26, 34.55 -56.02" stroke="#d4d4d8" stroke-width="1" fill="none"></path></g></g><g stroke-linecap="round"><g transform="translate(627.7700135612487 151.6070653925091) rotate(0 16.229650096632554 -35.97429874509572)"><path d="M0.36 1.06 C5.34 -10.24, 24.65 -56.62, 30.11 -68.78 M-2.9 -0.83 C2.94 -12.87, 29.58 -61.53, 35.36 -73.01" stroke="#d4d4d8" stroke-width="1" fill="none"></path></g></g><g stroke-linecap="round"><g transform="translate(500.25984219640475 149.74511301524936) rotate(0 -13.131327707208698 -33.82529714483766)"><path d="M-0.2 -2.78 C-4.48 -13.36, -22.42 -54.62, -26.06 -65.87 M-3.76 1.89 C-7.12 -9.21, -17.61 -57.86, -20.77 -69.54" stroke="#d4d4d8" stroke-width="1" fill="none"></path></g></g></svg>