<svg id="Layer_1" data-name="Layer 1" xmlns="http://www.w3.org/2000/svg" viewBox="0 0 800.96 1080"><defs><style>.cls-1{fill:#f68844;}.cls-1,.cls-2{opacity:0.33;}.cls-2{fill:#64cdf2;}.cls-3{fill:#67308f;}.cls-4{font-size:28.29px;}.cls-11,.cls-4,.cls-5,.cls-9{fill:#010101;}.cls-11,.cls-4{font-family:HelveticaNeueLTStd-Blk, Helvetica Neue LT Std;}.cls-5{font-size:14.47px;font-family:HelveticaNeueLTStd-MdIt, Helvetica Neue LT Std;font-weight:500;font-style:italic;}.cls-6{letter-spacing:0.02em;}.cls-7{letter-spacing:0em;}.cls-8{fill:none;stroke:#67308f;stroke-miterlimit:10;stroke-width:2px;}.cls-9{font-size:18.09px;font-family:HelveticaNeueLTStd-Hv, Helvetica Neue LT Std;}.cls-10{letter-spacing:-0.02em;}.cls-11{font-size:10.21px;}.cls-12{letter-spacing:-0.02em;}.cls-13{letter-spacing:-0.02em;}</style></defs><rect class="cls-1" x="553" y="611.02" width="64.9" height="66.28" rx="12"/><rect class="cls-1" x="442.47" y="611.02" width="102.52" height="66.28" rx="12"/><rect class="cls-2" x="322.76" y="611.02" width="109.57" height="66.28" rx="12"/><rect class="cls-2" x="442.47" y="611.02" width="102.52" height="66.28" rx="12"/><rect class="cls-1" x="553" y="533.16" width="64.9" height="66.28" rx="12"/><rect class="cls-1" x="442.47" y="533.16" width="102.52" height="66.28" rx="12"/><rect class="cls-1" x="444.94" y="192.38" width="67.05" height="299.94" rx="12"/><rect class="cls-2" x="321.42" y="196.29" width="113.05" height="296.03" rx="12"/><rect class="cls-2" x="322.76" y="533.16" width="109.57" height="66.28" rx="12"/><path d="M372.78,312.3a3.62,3.62,0,0,0,.27-3.68,2.62,2.62,0,0,0-1.19-1.16,2.93,2.93,0,0,0-2.42-2.37,3.15,3.15,0,0,0-2.78-1.94h-.15a2.52,2.52,0,0,0-.81.19,3.24,3.24,0,0,0-2.67-1.55h-.16a3.11,3.11,0,0,0-1.57.57,3.92,3.92,0,0,0-3.72-1.77c-2.31.37-3.68,2.93-3.19,6a6.24,6.24,0,0,0,1.89,3.67,4.15,4.15,0,0,0-.69,1.63c-.59,3.35,1.87,5.42,3.49,6.79a11,11,0,0,1,1,.89,3.06,3.06,0,0,1,.39,3.79,3.27,3.27,0,0,1-.25.32c-1.15,1.39-4.2,5.07-3,9.07a5.79,5.79,0,0,0,4.7,4.21,9.85,9.85,0,0,0,2,.21c3.68,0,5.95-2.56,6.08-6.84a10.38,10.38,0,0,1,.81-4.06c1.67-3.79,4.37-9.94,2-13.93Zm-2-3.11c.38,0,.66.54.62,1.16s-.39,1.1-.78,1.08-.65-.55-.61-1.17.39-1.1.77-1.07Zm-1.62-2.13c.48,0,.82.69.77,1.47s-.49,1.37-1,1.33-.82-.68-.77-1.46.49-1.37,1-1.34Zm-2.57-1.91c.65,0,1.22.79,1.28,1.83s-.42,1.93-1.07,2-1.22-.78-1.28-1.83.43-1.92,1.07-2ZM363,303.8c.8-.05,1.5,1,1.57,2.25s-.52,2.37-1.32,2.41-1.49-1-1.56-2.25.51-2.37,1.31-2.41Zm-6.61,2.44c-.3-1.84.38-3.49,1.52-3.67s2.31,1.16,2.6,3-.38,3.49-1.53,3.67-2.29-1.16-2.59-3Zm12.54,19.19a12.49,12.49,0,0,0-1,4.8c-.05,1.77-.58,5.77-5.62,4.73a3.85,3.85,0,0,1-3.19-2.82c-1-3.41,2.4-6.85,3-7.63a5.06,5.06,0,0,0-.58-6.38c-1.43-1.48-4.43-3.08-3.94-5.94.6-3.43,9.38-3.73,13.08.53,2.5,2.89-.05,8.88-1.73,12.71Zm0,0"/><path class="cls-3" d="M352.1,306.55a6.52,6.52,0,0,0-.35-3.54,3.77,3.77,0,0,0-2.84-2.42,3.9,3.9,0,0,0-3.72,1.77,3.08,3.08,0,0,0-1.57-.57h-.16a3.24,3.24,0,0,0-2.67,1.55,2.81,2.81,0,0,0-.81-.19h-.15a3.13,3.13,0,0,0-2.77,1.95,2.9,2.9,0,0,0-2.42,2.34,2.41,2.41,0,0,0-.82.64,3.31,3.31,0,0,0-.75,2.42,3.42,3.42,0,0,0,.64,1.81c-2.33,4,.37,10.14,2.05,13.95a10.42,10.42,0,0,1,.81,4c.12,4.28,2.4,6.84,6.08,6.84a9.75,9.75,0,0,0,2-.21,5.76,5.76,0,0,0,4.7-4.21c1.19-4-1.85-7.68-3-9.06l-.26-.32a3.08,3.08,0,0,1,.39-3.8c.28-.29.63-.58,1-.89,1.62-1.37,4.07-3.44,3.48-6.8a4.15,4.15,0,0,0-.68-1.62A6.29,6.29,0,0,0,352.1,306.55Zm-8.59-2.76c.8,0,1.39,1.13,1.31,2.42s-.77,2.3-1.56,2.26-1.39-1.13-1.32-2.42S342.71,303.75,343.51,303.79Zm-3.64,1.36c.64,0,1.13.91,1.06,2s-.62,1.86-1.27,1.83-1.13-.91-1.06-2S339.22,305.12,339.87,305.15Zm-2.57,1.91c.48,0,.91.57,1,1.34s-.29,1.43-.77,1.47-.91-.57-1-1.34S336.82,307.1,337.3,307.06Zm-1.62,2.12c.38,0,.73.46.77,1.07s-.23,1.15-.62,1.17-.72-.45-.76-1.07S335.3,309.21,335.68,309.18Zm9.31,9a5,5,0,0,0-.57,6.37c.56.78,4,4.23,2.95,7.62a3.77,3.77,0,0,1-3.18,2.82c-5,1.06-5.57-2.95-5.62-4.72a12.43,12.43,0,0,0-1-4.81c-1.68-3.82-4.23-9.81-1.73-12.7,3.7-4.26,12.48-4,13.07-.53C349.42,315.05,346.42,316.65,345,318.14Zm5.13-11.9c-.3,1.83-1.46,3.18-2.6,3s-1.81-1.83-1.52-3.67,1.46-3.19,2.6-3S350.41,304.39,350.12,306.24Z"/><path class="cls-3" d="M344.42,324.51c.56.78,4,4.23,2.95,7.62a3.77,3.77,0,0,1-3.18,2.82c-5,1.06-5.57-2.95-5.62-4.72a12.43,12.43,0,0,0-1-4.81c-1.68-3.82-4.23-9.81-1.73-12.7,3.7-4.26,12.48-4,13.07-.53.5,2.86-2.5,4.46-3.93,5.95A5,5,0,0,0,344.42,324.51Z"/><path class="cls-3" d="M371.87,455.16a3.43,3.43,0,0,0,.65-1.8,3.62,3.62,0,0,0-.38-1.88,2.59,2.59,0,0,0-1.19-1.15,2.93,2.93,0,0,0-2.42-2.38,3.15,3.15,0,0,0-2.78-1.94h-.14a2.52,2.52,0,0,0-.82.19,3.25,3.25,0,0,0-2.67-1.56H362a3,3,0,0,0-1.56.57,3.94,3.94,0,0,0-3.73-1.77c-2.31.37-3.68,2.93-3.19,6a6.33,6.33,0,0,0,1.89,3.67,3.88,3.88,0,0,0-.68,1.63c-.59,3.35,1.86,5.42,3.48,6.79a12.79,12.79,0,0,1,1,.88,3.07,3.07,0,0,1,.38,3.8,2.21,2.21,0,0,1-.25.32c-1.14,1.39-4.19,5.07-3,9.06a5.79,5.79,0,0,0,4.71,4.21,9.07,9.07,0,0,0,1.95.21c3.69,0,6-2.55,6.08-6.84a10.46,10.46,0,0,1,.81-4.06C371.5,465.31,374.2,459.16,371.87,455.16Zm-2.73-2c0-.62.38-1.09.77-1.07s.65.55.61,1.17-.39,1.1-.78,1.07S369.09,453.75,369.14,453.12Zm-1.82-1.85c.06-.77.48-1.37,1-1.34s.81.69.76,1.46-.49,1.38-1,1.34S367.27,452.05,367.32,451.27Zm-1.6-3.25c.65,0,1.22.79,1.27,1.83s-.42,1.92-1.07,2-1.21-.79-1.27-1.83S365.07,448.05,365.72,448Zm-3.65-1.36c.8,0,1.5,1,1.57,2.26s-.52,2.37-1.32,2.4-1.49-1-1.56-2.24S361.28,446.7,362.07,446.66Zm-6.61,2.44c-.29-1.83.39-3.48,1.53-3.66s2.3,1.16,2.59,3-.38,3.48-1.52,3.66S355.76,451,355.46,449.1ZM368,468.29a12.54,12.54,0,0,0-1,4.81c-.05,1.77-.58,5.77-5.62,4.73a3.85,3.85,0,0,1-3.18-2.82c-1-3.41,2.39-6.85,3-7.64a5.06,5.06,0,0,0-.57-6.37c-1.44-1.48-4.44-3.08-4-5.95.61-3.43,9.39-3.73,13.08.53C372.23,458.47,369.68,464.47,368,468.29Z"/><path class="cls-3" d="M368,468.29a12.54,12.54,0,0,0-1,4.81c-.05,1.77-.58,5.77-5.62,4.73a3.85,3.85,0,0,1-3.18-2.82c-1-3.41,2.39-6.85,3-7.64a5.06,5.06,0,0,0-.57-6.37c-1.44-1.48-4.44-3.08-4-5.95.61-3.43,9.39-3.73,13.08.53C372.23,458.47,369.68,464.47,368,468.29Z"/><path d="M348,443.46a3.92,3.92,0,0,0-3.73,1.77,3,3,0,0,0-1.57-.57h-.16a3.24,3.24,0,0,0-2.66,1.55,3.26,3.26,0,0,0-.82-.19h-.15a3.15,3.15,0,0,0-2.77,1.94,2.93,2.93,0,0,0-2.42,2.34,2.77,2.77,0,0,0-.82.64,3.38,3.38,0,0,0-.75,2.43,3.43,3.43,0,0,0,.65,1.8c-2.33,4,.37,10.15,2,13.95a10.47,10.47,0,0,1,.81,4.05c.12,4.28,2.4,6.83,6.09,6.83a9.91,9.91,0,0,0,1.95-.21,5.75,5.75,0,0,0,4.69-4.2c1.19-4-1.85-7.68-3-9.07l-.26-.31a3.11,3.11,0,0,1,.39-3.81c.28-.29.63-.57,1-.89,1.62-1.37,4.07-3.43,3.48-6.79a4,4,0,0,0-.68-1.62,6.29,6.29,0,0,0,1.88-3.67,6.52,6.52,0,0,0-.35-3.54,3.72,3.72,0,0,0-2.83-2.42Zm-5.4,3.2c.79,0,1.38,1.12,1.31,2.41s-.77,2.3-1.57,2.26S341,450.2,341,448.92s.77-2.3,1.58-2.26ZM339,448c.64,0,1.13.91,1.07,2s-.63,1.86-1.27,1.83-1.13-.91-1.07-2S338.31,448,339,448Zm-2.57,1.91c.48,0,.91.57,1,1.34s-.29,1.43-.77,1.46-.91-.56-1-1.34.29-1.43.77-1.46Zm-1.62,2.12c.39,0,.73.46.77,1.07s-.23,1.14-.61,1.17-.73-.45-.77-1.07.23-1.14.61-1.17Zm9.31,8.95a5.06,5.06,0,0,0-.57,6.37c.56.79,4,4.23,3,7.63a3.82,3.82,0,0,1-3.19,2.82c-5,1.05-5.57-2.95-5.62-4.72a12.22,12.22,0,0,0-1-4.81c-1.68-3.82-4.22-9.81-1.72-12.7,3.69-4.26,12.47-4,13.06-.53.51,2.86-2.49,4.45-3.93,5.94Zm5.14-11.9c-.3,1.84-1.47,3.19-2.6,3s-1.82-1.82-1.53-3.66,1.46-3.19,2.6-3,1.82,1.83,1.53,3.67Zm0,0"/><path d="M424.92,312.29a3.4,3.4,0,0,0,.65-1.8,3.71,3.71,0,0,0-.37-1.88,2.74,2.74,0,0,0-1.2-1.16,2.89,2.89,0,0,0-2.42-2.36,3.14,3.14,0,0,0-2.77-1.95h-.15a2.52,2.52,0,0,0-.82.19,3.23,3.23,0,0,0-2.66-1.56H415a3,3,0,0,0-1.56.57,4,4,0,0,0-3.73-1.78c-2.3.37-3.67,2.94-3.18,6a6.2,6.2,0,0,0,1.88,3.66,4,4,0,0,0-.68,1.64c-.59,3.35,1.86,5.42,3.48,6.79a11.17,11.17,0,0,1,1,.88,3.1,3.1,0,0,1,.39,3.8c-.05.08-.15.18-.26.32-1.14,1.38-4.19,5.06-3,9.06a5.76,5.76,0,0,0,4.7,4.21,9.18,9.18,0,0,0,1.95.22c3.69,0,6-2.56,6.08-6.85a10.45,10.45,0,0,1,.82-4.06c1.66-3.78,4.36-9.93,2-13.93Zm-2-3.11c.38,0,.65.55.61,1.17s-.39,1.1-.77,1.07-.66-.55-.61-1.17.38-1.09.77-1.07Zm-1.63-2.12c.48,0,.83.69.77,1.46s-.49,1.38-1,1.34-.82-.68-.77-1.46.49-1.37,1-1.34Zm-2.56-1.92c.65,0,1.22.79,1.27,1.84s-.42,1.92-1.07,2-1.21-.79-1.27-1.83.42-1.93,1.07-2Zm-3.65-1.35c.81,0,1.5,1,1.58,2.25s-.53,2.38-1.32,2.42-1.5-1-1.57-2.25.52-2.38,1.31-2.42Zm-6.61,2.44c-.29-1.84.39-3.48,1.53-3.66s2.3,1.16,2.6,3-.39,3.48-1.53,3.66-2.3-1.16-2.6-3Zm12.54,19.19a12.34,12.34,0,0,0-1,4.8c-.05,1.78-.59,5.78-5.63,4.73a3.84,3.84,0,0,1-3.18-2.81c-1-3.41,2.4-6.85,3-7.64a5.06,5.06,0,0,0-.57-6.37c-1.44-1.48-4.44-3.08-3.94-5.95.6-3.43,9.38-3.72,13.07.53,2.5,2.89,0,8.89-1.73,12.71Zm0,0"/><path class="cls-3" d="M404.24,306.55a6.43,6.43,0,0,0-.35-3.54,3.72,3.72,0,0,0-2.83-2.42,3.87,3.87,0,0,0-3.72,1.77,3,3,0,0,0-1.58-.57h-.16a3.23,3.23,0,0,0-2.66,1.56,2.59,2.59,0,0,0-.82-.2H392a3.13,3.13,0,0,0-2.77,1.94,2.91,2.91,0,0,0-2.41,2.34,2.57,2.57,0,0,0-.83.64,3.38,3.38,0,0,0-.75,2.43,3.52,3.52,0,0,0,.65,1.8c-2.33,4,.37,10.15,2,13.95a10.47,10.47,0,0,1,.81,4.05c.13,4.28,2.4,6.83,6.09,6.83a9.07,9.07,0,0,0,1.95-.21,5.75,5.75,0,0,0,4.69-4.2c1.19-4-1.85-7.69-3-9.07a3.69,3.69,0,0,0-.27-.31,3.11,3.11,0,0,1,.4-3.81,13,13,0,0,1,1-.89c1.61-1.36,4.06-3.43,3.48-6.79a4.24,4.24,0,0,0-.68-1.62A6.22,6.22,0,0,0,404.24,306.55Zm-8.58-2.76c.8,0,1.38,1.12,1.31,2.41s-.77,2.3-1.56,2.26-1.39-1.13-1.33-2.41S394.86,303.74,395.66,303.79ZM392,305.15c.64,0,1.13.91,1.07,2s-.63,1.86-1.27,1.83-1.13-.91-1.07-2S391.37,305.11,392,305.15Zm-2.56,1.91c.47,0,.91.57,1,1.34s-.29,1.42-.77,1.46-.9-.57-1-1.34S389,307.09,389.45,307.06Zm-1.62,2.12c.38,0,.72.46.77,1.07s-.24,1.14-.62,1.17-.73-.46-.77-1.07S387.45,309.2,387.83,309.18Zm9.3,8.95a5.06,5.06,0,0,0-.57,6.37c.56.79,4,4.23,3,7.63a3.82,3.82,0,0,1-3.19,2.82c-5,1.05-5.57-2.95-5.62-4.72a12.38,12.38,0,0,0-1-4.81c-1.68-3.83-4.23-9.81-1.73-12.71,3.69-4.26,12.47-3.95,13.07-.52C401.57,315,398.57,316.65,397.13,318.13Zm5.14-11.9c-.3,1.84-1.46,3.19-2.6,3s-1.82-1.82-1.53-3.66,1.47-3.19,2.6-3S402.56,304.39,402.27,306.23Z"/><path class="cls-3" d="M396.56,324.5c.56.79,4,4.23,3,7.63a3.82,3.82,0,0,1-3.19,2.82c-5,1.05-5.57-2.95-5.62-4.72a12.38,12.38,0,0,0-1-4.81c-1.68-3.83-4.23-9.81-1.73-12.71,3.69-4.26,12.47-3.95,13.07-.52.5,2.85-2.5,4.46-3.94,5.94A5.06,5.06,0,0,0,396.56,324.5Z"/><path class="cls-3" d="M424,455.16a3.54,3.54,0,0,0,.64-1.81,3.46,3.46,0,0,0-.37-1.87,2.54,2.54,0,0,0-1.2-1.16,2.89,2.89,0,0,0-2.41-2.37A3.15,3.15,0,0,0,417.9,446h-.14a2.52,2.52,0,0,0-.82.19,3.25,3.25,0,0,0-2.67-1.56h-.17a3.11,3.11,0,0,0-1.56.57,3.93,3.93,0,0,0-3.73-1.77c-2.3.37-3.67,2.93-3.18,6a6.37,6.37,0,0,0,1.88,3.67,4.22,4.22,0,0,0-.68,1.63c-.59,3.35,1.87,5.42,3.48,6.79a11.34,11.34,0,0,1,1,.88,3.07,3.07,0,0,1,.39,3.8c-.05.08-.14.19-.25.33-1.15,1.38-4.19,5.06-3,9.05a5.78,5.78,0,0,0,4.7,4.21,9.2,9.2,0,0,0,2,.22c3.68,0,6-2.55,6.08-6.85a10.46,10.46,0,0,1,.81-4.06C423.64,465.3,426.35,459.15,424,455.16Zm-2.73-2.05c0-.62.38-1.09.77-1.06s.65.55.61,1.17-.39,1.09-.78,1.06S421.24,453.74,421.29,453.11Zm-1.83-1.85c.06-.77.49-1.37,1-1.34s.82.69.77,1.47-.49,1.37-1,1.34S419.41,452,419.46,451.26ZM417.87,448c.64,0,1.21.79,1.27,1.83s-.42,1.92-1.07,2-1.21-.8-1.28-1.84S417.22,448,417.87,448Zm-3.65-1.36c.8,0,1.5,1,1.57,2.26s-.52,2.37-1.32,2.41-1.49-1-1.56-2.25S413.42,446.69,414.22,446.65Zm-6.61,2.45c-.3-1.84.39-3.49,1.53-3.67s2.3,1.16,2.59,3-.38,3.49-1.53,3.66S407.91,450.94,407.61,449.1Zm12.54,19.19a12.31,12.31,0,0,0-1,4.8c-.05,1.77-.58,5.77-5.62,4.73a3.82,3.82,0,0,1-3.18-2.82c-1-3.4,2.39-6.85,3-7.64a5.05,5.05,0,0,0-.58-6.37c-1.44-1.48-4.43-3.08-3.94-5.94.61-3.44,9.38-3.73,13.08.52C424.37,458.46,421.83,464.46,420.15,468.29Z"/><path class="cls-3" d="M420.15,468.29a12.31,12.31,0,0,0-1,4.8c-.05,1.77-.58,5.77-5.62,4.73a3.82,3.82,0,0,1-3.18-2.82c-1-3.4,2.39-6.85,3-7.64a5.05,5.05,0,0,0-.58-6.37c-1.44-1.48-4.43-3.08-3.94-5.94.61-3.44,9.38-3.73,13.08.52C424.37,458.46,421.83,464.46,420.15,468.29Z"/><path d="M400.16,443.45a3.92,3.92,0,0,0-3.73,1.77,3,3,0,0,0-1.57-.57h-.16A3.24,3.24,0,0,0,392,446.2a2.81,2.81,0,0,0-.81-.19h-.15a3.17,3.17,0,0,0-2.78,1.94,2.93,2.93,0,0,0-2.41,2.35,2.54,2.54,0,0,0-.83.64,3.35,3.35,0,0,0-.74,2.42,3.42,3.42,0,0,0,.64,1.8c-2.33,4,.38,10.15,2.05,14a10.3,10.3,0,0,1,.8,4c.13,4.28,2.41,6.84,6.09,6.84a9.11,9.11,0,0,0,1.95-.22,5.77,5.77,0,0,0,4.7-4.2c1.19-4-1.85-7.68-3-9.06l-.26-.32a3.1,3.1,0,0,1,.39-3.81c.28-.28.63-.57,1-.88,1.62-1.37,4.07-3.44,3.48-6.8a4.15,4.15,0,0,0-.68-1.62,6.29,6.29,0,0,0,1.88-3.67,6.62,6.62,0,0,0-.35-3.54,3.77,3.77,0,0,0-2.83-2.42Zm-5.41,3.2c.8.05,1.39,1.12,1.31,2.42s-.77,2.29-1.56,2.25-1.39-1.12-1.32-2.41.77-2.3,1.57-2.26ZM391.11,448c.64,0,1.12.91,1.07,2s-.63,1.86-1.28,1.83-1.12-.91-1.07-2,.63-1.87,1.28-1.83Zm-2.57,1.91c.48,0,.91.57,1,1.35s-.3,1.42-.77,1.46-.91-.57-1-1.35.29-1.43.77-1.46ZM386.92,452c.38,0,.73.46.77,1.07s-.23,1.14-.62,1.17-.72-.45-.76-1.07.23-1.14.61-1.17Zm9.31,8.95a5.05,5.05,0,0,0-.58,6.37c.57.79,4,4.24,3,7.64a3.82,3.82,0,0,1-3.19,2.81c-5,1.05-5.57-2.94-5.62-4.72a12.43,12.43,0,0,0-1-4.81c-1.68-3.82-4.23-9.81-1.73-12.7,3.7-4.26,12.48-4,13.07-.53.5,2.86-2.5,4.46-3.93,5.94Zm5.13-11.9c-.3,1.84-1.46,3.19-2.59,3s-1.82-1.82-1.53-3.66,1.46-3.19,2.6-3,1.82,1.82,1.52,3.66Zm0,0"/><text class="cls-4" transform="translate(306.21 176.75)">Singular</text><text class="cls-5" transform="translate(238.13 323.26)">Swing</text><text class="cls-5" transform="translate(238.13 368.48)">Swing</text><text class="cls-5" transform="translate(238.4 419.65)">Missleg</text><text class="cls-5" transform="translate(205.71 553.08)">Car<tspan class="cls-6" x="23.85" y="0">r</tspan><tspan class="cls-7" x="29.46" y="0">y Through</tspan></text><text class="cls-5" transform="translate(241.63 469.91)">Rapid</text><text class="cls-5" transform="translate(241.63 757.87)">Wrap</text><text class="cls-5" transform="translate(205.71 636.99)">Car<tspan class="cls-6" x="23.85" y="0">r</tspan><tspan class="cls-7" x="29.46" y="0">y Through</tspan></text><text class="cls-5" transform="translate(241.63 834.11)">Wrap</text><path class="cls-3" d="M424,214.47a3.61,3.61,0,0,0,.27-3.68,2.57,2.57,0,0,0-1.2-1.15,2.92,2.92,0,0,0-2.41-2.38,3.15,3.15,0,0,0-2.78-1.94h-.14a2.52,2.52,0,0,0-.82.19,3.25,3.25,0,0,0-2.67-1.56h-.17a3,3,0,0,0-1.56.57,3.93,3.93,0,0,0-3.73-1.77c-2.3.37-3.67,2.93-3.18,6a6.37,6.37,0,0,0,1.88,3.67,4.15,4.15,0,0,0-.68,1.63c-.59,3.35,1.87,5.42,3.48,6.79a9.91,9.91,0,0,1,1,.88,3.07,3.07,0,0,1,.39,3.8,3.27,3.27,0,0,1-.25.32c-1.15,1.39-4.19,5.07-3,9.06a5.78,5.78,0,0,0,4.7,4.21,9.16,9.16,0,0,0,2,.21c3.68,0,6-2.55,6.08-6.84a10.46,10.46,0,0,1,.81-4.06C423.64,224.62,426.35,218.47,424,214.47Zm-2.73-2c0-.62.38-1.09.77-1.07s.65.55.61,1.17-.39,1.1-.78,1.07S421.24,213.06,421.29,212.43Zm-1.83-1.85c.06-.77.49-1.37,1-1.34s.82.69.77,1.46-.49,1.38-1,1.34S419.41,211.36,419.46,210.58Zm-1.59-3.25c.64,0,1.21.79,1.27,1.83s-.42,1.92-1.07,2-1.21-.79-1.28-1.83S417.22,207.36,417.87,207.33ZM414.22,206c.8,0,1.5,1,1.57,2.26s-.52,2.37-1.32,2.4-1.49-1-1.56-2.24S413.42,206,414.22,206Zm-6.61,2.44c-.3-1.83.39-3.48,1.53-3.66s2.3,1.16,2.59,3-.38,3.48-1.53,3.66S407.91,210.26,407.61,208.41Zm12.54,19.19a12.36,12.36,0,0,0-1,4.81c-.05,1.77-.58,5.77-5.62,4.73a3.85,3.85,0,0,1-3.18-2.82c-1-3.41,2.39-6.85,3-7.64a5.05,5.05,0,0,0-.58-6.37c-1.44-1.48-4.43-3.08-3.94-5.95.61-3.43,9.38-3.73,13.08.53C424.37,217.78,421.83,223.78,420.15,227.6Z"/><path class="cls-3" d="M420.15,227.6a12.36,12.36,0,0,0-1,4.81c-.05,1.77-.58,5.77-5.62,4.73a3.85,3.85,0,0,1-3.18-2.82c-1-3.41,2.39-6.85,3-7.64a5.05,5.05,0,0,0-.58-6.37c-1.44-1.48-4.43-3.08-3.94-5.95.61-3.43,9.38-3.73,13.08.53C424.37,217.78,421.83,223.78,420.15,227.6Z"/><path d="M400.16,202.77a3.92,3.92,0,0,0-3.73,1.77,3,3,0,0,0-1.57-.57h-.16a3.26,3.26,0,0,0-2.67,1.55,3.19,3.19,0,0,0-.81-.19h-.15a3.17,3.17,0,0,0-2.78,1.94,2.92,2.92,0,0,0-2.41,2.34,2.68,2.68,0,0,0-.83.64,3.37,3.37,0,0,0-.74,2.43,3.42,3.42,0,0,0,.64,1.8c-2.33,4,.38,10.15,2.05,13.95a10.3,10.3,0,0,1,.8,4.05c.13,4.28,2.41,6.83,6.09,6.83a9.75,9.75,0,0,0,1.95-.21,5.77,5.77,0,0,0,4.7-4.2c1.19-4-1.85-7.68-3-9.07l-.26-.31a3.1,3.1,0,0,1,.39-3.81c.28-.29.63-.57,1-.89,1.62-1.37,4.07-3.43,3.48-6.79a4.15,4.15,0,0,0-.68-1.62,6.29,6.29,0,0,0,1.88-3.67,6.62,6.62,0,0,0-.35-3.54,3.75,3.75,0,0,0-2.83-2.42Zm-5.41,3.2c.8.05,1.39,1.12,1.31,2.41s-.77,2.3-1.56,2.26-1.39-1.13-1.32-2.41.77-2.3,1.57-2.26Zm-3.64,1.36c.64,0,1.12.91,1.07,2s-.63,1.86-1.28,1.83-1.12-.91-1.07-2,.63-1.86,1.28-1.82Zm-2.57,1.91c.48,0,.91.57,1,1.34s-.3,1.43-.77,1.46-.91-.56-1-1.34.29-1.43.77-1.46Zm-1.62,2.12c.38,0,.73.46.77,1.07s-.23,1.14-.62,1.17-.72-.45-.76-1.07.23-1.14.61-1.17Zm9.31,8.95a5.05,5.05,0,0,0-.58,6.37c.57.79,4,4.23,3,7.63a3.82,3.82,0,0,1-3.19,2.82c-5,1.05-5.57-2.95-5.62-4.72a12.39,12.39,0,0,0-1-4.81c-1.68-3.82-4.23-9.81-1.73-12.7,3.7-4.26,12.48-4,13.07-.53.5,2.86-2.5,4.45-3.93,5.94Zm5.13-11.9c-.3,1.84-1.46,3.19-2.59,3s-1.82-1.82-1.53-3.66,1.46-3.19,2.6-3,1.82,1.83,1.52,3.67Zm0,0"/><path class="cls-3" d="M371.87,214.49a3.43,3.43,0,0,0,.65-1.8,3.51,3.51,0,0,0-.37-1.88,2.61,2.61,0,0,0-1.2-1.15,2.92,2.92,0,0,0-2.41-2.38,3.16,3.16,0,0,0-2.78-1.94h-.15a2.52,2.52,0,0,0-.82.19,3.25,3.25,0,0,0-2.67-1.56H362a3,3,0,0,0-1.56.57,3.94,3.94,0,0,0-3.73-1.77c-2.3.37-3.67,2.93-3.19,6a6.33,6.33,0,0,0,1.89,3.67,3.88,3.88,0,0,0-.68,1.63c-.59,3.35,1.86,5.42,3.48,6.79a12.79,12.79,0,0,1,1,.88,3.09,3.09,0,0,1,.39,3.8,2.43,2.43,0,0,1-.26.32c-1.14,1.39-4.19,5.07-3,9.06a5.8,5.8,0,0,0,4.71,4.21,9.07,9.07,0,0,0,1.95.21c3.69,0,6-2.55,6.08-6.84a10.45,10.45,0,0,1,.82-4.06C371.5,224.64,374.2,218.49,371.87,214.49Zm-2.73-2c0-.62.39-1.09.77-1.07s.65.55.61,1.17-.39,1.1-.77,1.07S369.09,213.08,369.14,212.45Zm-1.82-1.85c.06-.77.49-1.37,1-1.34s.82.69.76,1.46-.49,1.38-1,1.34S367.27,211.38,367.32,210.6Zm-1.6-3.25c.65,0,1.22.79,1.27,1.83s-.42,1.92-1.07,2-1.21-.79-1.27-1.83S365.08,207.38,365.72,207.35ZM362.08,206c.79,0,1.5,1,1.56,2.26s-.52,2.37-1.32,2.4-1.49-1-1.56-2.24S361.28,206,362.08,206Zm-6.61,2.44c-.3-1.83.38-3.48,1.52-3.66s2.3,1.16,2.6,3-.39,3.48-1.53,3.66S355.76,210.28,355.47,208.43ZM368,227.62a12.18,12.18,0,0,0-1,4.81c0,1.77-.59,5.77-5.62,4.73a3.86,3.86,0,0,1-3.19-2.82c-1-3.41,2.39-6.85,3-7.64a5.08,5.08,0,0,0-.58-6.37c-1.44-1.48-4.44-3.08-3.94-6,.6-3.43,9.38-3.73,13.07.53C372.23,217.8,369.68,223.8,368,227.62Z"/><path class="cls-3" d="M368,227.62a12.18,12.18,0,0,0-1,4.81c0,1.77-.59,5.77-5.62,4.73a3.86,3.86,0,0,1-3.19-2.82c-1-3.41,2.39-6.85,3-7.64a5.08,5.08,0,0,0-.58-6.37c-1.44-1.48-4.44-3.08-3.94-6,.6-3.43,9.38-3.73,13.07.53C372.23,217.8,369.68,223.8,368,227.62Z"/><path class="cls-3" d="M351.19,208.75a6.43,6.43,0,0,0-.35-3.54,3.74,3.74,0,0,0-2.83-2.42,3.87,3.87,0,0,0-3.72,1.77,3,3,0,0,0-1.58-.57h-.16a3.23,3.23,0,0,0-2.66,1.56,2.9,2.9,0,0,0-.82-.2h-.15a3.13,3.13,0,0,0-2.77,1.94,2.91,2.91,0,0,0-2.41,2.34,2.57,2.57,0,0,0-.83.64,3.38,3.38,0,0,0-.75,2.43,3.52,3.52,0,0,0,.65,1.8c-2.33,4,.37,10.15,2,13.95a10.47,10.47,0,0,1,.81,4.05c.13,4.28,2.4,6.83,6.09,6.83a9.07,9.07,0,0,0,1.95-.21,5.75,5.75,0,0,0,4.69-4.2c1.19-4-1.85-7.68-3-9.07l-.27-.31a3.11,3.11,0,0,1,.4-3.81,11.17,11.17,0,0,1,1-.88c1.61-1.37,4.06-3.44,3.48-6.8a4.24,4.24,0,0,0-.68-1.62A6.22,6.22,0,0,0,351.19,208.75ZM342.61,206c.8,0,1.38,1.12,1.31,2.42s-.77,2.29-1.56,2.25-1.39-1.13-1.33-2.41S341.81,205.94,342.61,206ZM339,207.35c.64,0,1.13.91,1.07,2s-.63,1.86-1.27,1.83-1.13-.91-1.07-2S338.32,207.31,339,207.35Zm-2.56,1.91c.47,0,.91.57,1,1.34s-.29,1.42-.77,1.46-.9-.57-1-1.34S335.92,209.29,336.4,209.26Zm-1.62,2.12c.38,0,.72.46.77,1.07s-.24,1.14-.62,1.17-.73-.45-.77-1.07S334.4,211.4,334.78,211.38Zm9.3,9a5.06,5.06,0,0,0-.57,6.37c.56.79,4,4.23,3,7.63a3.82,3.82,0,0,1-3.19,2.82c-5,1-5.57-3-5.62-4.72a12.38,12.38,0,0,0-1-4.81c-1.68-3.83-4.23-9.81-1.73-12.71,3.69-4.26,12.47-3.95,13.07-.52C348.52,217.24,345.52,218.85,344.08,220.33Zm5.14-11.9c-.3,1.84-1.46,3.19-2.6,3s-1.82-1.82-1.53-3.66,1.47-3.19,2.6-3S349.51,206.59,349.22,208.43Z"/><path class="cls-3" d="M343.51,226.7c.56.79,4,4.23,3,7.63a3.82,3.82,0,0,1-3.19,2.82c-5,1-5.57-3-5.62-4.72a12.38,12.38,0,0,0-1-4.81c-1.68-3.83-4.23-9.81-1.73-12.71,3.69-4.26,12.47-3.95,13.07-.52.5,2.85-2.5,4.46-3.94,5.94A5.06,5.06,0,0,0,343.51,226.7Z"/><path d="M424,260.33a3.5,3.5,0,0,0,.62-1.81,3.42,3.42,0,0,0-.39-1.88A2.61,2.61,0,0,0,423,255.5a2.91,2.91,0,0,0-2.43-2.35,3.17,3.17,0,0,0-2.8-1.91h-.15a2.74,2.74,0,0,0-.81.19,3.26,3.26,0,0,0-2.69-1.52H414a3.06,3.06,0,0,0-1.56.58,3.92,3.92,0,0,0-3.75-1.73c-2.3.39-3.64,3-3.12,6a6.32,6.32,0,0,0,1.92,3.65,4.08,4.08,0,0,0-.66,1.64c-.56,3.35,1.92,5.4,3.55,6.75a13.29,13.29,0,0,1,1,.88,3.08,3.08,0,0,1,.43,3.79,3.21,3.21,0,0,1-.26.33c-1.12,1.39-4.13,5.1-2.91,9.09a5.81,5.81,0,0,0,4.75,4.16,9.76,9.76,0,0,0,2,.19c3.68,0,5.93-2.61,6-6.91a10.31,10.31,0,0,1,.77-4.06C423.71,270.48,426.35,264.3,424,260.33Zm-2.76-2c0-.62.38-1.1.76-1.07s.66.54.63,1.16-.38,1.1-.77,1.08S421.18,258.94,421.22,258.31Zm-1.84-1.83c.06-.77.48-1.37,1-1.35s.82.68.78,1.46-.48,1.38-.95,1.35S419.34,257.26,419.38,256.48Zm-1.63-3.24c.65,0,1.23.78,1.29,1.82s-.4,1.93-1.05,2-1.22-.78-1.29-1.82S417.11,253.29,417.75,253.24Zm-3.66-1.31c.8-.05,1.51.95,1.6,2.24s-.5,2.38-1.3,2.42-1.5-.95-1.59-2.24S413.3,252,414.09,251.93Zm-6.58,2.51c-.32-1.84.35-3.49,1.49-3.68s2.31,1.13,2.62,3-.35,3.49-1.49,3.68S407.82,256.28,407.51,254.44Zm12.74,19.06a12.13,12.13,0,0,0-.94,4.81c0,1.77-.53,5.78-5.57,4.79a3.86,3.86,0,0,1-3.22-2.79c-1-3.39,2.32-6.87,2.89-7.66a5.06,5.06,0,0,0-.65-6.37c-1.45-1.47-4.46-3-4-5.91.57-3.43,9.34-3.82,13.08.4C424.37,263.63,421.89,269.66,420.25,273.5Z"/><path class="cls-3" d="M402.85,251.26a3.77,3.77,0,0,0-2.85-2.39,3.91,3.91,0,0,0-3.71,1.82,2.91,2.91,0,0,0-1.58-.57h-.15a3.24,3.24,0,0,0-2.66,1.58,3.15,3.15,0,0,0-.82-.18h-.15a3.15,3.15,0,0,0-2.75,2,2.92,2.92,0,0,0-2.39,2.36,2.57,2.57,0,0,0-.82.66,3.36,3.36,0,0,0-.72,2.43,3.54,3.54,0,0,0,.66,1.79c-2.28,4,.48,10.14,2.2,13.93a10.35,10.35,0,0,1,.84,4c.18,4.27,2.48,6.81,6.16,6.77a10.64,10.64,0,0,0,1.95-.23,5.76,5.76,0,0,0,4.65-4.25c1.15-4-1.93-7.67-3.09-9-.11-.13-.21-.24-.26-.31a3.08,3.08,0,0,1,.35-3.81c.27-.29.62-.58,1-.9,1.6-1.39,4-3.48,3.41-6.83a4.08,4.08,0,0,0-.7-1.61,6.31,6.31,0,0,0,1.84-3.69A6.62,6.62,0,0,0,402.85,251.26Zm-8.22.87c.79,0,1.39,1.11,1.33,2.4s-.74,2.31-1.54,2.27-1.4-1.11-1.34-2.4S393.83,252.09,394.63,252.13Zm-3.64,1.4c.65,0,1.14.9,1.1,1.94s-.61,1.87-1.26,1.85-1.14-.9-1.09-2S390.35,253.49,391,253.53Zm-2.54,1.94c.48,0,.91.55,1,1.32s-.28,1.43-.75,1.48-.92-.56-1-1.34S388,255.5,388.45,255.47Zm-1.6,2.13c.38,0,.73.45.78,1.07s-.22,1.14-.61,1.16-.72-.44-.77-1.05S386.47,257.63,386.85,257.6Zm9.4,8.85a5.06,5.06,0,0,0-.51,6.38c.58.78,4,4.19,3.05,7.6a3.85,3.85,0,0,1-3.16,2.85c-5,1.1-5.61-2.89-5.68-4.67a12.38,12.38,0,0,0-1-4.79c-1.72-3.8-4.33-9.77-1.86-12.69,3.65-4.29,12.44-4.09,13.06-.66C400.66,263.32,397.67,265,396.25,266.45Zm5-11.95c-.28,1.85-1.43,3.2-2.56,3s-1.85-1.8-1.57-3.65,1.43-3.2,2.57-3S401.54,252.66,401.26,254.5Z"/><path class="cls-3" d="M395.74,272.83c.58.78,4,4.19,3.05,7.6a3.85,3.85,0,0,1-3.16,2.85c-5,1.1-5.61-2.89-5.68-4.67a12.38,12.38,0,0,0-1-4.79c-1.72-3.8-4.33-9.77-1.86-12.69,3.65-4.29,12.44-4.09,13.06-.66.54,2.85-2.45,4.48-3.87,6A5.06,5.06,0,0,0,395.74,272.83Z"/><path class="cls-3" d="M371.87,260.58a3.4,3.4,0,0,0,.65-1.8,3.51,3.51,0,0,0-.37-1.88,2.61,2.61,0,0,0-1.2-1.15,2.89,2.89,0,0,0-2.41-2.37,3.16,3.16,0,0,0-2.78-1.94h-.15a2.52,2.52,0,0,0-.82.19,3.25,3.25,0,0,0-2.67-1.56H362a3,3,0,0,0-1.56.57,3.94,3.94,0,0,0-3.73-1.77c-2.3.37-3.67,2.93-3.19,6a6.33,6.33,0,0,0,1.89,3.67,3.88,3.88,0,0,0-.68,1.63c-.59,3.35,1.86,5.42,3.48,6.79.36.31.71.59,1,.88a3.09,3.09,0,0,1,.39,3.8,2.43,2.43,0,0,1-.26.32c-1.14,1.39-4.19,5.07-3,9.06A5.8,5.8,0,0,0,361,285.2a9.11,9.11,0,0,0,1.95.22c3.69,0,6-2.56,6.08-6.85a10.45,10.45,0,0,1,.82-4.06C371.5,270.73,374.2,264.58,371.87,260.58Zm-2.73-2c0-.62.39-1.09.77-1.07s.65.56.61,1.17-.39,1.1-.77,1.07S369.09,259.17,369.14,258.54Zm-1.82-1.85c.06-.77.49-1.37,1-1.34s.82.69.76,1.46-.49,1.38-1,1.35S367.27,257.47,367.32,256.69Zm-1.6-3.25c.65,0,1.22.79,1.27,1.83s-.42,1.92-1.07,2-1.21-.79-1.27-1.83S365.08,253.47,365.72,253.44Zm-3.64-1.36c.79,0,1.5,1,1.56,2.26s-.52,2.37-1.32,2.41-1.49-1-1.56-2.25S361.28,252.12,362.08,252.08Zm-6.61,2.44c-.3-1.83.38-3.48,1.52-3.66s2.3,1.16,2.6,3-.39,3.48-1.53,3.66S355.76,256.37,355.47,254.52ZM368,273.72a12.13,12.13,0,0,0-1,4.8c0,1.77-.59,5.77-5.62,4.73a3.84,3.84,0,0,1-3.19-2.82c-1-3.41,2.39-6.85,3-7.64a5.08,5.08,0,0,0-.58-6.37c-1.44-1.48-4.44-3.08-3.94-5.95.6-3.43,9.38-3.72,13.07.53C372.23,263.89,369.68,269.89,368,273.72Z"/><path class="cls-3" d="M368,273.72a12.13,12.13,0,0,0-1,4.8c0,1.77-.59,5.77-5.62,4.73a3.84,3.84,0,0,1-3.19-2.82c-1-3.41,2.39-6.85,3-7.64a5.08,5.08,0,0,0-.58-6.37c-1.44-1.48-4.44-3.08-3.94-5.95.6-3.43,9.38-3.72,13.07.53C372.23,263.89,369.68,269.89,368,273.72Z"/><path class="cls-3" d="M351.19,254.84a6.43,6.43,0,0,0-.35-3.54,3.74,3.74,0,0,0-2.83-2.42,3.87,3.87,0,0,0-3.72,1.77,3,3,0,0,0-1.58-.57h-.16a3.23,3.23,0,0,0-2.66,1.56,2.58,2.58,0,0,0-.82-.19h-.15a3.14,3.14,0,0,0-2.77,1.95,2.88,2.88,0,0,0-2.41,2.33,2.72,2.72,0,0,0-.83.64,3.38,3.38,0,0,0-.75,2.43,3.48,3.48,0,0,0,.65,1.8c-2.33,4,.37,10.15,2,13.95a10.47,10.47,0,0,1,.81,4.05c.13,4.28,2.4,6.84,6.09,6.84a9.11,9.11,0,0,0,1.95-.22,5.75,5.75,0,0,0,4.69-4.2c1.19-4-1.85-7.68-3-9.07l-.27-.31a3.11,3.11,0,0,1,.4-3.81,13,13,0,0,1,1-.88c1.61-1.37,4.06-3.44,3.48-6.8a4.24,4.24,0,0,0-.68-1.62A6.22,6.22,0,0,0,351.19,254.84Zm-8.58-2.76c.8,0,1.38,1.12,1.31,2.42s-.77,2.29-1.56,2.25-1.39-1.13-1.33-2.41S341.81,252,342.61,252.08ZM339,253.44c.64,0,1.13.91,1.07,2s-.63,1.86-1.27,1.83-1.13-.91-1.07-2S338.32,253.4,339,253.44Zm-2.56,1.91c.47,0,.91.57,1,1.34s-.29,1.42-.77,1.47-.9-.58-1-1.35S335.92,255.38,336.4,255.35Zm-1.62,2.12c.38,0,.72.46.77,1.07s-.24,1.14-.62,1.17-.73-.45-.77-1.07S334.4,257.5,334.78,257.47Zm9.3,8.95a5.06,5.06,0,0,0-.57,6.37c.56.79,4,4.23,3,7.63a3.81,3.81,0,0,1-3.19,2.82c-5,1.05-5.57-2.95-5.62-4.72a12.42,12.42,0,0,0-1-4.81C335,269.88,332.45,263.9,335,261c3.69-4.25,12.47-3.95,13.07-.52C348.52,263.34,345.52,264.94,344.08,266.42Zm5.14-11.9c-.3,1.84-1.46,3.19-2.6,3s-1.82-1.82-1.53-3.66,1.47-3.19,2.6-3S349.51,252.68,349.22,254.52Z"/><path class="cls-3" d="M343.51,272.79c.56.79,4,4.23,3,7.63a3.81,3.81,0,0,1-3.19,2.82c-5,1.05-5.57-2.95-5.62-4.72a12.42,12.42,0,0,0-1-4.81C335,269.88,332.45,263.9,335,261c3.69-4.25,12.47-3.95,13.07-.52.5,2.86-2.5,4.46-3.94,5.94A5.06,5.06,0,0,0,343.51,272.79Z"/><text class="cls-5" transform="translate(225.97 224.04)">Reverse Pop</text><text class="cls-5" transform="translate(225.97 269.77)">Reverse Pop</text><line class="cls-8" x1="371.61" y1="331.44" x2="381.79" y2="331.44"/><polygon class="cls-3" points="380.91 334.43 386.09 331.44 380.91 328.45 380.91 334.43"/><line class="cls-8" x1="370.7" y1="474.3" x2="380.88" y2="474.3"/><polygon class="cls-3" points="380.01 477.3 385.19 474.3 380.01 471.31 380.01 477.3"/><path class="cls-3" d="M369.66,557.46a3.42,3.42,0,0,0,.64-1.8,3.51,3.51,0,0,0-.37-1.88,2.59,2.59,0,0,0-1.19-1.15,2.94,2.94,0,0,0-2.42-2.38,3.15,3.15,0,0,0-2.78-1.94h-.14a2.52,2.52,0,0,0-.82.19,3.25,3.25,0,0,0-2.67-1.56h-.17a3,3,0,0,0-1.56.57,3.92,3.92,0,0,0-3.72-1.77c-2.31.37-3.68,2.93-3.19,6a6.33,6.33,0,0,0,1.89,3.67,4,4,0,0,0-.69,1.63c-.59,3.35,1.87,5.42,3.48,6.78a13.29,13.29,0,0,1,1,.89,3.08,3.08,0,0,1,.38,3.8c-.05.08-.14.18-.25.32-1.15,1.39-4.19,5.07-3,9.06a5.78,5.78,0,0,0,4.7,4.21,9.16,9.16,0,0,0,2,.21c3.69,0,6-2.55,6.08-6.84a10.46,10.46,0,0,1,.81-4.06C369.29,567.61,372,561.46,369.66,557.46Zm-2.73-2c0-.62.38-1.09.77-1.07s.65.55.61,1.17-.39,1.1-.78,1.07S366.88,556.05,366.93,555.42Zm-1.83-1.85c.07-.77.49-1.37,1-1.34s.82.69.77,1.46-.49,1.38-1,1.34S365.06,554.35,365.1,553.57Zm-1.59-3.25c.64,0,1.21.79,1.27,1.83s-.42,1.92-1.07,2-1.21-.79-1.28-1.83S362.86,550.35,363.51,550.32ZM359.86,549c.8,0,1.5,1,1.57,2.26s-.52,2.37-1.32,2.4-1.49-1-1.56-2.24S359.06,549,359.86,549Zm-6.61,2.44c-.29-1.83.39-3.48,1.53-3.66s2.3,1.16,2.59,3-.38,3.48-1.53,3.66S353.55,553.25,353.25,551.4Zm12.54,19.19a12.54,12.54,0,0,0-1,4.81c-.05,1.77-.58,5.77-5.62,4.73a3.85,3.85,0,0,1-3.18-2.82c-1-3.41,2.39-6.85,3-7.64a5.05,5.05,0,0,0-.58-6.37c-1.43-1.48-4.43-3.08-3.94-5.95.61-3.43,9.38-3.73,13.08.53C370,560.77,367.47,566.77,365.79,570.59Z"/><path class="cls-3" d="M365.79,570.59a12.54,12.54,0,0,0-1,4.81c-.05,1.77-.58,5.77-5.62,4.73a3.85,3.85,0,0,1-3.18-2.82c-1-3.41,2.39-6.85,3-7.64a5.05,5.05,0,0,0-.58-6.37c-1.43-1.48-4.43-3.08-3.94-5.95.61-3.43,9.38-3.73,13.08.53C370,560.77,367.47,566.77,365.79,570.59Z"/><path d="M345.8,545.76a3.92,3.92,0,0,0-3.73,1.77,3,3,0,0,0-1.57-.57h-.16a3.26,3.26,0,0,0-2.67,1.55,3.19,3.19,0,0,0-.81-.19h-.15a3.17,3.17,0,0,0-2.78,1.94,2.92,2.92,0,0,0-2.41,2.34,2.68,2.68,0,0,0-.83.64,3.37,3.37,0,0,0-.74,2.43,3.51,3.51,0,0,0,.64,1.8c-2.33,4,.38,10.15,2.05,13.95a10.47,10.47,0,0,1,.81,4.05c.12,4.28,2.4,6.83,6.08,6.83a9.75,9.75,0,0,0,2-.21,5.77,5.77,0,0,0,4.7-4.2c1.19-4-1.85-7.68-3-9.07l-.26-.31a3.1,3.1,0,0,1,.39-3.81c.28-.29.63-.57,1-.89,1.62-1.37,4.07-3.43,3.48-6.79a4.15,4.15,0,0,0-.68-1.62,6.32,6.32,0,0,0,1.88-3.67,6.62,6.62,0,0,0-.35-3.54,3.75,3.75,0,0,0-2.83-2.42Zm-5.41,3.2c.8,0,1.39,1.12,1.31,2.41s-.77,2.3-1.56,2.26-1.39-1.13-1.32-2.41.77-2.31,1.57-2.26Zm-3.64,1.36c.64,0,1.12.91,1.07,2s-.63,1.86-1.28,1.83-1.12-.91-1.07-2,.63-1.86,1.28-1.82Zm-2.57,1.91c.48,0,.91.57,1,1.34s-.3,1.43-.77,1.46-.91-.56-1-1.34.29-1.43.77-1.46Zm-1.62,2.12c.38,0,.73.46.77,1.07s-.23,1.14-.62,1.17-.72-.45-.76-1.07.23-1.14.61-1.17Zm9.31,8.95a5.05,5.05,0,0,0-.58,6.37c.57.79,4,4.23,3,7.63a3.82,3.82,0,0,1-3.19,2.82c-5,1-5.57-3-5.62-4.72a12.39,12.39,0,0,0-1-4.81c-1.68-3.82-4.22-9.81-1.73-12.7,3.7-4.27,12.48-4,13.07-.53.51,2.86-2.5,4.45-3.93,5.94ZM347,551.4c-.3,1.84-1.46,3.19-2.59,3s-1.82-1.82-1.53-3.66,1.46-3.19,2.6-3,1.82,1.83,1.52,3.67Zm0,0"/><path class="cls-3" d="M421.8,557.46a3.59,3.59,0,0,0,.28-3.68,2.59,2.59,0,0,0-1.2-1.16,2.89,2.89,0,0,0-2.41-2.37,3.16,3.16,0,0,0-2.78-1.94h-.15a2.52,2.52,0,0,0-.81.19,3.25,3.25,0,0,0-2.67-1.56h-.17a3,3,0,0,0-1.56.57,3.93,3.93,0,0,0-3.73-1.77c-2.3.37-3.67,2.93-3.18,6a6.26,6.26,0,0,0,1.88,3.67,3.93,3.93,0,0,0-.68,1.63c-.59,3.35,1.86,5.42,3.48,6.79a11.34,11.34,0,0,1,1,.88,3.09,3.09,0,0,1,.39,3.8,2.43,2.43,0,0,1-.26.32c-1.14,1.39-4.19,5.07-3,9.06a5.78,5.78,0,0,0,4.7,4.21,9.2,9.2,0,0,0,2,.22c3.68,0,5.95-2.56,6.08-6.85a10.28,10.28,0,0,1,.81-4.06C421.43,567.6,424.14,561.45,421.8,557.46Zm-2.73-2.05c0-.62.39-1.09.77-1.06s.66.55.62,1.17-.4,1.09-.78,1.06S419,556,419.07,555.41Zm-1.82-1.85c.06-.77.49-1.37,1-1.34s.82.69.76,1.47-.49,1.37-1,1.34S417.2,554.34,417.25,553.56Zm-1.6-3.25c.65,0,1.22.79,1.28,1.83s-.42,1.92-1.08,2-1.21-.8-1.27-1.84S415,550.34,415.65,550.31ZM412,549c.8,0,1.5,1,1.57,2.26s-.53,2.37-1.32,2.41-1.5-1-1.57-2.25S411.21,549,412,549Zm-6.61,2.44c-.3-1.83.38-3.48,1.53-3.66s2.29,1.16,2.59,3-.39,3.49-1.53,3.66S405.69,553.24,405.4,551.39Zm12.54,19.2a12.13,12.13,0,0,0-1,4.8c-.05,1.77-.59,5.77-5.62,4.73a3.84,3.84,0,0,1-3.19-2.82c-1-3.4,2.4-6.85,3-7.64a5.06,5.06,0,0,0-.58-6.37c-1.44-1.48-4.44-3.08-3.94-5.94.6-3.44,9.38-3.73,13.07.52C422.16,560.76,419.62,566.76,417.94,570.59Z"/><path class="cls-3" d="M417.94,570.59a12.13,12.13,0,0,0-1,4.8c-.05,1.77-.59,5.77-5.62,4.73a3.84,3.84,0,0,1-3.19-2.82c-1-3.4,2.4-6.85,3-7.64a5.06,5.06,0,0,0-.58-6.37c-1.44-1.48-4.44-3.08-3.94-5.94.6-3.44,9.38-3.73,13.07.52C422.16,560.76,419.62,566.76,417.94,570.59Z"/><path d="M397.94,545.75a3.9,3.9,0,0,0-3.72,1.77,3,3,0,0,0-1.57-.57h-.16a3.24,3.24,0,0,0-2.67,1.56,2.8,2.8,0,0,0-.82-.19h-.15a3.16,3.16,0,0,0-2.77,1.94,2.92,2.92,0,0,0-2.41,2.35,2.54,2.54,0,0,0-.83.64,3.3,3.3,0,0,0-.74,2.42,3.42,3.42,0,0,0,.64,1.8c-2.33,4,.37,10.15,2,13.95a10.29,10.29,0,0,1,.81,4.05c.13,4.28,2.4,6.84,6.09,6.84a9.18,9.18,0,0,0,1.95-.22,5.78,5.78,0,0,0,4.7-4.2c1.19-4-1.85-7.68-3-9.06l-.26-.32a3.09,3.09,0,0,1,.39-3.81c.28-.28.62-.57,1-.88,1.62-1.37,4.06-3.44,3.48-6.8a4.15,4.15,0,0,0-.68-1.62,6.34,6.34,0,0,0,1.88-3.67,6.52,6.52,0,0,0-.36-3.54,3.74,3.74,0,0,0-2.83-2.42Zm-5.4,3.2c.8,0,1.38,1.12,1.31,2.42s-.77,2.29-1.56,2.25-1.39-1.12-1.32-2.41.77-2.3,1.57-2.26Zm-3.65,1.36c.65,0,1.13.91,1.07,2s-.62,1.86-1.27,1.83-1.13-.91-1.07-2,.63-1.87,1.27-1.83Zm-2.56,1.91c.48,0,.91.57,1,1.35s-.3,1.42-.77,1.46-.91-.57-1-1.35.29-1.43.77-1.46Zm-1.62,2.12c.38,0,.73.46.77,1.07s-.23,1.14-.62,1.17-.72-.45-.76-1.07.23-1.14.61-1.17Zm9.31,8.95a5.05,5.05,0,0,0-.58,6.37c.57.79,4,4.24,3,7.64a3.81,3.81,0,0,1-3.18,2.81c-5,1-5.57-2.94-5.62-4.72a12.43,12.43,0,0,0-1-4.81c-1.68-3.82-4.23-9.81-1.73-12.7,3.69-4.26,12.48-4,13.07-.53.5,2.86-2.5,4.46-3.93,5.94Zm5.13-11.9c-.3,1.84-1.46,3.19-2.6,3s-1.82-1.82-1.52-3.66,1.46-3.19,2.59-3,1.82,1.82,1.53,3.66Zm0,0"/><line class="cls-8" x1="368.49" y1="576.6" x2="378.67" y2="576.6"/><polygon class="cls-3" points="377.79 579.6 382.98 576.6 377.79 573.61 377.79 579.6"/><path d="M371.87,410.88a3.46,3.46,0,0,0,.65-1.8,3.69,3.69,0,0,0-.37-1.88A2.74,2.74,0,0,0,371,406a2.92,2.92,0,0,0-2.42-2.37,3.13,3.13,0,0,0-2.77-1.94h-.15a2.52,2.52,0,0,0-.82.19,3.23,3.23,0,0,0-2.66-1.56H362a3,3,0,0,0-1.56.57,4,4,0,0,0-3.73-1.78c-2.3.37-3.67,2.94-3.18,6a6.2,6.2,0,0,0,1.88,3.66,4,4,0,0,0-.68,1.63c-.59,3.36,1.86,5.43,3.48,6.79a13,13,0,0,1,1,.89,3.1,3.1,0,0,1,.39,3.8c-.05.08-.15.18-.26.32-1.14,1.38-4.19,5.06-3,9.06a5.76,5.76,0,0,0,4.7,4.21,9.87,9.87,0,0,0,1.95.22c3.69,0,6-2.56,6.08-6.85a10.45,10.45,0,0,1,.82-4.06c1.66-3.78,4.36-9.93,2-13.93Zm-2-3.11c.38,0,.65.55.61,1.17s-.39,1.09-.77,1.07-.66-.55-.61-1.17.38-1.1.77-1.07Zm-1.63-2.12c.48,0,.83.68.77,1.46s-.49,1.38-1,1.34-.82-.69-.77-1.46.49-1.37,1-1.34Zm-2.56-1.92c.65,0,1.22.79,1.27,1.84s-.42,1.92-1.07,2-1.21-.79-1.27-1.83.42-1.93,1.07-2Zm-3.65-1.35c.81,0,1.5,1,1.58,2.25s-.53,2.38-1.32,2.42-1.5-1-1.57-2.25.52-2.38,1.31-2.42Zm-6.61,2.44c-.29-1.84.39-3.48,1.53-3.67s2.3,1.17,2.6,3-.39,3.48-1.53,3.66-2.3-1.16-2.6-3ZM368,424a12.34,12.34,0,0,0-1,4.8c0,1.78-.59,5.78-5.63,4.73a3.84,3.84,0,0,1-3.18-2.82c-1-3.4,2.4-6.85,3-7.63a5.08,5.08,0,0,0-.57-6.38c-1.44-1.47-4.44-3.07-3.94-5.94.6-3.43,9.38-3.72,13.07.53,2.5,2.89,0,8.89-1.73,12.71Zm0,0"/><path class="cls-3" d="M351.19,405.14a6.47,6.47,0,0,0-.35-3.55,3.76,3.76,0,0,0-2.83-2.42,3.9,3.9,0,0,0-3.72,1.78,2.94,2.94,0,0,0-1.58-.57h-.16a3.24,3.24,0,0,0-2.66,1.55,2.88,2.88,0,0,0-.82-.19h-.15a3.13,3.13,0,0,0-2.77,1.94,2.91,2.91,0,0,0-2.41,2.34,2.57,2.57,0,0,0-.83.64,3.38,3.38,0,0,0-.75,2.43,3.52,3.52,0,0,0,.65,1.8c-2.33,4,.37,10.15,2,13.95a10.47,10.47,0,0,1,.81,4.05c.13,4.27,2.4,6.83,6.09,6.83a9.75,9.75,0,0,0,1.95-.21,5.75,5.75,0,0,0,4.69-4.2c1.19-4-1.85-7.69-3-9.07l-.27-.32a3.1,3.1,0,0,1,.4-3.8,13,13,0,0,1,1-.89c1.61-1.37,4.06-3.44,3.48-6.79a4.35,4.35,0,0,0-.68-1.63A6.19,6.19,0,0,0,351.19,405.14Zm-8.58-2.76c.8.05,1.38,1.12,1.31,2.41s-.77,2.3-1.56,2.26-1.39-1.13-1.33-2.41S341.81,402.33,342.61,402.38ZM339,403.73c.64,0,1.13.92,1.07,2s-.63,1.87-1.27,1.83-1.13-.9-1.07-2S338.32,403.7,339,403.73Zm-2.56,1.92c.47,0,.91.57,1,1.34s-.29,1.42-.77,1.46-.9-.57-1-1.34S335.92,405.68,336.4,405.65Zm-1.62,2.11c.38,0,.72.47.77,1.08s-.24,1.14-.62,1.17-.73-.46-.77-1.08S334.4,407.79,334.78,407.76Zm9.3,9a5.06,5.06,0,0,0-.57,6.37c.56.78,4,4.23,3,7.63a3.82,3.82,0,0,1-3.19,2.82c-5,1-5.57-3-5.62-4.73a12.37,12.37,0,0,0-1-4.8c-1.68-3.83-4.23-9.81-1.73-12.71,3.69-4.26,12.47-3.95,13.07-.52C348.52,413.63,345.52,415.24,344.08,416.72Zm5.14-11.9c-.3,1.84-1.46,3.19-2.6,3s-1.82-1.82-1.53-3.67,1.47-3.18,2.6-3S349.51,403,349.22,404.82Z"/><path class="cls-3" d="M343.51,423.09c.56.78,4,4.23,3,7.63a3.82,3.82,0,0,1-3.19,2.82c-5,1-5.57-3-5.62-4.73a12.37,12.37,0,0,0-1-4.8c-1.68-3.83-4.23-9.81-1.73-12.71,3.69-4.26,12.47-3.95,13.07-.52.5,2.85-2.5,4.46-3.94,5.94A5.06,5.06,0,0,0,343.51,423.09Z"/><path class="cls-3" d="M372.77,358.39a3.59,3.59,0,0,0,.28-3.68,2.64,2.64,0,0,0-1.2-1.16,2.92,2.92,0,0,0-2.41-2.37,3.16,3.16,0,0,0-2.78-1.94h-.15a2.27,2.27,0,0,0-.81.18,3.24,3.24,0,0,0-2.67-1.55h-.17a3,3,0,0,0-1.56.57,4,4,0,0,0-3.73-1.77c-2.3.37-3.67,2.93-3.18,6a6.26,6.26,0,0,0,1.88,3.67,3.93,3.93,0,0,0-.68,1.63c-.59,3.35,1.87,5.42,3.48,6.79a9.93,9.93,0,0,1,1,.89,3.07,3.07,0,0,1,.39,3.79,2.4,2.4,0,0,1-.26.33c-1.14,1.38-4.19,5.06-3,9.06a5.79,5.79,0,0,0,4.7,4.21,9.85,9.85,0,0,0,2,.21c3.68,0,5.95-2.55,6.08-6.85a10.19,10.19,0,0,1,.81-4.05C372.4,368.53,375.11,362.38,372.77,358.39ZM370,356.34c0-.61.39-1.09.77-1.06s.66.55.62,1.17-.4,1.09-.78,1.06S370,357,370,356.34Zm-1.82-1.85c.06-.77.49-1.36,1-1.34s.82.69.76,1.47-.48,1.37-1,1.34S368.17,355.27,368.22,354.49Zm-1.6-3.25c.65,0,1.22.79,1.28,1.83s-.42,1.93-1.08,2-1.21-.79-1.27-1.84S366,351.27,366.62,351.24ZM363,349.89c.8-.05,1.5,1,1.57,2.25s-.53,2.37-1.32,2.41-1.5-1-1.57-2.25S362.18,349.93,363,349.89Zm-6.61,2.44c-.3-1.84.38-3.49,1.53-3.67s2.29,1.16,2.59,3-.39,3.49-1.53,3.67S356.66,354.17,356.37,352.33Zm12.54,19.19a12.17,12.17,0,0,0-1,4.8c-.05,1.77-.59,5.77-5.62,4.73a3.84,3.84,0,0,1-3.19-2.82c-1-3.4,2.4-6.85,3-7.63a5.08,5.08,0,0,0-.58-6.38c-1.44-1.48-4.44-3.07-3.94-5.94.6-3.44,9.38-3.73,13.07.53C373.13,361.7,370.59,367.69,368.91,371.52Z"/><path class="cls-3" d="M368.91,371.52a12.17,12.17,0,0,0-1,4.8c-.05,1.77-.59,5.77-5.62,4.73a3.84,3.84,0,0,1-3.19-2.82c-1-3.4,2.4-6.85,3-7.63a5.08,5.08,0,0,0-.58-6.38c-1.44-1.48-4.44-3.07-3.94-5.94.6-3.44,9.38-3.73,13.07.53C373.13,361.7,370.59,367.69,368.91,371.52Z"/><path d="M348.91,346.68a3.89,3.89,0,0,0-3.72,1.78,2.92,2.92,0,0,0-1.57-.58h-.16a3.27,3.27,0,0,0-2.67,1.56,2.8,2.8,0,0,0-.82-.19h-.15a3.15,3.15,0,0,0-2.77,1.95,2.89,2.89,0,0,0-2.41,2.34,2.54,2.54,0,0,0-.83.64,3.32,3.32,0,0,0-.74,2.42,3.45,3.45,0,0,0,.64,1.81c-2.33,4,.37,10.14,2,13.95a10.24,10.24,0,0,1,.81,4c.13,4.28,2.4,6.84,6.09,6.84a9.18,9.18,0,0,0,2-.22,5.77,5.77,0,0,0,4.7-4.2c1.19-4-1.85-7.68-3-9.06l-.26-.32a3.07,3.07,0,0,1,.39-3.8,13,13,0,0,1,1-.89c1.62-1.37,4.06-3.44,3.48-6.79a4.13,4.13,0,0,0-.68-1.63,6.31,6.31,0,0,0,1.88-3.66,6.55,6.55,0,0,0-.36-3.55,3.74,3.74,0,0,0-2.83-2.42Zm-5.4,3.2c.8.05,1.38,1.13,1.31,2.42s-.77,2.3-1.56,2.26-1.39-1.13-1.32-2.42.77-2.3,1.57-2.26Zm-3.65,1.36c.65,0,1.13.92,1.07,2s-.62,1.87-1.27,1.83-1.13-.91-1.07-2,.63-1.87,1.27-1.83Zm-2.56,1.91c.48,0,.91.57,1,1.35s-.3,1.42-.77,1.46-.91-.57-1-1.34.29-1.43.77-1.47Zm-1.62,2.12c.38,0,.73.46.77,1.08s-.23,1.14-.62,1.16-.72-.45-.76-1.07.23-1.14.61-1.17Zm9.31,9a5,5,0,0,0-.58,6.36c.57.79,4,4.24,3,7.64a3.82,3.82,0,0,1-3.18,2.82c-5,1.05-5.57-2.95-5.62-4.73a12.43,12.43,0,0,0-1-4.81c-1.68-3.82-4.23-9.81-1.73-12.7,3.69-4.26,12.48-4,13.07-.53.5,2.86-2.5,4.46-3.93,6Zm5.13-11.91c-.3,1.85-1.46,3.19-2.6,3s-1.82-1.82-1.52-3.67,1.46-3.18,2.59-3,1.82,1.83,1.53,3.66Zm0,0"/><path d="M424,410.88a3.62,3.62,0,0,0,.27-3.68A2.62,2.62,0,0,0,423.1,406a2.93,2.93,0,0,0-2.42-2.37,3.14,3.14,0,0,0-2.77-1.94h-.15a2.52,2.52,0,0,0-.82.19,3.24,3.24,0,0,0-2.67-1.55h-.16a3.11,3.11,0,0,0-1.57.57,3.91,3.91,0,0,0-3.72-1.77c-2.31.37-3.68,2.93-3.19,6a6.24,6.24,0,0,0,1.89,3.67,4.15,4.15,0,0,0-.69,1.63c-.58,3.35,1.87,5.42,3.49,6.79a11,11,0,0,1,1,.89,3.07,3.07,0,0,1,.39,3.8l-.25.32c-1.15,1.38-4.2,5.06-3,9.06a5.8,5.8,0,0,0,4.71,4.21,9.67,9.67,0,0,0,1.95.21c3.68,0,6-2.56,6.08-6.84a10.38,10.38,0,0,1,.81-4.06c1.67-3.78,4.37-9.94,2-13.93Zm-2-3.11c.38,0,.66.54.62,1.16s-.39,1.1-.78,1.08-.65-.55-.61-1.17.39-1.1.77-1.07Zm-1.62-2.12c.48,0,.82.68.77,1.46s-.49,1.38-1,1.34-.82-.69-.77-1.47.49-1.37,1-1.33Zm-2.56-1.92c.64,0,1.22.79,1.27,1.83s-.42,1.93-1.07,2-1.22-.78-1.27-1.83.42-1.92,1.07-2Zm-3.65-1.35c.8-.05,1.5,1,1.57,2.25s-.52,2.37-1.32,2.41-1.49-1-1.56-2.25.51-2.37,1.31-2.41Zm-6.61,2.44c-.29-1.84.38-3.49,1.53-3.67s2.3,1.16,2.59,3-.38,3.49-1.52,3.67-2.3-1.16-2.6-3ZM420.15,424a12.49,12.49,0,0,0-1,4.8c-.05,1.77-.58,5.77-5.62,4.73a3.82,3.82,0,0,1-3.18-2.82c-1-3.41,2.39-6.85,3-7.63a5.06,5.06,0,0,0-.58-6.38c-1.43-1.48-4.43-3.08-3.94-5.94.6-3.43,9.39-3.73,13.08.53,2.5,2.89-.05,8.88-1.73,12.71Zm0,0"/><path class="cls-3" d="M403.34,405.13a6.52,6.52,0,0,0-.35-3.54,3.78,3.78,0,0,0-2.83-2.42,3.92,3.92,0,0,0-3.73,1.77,3.08,3.08,0,0,0-1.57-.57h-.16a3.24,3.24,0,0,0-2.67,1.55,2.81,2.81,0,0,0-.81-.19h-.15a3.13,3.13,0,0,0-2.77,1.95,2.9,2.9,0,0,0-2.42,2.34,2.41,2.41,0,0,0-.82.64,3.31,3.31,0,0,0-.75,2.42,3.51,3.51,0,0,0,.64,1.81c-2.33,4,.37,10.14,2.05,13.95a10.42,10.42,0,0,1,.81,4c.12,4.28,2.4,6.84,6.09,6.84a9.73,9.73,0,0,0,1.94-.21,5.76,5.76,0,0,0,4.7-4.21c1.19-4-1.85-7.68-3-9.06l-.26-.32a3.08,3.08,0,0,1,.39-3.8c.28-.29.63-.58,1-.89,1.62-1.37,4.07-3.44,3.48-6.8a4.15,4.15,0,0,0-.68-1.62A6.29,6.29,0,0,0,403.34,405.13Zm-8.58-2.75c.79,0,1.38,1.12,1.3,2.41s-.77,2.3-1.56,2.26-1.39-1.13-1.32-2.42S394,402.33,394.76,402.38Zm-3.65,1.35c.64,0,1.13.92,1.07,2s-.63,1.86-1.28,1.83-1.12-.91-1.06-2S390.46,403.7,391.11,403.73Zm-2.57,1.91c.48,0,.91.57,1,1.34s-.29,1.43-.77,1.47-.9-.57-1-1.34S388.06,405.68,388.54,405.64Zm-1.62,2.12c.39,0,.73.46.77,1.07s-.23,1.15-.62,1.17-.72-.45-.76-1.07S386.54,407.79,386.92,407.76Zm9.31,9a5,5,0,0,0-.57,6.37c.56.78,4,4.23,2.95,7.63a3.8,3.8,0,0,1-3.18,2.82c-5,1-5.57-3-5.62-4.73a12.61,12.61,0,0,0-1-4.81c-1.69-3.82-4.23-9.81-1.74-12.7,3.7-4.26,12.48-4,13.07-.53C400.66,413.63,397.67,415.23,396.23,416.72Zm5.14-11.9c-.31,1.83-1.47,3.18-2.6,3s-1.82-1.83-1.53-3.67,1.46-3.19,2.6-3S401.65,403,401.37,404.82Z"/><path class="cls-3" d="M395.66,423.09c.56.78,4,4.23,2.95,7.63a3.8,3.8,0,0,1-3.18,2.82c-5,1-5.57-3-5.62-4.73a12.61,12.61,0,0,0-1-4.81c-1.69-3.82-4.23-9.81-1.74-12.7,3.7-4.26,12.48-4,13.07-.53.5,2.86-2.49,4.46-3.93,6A5,5,0,0,0,395.66,423.09Z"/><path class="cls-3" d="M424.92,358.38a3.46,3.46,0,0,0,.65-1.8,3.59,3.59,0,0,0-.37-1.88,2.74,2.74,0,0,0-1.2-1.16,2.93,2.93,0,0,0-2.42-2.37,3.13,3.13,0,0,0-2.77-1.94h-.15a2.51,2.51,0,0,0-.82.18,3.24,3.24,0,0,0-2.67-1.55H415a2.88,2.88,0,0,0-1.56.57,4,4,0,0,0-3.73-1.78c-2.31.37-3.67,2.93-3.19,6a6.27,6.27,0,0,0,1.89,3.66,4,4,0,0,0-.68,1.63c-.59,3.35,1.86,5.42,3.48,6.79a12.82,12.82,0,0,1,1,.89,3.07,3.07,0,0,1,.38,3.8,2,2,0,0,1-.25.32c-1.14,1.38-4.19,5.06-3,9.06A5.8,5.8,0,0,0,414,383a9.75,9.75,0,0,0,1.95.21c3.69,0,6-2.55,6.08-6.84a10.56,10.56,0,0,1,.81-4.06C424.55,368.53,427.25,362.38,424.92,358.38Zm-2.73-2c0-.62.38-1.1.77-1.07s.65.55.61,1.17-.39,1.09-.77,1.07S422.14,357,422.19,356.34Zm-1.82-1.85c.06-.77.49-1.37,1-1.35s.82.69.76,1.47-.49,1.38-1,1.34S420.32,355.26,420.37,354.49Zm-1.6-3.26c.65,0,1.22.79,1.27,1.83s-.42,1.93-1.07,2-1.21-.79-1.27-1.84S418.12,351.27,418.77,351.23Zm-3.64-1.35c.79,0,1.49,1,1.56,2.25s-.52,2.38-1.32,2.41-1.49-1-1.56-2.25S414.33,349.92,415.13,349.88Zm-6.62,2.44c-.29-1.84.39-3.49,1.53-3.67s2.3,1.17,2.6,3-.39,3.49-1.53,3.67S408.81,354.16,408.51,352.32Zm12.54,19.19a12.53,12.53,0,0,0-1,4.8c0,1.78-.58,5.77-5.62,4.73a3.84,3.84,0,0,1-3.18-2.82c-1-3.4,2.39-6.85,3-7.63a5.08,5.08,0,0,0-.57-6.38c-1.44-1.48-4.44-3.07-3.95-5.94.61-3.43,9.39-3.73,13.08.53C425.28,361.69,422.73,367.69,421.05,371.51Z"/><path class="cls-3" d="M421.05,371.51a12.53,12.53,0,0,0-1,4.8c0,1.78-.58,5.77-5.62,4.73a3.84,3.84,0,0,1-3.18-2.82c-1-3.4,2.39-6.85,3-7.63a5.08,5.08,0,0,0-.57-6.38c-1.44-1.48-4.44-3.07-3.95-5.94.61-3.43,9.39-3.73,13.08.53C425.28,361.69,422.73,367.69,421.05,371.51Z"/><path d="M401.06,346.67a3.93,3.93,0,0,0-3.73,1.78,2.94,2.94,0,0,0-1.57-.58h-.15a3.24,3.24,0,0,0-2.67,1.55,2.8,2.8,0,0,0-.82-.19H392a3.14,3.14,0,0,0-2.77,1.95,2.91,2.91,0,0,0-2.41,2.34,2.68,2.68,0,0,0-.83.64,3.38,3.38,0,0,0-.75,2.43,3.52,3.52,0,0,0,.65,1.8c-2.33,4,.37,10.14,2,13.95a10.42,10.42,0,0,1,.81,4c.12,4.28,2.4,6.84,6.09,6.84a9.91,9.91,0,0,0,1.95-.21,5.79,5.79,0,0,0,4.7-4.21c1.18-4-1.86-7.68-3-9.06l-.26-.32a3.1,3.1,0,0,1,.39-3.8,13.29,13.29,0,0,1,1-.89c1.61-1.37,4.06-3.44,3.47-6.79a4,4,0,0,0-.68-1.63,6.2,6.2,0,0,0,1.88-3.66,6.56,6.56,0,0,0-.35-3.55,3.76,3.76,0,0,0-2.83-2.42Zm-5.4,3.21c.79,0,1.38,1.12,1.31,2.41s-.77,2.3-1.57,2.26-1.39-1.13-1.31-2.41.77-2.31,1.57-2.26ZM392,351.23c.65,0,1.13.92,1.07,2s-.63,1.87-1.27,1.84-1.13-.92-1.07-2,.62-1.86,1.27-1.83Zm-2.56,1.92c.47,0,.9.56,1,1.34s-.29,1.42-.77,1.46-.9-.57-1-1.34.28-1.43.77-1.46Zm-1.63,2.12c.39,0,.73.45.77,1.07s-.23,1.14-.61,1.16-.73-.45-.77-1.07.23-1.14.61-1.16Zm9.31,9a5.06,5.06,0,0,0-.57,6.37c.57.79,4,4.23,3,7.63a3.82,3.82,0,0,1-3.18,2.82c-5,1-5.58-3-5.63-4.73a12.34,12.34,0,0,0-1-4.8c-1.69-3.83-4.23-9.82-1.73-12.71,3.69-4.26,12.47-4,13.07-.53.5,2.86-2.5,4.46-3.94,6Zm5.14-11.9c-.3,1.84-1.46,3.18-2.6,3s-1.82-1.82-1.53-3.67,1.46-3.18,2.6-3,1.82,1.83,1.53,3.67Zm0,0"/><line class="cls-8" x1="370.7" y1="430.03" x2="380.88" y2="430.03"/><polygon class="cls-3" points="380.01 433.02 385.19 430.02 380.01 427.03 380.01 433.02"/><line class="cls-8" x1="371.61" y1="377.53" x2="381.79" y2="377.53"/><polygon class="cls-3" points="380.91 380.52 386.09 377.53 380.91 374.54 380.91 380.52"/><line class="cls-8" x1="370.7" y1="233.62" x2="380.88" y2="233.62"/><polygon class="cls-3" points="380.01 236.61 385.19 233.62 380.01 230.63 380.01 236.61"/><path d="M498.83,312.29a3.39,3.39,0,0,0,.64-1.8,3.51,3.51,0,0,0-.37-1.88,2.67,2.67,0,0,0-1.19-1.16,2.92,2.92,0,0,0-2.42-2.36,3.15,3.15,0,0,0-2.77-1.95h-.15a2.52,2.52,0,0,0-.82.19,3.23,3.23,0,0,0-2.67-1.56h-.16a3,3,0,0,0-1.57.57,3.92,3.92,0,0,0-3.72-1.78c-2.31.37-3.68,2.94-3.19,6a6.21,6.21,0,0,0,1.89,3.66,4.13,4.13,0,0,0-.69,1.64c-.58,3.35,1.87,5.42,3.49,6.79a11,11,0,0,1,1,.88,3.07,3.07,0,0,1,.39,3.8c-.05.08-.14.18-.25.32-1.15,1.38-4.2,5.06-3,9.06a5.79,5.79,0,0,0,4.71,4.21,9,9,0,0,0,1.95.22c3.68,0,6-2.56,6.08-6.85a10.46,10.46,0,0,1,.81-4.06c1.67-3.78,4.37-9.93,2-13.93Zm-2-3.11c.38,0,.66.55.62,1.17s-.39,1.1-.78,1.07-.65-.55-.61-1.17.39-1.09.77-1.07Zm-1.62-2.12c.48,0,.82.69.77,1.46s-.49,1.38-1,1.34-.82-.68-.77-1.46.49-1.37,1-1.34Zm-2.56-1.92c.64,0,1.22.79,1.27,1.84s-.42,1.92-1.07,2-1.22-.79-1.27-1.83.42-1.93,1.07-2ZM489,303.79c.8,0,1.5,1,1.57,2.25s-.52,2.38-1.32,2.42-1.49-1-1.56-2.25.51-2.38,1.31-2.42Zm-6.61,2.44c-.29-1.84.38-3.48,1.53-3.66s2.3,1.16,2.59,3-.38,3.48-1.52,3.66-2.3-1.16-2.6-3ZM495,325.42a12.53,12.53,0,0,0-1,4.8c-.05,1.78-.58,5.78-5.62,4.73a3.83,3.83,0,0,1-3.18-2.81c-1-3.41,2.39-6.85,3-7.64a5.05,5.05,0,0,0-.58-6.37c-1.43-1.48-4.43-3.08-3.94-5.95.6-3.43,9.39-3.72,13.08.53,2.5,2.89-.05,8.89-1.73,12.71Zm0,0"/><path class="cls-3" d="M478.15,306.55a6.52,6.52,0,0,0-.35-3.54,3.74,3.74,0,0,0-2.83-2.42,3.9,3.9,0,0,0-3.73,1.77,3,3,0,0,0-1.57-.57h-.16a3.26,3.26,0,0,0-2.67,1.56,2.53,2.53,0,0,0-.81-.2h-.15a3.12,3.12,0,0,0-2.77,1.94,2.92,2.92,0,0,0-2.42,2.34,2.53,2.53,0,0,0-.82.64,3.33,3.33,0,0,0-.75,2.43,3.51,3.51,0,0,0,.64,1.8c-2.33,4,.37,10.15,2.05,13.95a10.47,10.47,0,0,1,.81,4.05c.12,4.28,2.4,6.83,6.09,6.83a9,9,0,0,0,1.94-.21,5.75,5.75,0,0,0,4.7-4.2c1.19-4-1.85-7.69-3-9.07a4,4,0,0,0-.26-.31,3.1,3.1,0,0,1,.39-3.81c.28-.29.63-.58,1-.89,1.62-1.36,4.07-3.43,3.48-6.79a4.09,4.09,0,0,0-.68-1.62A6.29,6.29,0,0,0,478.15,306.55Zm-8.58-2.76c.79,0,1.38,1.12,1.3,2.41s-.77,2.3-1.56,2.26-1.39-1.13-1.32-2.41S468.76,303.74,469.57,303.79Zm-3.65,1.36c.64,0,1.13.91,1.07,2s-.63,1.86-1.28,1.83-1.12-.91-1.06-2S465.27,305.11,465.92,305.15Zm-2.57,1.91c.48,0,.91.57,1,1.34s-.29,1.42-.77,1.46-.9-.57-1-1.34S462.87,307.09,463.35,307.06Zm-1.62,2.12c.39,0,.73.46.77,1.07s-.23,1.14-.62,1.17-.72-.46-.76-1.07S461.35,309.2,461.73,309.18Zm9.31,8.95a5,5,0,0,0-.57,6.37c.56.79,4,4.23,2.95,7.63a3.8,3.8,0,0,1-3.18,2.82c-5,1.05-5.57-2.95-5.62-4.72a12.57,12.57,0,0,0-1-4.81c-1.69-3.83-4.23-9.81-1.74-12.71,3.7-4.26,12.48-3.95,13.07-.52C475.47,315,472.48,316.65,471,318.13Zm5.14-11.9c-.31,1.84-1.47,3.19-2.6,3s-1.82-1.82-1.53-3.66,1.46-3.19,2.6-3S476.46,304.39,476.18,306.23Z"/><path d="M372.78,636.09a3.62,3.62,0,0,0,.27-3.68,2.62,2.62,0,0,0-1.19-1.16,2.94,2.94,0,0,0-2.42-2.37,3.15,3.15,0,0,0-2.78-1.94h-.15a2.51,2.51,0,0,0-.81.18,3.24,3.24,0,0,0-2.67-1.55h-.16a2.94,2.94,0,0,0-1.57.57,3.93,3.93,0,0,0-3.72-1.78c-2.31.37-3.68,2.94-3.19,6a6.24,6.24,0,0,0,1.89,3.67,4.15,4.15,0,0,0-.69,1.63c-.59,3.35,1.87,5.42,3.49,6.79a12.76,12.76,0,0,1,1,.89,3.07,3.07,0,0,1,.39,3.8c-.05.08-.14.18-.25.32-1.15,1.38-4.2,5.06-3,9.06a5.79,5.79,0,0,0,4.7,4.21,9.85,9.85,0,0,0,2,.21c3.68,0,5.95-2.55,6.08-6.84a10.46,10.46,0,0,1,.81-4.06c1.67-3.78,4.37-9.93,2-13.93Zm-2-3.11c.38,0,.66.55.62,1.17s-.39,1.09-.78,1.07-.65-.55-.61-1.17.39-1.1.77-1.07Zm-1.62-2.12c.48,0,.82.68.77,1.46s-.49,1.38-1,1.34-.82-.69-.77-1.46.49-1.37,1-1.34Zm-2.57-1.92c.65,0,1.22.79,1.28,1.83s-.42,1.93-1.07,2-1.22-.79-1.28-1.83.43-1.93,1.07-2ZM363,627.59c.8-.05,1.5,1,1.57,2.25s-.52,2.38-1.32,2.41-1.49-1-1.56-2.24.51-2.38,1.31-2.42ZM356.37,630c-.3-1.84.38-3.48,1.52-3.67s2.31,1.16,2.6,3-.38,3.48-1.53,3.66-2.29-1.16-2.59-3Zm12.54,19.19a12.53,12.53,0,0,0-1,4.8c-.05,1.78-.58,5.78-5.62,4.73a3.85,3.85,0,0,1-3.19-2.82c-1-3.4,2.4-6.85,3-7.63a5.07,5.07,0,0,0-.58-6.38c-1.43-1.48-4.43-3.07-3.94-5.94.6-3.43,9.38-3.73,13.08.53,2.5,2.89-.05,8.89-1.73,12.71Zm0,0"/><path class="cls-3" d="M352.1,630.35a6.56,6.56,0,0,0-.35-3.55,3.77,3.77,0,0,0-2.84-2.42,3.91,3.91,0,0,0-3.72,1.78,2.91,2.91,0,0,0-1.57-.57h-.16a3.27,3.27,0,0,0-2.67,1.55,2.81,2.81,0,0,0-.81-.19h-.15a3.13,3.13,0,0,0-2.77,2,2.92,2.92,0,0,0-2.42,2.34,2.41,2.41,0,0,0-.82.64,3.33,3.33,0,0,0-.75,2.43,3.42,3.42,0,0,0,.64,1.8c-2.33,4,.37,10.15,2.05,13.95a10.42,10.42,0,0,1,.81,4c.12,4.28,2.4,6.84,6.08,6.84a9.75,9.75,0,0,0,2-.21,5.75,5.75,0,0,0,4.7-4.2c1.19-4-1.85-7.69-3-9.07l-.26-.32a3.08,3.08,0,0,1,.39-3.8c.28-.29.63-.58,1-.89,1.62-1.37,4.07-3.44,3.48-6.79a4.13,4.13,0,0,0-.68-1.63A6.26,6.26,0,0,0,352.1,630.35Zm-8.59-2.76c.8,0,1.39,1.12,1.31,2.41s-.77,2.3-1.56,2.26-1.39-1.13-1.32-2.42S342.71,627.54,343.51,627.59Zm-3.64,1.35c.64,0,1.13.92,1.06,2s-.62,1.87-1.27,1.83-1.13-.9-1.06-2S339.22,628.91,339.87,628.94Zm-2.57,1.92c.48,0,.91.57,1,1.34s-.29,1.42-.77,1.46-.91-.57-1-1.34S336.82,630.89,337.3,630.86ZM335.68,633c.38,0,.73.46.77,1.08s-.23,1.14-.62,1.17-.72-.46-.76-1.08S335.3,633,335.68,633Zm9.31,9a5,5,0,0,0-.57,6.37c.56.78,4,4.23,2.95,7.63a3.8,3.8,0,0,1-3.18,2.82c-5,1-5.57-3-5.62-4.73a12.43,12.43,0,0,0-1-4.81c-1.68-3.82-4.23-9.8-1.73-12.7,3.7-4.26,12.48-4,13.07-.52C349.42,638.84,346.42,640.44,345,641.93Zm5.13-11.9c-.3,1.84-1.46,3.18-2.6,3s-1.81-1.82-1.52-3.67,1.46-3.18,2.6-3S350.41,628.19,350.12,630Z"/><path class="cls-3" d="M344.42,648.3c.56.78,4,4.23,2.95,7.63a3.8,3.8,0,0,1-3.18,2.82c-5,1-5.57-3-5.62-4.73a12.43,12.43,0,0,0-1-4.81c-1.68-3.82-4.23-9.8-1.73-12.7,3.7-4.26,12.48-4,13.07-.52.5,2.85-2.5,4.45-3.93,5.94A5,5,0,0,0,344.42,648.3Z"/><path d="M424.92,636.09a3.46,3.46,0,0,0,.65-1.81,3.65,3.65,0,0,0-.37-1.87,2.68,2.68,0,0,0-1.2-1.16,2.9,2.9,0,0,0-2.42-2.37,3.14,3.14,0,0,0-2.77-2h-.15a2.52,2.52,0,0,0-.82.19,3.24,3.24,0,0,0-2.66-1.55H415a3,3,0,0,0-1.56.57,3.94,3.94,0,0,0-3.73-1.77c-2.3.37-3.67,2.93-3.18,6a6.23,6.23,0,0,0,1.88,3.67,4,4,0,0,0-.68,1.63c-.59,3.35,1.86,5.42,3.48,6.79a11.19,11.19,0,0,1,1,.89,3.08,3.08,0,0,1,.39,3.79,3.7,3.7,0,0,1-.26.32c-1.14,1.39-4.19,5.07-3,9.07a5.75,5.75,0,0,0,4.7,4.2,9.18,9.18,0,0,0,1.95.22c3.69,0,6-2.56,6.08-6.84a10.37,10.37,0,0,1,.82-4.06c1.66-3.79,4.36-9.94,2-13.93ZM423,633c.38,0,.65.54.61,1.16s-.39,1.1-.77,1.07-.66-.54-.61-1.16.38-1.1.77-1.07Zm-1.63-2.13c.48,0,.83.69.77,1.47s-.49,1.37-1,1.33-.82-.68-.77-1.46.49-1.37,1-1.34Zm-2.56-1.91c.65,0,1.22.79,1.27,1.83s-.42,1.93-1.07,2-1.21-.78-1.27-1.83.42-1.92,1.07-2Zm-3.65-1.35c.81-.05,1.5,1,1.58,2.25s-.53,2.37-1.32,2.41-1.5-1-1.57-2.25.52-2.37,1.31-2.41ZM408.51,630c-.29-1.84.39-3.49,1.53-3.67s2.3,1.16,2.6,3-.39,3.49-1.53,3.67-2.3-1.16-2.6-3Zm12.54,19.19a12.3,12.3,0,0,0-1,4.8c-.05,1.77-.59,5.77-5.63,4.73a3.84,3.84,0,0,1-3.18-2.82c-1-3.41,2.4-6.85,3-7.63a5.08,5.08,0,0,0-.57-6.38c-1.44-1.48-4.44-3.08-3.94-5.94.6-3.43,9.38-3.73,13.07.53,2.5,2.89,0,8.88-1.73,12.71Zm0,0"/><path class="cls-3" d="M404.24,630.34a6.43,6.43,0,0,0-.35-3.54,3.76,3.76,0,0,0-2.83-2.42,3.89,3.89,0,0,0-3.72,1.77,3.12,3.12,0,0,0-1.58-.57h-.16a3.21,3.21,0,0,0-2.66,1.55,2.88,2.88,0,0,0-.82-.19H392a3.14,3.14,0,0,0-2.77,2,2.88,2.88,0,0,0-2.41,2.34,2.44,2.44,0,0,0-.83.64,3.34,3.34,0,0,0-.75,2.42,3.52,3.52,0,0,0,.65,1.81c-2.33,4,.37,10.14,2,13.95a10.42,10.42,0,0,1,.81,4c.13,4.28,2.4,6.84,6.09,6.84a9.11,9.11,0,0,0,1.95-.22,5.74,5.74,0,0,0,4.69-4.2c1.19-4-1.85-7.68-3-9.06l-.27-.32a3.1,3.1,0,0,1,.4-3.8,13,13,0,0,1,1-.89c1.61-1.37,4.06-3.44,3.48-6.8a4.3,4.3,0,0,0-.68-1.62A6.22,6.22,0,0,0,404.24,630.34Zm-8.58-2.76c.8,0,1.38,1.13,1.31,2.42s-.77,2.3-1.56,2.25-1.39-1.12-1.33-2.41S394.86,627.54,395.66,627.58ZM392,628.94c.64,0,1.13.91,1.07,2s-.63,1.86-1.27,1.83-1.13-.91-1.07-2S391.37,628.9,392,628.94Zm-2.56,1.91c.47,0,.91.57,1,1.34s-.29,1.43-.77,1.47-.9-.57-1-1.34S389,630.89,389.45,630.85ZM387.83,633c.38,0,.72.46.77,1.07s-.24,1.14-.62,1.17-.73-.45-.77-1.07S387.45,633,387.83,633Zm9.3,9a5.06,5.06,0,0,0-.57,6.37c.56.78,4,4.23,3,7.62a3.81,3.81,0,0,1-3.19,2.82c-5,1.06-5.57-3-5.62-4.72a12.42,12.42,0,0,0-1-4.81c-1.68-3.82-4.23-9.81-1.73-12.7,3.69-4.26,12.47-4,13.07-.53C401.57,638.84,398.57,640.44,397.13,641.93Zm5.14-11.9c-.3,1.83-1.46,3.18-2.6,3s-1.82-1.83-1.53-3.67,1.47-3.19,2.6-3S402.56,628.18,402.27,630Z"/><path class="cls-3" d="M396.56,648.3c.56.78,4,4.23,3,7.62a3.81,3.81,0,0,1-3.19,2.82c-5,1.06-5.57-3-5.62-4.72a12.42,12.42,0,0,0-1-4.81c-1.68-3.82-4.23-9.81-1.73-12.7,3.69-4.26,12.47-4,13.07-.53.5,2.86-2.5,4.46-3.94,5.95A5.06,5.06,0,0,0,396.56,648.3Z"/><line class="cls-8" x1="371.61" y1="655.23" x2="381.79" y2="655.23"/><polygon class="cls-3" points="380.91 658.23 386.09 655.23 380.91 652.24 380.91 658.23"/><path d="M605,636.09a3.62,3.62,0,0,0,.27-3.68,2.62,2.62,0,0,0-1.19-1.16,2.93,2.93,0,0,0-2.42-2.37,3.15,3.15,0,0,0-2.77-2h-.15a2.52,2.52,0,0,0-.82.19,3.24,3.24,0,0,0-2.67-1.55h-.16a3.11,3.11,0,0,0-1.57.57,3.91,3.91,0,0,0-3.72-1.77c-2.31.37-3.68,2.93-3.19,6a6.3,6.3,0,0,0,1.89,3.67,4.15,4.15,0,0,0-.69,1.63c-.58,3.35,1.87,5.42,3.49,6.79a11,11,0,0,1,1,.89,3.06,3.06,0,0,1,.39,3.79,3.27,3.27,0,0,1-.25.32c-1.15,1.39-4.2,5.07-3,9.07a5.78,5.78,0,0,0,4.71,4.2,9,9,0,0,0,1.95.22c3.68,0,6-2.56,6.08-6.84a10.38,10.38,0,0,1,.81-4.06c1.67-3.79,4.37-9.94,2-13.93ZM603,633c.37,0,.65.54.61,1.16s-.39,1.1-.78,1.07-.65-.54-.6-1.16.38-1.1.77-1.07Zm-1.63-2.13c.48,0,.82.69.77,1.47s-.49,1.37-1,1.33-.82-.68-.77-1.46.49-1.37,1-1.34Zm-2.56-1.91c.64,0,1.22.79,1.27,1.83s-.42,1.93-1.07,2-1.21-.78-1.27-1.83.42-1.92,1.07-2Zm-3.65-1.35c.8-.05,1.5,1,1.57,2.25s-.52,2.37-1.32,2.41-1.49-1-1.56-2.25.51-2.37,1.31-2.41ZM588.57,630c-.29-1.84.38-3.49,1.53-3.67s2.3,1.16,2.59,3-.38,3.49-1.52,3.67-2.3-1.16-2.6-3Zm12.54,19.19a12.49,12.49,0,0,0-1,4.8c0,1.77-.58,5.77-5.62,4.73a3.82,3.82,0,0,1-3.18-2.82c-1-3.41,2.39-6.85,3-7.63a5.06,5.06,0,0,0-.58-6.38c-1.43-1.48-4.43-3.08-3.94-5.94.6-3.43,9.39-3.73,13.08.53,2.5,2.89-.05,8.88-1.73,12.71Zm0,0"/><path class="cls-3" d="M584.3,630.34a6.52,6.52,0,0,0-.35-3.54,3.78,3.78,0,0,0-2.83-2.42,3.92,3.92,0,0,0-3.73,1.77,3.08,3.08,0,0,0-1.57-.57h-.16a3.24,3.24,0,0,0-2.67,1.55,2.81,2.81,0,0,0-.81-.19H572a3.13,3.13,0,0,0-2.77,2,2.89,2.89,0,0,0-2.42,2.34,2.41,2.41,0,0,0-.82.64,3.34,3.34,0,0,0-.75,2.42,3.51,3.51,0,0,0,.64,1.81c-2.33,4,.38,10.14,2.05,13.95a10.42,10.42,0,0,1,.81,4c.12,4.28,2.4,6.84,6.09,6.84a9.09,9.09,0,0,0,1.94-.22,5.74,5.74,0,0,0,4.7-4.2c1.19-4-1.85-7.68-3-9.06l-.26-.32a3.08,3.08,0,0,1,.39-3.8c.28-.29.63-.58,1-.89,1.62-1.37,4.07-3.44,3.48-6.8a4.15,4.15,0,0,0-.68-1.62A6.29,6.29,0,0,0,584.3,630.34Zm-8.58-2.76c.79,0,1.38,1.13,1.3,2.42s-.77,2.3-1.56,2.25-1.39-1.12-1.32-2.41S574.91,627.54,575.72,627.58Zm-3.65,1.36c.64,0,1.13.91,1.07,2s-.63,1.86-1.28,1.83-1.12-.91-1.06-2S571.42,628.9,572.07,628.94Zm-2.57,1.91c.48,0,.91.57,1,1.34s-.29,1.43-.77,1.47-.9-.57-1-1.34S569,630.89,569.5,630.85ZM567.88,633c.39,0,.73.46.77,1.07s-.23,1.14-.62,1.17-.72-.45-.76-1.07S567.5,633,567.88,633Zm9.31,9a5,5,0,0,0-.57,6.37c.56.78,4,4.23,3,7.62a3.78,3.78,0,0,1-3.18,2.82c-5,1.06-5.57-3-5.62-4.72a12.61,12.61,0,0,0-1-4.81c-1.69-3.82-4.23-9.81-1.74-12.7,3.7-4.26,12.48-4,13.07-.53C581.62,638.84,578.63,640.44,577.19,641.93Zm5.14-11.9c-.31,1.83-1.47,3.18-2.6,3s-1.82-1.83-1.53-3.67,1.46-3.19,2.6-3S582.62,628.18,582.33,630Z"/><path class="cls-3" d="M497.92,455.16a3.59,3.59,0,0,0,.28-3.68,2.59,2.59,0,0,0-1.2-1.16,2.89,2.89,0,0,0-2.41-2.37,3.16,3.16,0,0,0-2.78-1.94h-.15a2.58,2.58,0,0,0-.82.19,3.25,3.25,0,0,0-2.67-1.56H488a3,3,0,0,0-1.56.57,3.94,3.94,0,0,0-3.73-1.77c-2.3.37-3.67,2.93-3.18,6a6.26,6.26,0,0,0,1.88,3.67,3.93,3.93,0,0,0-.68,1.63c-.59,3.35,1.86,5.42,3.48,6.79.36.31.71.59,1,.88a3.09,3.09,0,0,1,.39,3.8,3.21,3.21,0,0,1-.26.33c-1.14,1.38-4.19,5.06-3,9.05a5.8,5.8,0,0,0,4.71,4.21A9.11,9.11,0,0,0,489,480c3.69,0,6-2.55,6.08-6.85a10.45,10.45,0,0,1,.82-4.06C497.55,465.3,500.25,459.15,497.92,455.16Zm-2.73-2.05c0-.62.39-1.09.77-1.06s.65.55.61,1.17-.39,1.09-.77,1.06S495.14,453.74,495.19,453.11Zm-1.82-1.85c.06-.77.49-1.37,1-1.34s.82.69.76,1.47-.49,1.37-1,1.34S493.32,452,493.37,451.26Zm-1.6-3.25c.65,0,1.22.79,1.27,1.83s-.41,1.92-1.07,2-1.21-.8-1.27-1.84S491.13,448,491.77,448Zm-3.64-1.36c.79,0,1.5,1,1.56,2.26s-.52,2.37-1.32,2.41-1.49-1-1.56-2.25S487.33,446.69,488.13,446.65Zm-6.61,2.45c-.3-1.84.38-3.49,1.52-3.67s2.3,1.16,2.6,3-.39,3.49-1.53,3.66S481.81,450.94,481.52,449.1Zm12.54,19.19a12.13,12.13,0,0,0-1,4.8c-.05,1.77-.59,5.77-5.62,4.73a3.84,3.84,0,0,1-3.19-2.82c-1-3.4,2.39-6.85,3-7.64a5.08,5.08,0,0,0-.58-6.37c-1.44-1.48-4.44-3.08-3.94-5.94.6-3.44,9.38-3.73,13.07.52C498.28,458.46,495.73,464.46,494.06,468.29Z"/><path d="M474.06,443.45a3.9,3.9,0,0,0-3.72,1.77,3,3,0,0,0-1.58-.57h-.15a3.23,3.23,0,0,0-2.67,1.56,2.8,2.8,0,0,0-.82-.19H465a3.16,3.16,0,0,0-2.77,1.94,2.92,2.92,0,0,0-2.41,2.35,2.54,2.54,0,0,0-.83.64,3.35,3.35,0,0,0-.75,2.42,3.52,3.52,0,0,0,.65,1.8c-2.33,4,.37,10.15,2,14a10.29,10.29,0,0,1,.81,4c.12,4.28,2.4,6.84,6.09,6.84a9.25,9.25,0,0,0,1.95-.22,5.78,5.78,0,0,0,4.7-4.2c1.18-4-1.86-7.68-3-9.06l-.27-.32a3.1,3.1,0,0,1,.4-3.81c.28-.28.62-.57,1-.88,1.62-1.37,4.06-3.44,3.47-6.8a4,4,0,0,0-.67-1.62,6.34,6.34,0,0,0,1.88-3.67,6.62,6.62,0,0,0-.36-3.54,3.74,3.74,0,0,0-2.83-2.42Zm-5.4,3.2c.8.05,1.38,1.12,1.31,2.42s-.77,2.29-1.57,2.25-1.39-1.12-1.31-2.41.77-2.3,1.57-2.26ZM465,448c.65,0,1.13.91,1.07,2s-.62,1.86-1.27,1.83-1.13-.91-1.07-2S464.37,448,465,448Zm-2.56,1.91c.47,0,.9.57,1,1.35s-.29,1.42-.77,1.46-.9-.57-1-1.35.28-1.43.77-1.46ZM460.82,452c.39,0,.73.46.77,1.07s-.23,1.14-.61,1.17-.72-.45-.76-1.07.22-1.14.6-1.17Zm9.31,8.95a5.06,5.06,0,0,0-.57,6.37c.57.79,4,4.24,3,7.64a3.81,3.81,0,0,1-3.18,2.81c-5,1.05-5.58-2.94-5.63-4.72a12.42,12.42,0,0,0-1-4.81c-1.68-3.82-4.23-9.81-1.73-12.7,3.69-4.26,12.47-4,13.07-.53.5,2.86-2.5,4.46-3.94,5.94Zm5.14-11.9c-.3,1.84-1.46,3.19-2.6,3s-1.82-1.82-1.53-3.66,1.47-3.19,2.6-3,1.82,1.82,1.53,3.66Zm0,0"/><path class="cls-3" d="M497.92,214.47a3.43,3.43,0,0,0,.65-1.8,3.51,3.51,0,0,0-.37-1.88,2.61,2.61,0,0,0-1.2-1.15,2.92,2.92,0,0,0-2.41-2.38,3.16,3.16,0,0,0-2.78-1.94h-.15a2.58,2.58,0,0,0-.82.19,3.25,3.25,0,0,0-2.67-1.56H488a3,3,0,0,0-1.56.57,3.94,3.94,0,0,0-3.73-1.77c-2.3.37-3.67,2.93-3.18,6a6.26,6.26,0,0,0,1.88,3.67,3.88,3.88,0,0,0-.68,1.63c-.59,3.35,1.86,5.42,3.48,6.79a12.79,12.79,0,0,1,1,.88,3.09,3.09,0,0,1,.39,3.8,2.43,2.43,0,0,1-.26.32c-1.14,1.39-4.19,5.07-3,9.06a5.8,5.8,0,0,0,4.71,4.21,9.07,9.07,0,0,0,1.95.21c3.69,0,6-2.55,6.08-6.84a10.45,10.45,0,0,1,.82-4.06C497.55,224.62,500.25,218.47,497.92,214.47Zm-2.73-2c0-.62.39-1.09.77-1.07s.65.55.61,1.17-.39,1.1-.77,1.07S495.14,213.06,495.19,212.43Zm-1.82-1.85c.06-.77.49-1.37,1-1.34s.82.69.76,1.46-.49,1.38-1,1.34S493.32,211.36,493.37,210.58Zm-1.6-3.25c.65,0,1.22.79,1.27,1.83s-.41,1.92-1.07,2-1.21-.79-1.27-1.83S491.13,207.36,491.77,207.33ZM488.13,206c.79,0,1.5,1,1.56,2.26s-.52,2.37-1.32,2.4-1.49-1-1.56-2.24S487.33,206,488.13,206Zm-6.61,2.44c-.3-1.83.38-3.48,1.52-3.66s2.3,1.16,2.6,3-.39,3.48-1.53,3.66S481.81,210.26,481.52,208.41Zm12.54,19.19a12.18,12.18,0,0,0-1,4.81c-.05,1.77-.59,5.77-5.62,4.73a3.86,3.86,0,0,1-3.19-2.82c-1-3.41,2.39-6.85,3-7.64a5.08,5.08,0,0,0-.58-6.37c-1.44-1.48-4.44-3.08-3.94-5.95.6-3.43,9.38-3.73,13.07.53C498.28,217.78,495.73,223.78,494.06,227.6Z"/><path d="M474.06,202.77a3.9,3.9,0,0,0-3.72,1.77,3,3,0,0,0-1.58-.57h-.15a3.24,3.24,0,0,0-2.67,1.55,3.16,3.16,0,0,0-.82-.19H465a3.16,3.16,0,0,0-2.77,1.94,2.91,2.91,0,0,0-2.41,2.34,2.68,2.68,0,0,0-.83.64,3.38,3.38,0,0,0-.75,2.43,3.52,3.52,0,0,0,.65,1.8c-2.33,4,.37,10.15,2,13.95a10.29,10.29,0,0,1,.81,4.05c.12,4.28,2.4,6.83,6.09,6.83a9.91,9.91,0,0,0,1.95-.21,5.78,5.78,0,0,0,4.7-4.2c1.18-4-1.86-7.68-3-9.07l-.27-.31a3.1,3.1,0,0,1,.4-3.81c.28-.29.62-.57,1-.89,1.62-1.37,4.06-3.43,3.47-6.79a4,4,0,0,0-.67-1.62,6.34,6.34,0,0,0,1.88-3.67,6.62,6.62,0,0,0-.36-3.54,3.72,3.72,0,0,0-2.83-2.42Zm-5.4,3.2c.8.05,1.38,1.12,1.31,2.41s-.77,2.3-1.57,2.26-1.39-1.13-1.31-2.41.77-2.3,1.57-2.26ZM465,207.33c.65,0,1.13.91,1.07,2s-.62,1.86-1.27,1.83-1.13-.91-1.07-2,.63-1.86,1.27-1.82Zm-2.56,1.91c.47,0,.9.57,1,1.34s-.29,1.43-.77,1.46-.9-.56-1-1.34.28-1.43.77-1.46Zm-1.63,2.12c.39,0,.73.46.77,1.07s-.23,1.14-.61,1.17-.72-.45-.76-1.07.22-1.14.6-1.17Zm9.31,8.95a5.06,5.06,0,0,0-.57,6.37c.57.79,4,4.23,3,7.63a3.81,3.81,0,0,1-3.18,2.82c-5,1.05-5.58-2.95-5.63-4.72a12.38,12.38,0,0,0-1-4.81c-1.68-3.82-4.23-9.81-1.73-12.7,3.69-4.26,12.47-4,13.07-.53.5,2.86-2.5,4.45-3.94,5.94Zm5.14-11.9c-.3,1.84-1.46,3.19-2.6,3s-1.82-1.82-1.53-3.66,1.47-3.19,2.6-3,1.82,1.83,1.53,3.67Zm0,0"/><path d="M497.88,260.33a3.51,3.51,0,0,0,.63-1.81,3.6,3.6,0,0,0-.39-1.88,2.61,2.61,0,0,0-1.21-1.14,2.94,2.94,0,0,0-2.44-2.35,3.15,3.15,0,0,0-2.8-1.91h-.14a2.8,2.8,0,0,0-.82.19,3.24,3.24,0,0,0-2.68-1.52h-.17a3,3,0,0,0-1.55.58,3.93,3.93,0,0,0-3.75-1.73c-2.3.39-3.64,3-3.12,6a6.27,6.27,0,0,0,1.92,3.65,3.94,3.94,0,0,0-.66,1.64c-.56,3.35,1.92,5.4,3.55,6.75.36.31.72.59,1,.88a3.07,3.07,0,0,1,.42,3.79,2.85,2.85,0,0,1-.25.33c-1.13,1.39-4.14,5.1-2.91,9.09a5.8,5.8,0,0,0,4.75,4.16,9.67,9.67,0,0,0,1.95.19c3.69,0,5.93-2.61,6-6.91a10.31,10.31,0,0,1,.77-4.06C497.62,270.48,500.26,264.3,497.88,260.33Zm-2.75-2c0-.62.37-1.1.76-1.07s.66.54.62,1.16-.38,1.1-.76,1.08S495.09,258.94,495.13,258.31Zm-1.84-1.83c0-.77.47-1.37.95-1.35s.83.68.78,1.46-.47,1.38-.95,1.35S493.25,257.26,493.29,256.48Zm-1.63-3.24c.64,0,1.22.78,1.29,1.82s-.4,1.93-1.05,2-1.22-.78-1.29-1.82S491,253.29,491.66,253.24ZM488,251.93c.8-.05,1.51.95,1.59,2.24s-.5,2.38-1.29,2.42-1.51-.95-1.59-2.24S487.2,252,488,251.93Zm-6.59,2.51c-.31-1.84.35-3.49,1.49-3.68s2.31,1.13,2.63,3-.35,3.49-1.49,3.68S481.73,256.28,481.41,254.44Zm12.74,19.06a12.31,12.31,0,0,0-.94,4.81c0,1.77-.52,5.78-5.57,4.79a3.85,3.85,0,0,1-3.21-2.79c-1.05-3.39,2.32-6.87,2.88-7.66a5.07,5.07,0,0,0-.64-6.37c-1.45-1.47-4.47-3-4-5.91.57-3.43,9.34-3.82,13.08.4C498.27,263.63,495.79,269.66,494.15,273.5Z"/><path class="cls-3" d="M476.76,251.26a3.77,3.77,0,0,0-2.86-2.39,3.9,3.9,0,0,0-3.7,1.82,3,3,0,0,0-1.59-.57h-.15a3.23,3.23,0,0,0-2.65,1.58,3.15,3.15,0,0,0-.82-.18h-.15a3.14,3.14,0,0,0-2.75,2,2.9,2.9,0,0,0-2.39,2.36,2.61,2.61,0,0,0-.83.66,3.31,3.31,0,0,0-.71,2.43,3.45,3.45,0,0,0,.66,1.79c-2.29,4,.48,10.14,2.19,13.93a10.34,10.34,0,0,1,.85,4c.17,4.27,2.48,6.81,6.16,6.77a10.54,10.54,0,0,0,1.94-.23,5.76,5.76,0,0,0,4.66-4.25c1.15-4-1.93-7.67-3.1-9l-.26-.31a3.09,3.09,0,0,1,.35-3.81c.28-.29.62-.58,1-.9,1.6-1.39,4-3.48,3.4-6.83a4.06,4.06,0,0,0-.69-1.61,6.37,6.37,0,0,0,1.84-3.69A6.62,6.62,0,0,0,476.76,251.26Zm-8.23.87c.8,0,1.4,1.11,1.34,2.4s-.75,2.31-1.55,2.27-1.39-1.11-1.34-2.4S467.73,252.09,468.53,252.13Zm-3.63,1.4c.65,0,1.13.9,1.09,1.94s-.61,1.87-1.26,1.85-1.13-.9-1.08-2S464.25,253.49,464.9,253.53Zm-2.55,1.94c.49,0,.92.55,1,1.32s-.28,1.43-.76,1.48-.91-.56-1-1.34S461.87,255.5,462.35,255.47Zm-1.6,2.13c.39,0,.74.45.79,1.07s-.22,1.14-.61,1.16-.73-.44-.77-1.05S460.37,257.63,460.75,257.6Zm9.4,8.85a5.07,5.07,0,0,0-.5,6.38c.57.78,4,4.19,3,7.6a3.82,3.82,0,0,1-3.15,2.85c-5,1.1-5.61-2.89-5.68-4.67a12.38,12.38,0,0,0-1-4.79c-1.73-3.8-4.33-9.77-1.87-12.69,3.66-4.29,12.44-4.09,13.07-.66C474.56,263.32,471.58,265,470.15,266.45Zm5-11.95c-.28,1.85-1.43,3.2-2.57,3s-1.84-1.8-1.56-3.65,1.43-3.2,2.56-3S475.44,252.66,475.17,254.5Z"/><path class="cls-3" d="M605.37,557.46a3.59,3.59,0,0,0,.28-3.68,2.59,2.59,0,0,0-1.2-1.16,2.89,2.89,0,0,0-2.41-2.37,3.16,3.16,0,0,0-2.78-1.94h-.14a2.52,2.52,0,0,0-.82.19,3.25,3.25,0,0,0-2.67-1.56h-.17a3.08,3.08,0,0,0-1.56.57,3.93,3.93,0,0,0-3.73-1.77c-2.3.37-3.67,2.93-3.18,6a6.32,6.32,0,0,0,1.88,3.67,4.22,4.22,0,0,0-.68,1.63c-.59,3.35,1.87,5.42,3.48,6.79a11.34,11.34,0,0,1,1,.88,3.07,3.07,0,0,1,.39,3.8,2.43,2.43,0,0,1-.26.32c-1.14,1.39-4.19,5.07-3,9.06a5.78,5.78,0,0,0,4.7,4.21,9.2,9.2,0,0,0,2,.22c3.68,0,5.95-2.56,6.08-6.85a10.46,10.46,0,0,1,.81-4.06C605,567.6,607.71,561.45,605.37,557.46Zm-2.73-2.05c0-.62.39-1.09.77-1.06s.66.55.62,1.17-.4,1.09-.78,1.06S602.6,556,602.64,555.41Zm-1.82-1.85c.06-.77.49-1.37,1-1.34s.82.69.76,1.47-.48,1.37-1,1.34S600.77,554.34,600.82,553.56Zm-1.59-3.25c.64,0,1.21.79,1.27,1.83s-.42,1.92-1.08,2-1.21-.8-1.27-1.84S598.58,550.34,599.23,550.31ZM595.58,549c.8,0,1.5,1,1.57,2.26s-.52,2.37-1.32,2.41-1.5-1-1.56-2.25S594.78,549,595.58,549ZM589,551.39c-.3-1.83.38-3.48,1.53-3.66s2.29,1.16,2.59,3-.39,3.49-1.53,3.66S589.27,553.24,589,551.39Zm12.54,19.2a12.13,12.13,0,0,0-1,4.8c0,1.77-.59,5.77-5.62,4.73a3.85,3.85,0,0,1-3.19-2.82c-1-3.4,2.4-6.85,3-7.64a5.05,5.05,0,0,0-.58-6.37c-1.44-1.48-4.44-3.08-3.94-5.94.6-3.44,9.38-3.73,13.08.52C605.73,560.76,603.19,566.76,601.51,570.59Z"/><path d="M581.52,545.75a3.91,3.91,0,0,0-3.73,1.77,3,3,0,0,0-1.57-.57h-.16a3.24,3.24,0,0,0-2.67,1.56,2.81,2.81,0,0,0-.81-.19h-.15a3.16,3.16,0,0,0-2.78,1.94,2.93,2.93,0,0,0-2.41,2.35,2.54,2.54,0,0,0-.83.64,3.35,3.35,0,0,0-.74,2.42,3.42,3.42,0,0,0,.64,1.8c-2.33,4,.37,10.15,2.05,13.95a10.3,10.3,0,0,1,.8,4.05c.13,4.28,2.41,6.84,6.09,6.84a9.11,9.11,0,0,0,2-.22,5.77,5.77,0,0,0,4.7-4.2c1.19-4-1.85-7.68-3-9.06l-.26-.32a3.1,3.1,0,0,1,.39-3.81c.28-.28.62-.57,1-.88,1.62-1.37,4.07-3.44,3.48-6.8a4.15,4.15,0,0,0-.68-1.62,6.34,6.34,0,0,0,1.88-3.67,6.62,6.62,0,0,0-.35-3.54,3.77,3.77,0,0,0-2.83-2.42Zm-5.41,3.2c.8,0,1.38,1.12,1.31,2.42s-.77,2.29-1.56,2.25-1.39-1.12-1.32-2.41.77-2.3,1.57-2.26Zm-3.64,1.36c.64,0,1.12.91,1.06,2s-.62,1.86-1.27,1.83-1.13-.91-1.07-2,.63-1.87,1.28-1.83Zm-2.57,1.91c.48,0,.91.57,1,1.35s-.3,1.42-.77,1.46-.91-.57-1-1.35.29-1.43.77-1.46Zm-1.62,2.12c.38,0,.73.46.77,1.07s-.23,1.14-.62,1.17-.72-.45-.76-1.07.23-1.14.61-1.17Zm9.31,8.95a5.05,5.05,0,0,0-.58,6.37c.57.79,4,4.24,3,7.64a3.84,3.84,0,0,1-3.19,2.81c-5,1-5.57-2.94-5.62-4.72a12.43,12.43,0,0,0-1-4.81c-1.68-3.82-4.23-9.81-1.73-12.7,3.7-4.26,12.48-4,13.07-.53.5,2.86-2.5,4.46-3.93,5.94Zm5.13-11.9c-.3,1.84-1.46,3.19-2.6,3s-1.82-1.82-1.52-3.66,1.46-3.19,2.59-3,1.83,1.82,1.53,3.66Zm0,0"/><path d="M497.92,410.88a3.59,3.59,0,0,0,.28-3.68A2.68,2.68,0,0,0,497,406a2.9,2.9,0,0,0-2.42-2.37,3.13,3.13,0,0,0-2.77-1.94h-.15a2.58,2.58,0,0,0-.82.19,3.22,3.22,0,0,0-2.66-1.55H488a3,3,0,0,0-1.56.57,3.94,3.94,0,0,0-3.73-1.77c-2.3.37-3.67,2.93-3.18,6a6.29,6.29,0,0,0,1.88,3.67,4,4,0,0,0-.68,1.63c-.59,3.35,1.86,5.42,3.48,6.79a11.19,11.19,0,0,1,1,.89,3.07,3.07,0,0,1,.39,3.8l-.26.32c-1.14,1.38-4.19,5.06-3,9.06a5.79,5.79,0,0,0,4.7,4.21,9.83,9.83,0,0,0,1.95.21c3.69,0,6-2.56,6.08-6.84a10.55,10.55,0,0,1,.82-4.06c1.66-3.78,4.36-9.94,2-13.93Zm-2-3.11c.38,0,.65.54.61,1.16s-.39,1.1-.77,1.08-.66-.55-.61-1.17.39-1.1.77-1.07Zm-1.62-2.12c.47,0,.82.68.77,1.46s-.49,1.38-1,1.34-.82-.69-.77-1.47.49-1.37,1-1.33Zm-2.57-1.92c.65,0,1.22.79,1.27,1.83s-.41,1.93-1.07,2-1.21-.78-1.27-1.83.43-1.92,1.07-2Zm-3.65-1.35c.81-.05,1.5,1,1.58,2.25s-.53,2.37-1.32,2.41-1.5-1-1.57-2.25.52-2.37,1.31-2.41Zm-6.6,2.44c-.3-1.84.38-3.49,1.52-3.67s2.3,1.16,2.6,3-.39,3.49-1.53,3.67-2.29-1.16-2.59-3ZM494.06,424a12.13,12.13,0,0,0-1,4.8c-.05,1.77-.59,5.77-5.62,4.73a3.84,3.84,0,0,1-3.19-2.82c-1-3.41,2.4-6.85,3-7.63a5.08,5.08,0,0,0-.57-6.38c-1.44-1.48-4.44-3.08-3.94-5.94.6-3.43,9.38-3.73,13.07.53,2.5,2.89,0,8.88-1.72,12.71Zm0,0"/><path class="cls-3" d="M477.25,405.13a6.52,6.52,0,0,0-.36-3.54,3.76,3.76,0,0,0-2.83-2.42,3.89,3.89,0,0,0-3.72,1.77,3.08,3.08,0,0,0-1.58-.57h-.15a3.22,3.22,0,0,0-2.67,1.55,2.81,2.81,0,0,0-.81-.19H465a3.14,3.14,0,0,0-2.77,1.95,2.89,2.89,0,0,0-2.41,2.34,2.54,2.54,0,0,0-.83.64,3.4,3.4,0,0,0-.75,2.42,3.52,3.52,0,0,0,.65,1.81c-2.33,4,.37,10.14,2,13.95a10.24,10.24,0,0,1,.81,4c.13,4.28,2.4,6.84,6.09,6.84a9.75,9.75,0,0,0,1.95-.21,5.79,5.79,0,0,0,4.7-4.21c1.19-4-1.85-7.68-3-9.06l-.26-.32a3.08,3.08,0,0,1,.39-3.8,13,13,0,0,1,1-.89c1.61-1.37,4.06-3.44,3.48-6.8a4.15,4.15,0,0,0-.68-1.62A6.29,6.29,0,0,0,477.25,405.13Zm-8.59-2.75c.8,0,1.38,1.12,1.31,2.41s-.77,2.3-1.56,2.26-1.39-1.13-1.32-2.42S467.86,402.33,468.66,402.38ZM465,403.73c.64,0,1.12.92,1.06,2s-.62,1.86-1.27,1.83-1.13-.91-1.07-2S464.37,403.7,465,403.73Zm-2.57,1.91c.47,0,.91.57,1,1.34s-.29,1.43-.77,1.47-.9-.57-1-1.34S462,405.68,462.45,405.64Zm-1.62,2.12c.38,0,.73.46.77,1.07S461.36,410,461,410s-.72-.45-.77-1.07S460.45,407.79,460.83,407.76Zm9.3,9a5.06,5.06,0,0,0-.57,6.37c.57.78,4,4.23,3,7.63a3.81,3.81,0,0,1-3.18,2.82c-5,1-5.58-3-5.62-4.73a12.62,12.62,0,0,0-1-4.81c-1.68-3.82-4.23-9.81-1.73-12.7,3.69-4.26,12.48-4,13.07-.53C474.57,413.63,471.57,415.23,470.13,416.72Zm5.14-11.9c-.3,1.83-1.46,3.18-2.6,3s-1.81-1.83-1.53-3.67,1.47-3.19,2.6-3S475.56,403,475.27,404.82Z"/><path class="cls-3" d="M498.83,358.38a3.54,3.54,0,0,0,.64-1.8,3.5,3.5,0,0,0-.37-1.88,2.64,2.64,0,0,0-1.2-1.16,2.92,2.92,0,0,0-2.41-2.37,3.15,3.15,0,0,0-2.78-1.94h-.14a2.51,2.51,0,0,0-.82.18,3.24,3.24,0,0,0-2.67-1.55h-.17a2.94,2.94,0,0,0-1.56.57,3.94,3.94,0,0,0-3.73-1.78c-2.3.37-3.67,2.93-3.18,6a6.31,6.31,0,0,0,1.88,3.66,4.28,4.28,0,0,0-.68,1.63c-.59,3.35,1.87,5.42,3.48,6.79a9.93,9.93,0,0,1,1,.89,3.07,3.07,0,0,1,.39,3.8c-.05.08-.14.18-.25.32-1.15,1.38-4.19,5.06-3,9.06a5.79,5.79,0,0,0,4.7,4.21,9.85,9.85,0,0,0,2,.21c3.68,0,6-2.55,6.08-6.84a10.38,10.38,0,0,1,.81-4.06C498.45,368.53,501.16,362.38,498.83,358.38Zm-2.73-2c0-.62.38-1.1.77-1.07s.65.55.61,1.17-.39,1.09-.78,1.07S496.05,357,496.1,356.34Zm-1.83-1.85c.06-.77.49-1.37,1-1.35s.82.69.77,1.47-.49,1.38-1,1.34S494.22,355.26,494.27,354.49Zm-1.59-3.26c.64,0,1.21.79,1.27,1.83s-.42,1.93-1.07,2-1.21-.79-1.28-1.84S492,351.27,492.68,351.23ZM489,349.88c.8,0,1.5,1,1.57,2.25s-.52,2.38-1.32,2.41-1.49-1-1.56-2.25S488.23,349.92,489,349.88Zm-6.61,2.44c-.3-1.84.39-3.49,1.53-3.67s2.3,1.17,2.59,3-.38,3.49-1.53,3.67S482.72,354.16,482.42,352.32ZM495,371.51a12.35,12.35,0,0,0-1,4.8c-.05,1.78-.58,5.77-5.62,4.73a3.82,3.82,0,0,1-3.18-2.82c-1-3.4,2.39-6.85,3-7.63a5.07,5.07,0,0,0-.58-6.38c-1.44-1.48-4.43-3.07-3.94-5.94.61-3.43,9.38-3.73,13.08.53C499.18,361.69,496.64,367.69,495,371.51Z"/><path d="M475,346.67a3.93,3.93,0,0,0-3.73,1.78,3,3,0,0,0-1.57-.58h-.16a3.26,3.26,0,0,0-2.67,1.55,2.81,2.81,0,0,0-.81-.19h-.15a3.17,3.17,0,0,0-2.78,1.95,2.92,2.92,0,0,0-2.41,2.34,2.68,2.68,0,0,0-.83.64,3.37,3.37,0,0,0-.74,2.43,3.42,3.42,0,0,0,.64,1.8c-2.33,4,.38,10.14,2.05,13.95a10.24,10.24,0,0,1,.8,4c.13,4.28,2.41,6.84,6.09,6.84a9.75,9.75,0,0,0,1.95-.21,5.78,5.78,0,0,0,4.7-4.21c1.19-4-1.85-7.68-3-9.06l-.26-.32a3.08,3.08,0,0,1,.39-3.8c.28-.29.63-.58,1-.89,1.62-1.37,4.07-3.44,3.48-6.79a4.13,4.13,0,0,0-.68-1.63,6.26,6.26,0,0,0,1.88-3.66,6.65,6.65,0,0,0-.35-3.55,3.79,3.79,0,0,0-2.83-2.42Zm-5.41,3.21c.8,0,1.39,1.12,1.31,2.41s-.77,2.3-1.56,2.26-1.39-1.13-1.32-2.41.77-2.31,1.57-2.26Zm-3.64,1.35c.64,0,1.12.92,1.07,2s-.63,1.87-1.28,1.84-1.12-.92-1.07-2,.63-1.86,1.28-1.83Zm-2.57,1.92c.48,0,.91.56,1,1.34s-.3,1.42-.77,1.46-.91-.57-1-1.34.29-1.43.77-1.46Zm-1.62,2.12c.38,0,.73.45.77,1.07s-.23,1.14-.62,1.16-.72-.45-.76-1.07.23-1.14.61-1.16Zm9.31,9a5.05,5.05,0,0,0-.58,6.37c.57.79,4,4.23,3,7.63a3.82,3.82,0,0,1-3.19,2.82c-5,1-5.57-3-5.62-4.73a12.35,12.35,0,0,0-1-4.8c-1.68-3.83-4.23-9.82-1.73-12.71,3.7-4.26,12.48-4,13.07-.53.5,2.86-2.5,4.46-3.93,6Zm5.13-11.9c-.3,1.84-1.46,3.18-2.59,3s-1.82-1.82-1.53-3.67,1.46-3.18,2.6-3,1.82,1.83,1.52,3.67Zm0,0"/><line class="cls-8" x1="444.61" y1="233.62" x2="454.79" y2="233.62"/><polygon class="cls-3" points="453.91 236.61 459.09 233.62 453.91 230.63 453.91 236.61"/><line class="cls-8" x1="372.51" y1="283.32" x2="382.69" y2="283.32"/><polygon class="cls-3" points="381.82 286.32 387 283.32 381.82 280.33 381.82 286.32"/><text class="cls-9" transform="translate(442.67 526.29)">On G<tspan class="cls-10" x="45.24" y="0">r</tspan><tspan x="52.62" y="0">ound</tspan></text><text class="cls-9" transform="translate(549.98 718.16)">In-Air</text><rect class="cls-2" x="442.47" y="533.16" width="102.52" height="66.28" rx="12"/><text class="cls-11" transform="translate(461.27 560.6)">Hyper&gt;Semi<tspan x="0" y="12.97">Semi&gt;Hyper</tspan></text><text class="cls-11" transform="translate(449.89 639.01)">Complete&gt;Mega<tspan x="0" y="12.97">Mega&gt;Complete</tspan></text><rect class="cls-1" x="446.45" y="800.61" width="64.9" height="66.28" rx="12"/><rect class="cls-1" x="524.11" y="800.61" width="154.78" height="66.28" rx="12"/><rect class="cls-2" x="322.76" y="800.61" width="109.57" height="66.28" rx="12"/><rect class="cls-2" x="524.11" y="800.61" width="154.78" height="66.28" rx="12"/><rect class="cls-1" x="446.45" y="722.75" width="64.9" height="66.28" rx="12"/><rect class="cls-1" x="524.11" y="722.75" width="154.78" height="66.28" rx="12"/><rect class="cls-2" x="322.76" y="722.75" width="109.57" height="66.28" rx="12"/><path class="cls-3" d="M369.66,747.06a3.62,3.62,0,0,0,.27-3.68,2.57,2.57,0,0,0-1.19-1.16,2.93,2.93,0,0,0-2.42-2.37,3.15,3.15,0,0,0-2.78-1.94h-.14a2.52,2.52,0,0,0-.82.19,3.24,3.24,0,0,0-2.67-1.55h-.17a3.11,3.11,0,0,0-1.56.57,3.92,3.92,0,0,0-3.72-1.77c-2.31.37-3.68,2.93-3.19,6a6.33,6.33,0,0,0,1.89,3.67,4.09,4.09,0,0,0-.69,1.63c-.59,3.35,1.87,5.42,3.48,6.79a11.4,11.4,0,0,1,1,.89,3.07,3.07,0,0,1,.38,3.79,3.18,3.18,0,0,1-.25.33c-1.15,1.38-4.19,5.06-3,9.06a5.77,5.77,0,0,0,4.7,4.2,9.2,9.2,0,0,0,2,.22c3.69,0,6-2.55,6.08-6.85a10.37,10.37,0,0,1,.81-4C369.29,757.2,372,751.05,369.66,747.06Zm-2.73-2c0-.62.38-1.09.77-1.06s.65.55.61,1.17-.39,1.09-.78,1.06S366.88,745.64,366.93,745Zm-1.83-1.85c.07-.77.49-1.37,1-1.34s.82.69.77,1.47-.49,1.37-1,1.34S365.06,743.94,365.1,743.16Zm-1.59-3.25c.64,0,1.21.79,1.27,1.83s-.42,1.93-1.07,2-1.21-.79-1.28-1.84S362.86,739.94,363.51,739.91Zm-3.65-1.36c.8,0,1.5,1,1.57,2.26s-.52,2.37-1.32,2.41-1.49-1-1.56-2.25S359.06,738.6,359.86,738.55ZM353.25,741c-.29-1.84.39-3.49,1.53-3.67s2.3,1.16,2.59,3-.38,3.49-1.53,3.67S353.55,742.84,353.25,741Zm12.54,19.19a12.49,12.49,0,0,0-1,4.8c-.05,1.77-.58,5.77-5.62,4.73A3.82,3.82,0,0,1,356,766.9c-1-3.4,2.39-6.85,3-7.63a5.06,5.06,0,0,0-.58-6.38c-1.43-1.48-4.43-3.08-3.94-5.94.61-3.44,9.38-3.73,13.08.53C370,750.36,367.47,756.36,365.79,760.19Z"/><path class="cls-3" d="M365.79,760.19a12.49,12.49,0,0,0-1,4.8c-.05,1.77-.58,5.77-5.62,4.73A3.82,3.82,0,0,1,356,766.9c-1-3.4,2.39-6.85,3-7.63a5.06,5.06,0,0,0-.58-6.38c-1.43-1.48-4.43-3.08-3.94-5.94.61-3.44,9.38-3.73,13.08.53C370,750.36,367.47,756.36,365.79,760.19Z"/><path d="M345.8,735.35a3.91,3.91,0,0,0-3.73,1.78,2.92,2.92,0,0,0-1.57-.58h-.16a3.24,3.24,0,0,0-2.67,1.56,2.81,2.81,0,0,0-.81-.19h-.15a3.17,3.17,0,0,0-2.78,2,2.91,2.91,0,0,0-2.41,2.34,2.54,2.54,0,0,0-.83.64,3.35,3.35,0,0,0-.74,2.42,3.47,3.47,0,0,0,.64,1.8c-2.33,4,.38,10.15,2.05,14a10.51,10.51,0,0,1,.81,4c.12,4.28,2.4,6.84,6.08,6.84a9.11,9.11,0,0,0,2-.22,5.77,5.77,0,0,0,4.7-4.2c1.19-4-1.85-7.68-3-9.06l-.26-.32a3.1,3.1,0,0,1,.39-3.81c.28-.28.63-.57,1-.88,1.62-1.37,4.07-3.44,3.48-6.79a4.13,4.13,0,0,0-.68-1.63,6.29,6.29,0,0,0,1.88-3.67,6.62,6.62,0,0,0-.35-3.54,3.77,3.77,0,0,0-2.83-2.42Zm-5.41,3.2c.8.05,1.39,1.13,1.31,2.42s-.77,2.29-1.56,2.25-1.39-1.12-1.32-2.41.77-2.3,1.57-2.26Zm-3.64,1.36c.64,0,1.12.91,1.07,2s-.63,1.86-1.28,1.83-1.12-.91-1.07-2,.63-1.87,1.28-1.83Zm-2.57,1.91c.48,0,.91.57,1,1.35s-.3,1.42-.77,1.46-.91-.57-1-1.34.29-1.43.77-1.47Zm-1.62,2.12c.38,0,.73.46.77,1.07s-.23,1.14-.62,1.17-.72-.45-.76-1.07.23-1.14.61-1.17Zm9.31,8.95a5.05,5.05,0,0,0-.58,6.37c.57.79,4,4.24,3,7.64a3.84,3.84,0,0,1-3.19,2.82c-5,1-5.57-3-5.62-4.73a12.43,12.43,0,0,0-1-4.81c-1.68-3.82-4.22-9.81-1.73-12.7,3.7-4.26,12.48-4,13.07-.53.51,2.86-2.5,4.46-3.93,5.94ZM347,741c-.3,1.84-1.46,3.19-2.59,3s-1.82-1.82-1.53-3.66,1.46-3.19,2.6-3,1.82,1.82,1.52,3.66Zm0,0"/><path class="cls-3" d="M421.8,747.05a3.46,3.46,0,0,0,.65-1.8,3.5,3.5,0,0,0-.37-1.88,2.69,2.69,0,0,0-1.2-1.16,2.92,2.92,0,0,0-2.41-2.37,3.16,3.16,0,0,0-2.78-1.94h-.15a2.51,2.51,0,0,0-.81.18,3.24,3.24,0,0,0-2.67-1.55h-.17a3,3,0,0,0-1.56.58,3.94,3.94,0,0,0-3.73-1.78c-2.3.37-3.67,2.93-3.18,6A6.2,6.2,0,0,0,405.3,745a4,4,0,0,0-.68,1.63c-.59,3.35,1.86,5.42,3.48,6.79a9.93,9.93,0,0,1,1,.89,3.08,3.08,0,0,1,.39,3.8,3.35,3.35,0,0,1-.26.32c-1.14,1.38-4.19,5.06-3,9.06a5.79,5.79,0,0,0,4.7,4.21,9.85,9.85,0,0,0,2,.21c3.68,0,5.95-2.55,6.08-6.84a10.2,10.2,0,0,1,.81-4.06C421.43,757.19,424.14,751.05,421.8,747.05Zm-2.73-2c0-.62.39-1.1.77-1.07s.66.55.62,1.17-.4,1.09-.78,1.07S419,745.63,419.07,745Zm-1.82-1.85c.06-.78.49-1.37,1-1.35s.82.69.76,1.47-.49,1.37-1,1.34S417.2,743.93,417.25,743.16Zm-1.6-3.26c.65,0,1.22.79,1.28,1.83s-.42,1.93-1.08,2-1.21-.79-1.27-1.84S415,739.94,415.65,739.9ZM412,738.55c.8,0,1.5,1,1.57,2.25s-.53,2.38-1.32,2.41-1.5-1-1.57-2.25S411.21,738.59,412,738.55ZM405.4,741c-.3-1.84.38-3.49,1.53-3.67s2.29,1.16,2.59,3-.39,3.49-1.53,3.67S405.69,742.83,405.4,741Zm12.54,19.19a12.17,12.17,0,0,0-1,4.8c-.05,1.78-.59,5.77-5.62,4.73a3.84,3.84,0,0,1-3.19-2.82c-1-3.4,2.4-6.85,3-7.63a5.08,5.08,0,0,0-.58-6.38c-1.44-1.48-4.44-3.07-3.94-5.94.6-3.43,9.38-3.73,13.07.53C422.16,750.36,419.62,756.36,417.94,760.18Z"/><path class="cls-3" d="M417.94,760.18a12.17,12.17,0,0,0-1,4.8c-.05,1.78-.59,5.77-5.62,4.73a3.84,3.84,0,0,1-3.19-2.82c-1-3.4,2.4-6.85,3-7.63a5.08,5.08,0,0,0-.58-6.38c-1.44-1.48-4.44-3.07-3.94-5.94.6-3.43,9.38-3.73,13.07.53C422.16,750.36,419.62,756.36,417.94,760.18Z"/><path d="M397.94,735.34a3.89,3.89,0,0,0-3.72,1.78,3,3,0,0,0-1.57-.58h-.16a3.26,3.26,0,0,0-2.67,1.55,2.8,2.8,0,0,0-.82-.19h-.15a3.15,3.15,0,0,0-2.77,2,2.91,2.91,0,0,0-2.41,2.34,2.68,2.68,0,0,0-.83.64,3.33,3.33,0,0,0-.74,2.43,3.42,3.42,0,0,0,.64,1.8c-2.33,4,.37,10.14,2,14a10.24,10.24,0,0,1,.81,4c.13,4.28,2.4,6.84,6.09,6.84a9.83,9.83,0,0,0,1.95-.21,5.79,5.79,0,0,0,4.7-4.21c1.19-4-1.85-7.68-3-9.06l-.26-.32a3.07,3.07,0,0,1,.39-3.8,13,13,0,0,1,1-.89c1.62-1.37,4.06-3.44,3.48-6.79a4.13,4.13,0,0,0-.68-1.63,6.31,6.31,0,0,0,1.88-3.66,6.55,6.55,0,0,0-.36-3.55,3.76,3.76,0,0,0-2.83-2.42Zm-5.4,3.21c.8,0,1.38,1.12,1.31,2.41s-.77,2.3-1.56,2.26-1.39-1.13-1.32-2.42.77-2.3,1.57-2.25Zm-3.65,1.35c.65,0,1.13.92,1.07,2s-.62,1.87-1.27,1.83-1.13-.91-1.07-2,.63-1.86,1.27-1.83Zm-2.56,1.92c.48,0,.91.56,1,1.34s-.3,1.42-.77,1.46-.91-.57-1-1.34.29-1.43.77-1.46Zm-1.62,2.12c.38,0,.73.45.77,1.07s-.23,1.14-.62,1.16-.72-.45-.76-1.07.23-1.14.61-1.16Zm9.31,8.95a5.05,5.05,0,0,0-.58,6.37c.57.78,4,4.23,3,7.63a3.82,3.82,0,0,1-3.18,2.82c-5,1-5.57-3-5.62-4.73a12.35,12.35,0,0,0-1-4.8c-1.68-3.83-4.23-9.82-1.73-12.71,3.69-4.26,12.48-4,13.07-.53.5,2.86-2.5,4.46-3.93,5.95Zm5.13-11.9c-.3,1.84-1.46,3.18-2.6,3s-1.82-1.82-1.52-3.67,1.46-3.18,2.59-3,1.82,1.83,1.53,3.67Zm0,0"/><line class="cls-8" x1="368.49" y1="766.2" x2="378.67" y2="766.2"/><polygon class="cls-3" points="377.79 769.19 382.98 766.2 377.79 763.21 377.79 769.19"/><path d="M372.78,825.69a3.62,3.62,0,0,0,.27-3.68,2.64,2.64,0,0,0-1.19-1.17,2.92,2.92,0,0,0-2.42-2.36,3.16,3.16,0,0,0-2.78-2h-.15a2.52,2.52,0,0,0-.81.19,3.25,3.25,0,0,0-2.67-1.56h-.16a3,3,0,0,0-1.57.57,3.93,3.93,0,0,0-3.72-1.78c-2.31.38-3.68,2.94-3.19,6a6.21,6.21,0,0,0,1.89,3.66,4.13,4.13,0,0,0-.69,1.64c-.59,3.35,1.87,5.42,3.49,6.79a11,11,0,0,1,1,.88,3.07,3.07,0,0,1,.39,3.8c-.05.08-.14.18-.25.32-1.15,1.38-4.2,5.06-3,9.06a5.78,5.78,0,0,0,4.7,4.21,9.2,9.2,0,0,0,2,.22c3.68,0,5.95-2.56,6.08-6.85a10.37,10.37,0,0,1,.81-4c1.67-3.79,4.37-9.94,2-13.93Zm-2-3.12c.38,0,.66.55.62,1.17s-.39,1.1-.78,1.07-.65-.55-.61-1.17.39-1.09.77-1.07Zm-1.62-2.12c.48,0,.82.69.77,1.46s-.49,1.38-1,1.34-.82-.68-.77-1.46.49-1.37,1-1.34Zm-2.57-1.92c.65,0,1.22.79,1.28,1.84s-.42,1.92-1.07,2-1.22-.79-1.28-1.83.43-1.93,1.07-2ZM363,817.18c.8,0,1.5,1,1.57,2.25s-.52,2.38-1.32,2.42-1.49-1-1.56-2.25.51-2.38,1.31-2.42Zm-6.61,2.44c-.3-1.84.38-3.48,1.52-3.66s2.31,1.16,2.6,3-.38,3.48-1.53,3.67-2.29-1.17-2.59-3Zm12.54,19.19a12.53,12.53,0,0,0-1,4.8c-.05,1.78-.58,5.78-5.62,4.74a3.85,3.85,0,0,1-3.19-2.82c-1-3.41,2.4-6.85,3-7.64a5.05,5.05,0,0,0-.58-6.37c-1.43-1.48-4.43-3.08-3.94-5.94.6-3.44,9.38-3.73,13.08.52,2.5,2.89-.05,8.89-1.73,12.71Zm0,0"/><path class="cls-3" d="M352.1,819.94a6.52,6.52,0,0,0-.35-3.54,3.75,3.75,0,0,0-2.84-2.42,3.88,3.88,0,0,0-3.72,1.77,3,3,0,0,0-1.57-.57h-.16a3.26,3.26,0,0,0-2.67,1.56,2.83,2.83,0,0,0-.81-.2h-.15a3.14,3.14,0,0,0-2.77,1.94,2.92,2.92,0,0,0-2.42,2.34,2.53,2.53,0,0,0-.82.64,3.33,3.33,0,0,0-.75,2.43,3.42,3.42,0,0,0,.64,1.8c-2.33,4,.37,10.15,2.05,14a10.47,10.47,0,0,1,.81,4c.12,4.28,2.4,6.84,6.08,6.84a9.11,9.11,0,0,0,2-.22,5.75,5.75,0,0,0,4.7-4.2c1.19-4-1.85-7.68-3-9.07-.11-.13-.21-.24-.26-.31a3.1,3.1,0,0,1,.39-3.81,12.79,12.79,0,0,1,1-.88c1.62-1.37,4.07-3.44,3.48-6.8a4.09,4.09,0,0,0-.68-1.62A6.29,6.29,0,0,0,352.1,819.94Zm-8.59-2.76c.8.05,1.39,1.12,1.31,2.42s-.77,2.29-1.56,2.25-1.39-1.13-1.32-2.41S342.71,817.13,343.51,817.18Zm-3.64,1.36c.64,0,1.13.91,1.06,2s-.62,1.86-1.27,1.83-1.13-.91-1.06-2S339.22,818.5,339.87,818.54Zm-2.57,1.91c.48,0,.91.57,1,1.34s-.29,1.42-.77,1.47-.91-.58-1-1.35S336.82,820.48,337.3,820.45Zm-1.62,2.12c.38,0,.73.46.77,1.07s-.23,1.14-.62,1.17-.72-.45-.76-1.07S335.3,822.59,335.68,822.57Zm9.31,8.95a5,5,0,0,0-.57,6.37c.56.79,4,4.23,2.95,7.63a3.8,3.8,0,0,1-3.18,2.82c-5,1-5.57-3-5.62-4.72a12.39,12.39,0,0,0-1-4.81c-1.68-3.83-4.23-9.81-1.73-12.71,3.7-4.25,12.48-4,13.07-.52C349.42,828.43,346.42,830,345,831.52Zm5.13-11.9c-.3,1.84-1.46,3.19-2.6,3S345.71,820.8,346,819s1.46-3.19,2.6-3S350.41,817.78,350.12,819.62Z"/><path class="cls-3" d="M344.42,837.89c.56.79,4,4.23,2.95,7.63a3.8,3.8,0,0,1-3.18,2.82c-5,1-5.57-3-5.62-4.72a12.39,12.39,0,0,0-1-4.81c-1.68-3.83-4.23-9.81-1.73-12.71,3.7-4.25,12.48-4,13.07-.52.5,2.85-2.5,4.46-3.93,5.94A5,5,0,0,0,344.42,837.89Z"/><path d="M424.92,825.68a3.46,3.46,0,0,0,.65-1.81,3.67,3.67,0,0,0-.37-1.87,2.68,2.68,0,0,0-1.2-1.16,2.9,2.9,0,0,0-2.42-2.37,3.13,3.13,0,0,0-2.77-1.94h-.15a2.8,2.8,0,0,0-.82.19,3.24,3.24,0,0,0-2.66-1.55H415a3,3,0,0,0-1.56.56,4,4,0,0,0-3.73-1.77c-2.3.37-3.67,2.94-3.18,6a6.23,6.23,0,0,0,1.88,3.67,4,4,0,0,0-.68,1.63c-.59,3.35,1.86,5.42,3.48,6.79a13,13,0,0,1,1,.89,3.1,3.1,0,0,1,.39,3.8c-.05.08-.15.18-.26.32-1.14,1.38-4.19,5.06-3,9.06a5.78,5.78,0,0,0,4.7,4.21,9.83,9.83,0,0,0,1.95.21c3.69,0,6-2.55,6.08-6.84a10.45,10.45,0,0,1,.82-4.06c1.66-3.78,4.36-9.93,2-13.93Zm-2-3.11c.38,0,.65.55.61,1.17s-.39,1.09-.77,1.07-.66-.55-.61-1.17.38-1.1.77-1.07Zm-1.63-2.12c.48,0,.83.68.77,1.46s-.49,1.38-1,1.34-.82-.69-.77-1.46.49-1.37,1-1.34Zm-2.56-1.92c.65,0,1.22.79,1.27,1.83s-.42,1.93-1.07,2-1.21-.79-1.27-1.83.42-1.93,1.07-2Zm-3.65-1.35c.81,0,1.5,1,1.58,2.25s-.53,2.38-1.32,2.41-1.5-1-1.57-2.25.52-2.37,1.31-2.41Zm-6.61,2.44c-.29-1.84.39-3.48,1.53-3.67s2.3,1.16,2.6,3-.39,3.49-1.53,3.67-2.3-1.16-2.6-3Zm12.54,19.19a12.34,12.34,0,0,0-1,4.8c-.05,1.78-.59,5.78-5.63,4.73a3.84,3.84,0,0,1-3.18-2.82c-1-3.4,2.4-6.85,3-7.63a5.08,5.08,0,0,0-.57-6.38c-1.44-1.48-4.44-3.07-3.94-5.94.6-3.43,9.38-3.73,13.07.53,2.5,2.89,0,8.89-1.73,12.71Zm0,0"/><path class="cls-3" d="M404.24,819.94a6.46,6.46,0,0,0-.35-3.55,3.76,3.76,0,0,0-2.83-2.42,3.9,3.9,0,0,0-3.72,1.78,2.94,2.94,0,0,0-1.58-.57h-.16a3.24,3.24,0,0,0-2.66,1.55,2.88,2.88,0,0,0-.82-.19H392a3.14,3.14,0,0,0-2.77,2,2.91,2.91,0,0,0-2.41,2.34,2.44,2.44,0,0,0-.83.64,3.38,3.38,0,0,0-.75,2.43,3.52,3.52,0,0,0,.65,1.8c-2.33,4,.37,10.15,2,14a10.42,10.42,0,0,1,.81,4c.13,4.28,2.4,6.84,6.09,6.84a9.75,9.75,0,0,0,1.95-.21,5.75,5.75,0,0,0,4.69-4.2c1.19-4-1.85-7.69-3-9.07l-.27-.32a3.1,3.1,0,0,1,.4-3.8,13,13,0,0,1,1-.89c1.61-1.37,4.06-3.44,3.48-6.79a4.28,4.28,0,0,0-.68-1.63A6.19,6.19,0,0,0,404.24,819.94Zm-8.58-2.76c.8.05,1.38,1.12,1.31,2.41s-.77,2.3-1.56,2.26-1.39-1.13-1.33-2.42S394.86,817.13,395.66,817.18ZM392,818.53c.64,0,1.13.92,1.07,2s-.63,1.87-1.27,1.83-1.13-.91-1.07-2S391.37,818.5,392,818.53Zm-2.56,1.91c.47,0,.91.58,1,1.35s-.29,1.42-.77,1.46-.9-.57-1-1.34S389,820.48,389.45,820.44Zm-1.62,2.12c.38,0,.72.46.77,1.08s-.24,1.14-.62,1.17-.73-.46-.77-1.08S387.45,822.59,387.83,822.56Zm9.3,9a5.06,5.06,0,0,0-.57,6.37c.56.78,4,4.23,3,7.63a3.82,3.82,0,0,1-3.19,2.82c-5,1-5.57-3-5.62-4.73a12.42,12.42,0,0,0-1-4.81C388.05,835,385.5,829,388,826.1c3.69-4.26,12.47-4,13.07-.52C401.57,828.43,398.57,830,397.13,831.52Zm5.14-11.9c-.3,1.84-1.46,3.18-2.6,3s-1.82-1.82-1.53-3.67,1.47-3.18,2.6-3S402.56,817.78,402.27,819.62Z"/><path class="cls-3" d="M396.56,837.89c.56.78,4,4.23,3,7.63a3.82,3.82,0,0,1-3.19,2.82c-5,1-5.57-3-5.62-4.73a12.42,12.42,0,0,0-1-4.81C388.05,835,385.5,829,388,826.1c3.69-4.26,12.47-4,13.07-.52.5,2.85-2.5,4.45-3.94,5.94A5.06,5.06,0,0,0,396.56,837.89Z"/><line class="cls-8" x1="371.61" y1="844.83" x2="381.79" y2="844.83"/><polygon class="cls-3" points="380.91 847.82 386.09 844.83 380.91 841.84 380.91 847.82"/><path d="M498.43,825.68a3.62,3.62,0,0,0,.27-3.68,2.62,2.62,0,0,0-1.19-1.16,2.93,2.93,0,0,0-2.42-2.37,3.15,3.15,0,0,0-2.78-1.94h-.15a2.81,2.81,0,0,0-.81.19,3.24,3.24,0,0,0-2.67-1.55h-.16a3,3,0,0,0-1.57.56,3.94,3.94,0,0,0-3.72-1.77c-2.31.37-3.68,2.94-3.19,6a6.24,6.24,0,0,0,1.89,3.67,4.15,4.15,0,0,0-.69,1.63c-.59,3.35,1.87,5.42,3.49,6.79a12.76,12.76,0,0,1,1,.89,3.07,3.07,0,0,1,.39,3.8c-.05.08-.14.18-.25.32-1.15,1.38-4.2,5.06-3,9.06a5.79,5.79,0,0,0,4.7,4.21,9.85,9.85,0,0,0,2,.21c3.68,0,5.95-2.55,6.08-6.84a10.46,10.46,0,0,1,.81-4.06c1.67-3.78,4.37-9.93,2-13.93Zm-2-3.11c.38,0,.66.55.62,1.17s-.39,1.09-.78,1.07-.65-.55-.61-1.17.39-1.1.77-1.07Zm-1.62-2.12c.48,0,.82.68.77,1.46s-.49,1.38-1,1.34-.82-.69-.77-1.46.49-1.37,1-1.34Zm-2.57-1.92c.65,0,1.23.79,1.28,1.83s-.42,1.93-1.07,2-1.22-.79-1.27-1.83.42-1.93,1.06-2Zm-3.64-1.35c.8,0,1.5,1,1.57,2.25s-.52,2.38-1.32,2.41-1.49-1-1.56-2.25.51-2.37,1.31-2.41ZM482,819.62c-.3-1.84.38-3.48,1.53-3.67s2.3,1.16,2.59,3-.38,3.49-1.52,3.67-2.3-1.16-2.6-3Zm12.54,19.19a12.53,12.53,0,0,0-1,4.8c-.05,1.78-.58,5.78-5.62,4.73a3.82,3.82,0,0,1-3.18-2.82c-1-3.4,2.39-6.85,3-7.63a5.07,5.07,0,0,0-.58-6.38c-1.43-1.48-4.43-3.07-3.94-5.94.6-3.43,9.38-3.73,13.08.53,2.5,2.89-.05,8.89-1.73,12.71Zm0,0"/><path class="cls-3" d="M477.75,819.94a6.56,6.56,0,0,0-.35-3.55,3.77,3.77,0,0,0-2.84-2.42,3.92,3.92,0,0,0-3.72,1.78,2.91,2.91,0,0,0-1.57-.57h-.16a3.27,3.27,0,0,0-2.67,1.55,2.81,2.81,0,0,0-.81-.19h-.15a3.13,3.13,0,0,0-2.77,2,2.92,2.92,0,0,0-2.42,2.34,2.41,2.41,0,0,0-.82.64,3.33,3.33,0,0,0-.75,2.43,3.42,3.42,0,0,0,.64,1.8c-2.33,4,.37,10.15,2.05,14a10.42,10.42,0,0,1,.81,4c.12,4.28,2.4,6.84,6.08,6.84a9.75,9.75,0,0,0,1.95-.21,5.75,5.75,0,0,0,4.7-4.2c1.19-4-1.85-7.69-3-9.07l-.26-.32a3.08,3.08,0,0,1,.39-3.8c.28-.29.63-.58,1-.89,1.62-1.37,4.07-3.44,3.48-6.79a4.13,4.13,0,0,0-.68-1.63A6.26,6.26,0,0,0,477.75,819.94Zm-8.59-2.76c.8.05,1.39,1.12,1.31,2.41s-.77,2.3-1.56,2.26-1.39-1.13-1.32-2.42S468.36,817.13,469.16,817.18Zm-3.64,1.35c.64,0,1.13.92,1.07,2s-.63,1.87-1.28,1.83-1.13-.91-1.06-2S464.87,818.5,465.52,818.53ZM463,820.44c.48,0,.91.58,1,1.35s-.29,1.42-.77,1.46-.91-.57-1-1.34S462.47,820.48,463,820.44Zm-1.62,2.12c.38,0,.73.46.77,1.08s-.23,1.14-.62,1.17-.72-.46-.76-1.08S461,822.59,461.33,822.56Zm9.31,9a5,5,0,0,0-.57,6.37c.56.78,4,4.23,2.95,7.63a3.8,3.8,0,0,1-3.18,2.82c-5,1-5.57-3-5.62-4.73a12.61,12.61,0,0,0-1-4.81C461.55,835,459,829,461.5,826.1c3.7-4.26,12.48-4,13.07-.52C475.07,828.43,472.07,830,470.64,831.52Zm5.13-11.9c-.3,1.84-1.46,3.18-2.6,3s-1.81-1.82-1.52-3.67,1.46-3.18,2.6-3S476.06,817.78,475.77,819.62Z"/><path class="cls-3" d="M498.82,747.05a3.46,3.46,0,0,0,.65-1.8,3.5,3.5,0,0,0-.37-1.88,2.69,2.69,0,0,0-1.2-1.16,2.92,2.92,0,0,0-2.41-2.37,3.16,3.16,0,0,0-2.78-1.94h-.15a2.45,2.45,0,0,0-.81.18,3.24,3.24,0,0,0-2.67-1.55h-.17a3,3,0,0,0-1.56.58,3.94,3.94,0,0,0-3.73-1.78c-2.3.37-3.67,2.93-3.18,6a6.2,6.2,0,0,0,1.88,3.67,4,4,0,0,0-.68,1.63c-.59,3.35,1.86,5.42,3.48,6.79a9.93,9.93,0,0,1,1,.89,3.08,3.08,0,0,1,.39,3.8,3.35,3.35,0,0,1-.26.32c-1.14,1.38-4.19,5.06-3,9.06a5.79,5.79,0,0,0,4.7,4.21,9.83,9.83,0,0,0,1.95.21c3.69,0,6-2.55,6.09-6.84a10.2,10.2,0,0,1,.81-4.06C498.45,757.19,501.16,751.05,498.82,747.05Zm-2.73-2c0-.62.39-1.1.77-1.07s.66.55.61,1.17-.39,1.09-.77,1.07S496,745.63,496.09,745Zm-1.82-1.85c.06-.78.49-1.37,1-1.35s.82.69.76,1.47-.49,1.37-1,1.34S494.22,743.93,494.27,743.16Zm-1.6-3.26c.65,0,1.22.79,1.28,1.83s-.42,1.93-1.08,2-1.21-.79-1.27-1.84S492,739.94,492.67,739.9ZM489,738.55c.8,0,1.5,1,1.57,2.25s-.53,2.38-1.32,2.41-1.5-1-1.57-2.25S488.23,738.59,489,738.55ZM482.42,741c-.3-1.84.38-3.49,1.52-3.67s2.3,1.16,2.6,3-.39,3.49-1.53,3.67S482.71,742.83,482.42,741ZM495,760.18a12.17,12.17,0,0,0-1,4.8c-.05,1.78-.59,5.77-5.62,4.73a3.84,3.84,0,0,1-3.19-2.82c-1-3.4,2.4-6.85,3-7.63a5.08,5.08,0,0,0-.58-6.38c-1.44-1.48-4.44-3.07-3.94-5.94.6-3.43,9.38-3.73,13.07.53C499.18,750.36,496.64,756.36,495,760.18Z"/><path d="M475,735.34a3.89,3.89,0,0,0-3.72,1.78,3,3,0,0,0-1.57-.58h-.16a3.26,3.26,0,0,0-2.67,1.55,2.8,2.8,0,0,0-.82-.19h-.15a3.15,3.15,0,0,0-2.77,2,2.91,2.91,0,0,0-2.41,2.34,2.68,2.68,0,0,0-.83.64,3.38,3.38,0,0,0-.75,2.43,3.52,3.52,0,0,0,.65,1.8c-2.33,4,.37,10.14,2,14a10.24,10.24,0,0,1,.81,4c.13,4.28,2.4,6.84,6.09,6.84a9.83,9.83,0,0,0,1.95-.21,5.79,5.79,0,0,0,4.7-4.21c1.19-4-1.85-7.68-3-9.06l-.26-.32a3.07,3.07,0,0,1,.39-3.8,13,13,0,0,1,1-.89c1.62-1.37,4.06-3.44,3.48-6.79a4.13,4.13,0,0,0-.68-1.63,6.31,6.31,0,0,0,1.88-3.66,6.55,6.55,0,0,0-.36-3.55,3.76,3.76,0,0,0-2.83-2.42Zm-5.4,3.21c.8,0,1.38,1.12,1.31,2.41s-.77,2.3-1.56,2.26-1.39-1.13-1.32-2.42.77-2.3,1.57-2.25Zm-3.65,1.35c.65,0,1.13.92,1.07,2s-.62,1.87-1.27,1.83-1.13-.91-1.07-2,.63-1.86,1.27-1.83Zm-2.56,1.92c.48,0,.91.56,1,1.34s-.3,1.42-.77,1.46-.91-.57-1-1.34.29-1.43.77-1.46Zm-1.63,2.12c.39,0,.74.45.78,1.07s-.23,1.14-.62,1.16-.72-.45-.76-1.07.23-1.14.6-1.16Zm9.32,8.95a5.05,5.05,0,0,0-.58,6.37c.57.78,4,4.23,3,7.63a3.82,3.82,0,0,1-3.18,2.82c-5,1-5.57-3-5.63-4.73a12.16,12.16,0,0,0-1-4.8c-1.68-3.83-4.23-9.82-1.73-12.71,3.69-4.26,12.48-4,13.07-.53.5,2.86-2.5,4.46-3.93,5.95Zm5.13-11.9c-.3,1.84-1.46,3.18-2.6,3s-1.82-1.82-1.52-3.67,1.46-3.18,2.59-3,1.82,1.83,1.53,3.67Zm0,0"/><rect class="cls-2" x="524.11" y="722.75" width="154.78" height="66.28" rx="12"/><text class="cls-11" transform="translate(522 751.33)">BacksideHyper&gt;F<tspan class="cls-12" x="91.93" y="0">r</tspan><tspan x="96.28" y="0">ontisdeSemi</tspan><tspan x="0" y="12.97">F</tspan><tspan class="cls-13" x="6.43" y="12.97">r</tspan><tspan x="10.78" y="12.97">ontsideSemi&gt;BacksideHyper</tspan></text><text class="cls-11" transform="translate(531.53 828.6)">Complete&gt;Mega<tspan x="0" y="12.97">Mega&gt;Complete</tspan></text></svg>