<svg xmlns="http://www.w3.org/2000/svg" viewBox="0 0 561.22 628.27"><defs><style>.cls-1{fill:#bb8e76;}.cls-2{fill:#e3b699;}.cls-3{fill:#d6a789;}.cls-4{fill:#d7b9aa;}.cls-5{fill:#ca9d82;}.cls-6{fill:#d1b1a1;}.cls-7{fill:#debba6;}.cls-8{fill:#bb8f78;}.cls-9{fill:#d9baa9;}.cls-10{fill:#7ab05e;}.cls-11{fill:#93d87c;}.cls-12{fill:#86cb6e;}.cls-13{fill:#b9dba4;}.cls-14{fill:#81bf68;}.cls-15{fill:#98bf80;}.cls-16{fill:#9ed389;}.cls-17{fill:#7cb060;}.cls-18{fill:#a2ce8c;}</style></defs><g id="Base"><g id="Base-2" data-name="Base"><path class="cls-1" d="M356.18,643.65c1.09-15.9,2.8-31.5,1.15-47.55-3.17-30.8-1.48-62-6.62-92.67a23.63,23.63,0,0,1-.06-8.59c1.55-7.72-.08-15-3.51-21.73-3.25-6.41-4.15-13.07-3.84-20.06a161,161,0,0,0-6-52c-2.41-8.37-7.38-15.61-9.58-24-1.66-6.32-4.92-6.48-9.06-2.43-5.33,5.22-9.27,2.79-12.63-2.11-2.61-3.8-4.25-8.14-5.89-12.45-2.17-5.7,0-8.05,5.84-8,5.17,0,10.4.11,15.28-2,4-1.71,5.26-4.12.45-6.16-5.53-2.35-7.83-6.35-7.92-12.07a13.13,13.13,0,0,0-1.06-5.05c-1-2.23-2.51-4.07-5.14-3.87s-3.92,2.14-4.39,4.61a49.49,49.49,0,0,0-.23,5.16c-.2,2.21.32,5.54-2.35,5.84-3.47.38-3.27-3.26-3.74-5.65-5.16-26.08-4.73-53.08-12.81-78.69a5.94,5.94,0,0,1,.12-3.42c2.22-7.53-1.05-13.63-5.44-19.1-9-11.16-11.93-26.14-23-35.91-.33-.29-.17-1.1-.21-1.66-1-6.8,1.83-14.15-2.89-20.44L247.42,175a6.41,6.41,0,0,0-1.07,4.11c2.09,14-4.63,15.55-16.14,15.64-14.94.13-29.84,0-44.8,1.28-12.17,1-25.22.67-36.63-2.14-19-4.68-37.7-2.39-56.52-2.55-4.77,0-10.58,1-10.65,8.24,10.17-1.8,20,1.2,29.88,2.44,19.54,2.45,38.49,7.9,58.78,6.37a421.37,421.37,0,0,1,78,1.39c3.5.39,5.81,2.47,5.13,6.48-1.74,10.13-.36,20.35,2.56,29.72,11.46,36.84,12.87,73.59,2.19,110.78-1.37,4.77-.5,10.12-2.94,14.66-.87,5.67-3.13,11-5,16.48,0,1.54-.16,3.36-.32,5.58a41.36,41.36,0,0,0-.12,5.1c.5,2.51-.53,4.8-1,7.16-.41,10.54-2.33,21-2.19,31.56,0,1.52,0,3.06,0,4.59-.45,15,2.26,29.9,1.73,44.92.06,1.53.06,3.06,0,4.6-.5,4.82-.07,9.71-1.21,14.49-4.27,17.85-6.71,35.91-6,54.31-.28,3.06.09,6.13-.06,9.18-.64,20,2.62,39.87,1.86,59.9-.26,7-3,14.11-.27,21.21,4.72,3.57,6.36-.86,7.38-3.54,4.82-12.58,14.74-24.29,7.53-39.21a2.21,2.21,0,0,1-.14-.84c-2.47-26.63,1-52.8,6.93-78.63,1.77-7.7,3.62-15,1.93-22.86-.93-4.33-.71-7.86,4.32-9.73,3.77-1.39,4.65-4.82,4.26-8.56-.5-4.86-.68-9.8-2.42-14.42-7.22-19.12-7.31-38.43-.18-57.37,5.86-15.58,6.79-30.6,0-46.05a29.89,29.89,0,0,1-2.68-15.16c.23-2.06.85-4,3.38-4.35s3.7,1.22,4.39,3.26C285.63,377.75,296,402,292.79,429c-.37,3.14-2,7,2.61,8.92a11.15,11.15,0,0,0,2-1.75,81.65,81.65,0,0,1,3.24-8.47c.29-2.07.48-4.16,1-6.13,1.68-6.94,1.84-14.44,9.31-17.81-.63.28-.43,6.28-.45,7.09a75.2,75.2,0,0,0,.2,7.66,70.41,70.41,0,0,0,2.73,14.27c2.83,9.91,5,20,7.23,30.05.9,4,1.81,8,2.79,12,1.51,6.2,3.18,12.36,4.2,18.65.45,2.74.78,5.49,1.1,8.25.24,2.07.49,4.14.73,6.2q1.53,12.94,3.05,25.88c1,8.22.06,16.55,1,24.81,0,.08-.11.15-.15.23a103.26,103.26,0,0,1,1.47,15.5c.52,2,1.1,3.9,1.52,5.87,5.39,25.33,10.37,50.76,7.39,76.84-1.12,9.82,1.06,18.19,7.21,25.72.05,1.14.1,2.28.16,3.41,2.31,3.15.47,8.34,5.07,10.36,2.21-2.5,1.18-5.45,1.15-8.25C357.16,673.43,355.18,658.36,356.18,643.65Z" transform="translate(-25.39 -81.86)"/><path class="cls-2" d="M385.17,685.89a53.47,53.47,0,0,0-3-8.4c-7-15.84-11.85-31.14-12.83-48.61-1-17.29,2.15-34.79,1.72-52.22q-.54-21.64-2-43.26c-.88-13.56-3.79-26.72-5.29-40.25-.14-1.32-.24-2.63-.5-3.94a19.06,19.06,0,0,0-.64-2.47,17.67,17.67,0,0,1,.47-11.83,15.16,15.16,0,0,0,.44-2.51,318.94,318.94,0,0,0-3.58-80.17c-.6-3.44-1.28-6.86-1.91-10.3-7-38.42-19.42-82.32-5.29-120.39,7.13-18.39-.36-39,8.54-57.12.33-.67-.2-1.66-.49-2.49-3.7-4-6.08-1.09-8.18,1.73s-2.74,6.31-4.09,9.47c-5,11.81-14,15.47-25.92,10.92-4.11-1.56-6.23-4.86-8.66-8.06-1.76-2.33-3.89-4.48-7.22-3.59-2.86.76-4,3.2-4.44,5.83-1.05,6.65-4.7,13.25-.4,20.05a5.08,5.08,0,0,1,.35,4.19c-.51,1.7-1.23,3.53-3.28,3.42-1.74-.09-1.91-1.9-2-3.31-.12-3-.48-5.76-3.11-7.67-11.38-8.25-19.81-18.9-26.81-31.06-2.76-4.79-6.5-10.67-14.2-8.12.65,6.85,8.29,7.81,11,13.54,8.18,17.54,18.9,34,21.38,53.78,2.87,22.92,5.85,45.83,8.67,68.75.62,5-.27,12.14,6.64,11.71s5.62-7.44,5.24-12.54c-.2-2.62-2.69-6.42,2.05-6.56,3.87-.11,3.52,4,3.3,6.75-.73,9.06,1.5,15.6,12.82,15.42a72.26,72.26,0,0,1-8.72,2.78c-6.52,1.81-16.19-4.08-19.24,2.88-2.76,6.3,4,13.81,6.74,20.7a11,11,0,0,0,4.17,5.19c3.11,1.81,6.87,7.07,10.26,2.07,6.27-9.25,5.59-5.24,9.42,2.12,12.13,23.35,14.71,47.93,14,73.43-.1,3.72-1.11,8.25.57,11.05,11.72,19.61,6.42,41.7,9.45,62.5A294.73,294.73,0,0,1,354,582.36c-.53,14.78,3.59,29,1.06,44.17-3.88,23.15-1.07,46.74,1.17,70.09,2.82,11.59,9.79,14.56,20.64,10.28C386.54,703.07,387.29,694.35,385.17,685.89Z" transform="translate(-25.39 -81.86)"/><path class="cls-3" d="M278,569.9c0-.75-.07-1.48-.06-2.21.06-3.9,1.15-7.7,1.46-11.58a22,22,0,0,1-.19-5.22c.12-2.31,1-4.44,1.32-6.67A349.79,349.79,0,0,1,285.51,494c0-.23.07-.46.1-.7.62-5.22,1.19-10.46,2.09-15.63a3.55,3.55,0,0,1,.18-1c.45-2.48,1-4.94,1.64-7.38-.89-3.2.85-6.27,2.46-9a12.56,12.56,0,0,0,.89-1.89c.53-2.26,1-4.55,1.57-6.8.07-.51.15-1,.22-1.52A91.71,91.71,0,0,1,296.84,438c.09-.33.2-.66.3-1a7,7,0,0,0-1.14.33c-2.95-1.63-.86-3.89-.93-6-.31-8.77,3.41-17.31.64-26.28-5.47-17.7-10.67-35.51-15.38-53.43-1.32-5-4-5.59-8-5.53-4.51.07-5.86,2.58-6,6.67-.21,8,2.2,15.35,5.06,22.53,4,10,5.23,20.15,1.22,30.21-9.26,23.24-11.22,46.28-2.51,70.44,1.47,4.1,12.29,18.2-6.62,18-2.76,0-1.15,3.67-.87,5.87.95,7.32,3.51,14.54,1.19,22.1-5.81,18.93-7.73,38.45-9.93,58.07-1.88,16.7,6.8,32.94.41,49.55-3,7.67-4.82,15.74-10.52,22-2.51.84-3.1,3.16-4.09,5.22-4.35,9.06-7.36,18.71-12.25,27.52a6.55,6.55,0,0,0-.65,3.64c-.14,2.86-.47,5.72-.39,8.57.2,7.07,6.08,9.78,11.1,11.22s11.91,5.35,16-2c3.14-5.68,5.28-11.93,7.86-17.93,0-1.11-.05-2.23-.07-3.35,5.58-8.67,7.91-17.8,7.53-28.45-.6-16.75-3.5-33.8,2.64-50.31,1.39-3.74.93-8,2-11.87,1.51-5.56,1.51-11.5,3-17.06A26.51,26.51,0,0,1,278,569.9Z" transform="translate(-25.39 -81.86)"/><path class="cls-4" d="M359.58,200.85c-6.43,1-6.43,6.79-7.86,11.12-2.7,8.19-7.09,15.37-15.91,16.17s-18.68.39-23.13-10.42c-.84-2-2.43-4.37-5.08-3.94-3.4.54-3.16,3.6-3.21,6.16-.13,6.32-5.72,12.65,1.16,19.11,2.28,2.14-.49,6.6-3,9.06-1.63,1.58-3.81,2.72-6.25,1.22-3.19-2-2.64-5-1.66-7.67,1.33-3.56-1.06-4.33-3.18-5.87-9.84-7.18-18.21-15.68-23.6-26.82-3.11-6.42-7.49-11.53-14.85-13.24q-.15-11-.31-22.06l20.64-3.95c1.71-1.32,3.32-.48,4.71.45,5.28,3.53,9.91,3.71,14.17-1.78,2.45-3.17,6.05-3.5,9.18-1.16,5.33,4,9.27,4.72,12.58-2.49,1.58-3.47,5.17-5.28,9.4-3.47,10.16,9.91,24.21,8.12,36.34,12.1C363.4,182.55,363.83,191.71,359.58,200.85Z" transform="translate(-25.39 -81.86)"/><path class="cls-5" d="M359.58,200.85q.06-13.74.1-27.48l12,3.27c-1,1.88-3.21,2.53-4.21,4.25a12.87,12.87,0,0,0-.39,12.41c1.78,3.66,5.61,2.21,8.57,1.82,19.5-2.52,39,0,58.51-.39,4-.08,8.34.8,12-.73,17.64-7.33,36-6.45,54.36-5.2,1.43.1,2.87,0,3.47,0-9.18.49-19.12-1.28-29.15-1-3.11.08-7.15.69-8-4.14,28.68,1.27,57.41,2,86,4.1,12.25.92,20.39,12.3,31.76,16.36,1,.35,3,2.24,1.26,3.13-2.41,1.25-6.75,2.72-8,1.59-4.91-4.48-8-1.25-12.32.84-7.73,3.74-16.78.53-22.17-3.26-18.49-13-37.66-6.69-55.67-2.65s-35.81,3.77-53.81,4c-20.65.25-41.31-1.61-61.92,1.62-8.31,1.3-12.4,4.07-12.6,13.42-.28,13.1-1.59,26.31-6.61,38.73a53.65,53.65,0,0,1,.39-7.63c1.66-8.79,4.07-16.9.13-26.41C349.64,218.46,359.65,210.36,359.58,200.85Z" transform="translate(-25.39 -81.86)"/><path class="cls-6" d="M247.42,175c5.39,17,1.52,23.23-15.91,22.19-23.11-1.36-46,2.44-69.36,0-22.55-2.4-45.4-6.86-68.45-3.58-5,.7-9.3,1.47-12.09,6-10,6.51-23.47,9.69-32.55,7.29-7.68-2-13,4.64-19.17.6-1.34-.88-4.64,1.36-4.49-1.92.06-1.35,2.47-2.85,4.08-3.83,17.93-10.94,37.14-15.86,58.43-16.22,44.49-.75,89-3,133.42-5.25C230.09,179.86,238.73,176.86,247.42,175Z" transform="translate(-25.39 -81.86)"/><path class="cls-7" d="M328.46,135.21l-3.36,8.6c-2.1,3.9-4.39,7.48-9.64,7.22-5-.25-7.5-3.53-9.42-7.63-7.32-15.6-10.84-32.6-17.91-48.29-.74-1.65-.3-3.38.35-5,13-13.38,33.85-10.06,40.62,7.19a57.81,57.81,0,0,1,2.78,31C330.18,130.31,329.81,133,328.46,135.21Z" transform="translate(-25.39 -81.86)"/><path class="cls-8" d="M288.48,90.09c6.08,16,12.33,31.92,18.17,48,4.84,13.3,7.34,14.22,18.45,5.72q-.89,8.73-1.76,17.46c-1.87.72-4.87.93-5.43,2.21-4.91,11.27-11.41,12.82-20.29,4.14-.37-.37-2.56.21-2.93.89-6.54,11.89-13.94,6.7-21.39,1.21,18.85-7.55,20.49-12,11.42-30.95C276.75,122.12,278.44,100.29,288.48,90.09Z" transform="translate(-25.39 -81.86)"/><path class="cls-9" d="M466.88,183.67a265.21,265.21,0,0,0,44.94,3.53c2.07,0,5.72-1.06,5.67,2,0,3.45-3.35,2.39-6,2.3-21.05-.66-41.73-2.4-62.8,4.56-12.7,4.19-27.92,2.14-41.81.84-11.29-1-22.1,1.06-33.12,1.56-5.12.23-11,2.1-10.3-5.43.55-6-6.44-17.13,8.27-16.34,29,8.63,58.92,3.64,88.3,6.44C462.31,183.3,464.59,183.47,466.88,183.67Z" transform="translate(-25.39 -81.86)"/><path class="cls-8" d="M328.46,135.21c-.18-3,.62-5.44,3.42-6.93A7.16,7.16,0,0,1,328.46,135.21Z" transform="translate(-25.39 -81.86)"/><path class="cls-1" d="M286,491.18c.41-2.15.83-4.45,1.15-6.81-1.06-2.62-.65-6.49,1.12-11.58,1-2.85.44-6.23.6-9.37-3.67,9.41-4.74,19.29-5.24,29.27l2.13-.2C285.81,492,285.9,491.6,286,491.18Z" transform="translate(-25.39 -81.86)"/></g></g><g id="Loaded"><g id="Green"><path class="cls-10" d="M356.18,643.65c1.09-15.9,2.8-31.5,1.15-47.55-3.17-30.8-1.48-62-6.62-92.67a23.63,23.63,0,0,1-.06-8.59c1.55-7.72-.08-15-3.51-21.73-3.25-6.41-4.15-13.07-3.84-20.06a161,161,0,0,0-6-52c-2.41-8.37-7.38-15.61-9.58-24-1.66-6.32-4.92-6.48-9.06-2.43-5.33,5.22-9.27,2.79-12.63-2.11-2.61-3.8-4.25-8.14-5.89-12.45-2.17-5.7,0-8.05,5.84-8,5.17,0,10.4.11,15.28-2,4-1.71,5.26-4.12.45-6.16-5.53-2.35-7.83-6.35-7.92-12.07a13.13,13.13,0,0,0-1.06-5.05c-1-2.23-2.51-4.07-5.14-3.87s-3.92,2.14-4.39,4.61a49.49,49.49,0,0,0-.23,5.16c-.2,2.21.32,5.54-2.35,5.84-3.47.38-3.27-3.26-3.74-5.65-5.16-26.08-4.73-53.08-12.81-78.69a5.94,5.94,0,0,1,.12-3.42c2.22-7.53-1.05-13.63-5.44-19.1-9-11.16-11.93-26.14-23-35.91-.33-.29-.17-1.1-.21-1.66-1-6.8,1.83-14.15-2.89-20.44L247.42,175a6.41,6.41,0,0,0-1.07,4.11c2.09,14-4.63,15.55-16.14,15.64-14.94.13-29.84,0-44.8,1.28-12.17,1-25.22.67-36.63-2.14-19-4.68-37.7-2.39-56.52-2.55-4.77,0-10.58,1-10.65,8.24,10.17-1.8,20,1.2,29.88,2.44,19.54,2.45,38.49,7.9,58.78,6.37a421.37,421.37,0,0,1,78,1.39c3.5.39,5.81,2.47,5.13,6.48-1.74,10.13-.36,20.35,2.56,29.72,11.46,36.84,12.87,73.59,2.19,110.78-1.37,4.77-.5,10.12-2.94,14.66-.87,5.67-3.13,11-5,16.48,0,1.54-.16,3.36-.32,5.58a41.36,41.36,0,0,0-.12,5.1c.5,2.51-.53,4.8-1,7.16-.41,10.54-2.33,21-2.19,31.56,0,1.52,0,3.06,0,4.59-.45,15,2.26,29.9,1.73,44.92.06,1.53.06,3.06,0,4.6-.5,4.82-.07,9.71-1.21,14.49-4.27,17.85-6.71,35.91-6,54.31-.28,3.06.09,6.13-.06,9.18-.64,20,2.62,39.87,1.86,59.9-.26,7-3,14.11-.27,21.21,4.72,3.57,6.36-.86,7.38-3.54,4.82-12.58,14.74-24.29,7.53-39.21a2.21,2.21,0,0,1-.14-.84c-2.47-26.63,1-52.8,6.93-78.63,1.77-7.7,3.62-15,1.93-22.86-.93-4.33-.71-7.86,4.32-9.73,3.77-1.39,4.65-4.82,4.26-8.56-.5-4.86-.68-9.8-2.42-14.42-7.22-19.12-7.31-38.43-.18-57.37,5.86-15.58,6.79-30.6,0-46.05a29.89,29.89,0,0,1-2.68-15.16c.23-2.06.85-4,3.38-4.35s3.7,1.22,4.39,3.26C285.63,377.75,296,402,292.79,429c-.37,3.14-2,7,2.61,8.92a11.15,11.15,0,0,0,2-1.75,81.65,81.65,0,0,1,3.24-8.47c.29-2.07.48-4.16,1-6.13,1.68-6.94,1.84-14.44,9.31-17.81-.63.28-.43,6.28-.45,7.09a75.2,75.2,0,0,0,.2,7.66,70.41,70.41,0,0,0,2.73,14.27c2.83,9.91,5,20,7.23,30.05.9,4,1.81,8,2.79,12,1.51,6.2,3.18,12.36,4.2,18.65.45,2.74.78,5.49,1.1,8.25.24,2.07.49,4.14.73,6.2q1.53,12.94,3.05,25.88c1,8.22.06,16.55,1,24.81,0,.08-.11.15-.15.23a103.26,103.26,0,0,1,1.47,15.5c.52,2,1.1,3.9,1.52,5.87,5.39,25.33,10.37,50.76,7.39,76.84-1.12,9.82,1.06,18.19,7.21,25.72.05,1.14.1,2.28.16,3.41,2.31,3.15.47,8.34,5.07,10.36,2.21-2.5,1.18-5.45,1.15-8.25C357.16,673.43,355.18,658.36,356.18,643.65Z" transform="translate(-25.39 -81.86)"/><path class="cls-11" d="M385.17,685.89a53.47,53.47,0,0,0-3-8.4c-7-15.84-11.85-31.14-12.83-48.61-1-17.29,2.15-34.79,1.72-52.22q-.54-21.64-2-43.26c-.88-13.56-3.79-26.72-5.29-40.25-.14-1.32-.24-2.63-.5-3.94a19.06,19.06,0,0,0-.64-2.47,17.67,17.67,0,0,1,.47-11.83,15.16,15.16,0,0,0,.44-2.51,318.94,318.94,0,0,0-3.58-80.17c-.6-3.44-1.28-6.86-1.91-10.3-7-38.42-19.42-82.32-5.29-120.39,7.13-18.39-.36-39,8.54-57.12.33-.67-.2-1.66-.49-2.49-3.7-4-6.08-1.09-8.18,1.73s-2.74,6.31-4.09,9.47c-5,11.81-14,15.47-25.92,10.92-4.11-1.56-6.23-4.86-8.66-8.06-1.76-2.33-3.89-4.48-7.22-3.59-2.86.76-4,3.2-4.44,5.83-1.05,6.65-4.7,13.25-.4,20.05a5.08,5.08,0,0,1,.35,4.19c-.51,1.7-1.23,3.53-3.28,3.42-1.74-.09-1.91-1.9-2-3.31-.12-3-.48-5.76-3.11-7.67-11.38-8.25-19.81-18.9-26.81-31.06-2.76-4.79-6.5-10.67-14.2-8.12.65,6.85,8.29,7.81,11,13.54,8.18,17.54,18.9,34,21.38,53.78,2.87,22.92,5.85,45.83,8.67,68.75.62,5-.27,12.14,6.64,11.71s5.62-7.44,5.24-12.54c-.2-2.62-2.69-6.42,2.05-6.56,3.87-.11,3.52,4,3.3,6.75-.73,9.06,1.5,15.6,12.82,15.42a72.26,72.26,0,0,1-8.72,2.78c-6.52,1.81-16.19-4.08-19.24,2.88-2.76,6.3,4,13.81,6.74,20.7a11,11,0,0,0,4.17,5.19c3.11,1.81,6.87,7.07,10.26,2.07,6.27-9.25,5.59-5.24,9.42,2.12,12.13,23.35,14.71,47.93,14,73.43-.1,3.72-1.11,8.25.57,11.05,11.72,19.61,6.42,41.7,9.45,62.5A294.73,294.73,0,0,1,354,582.36c-.53,14.78,3.59,29,1.06,44.17-3.88,23.15-1.07,46.74,1.17,70.09,2.82,11.59,9.79,14.56,20.64,10.28C386.54,703.07,387.29,694.35,385.17,685.89Z" transform="translate(-25.39 -81.86)"/><path class="cls-12" d="M278,569.9c0-.75-.07-1.48-.06-2.21.06-3.9,1.15-7.7,1.46-11.58a22,22,0,0,1-.19-5.22c.12-2.31,1-4.44,1.32-6.67A349.79,349.79,0,0,1,285.51,494c0-.23.07-.46.1-.7.62-5.22,1.19-10.46,2.09-15.63a3.55,3.55,0,0,1,.18-1c.45-2.48,1-4.94,1.64-7.38-.89-3.2.85-6.27,2.46-9a12.56,12.56,0,0,0,.89-1.89c.53-2.26,1-4.55,1.57-6.8.07-.51.15-1,.22-1.52A91.71,91.71,0,0,1,296.84,438c.09-.33.2-.66.3-1a7,7,0,0,0-1.14.33c-2.95-1.63-.86-3.89-.93-6-.31-8.77,3.41-17.31.64-26.28-5.47-17.7-10.67-35.51-15.38-53.43-1.32-5-4-5.59-8-5.53-4.51.07-5.86,2.58-6,6.67-.21,8,2.2,15.35,5.06,22.53,4,10,5.23,20.15,1.22,30.21-9.26,23.24-11.22,46.28-2.51,70.44,1.47,4.1,12.29,18.2-6.62,18-2.76,0-1.15,3.67-.87,5.87.95,7.32,3.51,14.54,1.19,22.1-5.81,18.93-7.73,38.45-9.93,58.07-1.88,16.7,6.8,32.94.41,49.55-3,7.67-4.82,15.74-10.52,22-2.51.84-3.1,3.16-4.09,5.22-4.35,9.06-7.36,18.71-12.25,27.52a6.55,6.55,0,0,0-.65,3.64c-.14,2.86-.47,5.72-.39,8.57.2,7.07,6.08,9.78,11.1,11.22s11.91,5.35,16-2c3.14-5.68,5.28-11.93,7.86-17.93,0-1.11-.05-2.23-.07-3.35,5.58-8.67,7.91-17.8,7.53-28.45-.6-16.75-3.5-33.8,2.64-50.31,1.39-3.74.93-8,2-11.87,1.51-5.56,1.51-11.5,3-17.06A26.51,26.51,0,0,1,278,569.9Z" transform="translate(-25.39 -81.86)"/><path class="cls-13" d="M359.58,200.85c-6.43,1-6.43,6.79-7.86,11.12-2.7,8.19-7.09,15.37-15.91,16.17s-18.68.39-23.13-10.42c-.84-2-2.43-4.37-5.08-3.94-3.4.54-3.16,3.6-3.21,6.16-.13,6.32-5.72,12.65,1.16,19.11,2.28,2.14-.49,6.6-3,9.06-1.63,1.58-3.81,2.72-6.25,1.22-3.19-2-2.64-5-1.66-7.67,1.33-3.56-1.06-4.33-3.18-5.87-9.84-7.18-18.21-15.68-23.6-26.82-3.11-6.42-7.49-11.53-14.85-13.24q-.15-11-.31-22.06l20.64-3.95c1.71-1.32,3.32-.48,4.71.45,5.28,3.53,9.91,3.71,14.17-1.78,2.45-3.17,6.05-3.5,9.18-1.16,5.33,4,9.27,4.72,12.58-2.49,1.58-3.47,5.17-5.28,9.4-3.47,10.16,9.91,24.21,8.12,36.34,12.1C363.4,182.55,363.83,191.71,359.58,200.85Z" transform="translate(-25.39 -81.86)"/><path class="cls-14" d="M359.58,200.85q.06-13.74.1-27.48l12,3.27c-1,1.88-3.21,2.53-4.21,4.25a12.87,12.87,0,0,0-.39,12.41c1.78,3.66,5.61,2.21,8.57,1.82,19.5-2.52,39,0,58.51-.39,4-.08,8.34.8,12-.73,17.64-7.33,36-6.45,54.36-5.2,1.43.1,2.87,0,3.47,0-9.18.49-19.12-1.28-29.15-1-3.11.08-7.15.69-8-4.14,28.68,1.27,57.41,2,86,4.1,12.25.92,20.39,12.3,31.76,16.36,1,.35,3,2.24,1.26,3.13-2.41,1.25-6.75,2.72-8,1.59-4.91-4.48-8-1.25-12.32.84-7.73,3.74-16.78.53-22.17-3.26-18.49-13-37.66-6.69-55.67-2.65s-35.81,3.77-53.81,4c-20.65.25-41.31-1.61-61.92,1.62-8.31,1.3-12.4,4.07-12.6,13.42-.28,13.1-1.59,26.31-6.61,38.73a53.65,53.65,0,0,1,.39-7.63c1.66-8.79,4.07-16.9.13-26.41C349.64,218.46,359.65,210.36,359.58,200.85Z" transform="translate(-25.39 -81.86)"/><path class="cls-15" d="M247.42,175c5.39,17,1.52,23.23-15.91,22.19-23.11-1.36-46,2.44-69.36,0-22.55-2.4-45.4-6.86-68.45-3.58-5,.7-9.3,1.47-12.09,6-10,6.51-23.47,9.69-32.55,7.29-7.68-2-13,4.64-19.17.6-1.34-.88-4.64,1.36-4.49-1.92.06-1.35,2.47-2.85,4.08-3.83,17.93-10.94,37.14-15.86,58.43-16.22,44.49-.75,89-3,133.42-5.25C230.09,179.86,238.73,176.86,247.42,175Z" transform="translate(-25.39 -81.86)"/><path class="cls-16" d="M328.46,135.21l-3.36,8.6c-2.1,3.9-4.39,7.48-9.64,7.22-5-.25-7.5-3.53-9.42-7.63-7.32-15.6-10.84-32.6-17.91-48.29-.74-1.65-.3-3.38.35-5,13-13.38,33.85-10.06,40.62,7.19a57.81,57.81,0,0,1,2.78,31C330.18,130.31,329.81,133,328.46,135.21Z" transform="translate(-25.39 -81.86)"/><path class="cls-17" d="M288.48,90.09c6.08,16,12.33,31.92,18.17,48,4.84,13.3,7.34,14.22,18.45,5.72q-.89,8.73-1.76,17.46c-1.87.72-4.87.93-5.43,2.21-4.91,11.27-11.41,12.82-20.29,4.14-.37-.37-2.56.21-2.93.89-6.54,11.89-13.94,6.7-21.39,1.21,18.85-7.55,20.49-12,11.42-30.95C276.75,122.12,278.44,100.29,288.48,90.09Z" transform="translate(-25.39 -81.86)"/><path class="cls-18" d="M466.88,183.67a265.21,265.21,0,0,0,44.94,3.53c2.07,0,5.72-1.06,5.67,2,0,3.45-3.35,2.39-6,2.3-21.05-.66-41.73-2.4-62.8,4.56-12.7,4.19-27.92,2.14-41.81.84-11.29-1-22.1,1.06-33.12,1.56-5.12.23-11,2.1-10.3-5.43.55-6-6.44-17.13,8.27-16.34,29,8.63,58.92,3.64,88.3,6.44C462.31,183.3,464.59,183.47,466.88,183.67Z" transform="translate(-25.39 -81.86)"/><path class="cls-17" d="M328.46,135.21c-.18-3,.62-5.44,3.42-6.93A7.16,7.16,0,0,1,328.46,135.21Z" transform="translate(-25.39 -81.86)"/><path class="cls-10" d="M286,491.18c.41-2.15.83-4.45,1.15-6.81-1.06-2.62-.65-6.49,1.12-11.58,1-2.85.44-6.23.6-9.37-3.67,9.41-4.74,19.29-5.24,29.27l2.13-.2C285.81,492,285.9,491.6,286,491.18Z" transform="translate(-25.39 -81.86)"/></g></g></svg>