<svg id="Layer_1" data-name="Layer 1" xmlns="http://www.w3.org/2000/svg" viewBox="0 0 800.96 1080"><defs><style>.cls-1{fill:#f68844;}.cls-1,.cls-2{opacity:0.33;}.cls-2{fill:#64cdf2;}.cls-3{fill:#67308f;}.cls-4{font-size:28.29px;}.cls-17,.cls-4,.cls-5,.cls-8,.cls-9{fill:#010101;}.cls-4,.cls-9{font-family:HelveticaNeueLTStd-Blk, Helvetica Neue LT Std;}.cls-5{font-size:14.47px;font-family:HelveticaNeueLTStd-MdIt, Helvetica Neue LT Std;font-weight:500;font-style:italic;}.cls-6{letter-spacing:-0.09em;}.cls-16,.cls-7{fill:none;stroke-miterlimit:10;}.cls-7{stroke:#67308f;stroke-width:2px;}.cls-8{font-size:18.09px;font-family:HelveticaNeueLTStd-Hv, Helvetica Neue LT Std;}.cls-9{font-size:10.21px;}.cls-10{letter-spacing:-0.02em;}.cls-11{letter-spacing:-0.02em;}.cls-12{letter-spacing:0em;}.cls-13{letter-spacing:-0.02em;}.cls-14{letter-spacing:0em;}.cls-15{letter-spacing:-0.02em;}.cls-16{stroke:#010101;}</style></defs><rect class="cls-1" x="540.2" y="417.72" width="67.46" height="180.84" rx="12"/><rect class="cls-1" x="412.3" y="174.52" width="67.05" height="160.28" rx="12"/><rect class="cls-2" x="287.22" y="174.52" width="113.05" height="161.96" rx="12"/><rect class="cls-2" x="282.75" y="417.72" width="118.96" height="182.08" rx="12"/><rect class="cls-2" x="282.75" y="619.51" width="118.96" height="158.13" rx="12"/><rect class="cls-1" x="407.83" y="416.87" width="125" height="183.79" rx="12"/><rect class="cls-2" x="407.83" y="416.87" width="125" height="183.79" rx="12"/><path class="cls-3" d="M342.14,199.51a3.43,3.43,0,0,0,.65-1.8,3.51,3.51,0,0,0-.37-1.88,2.61,2.61,0,0,0-1.2-1.15,2.92,2.92,0,0,0-2.41-2.38,3.16,3.16,0,0,0-2.78-1.94h-.15a2.46,2.46,0,0,0-.81.19A3.25,3.25,0,0,0,332.4,189h-.17a3,3,0,0,0-1.56.57,3.93,3.93,0,0,0-3.73-1.77c-2.3.37-3.67,2.93-3.18,6a6.26,6.26,0,0,0,1.88,3.67,3.88,3.88,0,0,0-.68,1.63c-.59,3.35,1.86,5.42,3.48,6.78a11.35,11.35,0,0,1,1,.89,3.09,3.09,0,0,1,.39,3.8,3.35,3.35,0,0,1-.26.32c-1.14,1.38-4.19,5.07-3,9.06a5.78,5.78,0,0,0,4.7,4.21,9.14,9.14,0,0,0,1.95.21c3.69,0,6-2.55,6.09-6.84a10.28,10.28,0,0,1,.81-4.06C341.77,209.66,344.48,203.51,342.14,199.51Zm-2.73-2c0-.62.39-1.09.77-1.07s.66.55.61,1.17-.39,1.1-.77,1.07S339.36,198.1,339.41,197.47Zm-1.82-1.85c.06-.77.49-1.37,1-1.34s.82.69.76,1.46-.49,1.38-1,1.34S337.54,196.4,337.59,195.62Zm-1.6-3.25c.65,0,1.22.79,1.28,1.83s-.42,1.92-1.08,2-1.21-.79-1.27-1.83S335.35,192.4,336,192.37ZM332.35,191c.8,0,1.5,1,1.57,2.26s-.53,2.37-1.32,2.4-1.5-1-1.57-2.24S331.55,191.05,332.35,191Zm-6.61,2.44c-.3-1.83.38-3.48,1.52-3.66s2.3,1.16,2.6,3-.39,3.48-1.53,3.66S326,195.3,325.74,193.45Zm12.54,19.19a12.18,12.18,0,0,0-1,4.81c-.05,1.77-.59,5.77-5.62,4.73a3.86,3.86,0,0,1-3.19-2.82c-1-3.41,2.4-6.85,3-7.64a5.06,5.06,0,0,0-.58-6.37c-1.44-1.48-4.44-3.08-3.94-5.95.6-3.43,9.38-3.73,13.07.53C342.5,202.82,340,208.82,338.28,212.64Z"/><path class="cls-3" d="M338.28,212.64a12.18,12.18,0,0,0-1,4.81c-.05,1.77-.59,5.77-5.62,4.73a3.86,3.86,0,0,1-3.19-2.82c-1-3.41,2.4-6.85,3-7.64a5.06,5.06,0,0,0-.58-6.37c-1.44-1.48-4.44-3.08-3.94-5.95.6-3.43,9.38-3.73,13.07.53C342.5,202.82,340,208.82,338.28,212.64Z"/><path class="cls-3" d="M321.47,193.77a6.62,6.62,0,0,0-.35-3.54,3.75,3.75,0,0,0-2.84-2.42,3.87,3.87,0,0,0-3.72,1.77A3,3,0,0,0,313,189h-.15a3.23,3.23,0,0,0-2.67,1.56,2.53,2.53,0,0,0-.81-.2h-.16a3.13,3.13,0,0,0-2.77,1.94,2.91,2.91,0,0,0-2.41,2.34,2.68,2.68,0,0,0-.83.64,3.42,3.42,0,0,0-.75,2.43,3.52,3.52,0,0,0,.65,1.8c-2.33,4,.37,10.15,2,14a10.29,10.29,0,0,1,.81,4c.13,4.28,2.4,6.83,6.09,6.83a9.07,9.07,0,0,0,2-.21,5.78,5.78,0,0,0,4.7-4.2c1.19-4-1.85-7.69-3-9.07l-.26-.31a3.1,3.1,0,0,1,.39-3.81,13,13,0,0,1,1-.89c1.61-1.36,4.06-3.43,3.48-6.79a4.09,4.09,0,0,0-.68-1.62A6.29,6.29,0,0,0,321.47,193.77ZM312.88,191c.8.05,1.38,1.12,1.31,2.42s-.77,2.29-1.56,2.25-1.39-1.13-1.32-2.41S312.08,191,312.88,191Zm-3.64,1.36c.64,0,1.12.91,1.06,2s-.62,1.86-1.27,1.83-1.13-.91-1.07-2S308.59,192.33,309.24,192.37Zm-2.57,1.91c.47,0,.91.57,1,1.34s-.29,1.42-.77,1.46-.9-.57-1-1.34S306.19,194.31,306.67,194.28Zm-1.62,2.12c.38,0,.73.46.77,1.07s-.24,1.14-.62,1.17-.72-.45-.77-1.07S304.67,196.42,305.05,196.4Zm9.3,8.95a5.06,5.06,0,0,0-.57,6.37c.57.79,4,4.23,3,7.63a3.81,3.81,0,0,1-3.18,2.82c-5.05,1.05-5.58-2.95-5.62-4.72a12.58,12.58,0,0,0-1-4.81c-1.68-3.83-4.23-9.81-1.73-12.71,3.69-4.26,12.48-4,13.07-.52C318.79,202.26,315.79,203.87,314.35,205.35Zm5.14-11.9c-.3,1.84-1.46,3.19-2.6,3s-1.81-1.82-1.53-3.66,1.47-3.19,2.6-3S319.78,191.61,319.49,193.45Z"/><path class="cls-3" d="M313.78,211.72c.57.79,4,4.23,3,7.63a3.81,3.81,0,0,1-3.18,2.82c-5.05,1.05-5.58-2.95-5.62-4.72a12.58,12.58,0,0,0-1-4.81c-1.68-3.83-4.23-9.81-1.73-12.71,3.69-4.26,12.48-4,13.07-.52.5,2.85-2.5,4.46-3.94,5.94A5.06,5.06,0,0,0,313.78,211.72Z"/><path class="cls-3" d="M394.29,199.51a3.43,3.43,0,0,0,.65-1.8,3.62,3.62,0,0,0-.38-1.88,2.59,2.59,0,0,0-1.19-1.15A2.94,2.94,0,0,0,391,192.3a3.15,3.15,0,0,0-2.78-1.94H388a2.52,2.52,0,0,0-.82.19,3.25,3.25,0,0,0-2.67-1.56h-.16a3,3,0,0,0-1.56.57,3.94,3.94,0,0,0-3.73-1.77c-2.31.37-3.68,2.93-3.19,6a6.33,6.33,0,0,0,1.89,3.67,3.88,3.88,0,0,0-.68,1.63c-.6,3.35,1.86,5.42,3.48,6.78.36.31.71.6,1,.89a3.08,3.08,0,0,1,.38,3.8c0,.08-.14.18-.25.32-1.14,1.38-4.19,5.07-3,9.06a5.78,5.78,0,0,0,4.71,4.21,9,9,0,0,0,1.95.21c3.69,0,6-2.55,6.08-6.84a10.46,10.46,0,0,1,.81-4.06C393.92,209.66,396.62,203.51,394.29,199.51Zm-2.73-2c0-.62.38-1.09.77-1.07s.65.55.61,1.17-.39,1.1-.78,1.07S391.51,198.1,391.56,197.47Zm-1.82-1.85c.06-.77.48-1.37,1-1.34s.81.69.76,1.46-.49,1.38-1,1.34S389.69,196.4,389.74,195.62Zm-1.6-3.25c.65,0,1.22.79,1.27,1.83s-.42,1.92-1.07,2-1.21-.79-1.27-1.83S387.49,192.4,388.14,192.37ZM384.49,191c.8,0,1.5,1,1.57,2.26s-.52,2.37-1.32,2.4-1.49-1-1.56-2.24S383.7,191.05,384.49,191Zm-6.61,2.44c-.29-1.83.39-3.48,1.53-3.66s2.3,1.16,2.59,3-.38,3.48-1.52,3.66S378.18,195.3,377.88,193.45Zm12.54,19.19a12.54,12.54,0,0,0-1,4.81c-.05,1.77-.58,5.77-5.62,4.73a3.85,3.85,0,0,1-3.18-2.82c-1-3.41,2.39-6.85,3-7.64a5.05,5.05,0,0,0-.58-6.37c-1.43-1.48-4.43-3.08-3.94-5.95.61-3.43,9.39-3.73,13.08.53C394.65,202.82,392.1,208.82,390.42,212.64Z"/><path class="cls-3" d="M390.42,212.64a12.54,12.54,0,0,0-1,4.81c-.05,1.77-.58,5.77-5.62,4.73a3.85,3.85,0,0,1-3.18-2.82c-1-3.41,2.39-6.85,3-7.64a5.05,5.05,0,0,0-.58-6.37c-1.43-1.48-4.43-3.08-3.94-5.95.61-3.43,9.39-3.73,13.08.53C394.65,202.82,392.1,208.82,390.42,212.64Z"/><path class="cls-3" d="M373.61,193.77a6.52,6.52,0,0,0-.35-3.54,3.74,3.74,0,0,0-2.83-2.42,3.87,3.87,0,0,0-3.72,1.77,3.06,3.06,0,0,0-1.58-.57H365a3.26,3.26,0,0,0-2.67,1.56,2.53,2.53,0,0,0-.81-.2h-.15a3.13,3.13,0,0,0-2.77,1.94,2.92,2.92,0,0,0-2.42,2.34,2.53,2.53,0,0,0-.82.64,3.38,3.38,0,0,0-.75,2.43,3.43,3.43,0,0,0,.65,1.8c-2.34,4,.37,10.15,2,14a10.47,10.47,0,0,1,.81,4c.12,4.28,2.4,6.83,6.09,6.83a9,9,0,0,0,1.94-.21,5.75,5.75,0,0,0,4.7-4.2c1.19-4-1.85-7.69-3-9.07a4,4,0,0,0-.26-.31,3.1,3.1,0,0,1,.39-3.81c.29-.29.63-.58,1-.89,1.62-1.36,4.07-3.43,3.48-6.79a4.09,4.09,0,0,0-.68-1.62A6.29,6.29,0,0,0,373.61,193.77ZM365,191c.8.05,1.38,1.12,1.3,2.42s-.77,2.29-1.56,2.25-1.39-1.13-1.32-2.41S364.22,191,365,191Zm-3.65,1.36c.64,0,1.13.91,1.07,2s-.63,1.86-1.27,1.83-1.13-.91-1.07-2S360.73,192.33,361.38,192.37Zm-2.56,1.91c.47,0,.9.57,1,1.34s-.29,1.42-.77,1.46-.9-.57-1-1.34S358.33,194.31,358.82,194.28Zm-1.63,2.12c.39,0,.73.46.77,1.07s-.23,1.14-.62,1.17-.72-.45-.76-1.07S356.81,196.42,357.19,196.4Zm9.31,8.95a5,5,0,0,0-.57,6.37c.56.79,4,4.23,3,7.63a3.82,3.82,0,0,1-3.19,2.82c-5,1.05-5.57-2.95-5.62-4.72a12.57,12.57,0,0,0-1-4.81c-1.69-3.83-4.23-9.81-1.74-12.71,3.7-4.26,12.48-4,13.07-.52C370.94,202.26,367.94,203.87,366.5,205.35Zm5.14-11.9c-.31,1.84-1.47,3.19-2.6,3s-1.82-1.82-1.53-3.66,1.47-3.19,2.6-3S371.93,191.61,371.64,193.45Z"/><path class="cls-3" d="M365.93,211.72c.56.79,4,4.23,3,7.63a3.82,3.82,0,0,1-3.19,2.82c-5,1.05-5.57-2.95-5.62-4.72a12.57,12.57,0,0,0-1-4.81c-1.69-3.83-4.23-9.81-1.74-12.71,3.7-4.26,12.48-4,13.07-.52.51,2.85-2.49,4.46-3.93,5.94A5,5,0,0,0,365.93,211.72Z"/><text class="cls-4" transform="translate(347.53 160.22)">Unified</text><text class="cls-5" transform="translate(207.15 210.83)">Punch</text><path class="cls-3" d="M338.52,253.68a3.59,3.59,0,0,0,.28-3.68,2.59,2.59,0,0,0-1.2-1.16,2.91,2.91,0,0,0-2.41-2.37,3.16,3.16,0,0,0-2.78-1.94h-.15a2.46,2.46,0,0,0-.81.19,3.24,3.24,0,0,0-2.67-1.55h-.17a3,3,0,0,0-1.56.57,3.93,3.93,0,0,0-3.73-1.77c-2.3.37-3.67,2.93-3.18,6A6.26,6.26,0,0,0,322,251.6a3.93,3.93,0,0,0-.68,1.63c-.59,3.35,1.86,5.42,3.48,6.79a9.93,9.93,0,0,1,1,.89,3.07,3.07,0,0,1,.39,3.79,2.4,2.4,0,0,1-.26.33c-1.14,1.38-4.19,5.06-3,9.06a5.79,5.79,0,0,0,4.7,4.21,9.85,9.85,0,0,0,2,.21c3.68,0,5.95-2.55,6.08-6.85a10.19,10.19,0,0,1,.81-4.05C338.15,263.82,340.86,257.67,338.52,253.68Zm-2.73-2.05c0-.62.39-1.09.77-1.06s.66.55.62,1.17-.4,1.09-.78,1.06S335.74,252.26,335.79,251.63ZM334,249.78c.06-.77.49-1.37,1-1.34s.82.69.76,1.47-.49,1.37-1,1.34S333.92,250.56,334,249.78Zm-1.6-3.25c.65,0,1.22.79,1.28,1.83s-.42,1.93-1.08,2-1.21-.79-1.27-1.84S331.73,246.56,332.37,246.53Zm-3.64-1.36c.8,0,1.5,1,1.57,2.26s-.53,2.37-1.32,2.41-1.5-1-1.57-2.25S327.93,245.22,328.73,245.17Zm-6.61,2.45c-.3-1.84.38-3.49,1.52-3.67s2.3,1.16,2.6,3-.39,3.49-1.53,3.67S322.41,249.46,322.12,247.62Zm12.54,19.19a12.13,12.13,0,0,0-1,4.8c-.05,1.77-.59,5.77-5.62,4.73a3.84,3.84,0,0,1-3.19-2.82c-1-3.4,2.4-6.85,3-7.63a5.08,5.08,0,0,0-.58-6.38c-1.44-1.48-4.44-3.08-3.94-5.94.6-3.44,9.38-3.73,13.07.53C338.88,257,336.34,263,334.66,266.81Z"/><path class="cls-3" d="M334.66,266.81a12.13,12.13,0,0,0-1,4.8c-.05,1.77-.59,5.77-5.62,4.73a3.84,3.84,0,0,1-3.19-2.82c-1-3.4,2.4-6.85,3-7.63a5.08,5.08,0,0,0-.58-6.38c-1.44-1.48-4.44-3.08-3.94-5.94.6-3.44,9.38-3.73,13.07.53C338.88,257,336.34,263,334.66,266.81Z"/><path d="M314.66,242a3.89,3.89,0,0,0-3.72,1.78,2.92,2.92,0,0,0-1.57-.58h-.16a3.24,3.24,0,0,0-2.67,1.56,2.8,2.8,0,0,0-.82-.19h-.15a3.15,3.15,0,0,0-2.77,1.95,2.89,2.89,0,0,0-2.41,2.34,2.54,2.54,0,0,0-.83.64,3.35,3.35,0,0,0-.75,2.42,3.55,3.55,0,0,0,.65,1.81c-2.33,4,.37,10.14,2,13.95a10.24,10.24,0,0,1,.81,4c.13,4.28,2.4,6.84,6.09,6.84a9.18,9.18,0,0,0,2-.22,5.78,5.78,0,0,0,4.7-4.2c1.19-4-1.85-7.68-3-9.06l-.26-.32a3.09,3.09,0,0,1,.39-3.81c.28-.28.62-.57,1-.88,1.62-1.37,4.06-3.44,3.48-6.79a4.13,4.13,0,0,0-.68-1.63,6.34,6.34,0,0,0,1.88-3.67,6.52,6.52,0,0,0-.36-3.54,3.74,3.74,0,0,0-2.83-2.42Zm-5.4,3.2c.8.05,1.38,1.13,1.31,2.42s-.77,2.3-1.56,2.26-1.39-1.13-1.32-2.42.77-2.3,1.57-2.26Zm-3.65,1.36c.65,0,1.13.91,1.07,2s-.62,1.86-1.27,1.83-1.13-.91-1.07-2,.63-1.87,1.27-1.83Zm-2.56,1.91c.48,0,.91.57,1,1.35s-.3,1.42-.77,1.46-.91-.57-1-1.34.29-1.43.77-1.47Zm-1.63,2.12c.39,0,.74.46.78,1.07s-.23,1.14-.62,1.17-.72-.45-.76-1.07.23-1.14.6-1.17Zm9.32,9a5,5,0,0,0-.58,6.36c.57.79,4,4.24,3,7.64a3.82,3.82,0,0,1-3.18,2.82c-5,1.05-5.57-2.95-5.63-4.73a12.24,12.24,0,0,0-1-4.81c-1.68-3.82-4.23-9.81-1.73-12.7,3.69-4.26,12.48-4,13.07-.53.5,2.86-2.5,4.46-3.93,5.95Zm5.13-11.91c-.3,1.84-1.46,3.19-2.6,3s-1.82-1.83-1.52-3.67,1.46-3.19,2.59-3,1.82,1.82,1.53,3.66Zm0,0"/><path class="cls-3" d="M390.67,253.67A3.59,3.59,0,0,0,391,250a2.63,2.63,0,0,0-1.2-1.16,2.89,2.89,0,0,0-2.41-2.37,3.16,3.16,0,0,0-2.78-1.94h-.15a2.52,2.52,0,0,0-.82.19,3.24,3.24,0,0,0-2.67-1.55h-.16a3,3,0,0,0-1.56.57,3.94,3.94,0,0,0-3.73-1.77c-2.3.37-3.67,2.93-3.19,6a6.33,6.33,0,0,0,1.89,3.67,3.93,3.93,0,0,0-.68,1.63c-.59,3.35,1.86,5.42,3.48,6.79a12.82,12.82,0,0,1,1,.89,3.06,3.06,0,0,1,.38,3.79,2,2,0,0,1-.25.33c-1.14,1.38-4.19,5.06-3,9.05a5.79,5.79,0,0,0,4.71,4.21,9.11,9.11,0,0,0,1.95.22c3.69,0,6-2.55,6.08-6.85a10.36,10.36,0,0,1,.82-4C390.3,263.81,393,257.66,390.67,253.67Zm-2.73-2c0-.62.39-1.09.77-1.06s.65.55.61,1.17-.39,1.09-.77,1.06S387.89,252.25,387.94,251.62Zm-1.82-1.85c.06-.77.49-1.37,1-1.34s.82.69.76,1.47-.49,1.37-1,1.34S386.07,250.55,386.12,249.77Zm-1.6-3.25c.65,0,1.22.79,1.27,1.83s-.42,1.92-1.07,2-1.21-.79-1.27-1.84S383.88,246.55,384.52,246.52Zm-3.64-1.36c.79,0,1.5,1,1.56,2.26s-.52,2.37-1.32,2.41-1.49-1-1.56-2.25S380.08,245.21,380.88,245.16Zm-6.61,2.45c-.3-1.84.38-3.49,1.52-3.67s2.3,1.16,2.6,3-.39,3.49-1.53,3.66S374.56,249.45,374.27,247.61Zm12.54,19.19a12.32,12.32,0,0,0-1,4.8c0,1.77-.58,5.77-5.61,4.73a3.84,3.84,0,0,1-3.19-2.82c-1-3.4,2.39-6.85,3-7.63a5.09,5.09,0,0,0-.58-6.38c-1.44-1.48-4.44-3.08-3.94-5.94.6-3.44,9.38-3.73,13.07.53C391,257,388.48,263,386.81,266.8Z"/><path class="cls-3" d="M386.81,266.8a12.32,12.32,0,0,0-1,4.8c0,1.77-.58,5.77-5.61,4.73a3.84,3.84,0,0,1-3.19-2.82c-1-3.4,2.39-6.85,3-7.63a5.09,5.09,0,0,0-.58-6.38c-1.44-1.48-4.44-3.08-3.94-5.94.6-3.44,9.38-3.73,13.07.53C391,257,388.48,263,386.81,266.8Z"/><path class="cls-3" d="M370,247.92a6.43,6.43,0,0,0-.35-3.54,3.76,3.76,0,0,0-2.83-2.42,3.89,3.89,0,0,0-3.72,1.77,3.12,3.12,0,0,0-1.58-.57h-.16a3.21,3.21,0,0,0-2.66,1.55,2.88,2.88,0,0,0-.82-.19h-.15a3.14,3.14,0,0,0-2.77,2,2.88,2.88,0,0,0-2.41,2.34,2.44,2.44,0,0,0-.83.64,3.34,3.34,0,0,0-.75,2.42,3.52,3.52,0,0,0,.65,1.81c-2.33,4,.37,10.14,2,14a10.42,10.42,0,0,1,.81,4c.13,4.28,2.4,6.84,6.09,6.84a9.11,9.11,0,0,0,1.95-.22,5.74,5.74,0,0,0,4.69-4.2c1.19-4-1.85-7.68-3-9.06l-.27-.32a3.1,3.1,0,0,1,.4-3.8,13,13,0,0,1,1-.89c1.61-1.37,4.06-3.44,3.48-6.8a4.3,4.3,0,0,0-.68-1.62A6.28,6.28,0,0,0,370,247.92Zm-8.58-2.76c.8.05,1.38,1.13,1.31,2.42s-.77,2.3-1.56,2.25-1.39-1.12-1.33-2.41S360.6,245.12,361.41,245.16Zm-3.65,1.36c.64,0,1.13.91,1.07,2s-.63,1.86-1.27,1.83-1.13-.91-1.07-2S357.12,246.48,357.76,246.52Zm-2.56,1.91c.47,0,.91.57,1,1.34s-.29,1.43-.77,1.47-.9-.57-1-1.34S354.72,248.47,355.2,248.43Zm-1.63,2.12c.39,0,.73.46.78,1.07s-.24,1.14-.62,1.17-.73-.45-.77-1.07S353.2,250.58,353.57,250.55Zm9.31,9a5.06,5.06,0,0,0-.57,6.37c.56.78,4,4.23,3,7.62a3.81,3.81,0,0,1-3.19,2.82c-5,1.06-5.57-2.95-5.62-4.72a12.42,12.42,0,0,0-1-4.81c-1.69-3.82-4.23-9.81-1.73-12.7,3.69-4.26,12.47-4,13.07-.53C367.32,256.42,364.32,258,362.88,259.51Zm5.14-11.9c-.3,1.83-1.47,3.18-2.6,3s-1.82-1.82-1.53-3.66,1.47-3.19,2.6-3S368.31,245.76,368,247.61Z"/><path class="cls-3" d="M362.31,265.88c.56.78,4,4.23,3,7.62a3.81,3.81,0,0,1-3.19,2.82c-5,1.06-5.57-2.95-5.62-4.72a12.42,12.42,0,0,0-1-4.81c-1.69-3.82-4.23-9.81-1.73-12.7,3.69-4.26,12.47-4,13.07-.53.5,2.86-2.5,4.46-3.94,5.95A5.06,5.06,0,0,0,362.31,265.88Z"/><text class="cls-5" transform="translate(206.93 263.58) scale(1.22 1)">Pop</text><path d="M338.48,299.53a3.36,3.36,0,0,0,.63-1.8,3.6,3.6,0,0,0-.39-1.88,2.61,2.61,0,0,0-1.21-1.14,2.93,2.93,0,0,0-2.44-2.35,3.15,3.15,0,0,0-2.8-1.91h-.14a2.52,2.52,0,0,0-.82.19,3.22,3.22,0,0,0-2.68-1.52h-.17a3,3,0,0,0-1.55.59,3.93,3.93,0,0,0-3.75-1.73c-2.3.39-3.64,3-3.12,6a6.27,6.27,0,0,0,1.92,3.65,3.94,3.94,0,0,0-.66,1.64c-.56,3.35,1.92,5.4,3.55,6.75a9.94,9.94,0,0,1,1,.88,3.06,3.06,0,0,1,.42,3.79,2.21,2.21,0,0,1-.25.32c-1.13,1.4-4.14,5.11-2.91,9.09a5.77,5.77,0,0,0,4.75,4.16,9.71,9.71,0,0,0,1.95.2c3.69,0,5.93-2.62,6-6.91a10.36,10.36,0,0,1,.77-4.07C338.22,309.68,340.86,303.51,338.48,299.53Zm-2.75-2c0-.62.38-1.1.76-1.07s.66.54.63,1.16-.39,1.1-.77,1.07S335.69,298.15,335.73,297.52Zm-1.84-1.83c.05-.77.47-1.38,1-1.35s.82.68.77,1.45-.47,1.38-.94,1.36S333.85,296.47,333.89,295.69Zm-1.63-3.24c.65,0,1.23.78,1.29,1.82s-.4,1.93-1.05,2-1.22-.78-1.29-1.83S331.61,292.49,332.26,292.45Zm-3.66-1.32c.8-.05,1.51,1,1.59,2.24s-.5,2.38-1.29,2.43-1.51-.95-1.59-2.24S327.8,291.18,328.6,291.13ZM322,293.64c-.32-1.83.34-3.49,1.48-3.68s2.31,1.14,2.63,3-.35,3.5-1.49,3.69S322.33,295.49,322,293.64Zm12.73,19.06a12.58,12.58,0,0,0-.94,4.82c0,1.77-.52,5.77-5.57,4.79a3.85,3.85,0,0,1-3.21-2.79c-1-3.39,2.32-6.88,2.88-7.67a5.07,5.07,0,0,0-.64-6.37c-1.45-1.46-4.47-3-4-5.9.57-3.44,9.34-3.82,13.08.4C338.88,302.84,336.39,308.86,334.75,312.7Z"/><path class="cls-3" d="M317.36,290.47a3.75,3.75,0,0,0-2.86-2.39,3.88,3.88,0,0,0-3.7,1.81,3,3,0,0,0-1.58-.56h-.16a3.23,3.23,0,0,0-2.65,1.58,3.15,3.15,0,0,0-.82-.18h-.15a3.13,3.13,0,0,0-2.75,2,2.92,2.92,0,0,0-2.39,2.37,2.84,2.84,0,0,0-.83.65,3.4,3.4,0,0,0-.71,2.44,3.52,3.52,0,0,0,.66,1.79c-2.28,4,.48,10.14,2.19,13.93a10.33,10.33,0,0,1,.85,4c.17,4.28,2.48,6.81,6.16,6.78a9.79,9.79,0,0,0,1.94-.24,5.74,5.74,0,0,0,4.66-4.25c1.15-4-1.93-7.66-3.1-9a4,4,0,0,0-.26-.31,3.11,3.11,0,0,1,.35-3.82c.28-.28.62-.57,1-.89,1.6-1.39,4-3.48,3.4-6.83a4,4,0,0,0-.69-1.62,6.31,6.31,0,0,0,1.84-3.68A6.61,6.61,0,0,0,317.36,290.47Zm-8.23.87c.8,0,1.4,1.11,1.34,2.4s-.75,2.3-1.54,2.27-1.4-1.12-1.35-2.4S308.33,291.3,309.13,291.34Zm-3.63,1.39c.65,0,1.14.91,1.09,1.95s-.61,1.87-1.25,1.84-1.14-.9-1.09-1.95S304.85,292.7,305.5,292.73ZM303,294.67c.48,0,.91.55,1,1.33s-.28,1.43-.76,1.47-.91-.55-1-1.33S302.47,294.71,303,294.67Zm-1.61,2.14c.39,0,.74.44.79,1.06s-.22,1.14-.61,1.17-.73-.44-.77-1.06S301,296.84,301.35,296.81Zm9.41,8.85a5.06,5.06,0,0,0-.51,6.38c.57.78,4,4.18,3,7.6a3.82,3.82,0,0,1-3.15,2.85c-5,1.1-5.61-2.89-5.68-4.67a12.34,12.34,0,0,0-1-4.79c-1.73-3.81-4.33-9.77-1.86-12.69,3.65-4.3,12.43-4.09,13.06-.67C315.17,302.53,312.18,304.16,310.76,305.66Zm5-12c-.28,1.85-1.43,3.21-2.57,3s-1.84-1.8-1.56-3.65,1.43-3.2,2.56-3S316.05,291.87,315.77,293.7Z"/><path class="cls-3" d="M310.25,312c.57.78,4,4.18,3,7.6a3.82,3.82,0,0,1-3.15,2.85c-5,1.1-5.61-2.89-5.68-4.67a12.34,12.34,0,0,0-1-4.79c-1.73-3.81-4.33-9.77-1.86-12.69,3.65-4.3,12.43-4.09,13.06-.67.54,2.86-2.45,4.49-3.87,6A5.06,5.06,0,0,0,310.25,312Z"/><path class="cls-3" d="M390.67,299.75a3.43,3.43,0,0,0,.65-1.8,3.51,3.51,0,0,0-.37-1.88,2.66,2.66,0,0,0-1.2-1.15,2.92,2.92,0,0,0-2.41-2.38,3.16,3.16,0,0,0-2.78-1.94h-.15a2.52,2.52,0,0,0-.82.19,3.25,3.25,0,0,0-2.67-1.56h-.16a3,3,0,0,0-1.56.57,3.94,3.94,0,0,0-3.73-1.77c-2.3.37-3.67,2.93-3.19,6a6.33,6.33,0,0,0,1.89,3.67,3.88,3.88,0,0,0-.68,1.63c-.59,3.35,1.86,5.42,3.48,6.79a12.79,12.79,0,0,1,1,.88,3.07,3.07,0,0,1,.38,3.8,1.66,1.66,0,0,1-.25.32c-1.14,1.39-4.19,5.07-3,9.06a5.8,5.8,0,0,0,4.71,4.21,9.07,9.07,0,0,0,1.95.21c3.69,0,6-2.55,6.08-6.84a10.45,10.45,0,0,1,.82-4.06C390.3,309.9,393,303.75,390.67,299.75Zm-2.73-2c0-.62.39-1.09.77-1.07s.65.55.61,1.17-.39,1.1-.77,1.07S387.89,298.34,387.94,297.71Zm-1.82-1.85c.06-.77.49-1.37,1-1.34s.82.69.76,1.46-.49,1.38-1,1.34S386.07,296.64,386.12,295.86Zm-1.6-3.25c.65,0,1.22.79,1.27,1.83s-.42,1.92-1.07,2-1.21-.79-1.27-1.83S383.88,292.64,384.52,292.61Zm-3.64-1.36c.79,0,1.5,1,1.56,2.26s-.52,2.37-1.32,2.4-1.49-1-1.56-2.24S380.08,291.29,380.88,291.25Zm-6.61,2.44c-.3-1.83.38-3.48,1.52-3.66s2.3,1.16,2.6,3-.39,3.48-1.53,3.66S374.56,295.54,374.27,293.69Zm12.54,19.19a12.37,12.37,0,0,0-1,4.81c0,1.77-.58,5.77-5.61,4.73A3.86,3.86,0,0,1,377,319.6c-1-3.41,2.39-6.85,3-7.64a5.08,5.08,0,0,0-.58-6.37c-1.44-1.48-4.44-3.08-3.94-5.95.6-3.43,9.38-3.73,13.07.53C391,303.06,388.48,309.06,386.81,312.88Z"/><path class="cls-3" d="M386.81,312.88a12.37,12.37,0,0,0-1,4.81c0,1.77-.58,5.77-5.61,4.73A3.86,3.86,0,0,1,377,319.6c-1-3.41,2.39-6.85,3-7.64a5.08,5.08,0,0,0-.58-6.37c-1.44-1.48-4.44-3.08-3.94-5.95.6-3.43,9.38-3.73,13.07.53C391,303.06,388.48,309.06,386.81,312.88Z"/><path class="cls-3" d="M370,294a6.43,6.43,0,0,0-.35-3.54,3.72,3.72,0,0,0-2.83-2.42,3.87,3.87,0,0,0-3.72,1.77,3,3,0,0,0-1.58-.57h-.16a3.23,3.23,0,0,0-2.66,1.56,2.59,2.59,0,0,0-.82-.2h-.15a3.13,3.13,0,0,0-2.77,1.94,2.91,2.91,0,0,0-2.41,2.34,2.57,2.57,0,0,0-.83.64A3.38,3.38,0,0,0,351,298a3.52,3.52,0,0,0,.65,1.8c-2.33,4,.37,10.15,2,13.95a10.47,10.47,0,0,1,.81,4.05c.13,4.28,2.4,6.83,6.09,6.83a9.07,9.07,0,0,0,1.95-.21,5.75,5.75,0,0,0,4.69-4.2c1.19-4-1.85-7.68-3-9.07l-.27-.31a3.11,3.11,0,0,1,.4-3.81,11.17,11.17,0,0,1,1-.88c1.61-1.37,4.06-3.44,3.48-6.8a4.24,4.24,0,0,0-.68-1.62A6.28,6.28,0,0,0,370,294Zm-8.58-2.76c.8.05,1.38,1.12,1.31,2.42s-.77,2.29-1.56,2.25-1.39-1.13-1.33-2.41S360.6,291.2,361.41,291.25Zm-3.65,1.36c.64,0,1.13.91,1.07,2s-.63,1.86-1.27,1.83-1.13-.91-1.07-2S357.12,292.57,357.76,292.61Zm-2.56,1.91c.47,0,.91.57,1,1.34s-.29,1.42-.77,1.46-.9-.57-1-1.34S354.72,294.55,355.2,294.52Zm-1.63,2.12c.39,0,.73.46.78,1.07s-.24,1.14-.62,1.17-.73-.45-.77-1.07S353.2,296.66,353.57,296.64Zm9.31,8.95a5.06,5.06,0,0,0-.57,6.37c.56.79,4,4.23,3,7.63a3.82,3.82,0,0,1-3.19,2.82c-5,1-5.57-3-5.62-4.72a12.38,12.38,0,0,0-1-4.81c-1.69-3.83-4.23-9.81-1.73-12.71,3.69-4.26,12.47-3.95,13.07-.52C367.32,302.5,364.32,304.11,362.88,305.59Zm5.14-11.9c-.3,1.84-1.47,3.19-2.6,3s-1.82-1.82-1.53-3.66,1.47-3.19,2.6-3S368.31,291.85,368,293.69Z"/><path class="cls-3" d="M362.31,312c.56.79,4,4.23,3,7.63a3.82,3.82,0,0,1-3.19,2.82c-5,1-5.57-3-5.62-4.72a12.38,12.38,0,0,0-1-4.81c-1.69-3.83-4.23-9.81-1.73-12.71,3.69-4.26,12.47-3.95,13.07-.52.5,2.85-2.5,4.46-3.94,5.94A5.06,5.06,0,0,0,362.31,312Z"/><text class="cls-5" transform="translate(206.93 309.31) scale(1.22 1)">Pop</text><text class="cls-5" transform="translate(175.34 506.8) scale(1.22 1)">Bound<tspan x="0" y="17.36">(</tspan><tspan class="cls-6" x="4.28" y="17.36">T</tspan><tspan x="11.53" y="17.36">wo Feet)</tspan></text><text class="cls-5" transform="translate(175.34 682.91) scale(1.22 1)">Bound<tspan x="0" y="17.36">(Right Foot)</tspan></text><text class="cls-5" transform="translate(175.34 874.56) scale(1.22 1)">Bound<tspan x="0" y="17.36">(Left Foot)</tspan></text><path class="cls-3" d="M444.25,191.39a3.62,3.62,0,0,0-2.75-2.31,3.74,3.74,0,0,0-3.57,1.75,2.83,2.83,0,0,0-1.53-.54h-.14a3.08,3.08,0,0,0-2.56,1.52,3,3,0,0,0-.79-.18h-.15a3,3,0,0,0-2.65,1.9,2.79,2.79,0,0,0-2.3,2.28,2.65,2.65,0,0,0-.8.63,3.25,3.25,0,0,0-.69,2.35,3.4,3.4,0,0,0,.64,1.72c-2.2,3.87.46,9.78,2.12,13.43a10,10,0,0,1,.81,3.89c.17,4.12,2.39,6.56,5.93,6.53a9.93,9.93,0,0,0,1.88-.23,5.55,5.55,0,0,0,4.49-4.1c1.11-3.87-1.86-7.38-3-8.7L439,211a3,3,0,0,1,.34-3.67c.27-.28.6-.56.95-.86,1.54-1.34,3.88-3.35,3.28-6.58a3.88,3.88,0,0,0-.67-1.56,6.14,6.14,0,0,0,1.78-3.55A6.33,6.33,0,0,0,444.25,191.39Zm-7.93.83c.77,0,1.35,1.07,1.29,2.32s-.72,2.22-1.49,2.18-1.34-1.07-1.29-2.31S435.55,192.18,436.32,192.22Zm-3.5,1.35c.62,0,1.1.87,1.06,1.87s-.59,1.81-1.22,1.78-1.09-.87-1.05-1.88S432.2,193.54,432.82,193.57Zm-2.45,1.87c.46,0,.88.53.95,1.28s-.28,1.37-.73,1.42-.88-.54-.95-1.29S429.9,195.47,430.37,195.44Zm-1.55,2.05c.37,0,.71.43.76,1s-.21,1.1-.58,1.13-.71-.43-.75-1S428.46,197.53,428.82,197.49Zm9.07,8.54a4.86,4.86,0,0,0-.49,6.14c.55.76,3.87,4,2.93,7.33a3.69,3.69,0,0,1-3,2.75c-4.85,1.06-5.4-2.79-5.47-4.5a12,12,0,0,0-1-4.62c-1.67-3.67-4.18-9.42-1.8-12.23,3.52-4.14,12-3.94,12.59-.64C442.14,203,439.26,204.58,437.89,206Zm4.83-11.53c-.27,1.79-1.38,3.09-2.47,2.93s-1.78-1.74-1.52-3.52,1.38-3.09,2.48-2.92S443,192.73,442.72,194.5Z"/><path class="cls-3" d="M464.65,199.86a3.47,3.47,0,0,0,.26-3.55,2.49,2.49,0,0,0-1.15-1.12,2.8,2.8,0,0,0-2.33-2.28,3,3,0,0,0-2.68-1.87h-.13a2.6,2.6,0,0,0-.79.18,3.14,3.14,0,0,0-2.58-1.49h-.15a2.89,2.89,0,0,0-1.51.55,3.8,3.8,0,0,0-3.59-1.71c-2.22.36-3.54,2.83-3.07,5.75a6.08,6.08,0,0,0,1.81,3.53,4,4,0,0,0-.65,1.57c-.57,3.23,1.79,5.23,3.35,6.55.35.3.69.57,1,.85a3,3,0,0,1,.37,3.66,2.24,2.24,0,0,1-.25.31c-1.1,1.34-4,4.88-2.89,8.74a5.56,5.56,0,0,0,4.53,4.05,9.09,9.09,0,0,0,1.88.21c3.56,0,5.74-2.46,5.86-6.6a10.08,10.08,0,0,1,.79-3.91C464.29,209.63,466.9,203.71,464.65,199.86Zm-2.63-2c0-.6.37-1.06.74-1s.63.53.59,1.13-.38,1-.75,1S462,198.49,462,197.89Zm-1.76-1.79c.06-.74.47-1.32.93-1.29s.79.66.74,1.41-.47,1.33-.93,1.29S460.21,196.85,460.26,196.1ZM458.72,193c.62,0,1.18.76,1.23,1.76s-.41,1.86-1,1.9-1.16-.77-1.22-1.77S458.1,193,458.72,193Zm-3.51-1.31c.77,0,1.44.94,1.51,2.18s-.5,2.28-1.27,2.32-1.44-.93-1.51-2.17S454.44,191.7,455.21,191.66ZM448.84,194c-.29-1.77.37-3.36,1.47-3.53s2.21,1.12,2.5,2.89-.37,3.36-1.47,3.54S449.12,195.79,448.84,194Zm12.08,18.5a11.84,11.84,0,0,0-.95,4.63c-.05,1.71-.57,5.56-5.42,4.56a3.7,3.7,0,0,1-3.07-2.72c-1-3.28,2.31-6.6,2.86-7.36a4.87,4.87,0,0,0-.56-6.14c-1.38-1.43-4.27-3-3.8-5.73.59-3.31,9-3.59,12.61.51C465,203,462.54,208.83,460.92,212.51Z"/><path class="cls-3" d="M444.25,245.74a3.64,3.64,0,0,0-2.75-2.31,3.76,3.76,0,0,0-3.57,1.75,2.91,2.91,0,0,0-1.53-.54h-.14a3.11,3.11,0,0,0-2.56,1.53,2.67,2.67,0,0,0-.79-.18h-.15a3,3,0,0,0-2.65,1.89,18.7,18.7,0,0,1-3.1,2.91,3.26,3.26,0,0,0-.69,2.35,3.4,3.4,0,0,0,.64,1.72c-2.2,3.88.46,9.78,2.12,13.43a10.06,10.06,0,0,1,.81,3.89c.17,4.12,2.39,6.56,5.93,6.53a10.76,10.76,0,0,0,1.88-.22,5.55,5.55,0,0,0,4.49-4.1c1.11-3.87-1.86-7.39-3-8.71l-.26-.3a3,3,0,0,1,.34-3.67c.27-.28.6-.56.95-.87,1.54-1.33,3.88-3.35,3.28-6.58a3.88,3.88,0,0,0-.67-1.56,6.14,6.14,0,0,0,1.78-3.55A6.33,6.33,0,0,0,444.25,245.74Zm-7.93.84c.77,0,1.35,1.06,1.29,2.31s-.72,2.22-1.49,2.19-1.34-1.08-1.29-2.32S435.55,246.54,436.32,246.58Zm-3.5,1.34c.62,0,1.1.87,1.06,1.88s-.59,1.8-1.22,1.78-1.09-.87-1.05-1.89S432.2,247.89,432.82,247.92Zm-2.45,1.87c.46,0,.88.53.95,1.28s-.28,1.37-.73,1.42-.88-.54-.95-1.29S429.9,249.83,430.37,249.79Zm-1.55,2.06c.37,0,.71.43.76,1s-.21,1.1-.58,1.12-.71-.42-.75-1S428.46,251.88,428.82,251.85Zm9.07,8.53a4.88,4.88,0,0,0-.49,6.15c.55.75,3.87,4,2.93,7.32a3.69,3.69,0,0,1-3,2.75c-4.85,1.06-5.4-2.79-5.47-4.5a12,12,0,0,0-1-4.62c-1.67-3.67-4.18-9.41-1.8-12.22,3.52-4.15,12-3.95,12.59-.65C442.14,257.36,439.26,258.93,437.89,260.38Zm4.83-11.52c-.27,1.78-1.38,3.09-2.47,2.92s-1.78-1.74-1.52-3.52,1.38-3.08,2.48-2.92S443,247.09,442.72,248.86Z"/><path class="cls-3" d="M464.65,254.21a3.31,3.31,0,0,0,.62-1.74,3.35,3.35,0,0,0-.36-1.81,2.47,2.47,0,0,0-1.15-1.11,2.81,2.81,0,0,0-2.33-2.29,3,3,0,0,0-2.68-1.87h-.13a2.34,2.34,0,0,0-.79.18,3.12,3.12,0,0,0-2.58-1.5h-.15a2.8,2.8,0,0,0-1.51.55,3.76,3.76,0,0,0-3.59-1.71c-2.22.35-3.54,2.82-3.07,5.74a6.11,6.11,0,0,0,1.81,3.54,4,4,0,0,0-.65,1.57c-.57,3.23,1.79,5.22,3.35,6.54a12,12,0,0,1,1,.86,3,3,0,0,1,.37,3.66,2.24,2.24,0,0,1-.25.31c-1.1,1.33-4,4.88-2.89,8.73a5.57,5.57,0,0,0,4.53,4.06,9.05,9.05,0,0,0,1.88.2c3.56,0,5.74-2.46,5.86-6.59a10.14,10.14,0,0,1,.79-3.92C464.29,264,466.9,258.06,464.65,254.21Zm-2.63-2c0-.6.37-1.05.74-1s.63.53.59,1.13-.38,1-.75,1S462,252.84,462,252.24Zm-1.76-1.78c.06-.75.47-1.32.93-1.3s.79.67.74,1.42-.47,1.32-.93,1.29S460.21,251.21,460.26,250.46Zm-1.54-3.14c.62,0,1.18.76,1.23,1.76s-.41,1.86-1,1.9-1.16-.76-1.22-1.77S458.1,247.35,458.72,247.32Zm-3.51-1.3c.77,0,1.44.93,1.51,2.17s-.5,2.29-1.27,2.32-1.44-.93-1.51-2.17S454.44,246.06,455.21,246Zm-6.37,2.35c-.29-1.77.37-3.36,1.47-3.53s2.21,1.12,2.5,2.89-.37,3.36-1.47,3.53S449.12,250.15,448.84,248.37Zm12.08,18.5a11.79,11.79,0,0,0-.95,4.62c-.05,1.71-.57,5.57-5.42,4.56a3.7,3.7,0,0,1-3.07-2.71c-1-3.29,2.31-6.61,2.86-7.36a4.88,4.88,0,0,0-.56-6.15c-1.38-1.42-4.27-3-3.8-5.73.59-3.3,9-3.59,12.61.51C465,257.4,462.54,263.18,460.92,266.87Z"/><path class="cls-3" d="M444.25,291.3A3.64,3.64,0,0,0,441.5,289a3.75,3.75,0,0,0-3.57,1.76,2.84,2.84,0,0,0-1.53-.55h-.14a3.11,3.11,0,0,0-2.56,1.53,2.67,2.67,0,0,0-.79-.18h-.15a3,3,0,0,0-2.65,1.89,18.7,18.7,0,0,1-3.1,2.91,3.26,3.26,0,0,0-.69,2.35,3.4,3.4,0,0,0,.64,1.72c-2.2,3.88.46,9.78,2.12,13.43a10.06,10.06,0,0,1,.81,3.89c.17,4.12,2.39,6.56,5.93,6.53a9.88,9.88,0,0,0,1.88-.22,5.55,5.55,0,0,0,4.49-4.1c1.11-3.87-1.86-7.39-3-8.71l-.26-.3a3,3,0,0,1,.34-3.67c.27-.28.6-.56.95-.87,1.54-1.33,3.88-3.35,3.28-6.58a3.88,3.88,0,0,0-.67-1.56,6.14,6.14,0,0,0,1.78-3.55A6.33,6.33,0,0,0,444.25,291.3Zm-7.93.84c.77,0,1.35,1.06,1.29,2.31s-.72,2.22-1.49,2.19-1.34-1.08-1.29-2.31S435.55,292.1,436.32,292.14Zm-3.5,1.34c.62,0,1.1.87,1.06,1.88s-.59,1.8-1.22,1.78-1.09-.87-1.05-1.89S432.2,293.45,432.82,293.48Zm-2.45,1.87c.46,0,.88.53.95,1.28s-.28,1.37-.73,1.42-.88-.54-.95-1.29S429.9,295.39,430.37,295.35Zm-1.55,2.06c.37,0,.71.43.76,1s-.21,1.1-.58,1.12-.71-.42-.75-1S428.46,297.44,428.82,297.41Zm9.07,8.53a4.88,4.88,0,0,0-.49,6.15c.55.75,3.87,4,2.93,7.32a3.69,3.69,0,0,1-3,2.75c-4.85,1.06-5.4-2.79-5.47-4.5a12,12,0,0,0-1-4.62c-1.67-3.67-4.18-9.41-1.8-12.22,3.52-4.15,12-3.95,12.59-.65C442.14,302.92,439.26,304.5,437.89,305.94Zm4.83-11.52c-.27,1.78-1.38,3.09-2.47,2.92s-1.78-1.74-1.52-3.52,1.38-3.08,2.48-2.92S443,292.65,442.72,294.42Z"/><path class="cls-3" d="M464.65,299.77a3.31,3.31,0,0,0,.62-1.74,3.35,3.35,0,0,0-.36-1.81,2.47,2.47,0,0,0-1.15-1.11,2.81,2.81,0,0,0-2.33-2.29,3,3,0,0,0-2.68-1.87h-.13a2.6,2.6,0,0,0-.79.18,3.12,3.12,0,0,0-2.58-1.5h-.15a2.8,2.8,0,0,0-1.51.55,3.76,3.76,0,0,0-3.59-1.71c-2.22.35-3.54,2.82-3.07,5.74a6.11,6.11,0,0,0,1.81,3.54,4,4,0,0,0-.65,1.57c-.57,3.23,1.79,5.22,3.35,6.54a12,12,0,0,1,1,.86,3,3,0,0,1,.37,3.66,2.24,2.24,0,0,1-.25.31c-1.1,1.33-4,4.88-2.89,8.73a5.57,5.57,0,0,0,4.53,4.06,9.05,9.05,0,0,0,1.88.2c3.56,0,5.74-2.46,5.86-6.59a10.14,10.14,0,0,1,.79-3.92C464.29,309.55,466.9,303.62,464.65,299.77Zm-2.63-2c0-.6.37-1.05.74-1s.63.53.59,1.13-.38,1.05-.75,1S462,298.4,462,297.8ZM460.26,296c.06-.75.47-1.32.93-1.3s.79.67.74,1.42-.47,1.32-.93,1.29S460.21,296.77,460.26,296Zm-1.54-3.14c.62,0,1.18.76,1.23,1.76s-.41,1.86-1,1.9-1.16-.76-1.22-1.77S458.1,292.91,458.72,292.88Zm-3.51-1.3c.77,0,1.44.93,1.51,2.17s-.5,2.29-1.27,2.32-1.44-.93-1.51-2.17S454.44,291.62,455.21,291.58Zm-6.37,2.35c-.29-1.77.37-3.36,1.47-3.53s2.21,1.12,2.5,2.89-.37,3.36-1.47,3.53S449.12,295.71,448.84,293.93Zm12.08,18.5a11.79,11.79,0,0,0-.95,4.62c-.05,1.71-.57,5.57-5.42,4.56a3.7,3.7,0,0,1-3.07-2.71c-1-3.29,2.31-6.61,2.86-7.36a4.88,4.88,0,0,0-.56-6.15c-1.38-1.42-4.27-3-3.8-5.73.59-3.3,9-3.59,12.61.51C465,303,462.54,308.74,460.92,312.43Z"/><line class="cls-7" x1="340.98" y1="218.66" x2="351.15" y2="218.66"/><polygon class="cls-3" points="350.28 221.65 355.46 218.66 350.28 215.67 350.28 221.65"/><path class="cls-3" d="M337.67,494.18a3.46,3.46,0,0,0,.65-1.8,3.51,3.51,0,0,0-.37-1.88,2.61,2.61,0,0,0-1.2-1.15,2.92,2.92,0,0,0-2.41-2.38,3.16,3.16,0,0,0-2.78-1.94h-.15a2.52,2.52,0,0,0-.81.19,3.25,3.25,0,0,0-2.67-1.56h-.17a3,3,0,0,0-1.56.57,3.94,3.94,0,0,0-3.73-1.78c-2.3.38-3.67,2.94-3.18,6a6.26,6.26,0,0,0,1.88,3.67,3.88,3.88,0,0,0-.68,1.63c-.59,3.35,1.86,5.42,3.48,6.78a11.35,11.35,0,0,1,1,.89,3.09,3.09,0,0,1,.39,3.8,3.35,3.35,0,0,1-.26.32c-1.14,1.38-4.19,5.06-3,9.06a5.79,5.79,0,0,0,4.7,4.21,9.16,9.16,0,0,0,2,.21c3.68,0,5.95-2.55,6.08-6.84a10.28,10.28,0,0,1,.81-4.06C337.3,504.33,340,498.18,337.67,494.18Zm-2.73-2c0-.62.39-1.09.77-1.07s.66.55.62,1.17-.4,1.1-.78,1.07S334.89,492.77,334.94,492.14Zm-1.82-1.85c.06-.77.49-1.37,1-1.34s.82.69.76,1.46-.49,1.38-1,1.34S333.07,491.07,333.12,490.29Zm-1.6-3.25c.65,0,1.22.79,1.28,1.83s-.42,1.92-1.08,2-1.21-.79-1.27-1.83S330.88,487.07,331.52,487Zm-3.64-1.36c.8,0,1.5,1,1.57,2.26s-.53,2.37-1.32,2.4-1.5-1-1.57-2.25S327.08,485.72,327.88,485.68Zm-6.61,2.44c-.3-1.83.38-3.49,1.53-3.66s2.29,1.16,2.59,3-.39,3.48-1.53,3.66S321.56,490,321.27,488.12Zm12.54,19.19a12.17,12.17,0,0,0-1,4.8c-.05,1.78-.59,5.78-5.62,4.74A3.86,3.86,0,0,1,324,514c-1-3.41,2.4-6.85,3-7.64a5.06,5.06,0,0,0-.58-6.37c-1.44-1.48-4.44-3.08-3.94-5.95.6-3.43,9.38-3.73,13.07.53C338,497.49,335.49,503.49,333.81,507.31Z"/><path class="cls-3" d="M333.81,507.31a12.17,12.17,0,0,0-1,4.8c-.05,1.78-.59,5.78-5.62,4.74A3.86,3.86,0,0,1,324,514c-1-3.41,2.4-6.85,3-7.64a5.06,5.06,0,0,0-.58-6.37c-1.44-1.48-4.44-3.08-3.94-5.95.6-3.43,9.38-3.73,13.07.53C338,497.49,335.49,503.49,333.81,507.31Z"/><path class="cls-3" d="M317,488.44a6.62,6.62,0,0,0-.35-3.54,3.78,3.78,0,0,0-2.84-2.43,3.9,3.9,0,0,0-3.72,1.78,3,3,0,0,0-1.58-.57h-.15a3.23,3.23,0,0,0-2.67,1.56,2.53,2.53,0,0,0-.81-.2h-.16A3.13,3.13,0,0,0,302,487a2.91,2.91,0,0,0-2.41,2.34,2.68,2.68,0,0,0-.83.64,3.42,3.42,0,0,0-.75,2.43,3.52,3.52,0,0,0,.65,1.8c-2.33,4,.37,10.15,2,13.95a10.29,10.29,0,0,1,.81,4c.13,4.28,2.41,6.83,6.09,6.83a9.07,9.07,0,0,0,1.95-.21,5.78,5.78,0,0,0,4.7-4.2c1.19-4-1.85-7.69-3-9.07l-.26-.31a3.1,3.1,0,0,1,.39-3.81,13,13,0,0,1,1-.89c1.62-1.36,4.06-3.43,3.48-6.79a4.09,4.09,0,0,0-.68-1.62A6.29,6.29,0,0,0,317,488.44Zm-8.59-2.76c.8.05,1.38,1.12,1.31,2.41s-.77,2.3-1.56,2.26-1.39-1.13-1.32-2.41S307.61,485.63,308.41,485.68ZM304.77,487c.64,0,1.12.91,1.06,2s-.62,1.86-1.27,1.83-1.13-.91-1.07-2S304.12,487,304.77,487ZM302.2,489c.48,0,.91.57,1,1.34s-.29,1.42-.77,1.46-.9-.57-1-1.34S301.72,489,302.2,489Zm-1.62,2.12c.38,0,.73.46.77,1.07s-.24,1.14-.62,1.17-.72-.46-.77-1.07S300.2,491.09,300.58,491.07Zm9.3,8.95a5.06,5.06,0,0,0-.57,6.37c.57.79,4,4.23,3,7.63a3.81,3.81,0,0,1-3.18,2.82c-5,1-5.58-3-5.62-4.73a12.57,12.57,0,0,0-1-4.8c-1.68-3.83-4.23-9.81-1.73-12.71,3.69-4.26,12.48-4,13.07-.52C314.32,496.93,311.32,498.54,309.88,500Zm5.14-11.9c-.3,1.84-1.46,3.19-2.6,3s-1.81-1.82-1.53-3.66,1.47-3.19,2.61-3S315.31,486.28,315,488.12Z"/><path class="cls-3" d="M309.31,506.39c.57.79,4,4.23,3,7.63a3.81,3.81,0,0,1-3.18,2.82c-5,1-5.58-3-5.62-4.73a12.57,12.57,0,0,0-1-4.8c-1.68-3.83-4.23-9.81-1.73-12.71,3.69-4.26,12.48-4,13.07-.52.5,2.85-2.5,4.46-3.94,5.94A5.06,5.06,0,0,0,309.31,506.39Z"/><path class="cls-3" d="M389.82,494.18a3.46,3.46,0,0,0,.65-1.8,3.62,3.62,0,0,0-.38-1.88,2.59,2.59,0,0,0-1.19-1.15,2.94,2.94,0,0,0-2.42-2.38A3.15,3.15,0,0,0,383.7,485h-.14a2.52,2.52,0,0,0-.82.19,3.25,3.25,0,0,0-2.67-1.56h-.16a3,3,0,0,0-1.56.57,4,4,0,0,0-3.73-1.78c-2.31.38-3.68,2.94-3.19,6a6.33,6.33,0,0,0,1.89,3.67,3.88,3.88,0,0,0-.68,1.63c-.6,3.35,1.86,5.42,3.48,6.78.36.31.71.6,1,.89a3.08,3.08,0,0,1,.38,3.8,2.94,2.94,0,0,1-.25.32c-1.14,1.38-4.19,5.06-3,9.06a5.8,5.8,0,0,0,4.71,4.21,9.07,9.07,0,0,0,1.95.21c3.69,0,6-2.55,6.08-6.84a10.46,10.46,0,0,1,.81-4.06C389.45,504.33,392.15,498.18,389.82,494.18Zm-2.73-2c0-.62.38-1.09.77-1.07s.65.55.61,1.17-.39,1.1-.78,1.07S387,492.77,387.09,492.14Zm-1.82-1.85c.06-.77.48-1.37,1-1.34s.81.69.76,1.46-.49,1.38-1,1.34S385.22,491.07,385.27,490.29Zm-1.6-3.25c.65,0,1.22.79,1.27,1.83s-.42,1.92-1.07,2-1.21-.79-1.27-1.83S383,487.07,383.67,487ZM380,485.68c.8,0,1.5,1,1.57,2.26s-.52,2.37-1.32,2.4-1.49-1-1.56-2.25S379.23,485.72,380,485.68Zm-6.61,2.44c-.29-1.83.39-3.49,1.53-3.66s2.3,1.16,2.59,3-.38,3.48-1.52,3.66S373.71,490,373.41,488.12ZM386,507.31a12.53,12.53,0,0,0-1,4.8c0,1.78-.58,5.78-5.62,4.74a3.85,3.85,0,0,1-3.18-2.82c-1-3.41,2.39-6.85,3-7.64a5.06,5.06,0,0,0-.57-6.37c-1.44-1.48-4.44-3.08-3.95-5.95.61-3.43,9.39-3.73,13.08.53C390.18,497.49,387.63,503.49,386,507.31Z"/><path class="cls-3" d="M386,507.31a12.53,12.53,0,0,0-1,4.8c0,1.78-.58,5.78-5.62,4.74a3.85,3.85,0,0,1-3.18-2.82c-1-3.41,2.39-6.85,3-7.64a5.06,5.06,0,0,0-.57-6.37c-1.44-1.48-4.44-3.08-3.95-5.95.61-3.43,9.39-3.73,13.08.53C390.18,497.49,387.63,503.49,386,507.31Z"/><path class="cls-3" d="M369.14,488.44a6.52,6.52,0,0,0-.35-3.54,3.77,3.77,0,0,0-2.83-2.43,3.9,3.9,0,0,0-3.72,1.78,3.06,3.06,0,0,0-1.58-.57h-.16a3.26,3.26,0,0,0-2.67,1.56,2.53,2.53,0,0,0-.81-.2h-.15A3.13,3.13,0,0,0,354.1,487a2.92,2.92,0,0,0-2.42,2.34,2.53,2.53,0,0,0-.82.64,3.38,3.38,0,0,0-.75,2.43,3.43,3.43,0,0,0,.65,1.8c-2.34,4,.37,10.15,2,13.95a10.47,10.47,0,0,1,.81,4c.12,4.28,2.4,6.83,6.09,6.83a9,9,0,0,0,1.94-.21,5.75,5.75,0,0,0,4.7-4.2c1.19-4-1.85-7.69-3-9.07a4,4,0,0,0-.26-.31,3.1,3.1,0,0,1,.39-3.81c.29-.29.63-.58,1-.89,1.62-1.36,4.07-3.43,3.49-6.79a4.26,4.26,0,0,0-.69-1.62A6.29,6.29,0,0,0,369.14,488.44Zm-8.58-2.76c.8.05,1.38,1.12,1.3,2.41s-.77,2.3-1.56,2.26-1.39-1.13-1.32-2.41S359.75,485.63,360.56,485.68ZM356.91,487c.64,0,1.13.91,1.07,2s-.63,1.86-1.27,1.83-1.13-.91-1.07-2S356.27,487,356.91,487ZM354.35,489c.47,0,.9.57,1,1.34s-.29,1.42-.77,1.46-.9-.57-1-1.34S353.86,489,354.35,489Zm-1.63,2.12c.39,0,.73.46.77,1.07s-.23,1.14-.62,1.17-.72-.46-.76-1.07S352.34,491.09,352.72,491.07ZM362,500a5,5,0,0,0-.57,6.37c.56.79,4,4.23,3,7.63a3.82,3.82,0,0,1-3.19,2.82c-5,1-5.57-3-5.62-4.73a12.56,12.56,0,0,0-1-4.8c-1.69-3.83-4.23-9.81-1.74-12.71,3.7-4.26,12.48-4,13.07-.52C366.47,496.93,363.47,498.54,362,500Zm5.14-11.9c-.3,1.84-1.47,3.19-2.6,3s-1.82-1.82-1.53-3.66,1.47-3.19,2.6-3S367.46,486.28,367.17,488.12Z"/><path class="cls-3" d="M361.46,506.39c.56.79,4,4.23,3,7.63a3.82,3.82,0,0,1-3.19,2.82c-5,1-5.57-3-5.62-4.73a12.56,12.56,0,0,0-1-4.8c-1.69-3.83-4.23-9.81-1.74-12.71,3.7-4.26,12.48-4,13.07-.52.51,2.85-2.49,4.46-3.93,5.94A5,5,0,0,0,361.46,506.39Z"/><line class="cls-7" x1="336.51" y1="513.33" x2="346.68" y2="513.33"/><polygon class="cls-3" points="345.81 516.32 350.99 513.33 345.81 510.34 345.81 516.32"/><line class="cls-7" x1="470.24" y1="220.47" x2="480.42" y2="220.47"/><polygon class="cls-3" points="479.54 223.46 484.73 220.47 479.54 217.48 479.54 223.46"/><path class="cls-3" d="M595.71,493.42a3.46,3.46,0,0,0,.65-1.8,3.51,3.51,0,0,0-.37-1.88,2.61,2.61,0,0,0-1.2-1.15,2.92,2.92,0,0,0-2.41-2.38,3.16,3.16,0,0,0-2.78-1.94h-.15a2.52,2.52,0,0,0-.81.19,3.25,3.25,0,0,0-2.67-1.56h-.17a3,3,0,0,0-1.56.57,3.94,3.94,0,0,0-3.73-1.78c-2.3.38-3.67,2.93-3.18,6a6.2,6.2,0,0,0,1.88,3.66,4.13,4.13,0,0,0-.68,1.63c-.59,3.35,1.87,5.43,3.48,6.79a11.35,11.35,0,0,1,1,.89,3.09,3.09,0,0,1,.39,3.8,3.35,3.35,0,0,1-.26.32c-1.14,1.38-4.19,5.06-3,9.06a5.79,5.79,0,0,0,4.7,4.21,9.85,9.85,0,0,0,2,.21c3.68,0,6-2.55,6.08-6.84a10.28,10.28,0,0,1,.81-4.06C595.34,503.57,598.05,497.42,595.71,493.42Zm-2.73-2c0-.62.39-1.09.77-1.07s.66.55.62,1.17-.4,1.1-.78,1.07S592.93,492,593,491.38Zm-1.82-1.85c.06-.77.49-1.37,1-1.34s.82.69.76,1.46-.48,1.38-1,1.34S591.11,490.31,591.16,489.53Zm-1.6-3.26c.65,0,1.22.8,1.28,1.83s-.42,1.93-1.08,2-1.21-.79-1.27-1.83S588.92,486.31,589.56,486.27Zm-3.64-1.35c.8,0,1.5,1,1.57,2.26s-.53,2.37-1.32,2.4-1.5-1-1.57-2.25S585.12,485,585.92,484.92Zm-6.61,2.44c-.3-1.83.38-3.49,1.53-3.66s2.29,1.16,2.59,3-.39,3.49-1.53,3.67S579.6,489.21,579.31,487.36Zm12.54,19.19a12.17,12.17,0,0,0-1,4.8c-.05,1.78-.59,5.78-5.62,4.74a3.86,3.86,0,0,1-3.19-2.82c-1-3.41,2.4-6.85,3-7.64a5.08,5.08,0,0,0-.58-6.38c-1.44-1.47-4.44-3.07-3.94-5.94.6-3.43,9.38-3.73,13.07.53C596.07,496.73,593.53,502.73,591.85,506.55Z"/><path class="cls-3" d="M575,487.68a6.62,6.62,0,0,0-.35-3.54,3.78,3.78,0,0,0-2.84-2.43,3.9,3.9,0,0,0-3.72,1.78,3,3,0,0,0-1.57-.57h-.16a3.23,3.23,0,0,0-2.67,1.56,2.53,2.53,0,0,0-.81-.2h-.15a3.15,3.15,0,0,0-2.78,1.94,2.91,2.91,0,0,0-2.41,2.34,2.68,2.68,0,0,0-.83.64,3.42,3.42,0,0,0-.75,2.43,3.52,3.52,0,0,0,.65,1.8c-2.33,4,.37,10.15,2,13.95a10.11,10.11,0,0,1,.81,4.05c.13,4.27,2.41,6.83,6.09,6.83a9.75,9.75,0,0,0,1.95-.21,5.78,5.78,0,0,0,4.7-4.2c1.19-4-1.85-7.69-3-9.07l-.26-.31a3.1,3.1,0,0,1,.39-3.81,13,13,0,0,1,1-.89c1.62-1.36,4.06-3.44,3.48-6.79a4.19,4.19,0,0,0-.68-1.63A6.23,6.23,0,0,0,575,487.68Zm-8.59-2.76c.8.05,1.38,1.12,1.31,2.41s-.77,2.3-1.56,2.26-1.39-1.13-1.32-2.41S565.65,484.87,566.45,484.92Zm-3.64,1.35c.64,0,1.12.92,1.06,2s-.62,1.86-1.27,1.83-1.13-.91-1.07-2S562.16,486.24,562.81,486.27Zm-2.57,1.92c.48,0,.91.57,1,1.34s-.29,1.42-.77,1.46-.9-.57-1-1.34S559.76,488.22,560.24,488.19Zm-1.62,2.12c.38,0,.73.46.77,1.07s-.24,1.14-.62,1.17-.72-.46-.76-1.07S558.24,490.33,558.62,490.31Zm9.3,8.95a5.06,5.06,0,0,0-.57,6.37c.57.79,4,4.23,3,7.63a3.8,3.8,0,0,1-3.18,2.82c-5,1-5.58-3-5.62-4.73a12.57,12.57,0,0,0-1-4.8c-1.68-3.83-4.23-9.81-1.73-12.71,3.69-4.26,12.48-3.95,13.07-.52C572.36,496.17,569.36,497.78,567.92,499.26Zm5.14-11.9c-.3,1.84-1.46,3.19-2.6,3s-1.81-1.82-1.52-3.67,1.46-3.18,2.6-3S573.35,485.52,573.06,487.36Z"/><rect class="cls-1" x="541.32" y="620.99" width="67.46" height="156.66" rx="12"/><path class="cls-3" d="M594.59,695.46a3.54,3.54,0,0,0,.64-1.8,3.5,3.5,0,0,0-.37-1.88,2.64,2.64,0,0,0-1.2-1.16,2.92,2.92,0,0,0-2.41-2.37,3.16,3.16,0,0,0-2.78-1.94h-.14a2.79,2.79,0,0,0-.82.18,3.24,3.24,0,0,0-2.67-1.55h-.17a2.94,2.94,0,0,0-1.56.57,3.94,3.94,0,0,0-3.73-1.78c-2.3.37-3.67,2.93-3.18,6a6.26,6.26,0,0,0,1.88,3.66,4.28,4.28,0,0,0-.68,1.63c-.59,3.35,1.87,5.42,3.48,6.79a9.93,9.93,0,0,1,1,.89,3.07,3.07,0,0,1,.39,3.8,3.35,3.35,0,0,1-.26.32c-1.14,1.38-4.19,5.06-3,9.06a5.79,5.79,0,0,0,4.7,4.21,9.85,9.85,0,0,0,2,.21c3.68,0,6-2.55,6.08-6.84a10.38,10.38,0,0,1,.81-4.06C594.21,705.61,596.92,699.46,594.59,695.46Zm-2.74-2c0-.62.39-1.1.77-1.07s.66.55.62,1.17-.4,1.09-.78,1.07S591.81,694,591.85,693.42ZM590,691.57c.06-.77.49-1.37,1-1.34s.82.68.76,1.46-.48,1.38-1,1.34S590,692.34,590,691.57Zm-1.59-3.26c.64,0,1.21.79,1.27,1.83s-.42,1.93-1.07,2-1.22-.79-1.28-1.84S587.79,688.35,588.44,688.31ZM584.79,687c.8,0,1.5,1,1.57,2.25s-.52,2.38-1.32,2.41-1.5-1-1.56-2.25S584,687,584.79,687Zm-6.61,2.44c-.3-1.84.38-3.49,1.53-3.67s2.29,1.17,2.59,3-.39,3.49-1.53,3.67S578.48,691.24,578.18,689.4Zm12.54,19.19a12.17,12.17,0,0,0-1,4.8c-.05,1.78-.59,5.77-5.62,4.73a3.85,3.85,0,0,1-3.19-2.82c-1-3.4,2.4-6.85,3-7.63a5.07,5.07,0,0,0-.58-6.38c-1.44-1.48-4.44-3.07-3.94-5.94.6-3.43,9.38-3.73,13.08.53C594.94,698.77,592.4,704.77,590.72,708.59Z"/><path class="cls-3" d="M573.91,689.72a6.65,6.65,0,0,0-.35-3.55,3.79,3.79,0,0,0-2.84-2.42,3.91,3.91,0,0,0-3.72,1.78,2.91,2.91,0,0,0-1.57-.57h-.16a3.27,3.27,0,0,0-2.67,1.55,2.81,2.81,0,0,0-.81-.19h-.15a3.16,3.16,0,0,0-2.78,2,2.91,2.91,0,0,0-2.41,2.34,2.54,2.54,0,0,0-.83.64,3.42,3.42,0,0,0-.75,2.43,3.52,3.52,0,0,0,.65,1.8c-2.33,4,.37,10.15,2,13.95a10.23,10.23,0,0,1,.82,4c.12,4.28,2.4,6.84,6.08,6.84a9.75,9.75,0,0,0,1.95-.21,5.77,5.77,0,0,0,4.7-4.2c1.19-4-1.85-7.69-3-9.07l-.26-.32a3.08,3.08,0,0,1,.39-3.8c.28-.29.63-.58,1-.89,1.62-1.37,4.07-3.44,3.48-6.79a4.13,4.13,0,0,0-.68-1.63A6.26,6.26,0,0,0,573.91,689.72ZM565.32,687c.8,0,1.39,1.12,1.31,2.41s-.77,2.3-1.56,2.26-1.39-1.13-1.32-2.42S564.52,686.91,565.32,687Zm-3.64,1.35c.64,0,1.13.92,1.06,2s-.62,1.87-1.27,1.83-1.13-.9-1.06-2S561,688.28,561.68,688.31Zm-2.57,1.92c.48,0,.91.57,1,1.34s-.28,1.42-.77,1.46-.9-.57-1-1.34S558.63,690.26,559.11,690.23Zm-1.62,2.11c.38,0,.73.46.77,1.08s-.23,1.14-.62,1.17-.72-.46-.76-1.08S557.11,692.37,557.49,692.34Zm9.31,9a5.06,5.06,0,0,0-.58,6.37c.57.78,4,4.23,3,7.63a3.8,3.8,0,0,1-3.18,2.82c-5,1-5.57-3-5.62-4.73a12.62,12.62,0,0,0-1-4.81c-1.68-3.82-4.23-9.8-1.73-12.7,3.69-4.26,12.48-4,13.07-.52C571.23,698.21,568.23,699.81,566.8,701.3Zm5.13-11.9c-.3,1.84-1.46,3.18-2.6,3s-1.81-1.82-1.52-3.67,1.46-3.18,2.6-3S572.22,687.56,571.93,689.4Z"/><rect class="cls-1" x="541.83" y="799.17" width="67.46" height="157.46" rx="12"/><path class="cls-3" d="M595.09,871.36a3.54,3.54,0,0,0,.64-1.81,3.46,3.46,0,0,0-.37-1.87,2.54,2.54,0,0,0-1.2-1.16,2.89,2.89,0,0,0-2.41-2.37,3.15,3.15,0,0,0-2.78-1.94h-.14a2.52,2.52,0,0,0-.82.19,3.25,3.25,0,0,0-2.67-1.56h-.17a3.11,3.11,0,0,0-1.56.57,3.93,3.93,0,0,0-3.73-1.77c-2.3.37-3.67,2.93-3.18,6a6.37,6.37,0,0,0,1.88,3.67,4.22,4.22,0,0,0-.68,1.63c-.59,3.35,1.87,5.42,3.48,6.79a11.34,11.34,0,0,1,1,.88,3.07,3.07,0,0,1,.39,3.8c0,.08-.14.19-.25.33-1.15,1.38-4.19,5.06-3,9a5.76,5.76,0,0,0,4.7,4.21,9.2,9.2,0,0,0,2,.22c3.68,0,6-2.55,6.08-6.85a10.46,10.46,0,0,1,.81-4.06C594.71,881.5,597.42,875.35,595.09,871.36Zm-2.73-2.05c0-.62.38-1.09.77-1.06s.65.55.61,1.17-.39,1.09-.78,1.06S592.31,869.94,592.36,869.31Zm-1.83-1.85c.06-.77.49-1.37,1-1.34s.82.69.77,1.47-.49,1.37-1,1.34S590.48,868.24,590.53,867.46Zm-1.59-3.25c.64,0,1.21.79,1.27,1.83s-.42,1.92-1.07,2-1.21-.8-1.28-1.84S588.29,864.24,588.94,864.21Zm-3.65-1.36c.8,0,1.5,1,1.57,2.26s-.52,2.37-1.32,2.41-1.49-1-1.56-2.25S584.49,862.89,585.29,862.85Zm-6.61,2.45c-.3-1.84.39-3.49,1.53-3.67s2.3,1.16,2.59,3-.38,3.49-1.53,3.66S579,867.14,578.68,865.3Zm12.54,19.19a12.31,12.31,0,0,0-1,4.8c-.05,1.77-.58,5.77-5.62,4.73a3.82,3.82,0,0,1-3.18-2.82c-1-3.4,2.39-6.85,3-7.63a5.06,5.06,0,0,0-.58-6.38c-1.44-1.48-4.43-3.08-3.94-5.94.61-3.44,9.38-3.73,13.08.53C595.44,874.66,592.9,880.66,591.22,884.49Z"/><path class="cls-3" d="M574.41,865.61a6.52,6.52,0,0,0-.35-3.54,3.75,3.75,0,0,0-2.84-2.42,3.91,3.91,0,0,0-3.72,1.77,3.08,3.08,0,0,0-1.57-.57h-.16a3.26,3.26,0,0,0-2.67,1.56,2.81,2.81,0,0,0-.81-.19h-.15a3.13,3.13,0,0,0-2.77,1.95,2.89,2.89,0,0,0-2.42,2.34,2.41,2.41,0,0,0-.82.64,3.3,3.3,0,0,0-.75,2.42,3.45,3.45,0,0,0,.64,1.81c-2.33,4,.37,10.14,2.05,13.95a10.42,10.42,0,0,1,.81,4c.12,4.28,2.4,6.84,6.08,6.84a9.11,9.11,0,0,0,1.95-.22,5.75,5.75,0,0,0,4.7-4.2c1.19-4-1.85-7.68-3-9.06l-.26-.32a3.1,3.1,0,0,1,.39-3.81c.28-.28.63-.57,1-.88,1.62-1.37,4.07-3.44,3.48-6.8a4.15,4.15,0,0,0-.68-1.62A6.29,6.29,0,0,0,574.41,865.61Zm-8.59-2.76c.8,0,1.39,1.12,1.31,2.42s-.77,2.3-1.56,2.25-1.39-1.12-1.32-2.41S565,862.81,565.82,862.85Zm-3.64,1.36c.64,0,1.13.91,1.06,2S562.62,868,562,868s-1.13-.91-1.06-2S561.53,864.17,562.18,864.21Zm-2.57,1.91c.48,0,.91.57,1,1.34s-.29,1.43-.77,1.47-.91-.57-1-1.34S559.13,866.16,559.61,866.12ZM558,868.24c.38,0,.73.46.77,1.07s-.23,1.14-.62,1.17-.72-.45-.76-1.07S557.61,868.27,558,868.24Zm9.31,9a5,5,0,0,0-.57,6.37c.56.78,4,4.23,2.95,7.62A3.78,3.78,0,0,1,566.5,894c-5,1.06-5.57-3-5.62-4.72a12.43,12.43,0,0,0-1-4.81c-1.68-3.82-4.23-9.81-1.73-12.7,3.7-4.26,12.48-4,13.07-.53C571.73,874.11,568.73,875.71,567.3,877.2Zm5.13-11.9c-.3,1.83-1.46,3.18-2.6,3s-1.81-1.82-1.52-3.66,1.46-3.19,2.6-3S572.72,863.45,572.43,865.3Z"/><line class="cls-7" x1="597.92" y1="509.27" x2="608.1" y2="509.27"/><polygon class="cls-3" points="607.23 512.26 612.41 509.27 607.23 506.28 607.23 512.26"/><line class="cls-7" x1="337.36" y1="272.81" x2="347.54" y2="272.81"/><polygon class="cls-3" points="346.66 275.8 351.84 272.81 346.66 269.82 346.66 275.8"/><line class="cls-7" x1="337.36" y1="318.9" x2="347.54" y2="318.9"/><polygon class="cls-3" points="346.66 321.89 351.84 318.9 346.66 315.91 346.66 321.89"/><path class="cls-3" d="M334.05,692.05a3.59,3.59,0,0,0,.28-3.68,2.59,2.59,0,0,0-1.2-1.16,2.89,2.89,0,0,0-2.41-2.37,3.16,3.16,0,0,0-2.78-1.94h-.15a2.52,2.52,0,0,0-.81.19,3.25,3.25,0,0,0-2.67-1.56h-.17a3,3,0,0,0-1.56.57,3.93,3.93,0,0,0-3.73-1.77c-2.3.37-3.67,2.93-3.18,6a6.26,6.26,0,0,0,1.88,3.67,3.93,3.93,0,0,0-.68,1.63c-.59,3.35,1.87,5.42,3.48,6.79a11.34,11.34,0,0,1,1,.88,3.09,3.09,0,0,1,.39,3.8,3.21,3.21,0,0,1-.26.33c-1.14,1.38-4.19,5.06-3,9.05a5.76,5.76,0,0,0,4.7,4.21,9.2,9.2,0,0,0,2,.22c3.68,0,5.95-2.55,6.08-6.85A10.28,10.28,0,0,1,332,706C333.68,702.19,336.39,696,334.05,692.05Zm-2.73-2c0-.62.39-1.09.77-1.06s.66.55.62,1.17-.4,1.09-.78,1.06S331.27,690.63,331.32,690Zm-1.82-1.85c.06-.77.49-1.37,1-1.34s.82.69.76,1.47-.48,1.37-1,1.34S329.45,688.93,329.5,688.15Zm-1.6-3.25c.65,0,1.22.79,1.28,1.83s-.42,1.92-1.08,2-1.21-.8-1.27-1.84S327.26,684.93,327.9,684.9Zm-3.64-1.36c.8,0,1.5,1,1.57,2.26s-.53,2.37-1.32,2.41-1.5-1-1.57-2.25S323.46,683.58,324.26,683.54ZM317.65,686c-.3-1.84.38-3.49,1.53-3.67s2.29,1.16,2.59,3-.39,3.49-1.53,3.66S317.94,687.83,317.65,686Zm12.54,19.19a12.13,12.13,0,0,0-1,4.8c-.05,1.77-.59,5.77-5.62,4.73a3.84,3.84,0,0,1-3.19-2.82c-1-3.4,2.4-6.85,3-7.64a5.06,5.06,0,0,0-.58-6.37c-1.44-1.48-4.44-3.08-3.94-5.94.6-3.44,9.38-3.73,13.07.53C334.41,695.35,331.87,701.35,330.19,705.18Z"/><path class="cls-3" d="M330.19,705.18a12.13,12.13,0,0,0-1,4.8c-.05,1.77-.59,5.77-5.62,4.73a3.84,3.84,0,0,1-3.19-2.82c-1-3.4,2.4-6.85,3-7.64a5.06,5.06,0,0,0-.58-6.37c-1.44-1.48-4.44-3.08-3.94-5.94.6-3.44,9.38-3.73,13.07.53C334.41,695.35,331.87,701.35,330.19,705.18Z"/><path d="M310.19,680.34a3.9,3.9,0,0,0-3.72,1.77,3,3,0,0,0-1.57-.57h-.16a3.24,3.24,0,0,0-2.67,1.56,2.8,2.8,0,0,0-.82-.19h-.15a3.16,3.16,0,0,0-2.77,1.94,2.92,2.92,0,0,0-2.41,2.35,2.54,2.54,0,0,0-.83.64,3.3,3.3,0,0,0-.74,2.42A3.42,3.42,0,0,0,295,692c-2.33,4,.37,10.15,2,14a10.29,10.29,0,0,1,.81,4c.13,4.28,2.4,6.84,6.09,6.84a9.18,9.18,0,0,0,1.95-.22,5.77,5.77,0,0,0,4.7-4.2c1.19-4-1.85-7.68-3-9.06l-.26-.32a3.09,3.09,0,0,1,.39-3.81c.28-.28.62-.57,1-.88,1.62-1.37,4.06-3.44,3.48-6.8a4.15,4.15,0,0,0-.68-1.62,6.34,6.34,0,0,0,1.88-3.67,6.62,6.62,0,0,0-.35-3.54,3.77,3.77,0,0,0-2.84-2.42Zm-5.4,3.2c.8.05,1.38,1.12,1.31,2.42s-.77,2.29-1.56,2.25-1.39-1.12-1.32-2.41.77-2.3,1.57-2.26Zm-3.65,1.36c.65,0,1.13.91,1.07,2s-.62,1.86-1.27,1.83-1.13-.91-1.07-2,.63-1.87,1.27-1.83Zm-2.56,1.91c.48,0,.91.57,1,1.35s-.3,1.42-.77,1.46-.91-.57-1-1.35.29-1.43.77-1.46ZM297,688.93c.38,0,.73.46.77,1.07s-.23,1.14-.62,1.17-.72-.45-.76-1.07.23-1.14.61-1.17Zm9.31,9a5.05,5.05,0,0,0-.58,6.37c.57.79,4,4.24,3,7.64a3.81,3.81,0,0,1-3.18,2.81c-5,1.06-5.57-2.94-5.62-4.72a12.43,12.43,0,0,0-1-4.81c-1.68-3.82-4.23-9.81-1.73-12.7,3.69-4.26,12.48-4,13.07-.53.5,2.86-2.5,4.46-3.93,5.94ZM311.4,686c-.3,1.84-1.46,3.19-2.6,3s-1.82-1.82-1.52-3.66,1.46-3.19,2.59-3,1.82,1.82,1.53,3.66Zm0,0"/><path class="cls-3" d="M386.2,692a3.4,3.4,0,0,0,.65-1.8,3.51,3.51,0,0,0-.37-1.88,2.61,2.61,0,0,0-1.2-1.15,2.89,2.89,0,0,0-2.41-2.37,3.16,3.16,0,0,0-2.78-1.94h-.15a2.52,2.52,0,0,0-.82.19,3.25,3.25,0,0,0-2.67-1.56h-.16a3,3,0,0,0-1.56.57,3.94,3.94,0,0,0-3.73-1.77c-2.3.37-3.67,2.93-3.18,6A6.26,6.26,0,0,0,369.7,690a3.93,3.93,0,0,0-.68,1.63c-.59,3.35,1.86,5.42,3.48,6.79.36.31.71.59,1,.88a3.09,3.09,0,0,1,.39,3.8,2.43,2.43,0,0,1-.26.32c-1.14,1.39-4.19,5.07-3,9.06a5.8,5.8,0,0,0,4.71,4.21,9.11,9.11,0,0,0,1.95.22c3.69,0,6-2.56,6.08-6.85a10.45,10.45,0,0,1,.82-4.06C385.83,702.18,388.53,696,386.2,692Zm-2.73-2c0-.62.39-1.09.77-1.06s.65.55.61,1.17-.39,1.09-.77,1.06S383.42,690.62,383.47,690Zm-1.82-1.85c.06-.77.49-1.37,1-1.34s.82.69.76,1.47-.49,1.37-1,1.34S381.6,688.92,381.65,688.14Zm-1.6-3.25c.65,0,1.22.79,1.27,1.83s-.41,1.92-1.07,2-1.21-.79-1.27-1.83S379.41,684.92,380.05,684.89Zm-3.64-1.36c.79,0,1.5,1,1.56,2.26s-.52,2.37-1.32,2.41-1.49-1-1.56-2.25S375.61,683.57,376.41,683.53ZM369.8,686c-.3-1.83.38-3.48,1.52-3.66s2.3,1.16,2.6,3-.39,3.48-1.53,3.66S370.09,687.82,369.8,686Zm12.54,19.2a12.13,12.13,0,0,0-1,4.8c-.05,1.77-.59,5.77-5.62,4.73a3.84,3.84,0,0,1-3.19-2.82c-1-3.41,2.39-6.85,3-7.64a5.08,5.08,0,0,0-.58-6.37c-1.44-1.48-4.44-3.08-3.94-6,.6-3.43,9.38-3.72,13.07.53C386.56,695.34,384,701.34,382.34,705.17Z"/><path class="cls-3" d="M382.34,705.17a12.13,12.13,0,0,0-1,4.8c-.05,1.77-.59,5.77-5.62,4.73a3.84,3.84,0,0,1-3.19-2.82c-1-3.41,2.39-6.85,3-7.64a5.08,5.08,0,0,0-.58-6.37c-1.44-1.48-4.44-3.08-3.94-6,.6-3.43,9.38-3.72,13.07.53C386.56,695.34,384,701.34,382.34,705.17Z"/><path class="cls-3" d="M365.52,686.29a6.43,6.43,0,0,0-.35-3.54,3.74,3.74,0,0,0-2.83-2.42,3.89,3.89,0,0,0-3.72,1.77,3.12,3.12,0,0,0-1.58-.57h-.16a3.23,3.23,0,0,0-2.66,1.56,2.88,2.88,0,0,0-.82-.19h-.15a3.14,3.14,0,0,0-2.77,2,2.88,2.88,0,0,0-2.41,2.33,2.72,2.72,0,0,0-.83.64,3.38,3.38,0,0,0-.75,2.43,3.48,3.48,0,0,0,.65,1.8c-2.33,4,.37,10.15,2,14a10.51,10.51,0,0,1,.81,4c.13,4.28,2.4,6.84,6.09,6.84a9.11,9.11,0,0,0,1.95-.22,5.75,5.75,0,0,0,4.69-4.2c1.19-4-1.85-7.68-3-9.07l-.27-.31a3.12,3.12,0,0,1,.4-3.81c.28-.28.62-.57,1-.88,1.61-1.37,4.06-3.44,3.48-6.8a4.3,4.3,0,0,0-.68-1.62A6.22,6.22,0,0,0,365.52,686.29Zm-8.58-2.76c.8.05,1.38,1.12,1.31,2.42s-.77,2.29-1.56,2.25-1.39-1.12-1.33-2.41S356.14,683.48,356.94,683.53Zm-3.65,1.36c.64,0,1.13.91,1.07,2s-.63,1.86-1.27,1.83-1.13-.91-1.07-2S352.65,684.85,353.29,684.89Zm-2.56,1.91c.47,0,.91.57,1,1.34s-.29,1.43-.77,1.47-.9-.57-1-1.34S350.25,686.83,350.73,686.8Zm-1.62,2.12c.38,0,.72.46.77,1.07s-.24,1.14-.62,1.17-.73-.45-.77-1.07S348.73,689,349.11,688.92Zm9.3,9a5.06,5.06,0,0,0-.57,6.37c.57.79,4,4.23,3,7.63a3.81,3.81,0,0,1-3.19,2.82c-5,1.06-5.57-3-5.62-4.72a12.42,12.42,0,0,0-1-4.81c-1.68-3.83-4.23-9.81-1.73-12.71,3.69-4.25,12.47-4,13.07-.52C362.85,694.79,359.85,696.39,358.41,697.87Zm5.14-11.9c-.3,1.84-1.46,3.19-2.6,3s-1.82-1.82-1.53-3.66,1.47-3.19,2.6-3S363.84,684.13,363.55,686Z"/><path class="cls-3" d="M357.84,704.24c.57.79,4,4.23,3,7.63a3.81,3.81,0,0,1-3.19,2.82c-5,1.06-5.57-3-5.62-4.72a12.42,12.42,0,0,0-1-4.81c-1.68-3.83-4.23-9.81-1.73-12.71,3.69-4.25,12.47-4,13.07-.52.5,2.86-2.5,4.46-3.94,5.94A5.06,5.06,0,0,0,357.84,704.24Z"/><line class="cls-7" x1="332.89" y1="711.18" x2="343.07" y2="711.18"/><polygon class="cls-3" points="342.19 714.17 347.37 711.18 342.19 708.19 342.19 714.17"/><rect class="cls-2" x="285.62" y="797.44" width="118.96" height="158.13" rx="12"/><path d="M336,869.73a3.44,3.44,0,0,0,.62-1.81,3.38,3.38,0,0,0-.39-1.87,2.59,2.59,0,0,0-1.2-1.14,2.91,2.91,0,0,0-2.44-2.35,3.15,3.15,0,0,0-2.8-1.91h-.15a2.46,2.46,0,0,0-.81.19,3.27,3.27,0,0,0-2.69-1.53H326a3,3,0,0,0-1.56.59,3.94,3.94,0,0,0-3.75-1.74c-2.3.4-3.64,3-3.12,6a6.38,6.38,0,0,0,1.92,3.65,4.1,4.1,0,0,0-.66,1.63c-.56,3.36,1.92,5.4,3.55,6.76a11.35,11.35,0,0,1,1,.87,3.09,3.09,0,0,1,.43,3.8,3.35,3.35,0,0,1-.26.32c-1.12,1.4-4.13,5.11-2.91,9.09a5.78,5.78,0,0,0,4.75,4.16,9.8,9.8,0,0,0,2,.2c3.68,0,5.93-2.62,6-6.91a10.32,10.32,0,0,1,.77-4.07C335.76,879.88,338.4,873.7,336,869.73Zm-2.75-2c0-.62.37-1.1.75-1.08s.66.55.63,1.17-.38,1.09-.77,1.07S333.23,868.34,333.28,867.72Zm-1.85-1.83c.06-.77.48-1.38,1-1.36s.82.68.78,1.46-.48,1.38-.95,1.35S331.39,866.66,331.43,865.89Zm-1.63-3.24c.65,0,1.23.78,1.3,1.82s-.4,1.93-1.06,2-1.22-.77-1.29-1.82S329.16,862.69,329.8,862.65Zm-3.66-1.32c.8-.05,1.51,1,1.6,2.24s-.5,2.38-1.3,2.42-1.5-.94-1.58-2.23S325.35,861.38,326.14,861.33Zm-6.58,2.51c-.32-1.83.35-3.49,1.49-3.68s2.31,1.14,2.62,3-.35,3.49-1.49,3.68S319.87,865.68,319.56,863.84ZM332.3,882.9a12.2,12.2,0,0,0-.94,4.81c0,1.78-.53,5.78-5.57,4.79a3.84,3.84,0,0,1-3.22-2.78c-1-3.4,2.33-6.88,2.89-7.67a5.06,5.06,0,0,0-.65-6.37c-1.45-1.46-4.46-3-4-5.9.57-3.44,9.34-3.83,13.08.39C336.42,873,333.94,879.06,332.3,882.9Z"/><path class="cls-3" d="M314.9,860.67a3.74,3.74,0,0,0-2.85-2.39,3.88,3.88,0,0,0-3.71,1.81,2.9,2.9,0,0,0-1.58-.56h-.15a3.22,3.22,0,0,0-2.66,1.58,2.8,2.8,0,0,0-.82-.19H303a3.15,3.15,0,0,0-2.75,2,2.92,2.92,0,0,0-2.39,2.37,2.68,2.68,0,0,0-.82.65,3.39,3.39,0,0,0-.72,2.44,3.54,3.54,0,0,0,.66,1.78c-2.28,4,.48,10.15,2.2,13.93a10.43,10.43,0,0,1,.84,4c.18,4.28,2.48,6.81,6.16,6.78a9.88,9.88,0,0,0,1.95-.24,5.76,5.76,0,0,0,4.65-4.25c1.15-4-1.93-7.66-3.09-9l-.26-.32a3.08,3.08,0,0,1,.35-3.81c.27-.29.62-.57,1-.89,1.6-1.39,4-3.48,3.41-6.83a4.19,4.19,0,0,0-.7-1.62,6.25,6.25,0,0,0,1.84-3.69A6.57,6.57,0,0,0,314.9,860.67Zm-8.22.87c.79,0,1.39,1.1,1.33,2.4s-.74,2.3-1.54,2.27-1.4-1.12-1.34-2.4S305.88,861.49,306.68,861.54ZM303,862.93c.65,0,1.14.9,1.1,2s-.61,1.87-1.26,1.84-1.14-.9-1.09-2S302.4,862.9,303,862.93Zm-2.54,1.94c.48,0,.91.55,1,1.33s-.28,1.42-.75,1.47-.92-.56-1-1.33S300,864.91,300.5,864.87ZM298.9,867c.38,0,.73.45.78,1.07s-.22,1.14-.6,1.17-.73-.44-.78-1.06S298.52,867,298.9,867Zm9.4,8.86a5.06,5.06,0,0,0-.51,6.37c.58.79,4,4.19,3,7.6a3.83,3.83,0,0,1-3.16,2.86c-5,1.1-5.61-2.9-5.67-4.67a12.4,12.4,0,0,0-1-4.8c-1.72-3.8-4.33-9.76-1.86-12.68,3.65-4.3,12.44-4.09,13.06-.67C312.71,872.73,309.72,874.36,308.3,875.86Zm5-12c-.28,1.85-1.43,3.21-2.56,3s-1.85-1.81-1.57-3.66,1.43-3.2,2.57-3S313.59,862.07,313.31,863.9Z"/><path class="cls-3" d="M307.79,882.23c.58.79,4,4.19,3,7.6a3.83,3.83,0,0,1-3.16,2.86c-5,1.1-5.61-2.9-5.67-4.67a12.4,12.4,0,0,0-1-4.8c-1.72-3.8-4.33-9.76-1.86-12.68,3.65-4.3,12.44-4.09,13.06-.67.54,2.86-2.45,4.49-3.87,6A5.06,5.06,0,0,0,307.79,882.23Z"/><path class="cls-3" d="M388.21,870a3.46,3.46,0,0,0,.65-1.8,3.5,3.5,0,0,0-.37-1.88,2.61,2.61,0,0,0-1.2-1.15,2.92,2.92,0,0,0-2.41-2.38,3.16,3.16,0,0,0-2.78-1.94H382a2.79,2.79,0,0,0-.82.18,3.27,3.27,0,0,0-2.67-1.55h-.17a2.91,2.91,0,0,0-1.56.57,3.94,3.94,0,0,0-3.73-1.78c-2.3.37-3.67,2.93-3.18,6a6.26,6.26,0,0,0,1.88,3.66,4.28,4.28,0,0,0-.68,1.63c-.59,3.35,1.87,5.42,3.48,6.79a9.93,9.93,0,0,1,1,.89,3.07,3.07,0,0,1,.39,3.8,3.35,3.35,0,0,1-.26.32c-1.14,1.38-4.19,5.06-3,9.06a5.79,5.79,0,0,0,4.7,4.21,9.85,9.85,0,0,0,2,.21c3.68,0,5.95-2.55,6.08-6.84a10.42,10.42,0,0,1,.81-4.06C387.84,880.1,390.55,874,388.21,870Zm-2.73-2c0-.62.39-1.1.77-1.07s.66.55.62,1.17-.4,1.09-.78,1.07S385.44,868.53,385.48,867.91Zm-1.82-1.85c.06-.77.49-1.37,1-1.34s.82.68.76,1.46-.48,1.38-1,1.34S383.61,866.83,383.66,866.06Zm-1.59-3.26c.64,0,1.21.8,1.27,1.83s-.42,1.93-1.08,2-1.21-.79-1.27-1.84S381.42,862.84,382.07,862.8Zm-3.65-1.35c.8,0,1.5,1,1.57,2.26s-.52,2.37-1.32,2.4-1.5-1-1.56-2.25S377.62,861.49,378.42,861.45Zm-6.61,2.44c-.3-1.84.38-3.49,1.53-3.67s2.29,1.17,2.59,3-.39,3.49-1.53,3.67S372.11,865.73,371.81,863.89Zm12.54,19.19a12.17,12.17,0,0,0-1,4.8c-.05,1.78-.59,5.77-5.62,4.74a3.88,3.88,0,0,1-3.19-2.82c-1-3.41,2.4-6.86,3-7.64a5.07,5.07,0,0,0-.58-6.38c-1.44-1.47-4.44-3.07-3.94-5.94.6-3.43,9.38-3.73,13.08.53C388.57,873.26,386,879.26,384.35,883.08Z"/><path class="cls-3" d="M384.35,883.08a12.17,12.17,0,0,0-1,4.8c-.05,1.78-.59,5.77-5.62,4.74a3.88,3.88,0,0,1-3.19-2.82c-1-3.41,2.4-6.86,3-7.64a5.07,5.07,0,0,0-.58-6.38c-1.44-1.47-4.44-3.07-3.94-5.94.6-3.43,9.38-3.73,13.08.53C388.57,873.26,386,879.26,384.35,883.08Z"/><path class="cls-3" d="M367.54,864.21a6.67,6.67,0,0,0-.35-3.55,3.79,3.79,0,0,0-2.84-2.42,3.91,3.91,0,0,0-3.72,1.78,2.91,2.91,0,0,0-1.57-.57h-.16a3.27,3.27,0,0,0-2.67,1.55,2.81,2.81,0,0,0-.81-.19h-.15a3.15,3.15,0,0,0-2.78,1.94,2.91,2.91,0,0,0-2.41,2.34,2.68,2.68,0,0,0-.83.64,3.42,3.42,0,0,0-.75,2.43,3.52,3.52,0,0,0,.65,1.8c-2.33,4,.37,10.15,2,13.95A10.28,10.28,0,0,1,352,888c.12,4.27,2.4,6.83,6.08,6.83a9.75,9.75,0,0,0,2-.21,5.77,5.77,0,0,0,4.7-4.2c1.19-4-1.85-7.69-3-9.07l-.26-.32a3.09,3.09,0,0,1,.39-3.8c.28-.29.63-.58,1-.89,1.62-1.37,4.07-3.44,3.48-6.79a4.19,4.19,0,0,0-.68-1.63A6.26,6.26,0,0,0,367.54,864.21ZM359,861.45c.8,0,1.39,1.12,1.31,2.41s-.77,2.3-1.56,2.26-1.39-1.13-1.32-2.41S358.15,861.4,359,861.45Zm-3.64,1.35c.64,0,1.13.92,1.06,2s-.62,1.87-1.27,1.83-1.13-.9-1.07-2S354.66,862.77,355.31,862.8Zm-2.57,1.92c.48,0,.91.57,1,1.34s-.28,1.42-.77,1.46-.9-.57-1-1.34S352.26,864.75,352.74,864.72Zm-1.62,2.11c.38,0,.73.47.77,1.08s-.24,1.14-.62,1.17-.72-.46-.76-1.08S350.74,866.86,351.12,866.83Zm9.31,9a5.06,5.06,0,0,0-.58,6.37c.57.78,4,4.23,3,7.63a3.8,3.8,0,0,1-3.18,2.82c-5,1-5.57-3-5.62-4.73a12.57,12.57,0,0,0-1-4.8c-1.68-3.83-4.23-9.81-1.73-12.71,3.69-4.26,12.48-4,13.07-.52C364.86,872.7,361.86,874.31,360.43,875.79Zm5.13-11.9c-.3,1.84-1.46,3.19-2.6,3s-1.81-1.82-1.52-3.67,1.46-3.18,2.6-3S365.85,862.05,365.56,863.89Z"/><path class="cls-3" d="M359.85,882.16c.57.78,4,4.23,3,7.63a3.8,3.8,0,0,1-3.18,2.82c-5,1-5.57-3-5.62-4.73a12.57,12.57,0,0,0-1-4.8c-1.68-3.83-4.23-9.81-1.73-12.71,3.69-4.26,12.48-4,13.07-.52.5,2.85-2.5,4.46-3.93,5.94A5.06,5.06,0,0,0,359.85,882.16Z"/><line class="cls-7" x1="334.9" y1="889.1" x2="345.08" y2="889.1"/><polygon class="cls-3" points="344.2 892.09 349.38 889.1 344.2 886.11 344.2 892.09"/><text class="cls-8" transform="translate(433.61 394.23)">Stance<tspan x="-3.17" y="16.28">Change</tspan></text><text class="cls-9" transform="translate(421.5 432.44) scale(1.11 1)">Inside&gt;F<tspan class="cls-10" x="44.68" y="0">r</tspan><tspan x="49.03" y="0">ontside</tspan><tspan x="4.54" y="12.97">Inside&gt;Outside</tspan><tspan x="0.85" y="25.94">Inside&gt;Backside</tspan><tspan x="-3.59" y="38.91">Outside&gt;Backside</tspan><tspan x="4.54" y="51.88">Outside&gt;Inside</tspan><tspan x="-4.44" y="64.85">Outside&gt;F</tspan><tspan class="cls-10" x="49.12" y="64.85">r</tspan><tspan x="53.47" y="64.85">ontside</tspan><tspan x="-4.44" y="77.82">F</tspan><tspan class="cls-10" x="1.99" y="77.82">r</tspan><tspan x="6.34" y="77.82">ontside&gt;Outside</tspan><tspan x="-8.13" y="90.79">F</tspan><tspan class="cls-10" x="-1.7" y="90.79">r</tspan><tspan x="2.65" y="90.79">ontside&gt;Backside</tspan><tspan x="0" y="103.76">F</tspan><tspan class="cls-10" x="6.43" y="103.76">r</tspan><tspan x="10.78" y="103.76">ontside&gt;Inside</tspan><tspan x="0.85" y="116.73">Backside&gt;Inside</tspan><tspan x="-8.13" y="129.7">Backside&gt;F</tspan><tspan class="cls-11" x="52.81" y="129.7">r</tspan><tspan class="cls-12" x="57.16" y="129.7">ontside</tspan><tspan x="-3.59" y="142.67">Backside&gt;Outside</tspan></text><rect class="cls-1" x="409.21" y="620.99" width="122.24" height="155.18" rx="12"/><rect class="cls-2" x="409.21" y="620.99" width="122.24" height="155.18" rx="12"/><rect class="cls-1" x="409.81" y="798.18" width="122.03" height="156.66" rx="12"/><rect class="cls-2" x="409.81" y="798.18" width="122.03" height="156.66" rx="12"/><text class="cls-9" transform="translate(427.58 649.75)">Hyper&gt;Backside<tspan x="8.13" y="12.97">Hyper&gt;Inside</tspan><tspan x="-0.85" y="25.94">Hyper&gt;F</tspan><tspan class="cls-13" x="42.69" y="25.94">r</tspan><tspan class="cls-14" x="47.04" y="25.94">ontside</tspan><tspan x="3.69" y="38.91">Hyper&gt;Outside</tspan><tspan x="2.36" y="51.88">Semi&gt;Backside</tspan><tspan x="10.49" y="64.85">Semi&gt;Inside</tspan><tspan x="1.5" y="77.82">Semi&gt;F</tspan><tspan class="cls-13" x="40.34" y="77.82">r</tspan><tspan class="cls-14" x="44.68" y="77.82">ontside</tspan><tspan x="6.05" y="90.79">Semi&gt;Outside</tspan></text><text class="cls-9" transform="translate(418.15 834.16)">Complete&gt;Backside<tspan x="8.13" y="12.97">Complete&gt;Inside</tspan><tspan x="-0.85" y="25.94">Complete&gt;F</tspan><tspan class="cls-15" x="62.54" y="25.94">r</tspan><tspan x="66.89" y="25.94">ontside</tspan><tspan x="3.69" y="38.91">Complete&gt;Outside</tspan><tspan x="11.06" y="51.88">Mega&gt;Backside</tspan><tspan x="19.19" y="64.85">Mega&gt;Inside</tspan><tspan x="10.21" y="77.82">Mega&gt;F</tspan><tspan class="cls-13" x="51.49" y="77.82">r</tspan><tspan class="cls-14" x="55.83" y="77.82">ontside</tspan><tspan x="14.75" y="90.79">Mega&gt;Outside</tspan></text><path class="cls-16" d="M505.44,391.39a10.76,10.76,0,1,1-2.4,6.77"/><polygon class="cls-17" points="510.96 392.1 503.04 398.16 501.75 388.28 510.96 392.1"/></svg>