<svg id="Layer_1" data-name="Layer 1" xmlns="http://www.w3.org/2000/svg" viewBox="0 0 2159 432"><defs><style>.cls-1{stroke:#231f20;stroke-miterlimit:10;stroke-width:4.5px;}.cls-2{fill-rule:evenodd;}</style></defs><title>torque new horizontal</title>

<path class="cls-1" d="M590.35,333.49h-14V127.2H519.64V114.1H647.09v13.1H590.35Z"/><path class="cls-1" d="M956.68,223.8c0,61.68-52.08,112.6-113.77,112.6S729.14,285.48,729.14,223.8s51.79-112.61,113.77-112.61C904.6,111.19,956.68,162.11,956.68,223.8Zm-213.57,0c0,54.12,45.1,99.51,99.8,99.51,54.41,0,99.8-45.68,99.8-99.51,0-54.12-45.39-99.51-99.8-99.51C788.21,124.29,743.11,169.68,743.11,223.8Z"/><path class="cls-1" d="M1169.09,333.49h-16l-71.57-103.87h-7V333.49h-14V114.1h27.35c17.75,0,35.2.29,50,11.06,15.72,11.06,22.12,28.51,22.12,47.14,0,38.11-26.48,57.9-62.85,57.32Zm-76.82-117c13.68,0,27.35-.58,38.41-10.18,10.47-8.44,15.42-21.53,15.42-34.63,0-16.29-7.56-32.58-23.28-39.57-11.64-5.53-26.48-4.94-39.28-4.94h-9v89.32Z"/><path class="cls-1" d="M1444.93,310.22c-19.79,16.29-46.27,26.18-71.87,26.18-62.56,0-113.77-50-113.77-112.6,0-62.27,51.79-112.61,114.06-112.61,61.39,0,113.48,50.34,113.48,111.73,0,30.85-11.64,56.16-32,79.44l28.8,31.13h-18.91Zm-.3-18.34c17.46-18.91,28.23-40.15,28.23-66.34,0-55-43.36-101.25-99.51-101.25-54.41,0-100.1,45.39-100.1,99.51,0,55,45.4,99.51,100.68,99.51,22.11,0,43.94-9.31,61.1-23l-54.7-56.74h19.79Z"/><path class="cls-1" d="M1723.68,114.1h14V250.86c0,22.4,0,41.61-14.84,59.94-14.84,16.87-37.53,25.6-59.65,25.6s-44.81-8.73-59.65-25.6c-14.83-18.33-14.83-37.54-14.83-59.94V114.1h14V246.78c0,19.79,0,40.74,11.35,55.29,10.77,14,32.3,21.24,49.17,21.24s38.41-7.27,49.18-21.24c11.35-14.55,11.35-35.5,11.35-55.29Z"/><path class="cls-1" d="M1866.54,127.2v79.72H1955V220h-88.46V320.4h90.78v13.09H1852.57V114.1h104.75v13.1Z"/><path class="cls-2" d="M397.69,58h5.13c15.09,3.11,20.7,19.65,23.88,34.94,2.89,13.89,4.53,29.84,5.33,45,1.7,32,4.41,64.08,4.94,95.74v29.81c-.47,22-1.24,43.68-6.52,59.41-5.6,16.7-17.72,25.38-34.94,30.8-32.28,10.15-71.72,17-112.12,19.34-41.71,2.45-86.81.35-121.6-7.7-9.44-2.18-18.27-3.77-26.45-6.51-9-3-13-7.51-16-16.78-5.29-16.34-5.67-37.24-6.71-59V257.56c1.65-42.36,6.62-78.57,17.18-111.92,3.35-10.62,7.63-22,15-28,7.22-5.91,24.08-6,35.33-7.7,38.2-5.63,75.46-10.19,115.88-13.23,13.88-1,26.92-2,40.66-2.37,14.39-.38,23.23,5.58,26.45,16.59,4.15,14.16-4.39,23.11-14.41,26.65-10.78,3.8-26,3.49-39.28,2.56-26.21-1.84-57.84-1.82-81.92,1.38a187.1,187.1,0,0,0-34.94,8.1c-5.44,1.82-10.84,3.69-14.21,7.3s-5.2,9.16-6.72,15c-3,11.63-4.38,24.18-6.12,36.92-3.51,25.78-4.68,52.38-3.75,82.31.42,13.16,2,26.95,10.66,32.38,8.94,5.57,23,6.52,35.54,7.5a571.3,571.3,0,0,0,121.79-3.95c13.18-1.92,25.44-4.23,35.34-7.7,12-4.21,16.45-10.46,20.33-22.7,6.73-21.26,7.31-50.43,6.31-79.36-1-28.18-1.9-55.18-4.54-81.52-1.25-12.54-2.71-25.48-4.34-38.69-.71-5.76-2.83-12.14-3.75-17.77C376.76,64.81,386.17,59.92,397.69,58Z"/>
</svg>